<svg xmlns="http://www.w3.org/2000/svg" viewBox="0 0 900 675" role="img" aria-label="kosher beef with vegetables and grains">
  <defs>
    <radialGradient id="plate-glow" cx="50%" cy="46%" r="62%">
      <stop offset="0" stop-color="#fffdf4"/>
      <stop offset="1" stop-color="#fff7e9"/>
    </radialGradient>
    <linearGradient id="table" x1="0" y1="0" x2="1" y2="1">
      <stop offset="0" stop-color="#eee2d2"/>
      <stop offset="1" stop-color="#c7a987"/>
    </linearGradient>
    <filter id="soft-shadow" x="-25%" y="-25%" width="150%" height="150%">
      <feDropShadow dx="0" dy="14" stdDeviation="15" flood-color="#332821" flood-opacity=".28"/>
    </filter>
    <filter id="grain">
      <feTurbulence type="fractalNoise" baseFrequency=".85" numOctaves="2" seed="5917" result="noise"/>
      <feColorMatrix type="saturate" values=".12"/>
      <feComponentTransfer>
        <feFuncA type="table" tableValues="0 .12"/>
      </feComponentTransfer>
      <feBlend mode="multiply" in2="SourceGraphic"/>
    </filter>
  </defs>
  <rect width="900" height="675" fill="url(#table)"/>
  <rect width="900" height="675" filter="url(#grain)" opacity=".34"/>
  <ellipse cx="450" cy="365" rx="332" ry="222" fill="#5d4b3c" opacity=".12"/>
  <ellipse cx="450" cy="350" rx="318" ry="214" fill="url(#plate-glow)"/>
  <ellipse cx="450" cy="350" rx="260" ry="164" fill="#f6ead4"/>
  <g><circle cx="425" cy="462" r="6" fill="#f4e6bd" opacity=".82"/><circle cx="466" cy="306" r="7" fill="#dbc391" opacity=".82"/><circle cx="507" cy="335" r="8" fill="#dbc391" opacity=".82"/><circle cx="548" cy="364" r="9" fill="#f4e6bd" opacity=".82"/><circle cx="589" cy="393" r="10" fill="#dbc391" opacity=".82"/><circle cx="630" cy="422" r="4" fill="#dbc391" opacity=".82"/><circle cx="261" cy="451" r="5" fill="#f4e6bd" opacity=".82"/><circle cx="302" cy="295" r="6" fill="#dbc391" opacity=".82"/><circle cx="343" cy="324" r="7" fill="#dbc391" opacity=".82"/><circle cx="384" cy="353" r="8" fill="#f4e6bd" opacity=".82"/><circle cx="425" cy="382" r="9" fill="#dbc391" opacity=".82"/><circle cx="466" cy="411" r="10" fill="#dbc391" opacity=".82"/><circle cx="507" cy="440" r="4" fill="#f4e6bd" opacity=".82"/><circle cx="548" cy="284" r="5" fill="#dbc391" opacity=".82"/><circle cx="589" cy="313" r="6" fill="#dbc391" opacity=".82"/><circle cx="630" cy="342" r="7" fill="#f4e6bd" opacity=".82"/><circle cx="261" cy="371" r="8" fill="#dbc391" opacity=".82"/><circle cx="302" cy="400" r="9" fill="#dbc391" opacity=".82"/><circle cx="343" cy="429" r="10" fill="#f4e6bd" opacity=".82"/><circle cx="384" cy="458" r="4" fill="#dbc391" opacity=".82"/><circle cx="425" cy="302" r="5" fill="#dbc391" opacity=".82"/><circle cx="466" cy="331" r="6" fill="#f4e6bd" opacity=".82"/><circle cx="507" cy="360" r="7" fill="#dbc391" opacity=".82"/><circle cx="548" cy="389" r="8" fill="#dbc391" opacity=".82"/><circle cx="589" cy="418" r="9" fill="#f4e6bd" opacity=".82"/><circle cx="630" cy="447" r="10" fill="#dbc391" opacity=".82"/><circle cx="261" cy="291" r="4" fill="#dbc391" opacity=".82"/><circle cx="302" cy="320" r="5" fill="#f4e6bd" opacity=".82"/><circle cx="343" cy="349" r="6" fill="#dbc391" opacity=".82"/><circle cx="384" cy="378" r="7" fill="#dbc391" opacity=".82"/><circle cx="425" cy="407" r="8" fill="#f4e6bd" opacity=".82"/><circle cx="466" cy="436" r="9" fill="#dbc391" opacity=".82"/><circle cx="507" cy="280" r="10" fill="#dbc391" opacity=".82"/><circle cx="548" cy="309" r="4" fill="#f4e6bd" opacity=".82"/><circle cx="589" cy="338" r="5" fill="#dbc391" opacity=".82"/><circle cx="630" cy="367" r="6" fill="#dbc391" opacity=".82"/><circle cx="261" cy="396" r="7" fill="#f4e6bd" opacity=".82"/><circle cx="302" cy="425" r="8" fill="#dbc391" opacity=".82"/><circle cx="343" cy="454" r="9" fill="#dbc391" opacity=".82"/><circle cx="384" cy="298" r="10" fill="#f4e6bd" opacity=".82"/><circle cx="425" cy="327" r="4" fill="#dbc391" opacity=".82"/><circle cx="466" cy="356" r="5" fill="#dbc391" opacity=".82"/><circle cx="507" cy="385" r="6" fill="#f4e6bd" opacity=".82"/><circle cx="548" cy="414" r="7" fill="#dbc391" opacity=".82"/></g>
  
  <g filter="url(#soft-shadow)" fill="#8a4f3d">
    <ellipse cx="330" cy="330" rx="86" ry="54" transform="rotate(-18 330 330)"/>
    <ellipse cx="465" cy="316" rx="95" ry="58" transform="rotate(10 465 316)"/>
    <ellipse cx="560" cy="398" rx="86" ry="50" transform="rotate(-10 560 398)"/>
    <path d="M280 360c78 35 196 38 320 5" fill="none" stroke="#5d372e" stroke-width="11" stroke-linecap="round" opacity=".45"/>
  </g>
  <g><rect x="637" y="427" width="58" height="14" rx="7" fill="#dc8543" transform="rotate(-26 637 427)" opacity=".82"/><rect x="338" y="300" width="58" height="14" rx="7" fill="#dc8543" transform="rotate(-11 338 300)" opacity=".82"/><rect x="409" y="353" width="58" height="14" rx="7" fill="#dc8543" transform="rotate(4 409 353)" opacity=".82"/><rect x="480" y="406" width="58" height="14" rx="7" fill="#dc8543" transform="rotate(19 480 406)" opacity=".82"/><rect x="551" y="279" width="58" height="14" rx="7" fill="#dc8543" transform="rotate(34 551 279)" opacity=".82"/><rect x="622" y="332" width="58" height="14" rx="7" fill="#dc8543" transform="rotate(-26 622 332)" opacity=".82"/><rect x="323" y="385" width="58" height="14" rx="7" fill="#dc8543" transform="rotate(-11 323 385)" opacity=".82"/><ellipse cx="602" cy="422" rx="31" ry="11" fill="#7aa36d" transform="rotate(-24 602 422)" opacity=".75"/><ellipse cx="313" cy="299" rx="31" ry="11" fill="#7aa36d" transform="rotate(-6 313 299)" opacity=".75"/><ellipse cx="374" cy="346" rx="31" ry="11" fill="#7aa36d" transform="rotate(12 374 346)" opacity=".75"/><ellipse cx="435" cy="393" rx="31" ry="11" fill="#7aa36d" transform="rotate(30 435 393)" opacity=".75"/><ellipse cx="496" cy="440" rx="31" ry="11" fill="#7aa36d" transform="rotate(-24 496 440)" opacity=".75"/><ellipse cx="557" cy="317" rx="31" ry="11" fill="#7aa36d" transform="rotate(-6 557 317)" opacity=".75"/><ellipse cx="492" cy="377" rx="20" ry="8" fill="#52714b" transform="rotate(-33 492 377)" opacity=".9"/><ellipse cx="559" cy="418" rx="25" ry="8" fill="#52714b" transform="rotate(-10 559 418)" opacity=".9"/><ellipse cx="626" cy="459" rx="30" ry="8" fill="#52714b" transform="rotate(13 626 459)" opacity=".9"/><ellipse cx="288" cy="250" rx="20" ry="8" fill="#52714b" transform="rotate(-32 288 250)" opacity=".9"/><ellipse cx="355" cy="291" rx="25" ry="8" fill="#52714b" transform="rotate(-9 355 291)" opacity=".9"/><ellipse cx="422" cy="332" rx="30" ry="8" fill="#52714b" transform="rotate(14 422 332)" opacity=".9"/><ellipse cx="489" cy="373" rx="20" ry="8" fill="#52714b" transform="rotate(-31 489 373)" opacity=".9"/><ellipse cx="556" cy="414" rx="25" ry="8" fill="#52714b" transform="rotate(-8 556 414)" opacity=".9"/><ellipse cx="623" cy="455" rx="30" ry="8" fill="#52714b" transform="rotate(15 623 455)" opacity=".9"/><ellipse cx="285" cy="246" rx="20" ry="8" fill="#52714b" transform="rotate(-30 285 246)" opacity=".9"/><ellipse cx="352" cy="287" rx="25" ry="8" fill="#52714b" transform="rotate(-7 352 287)" opacity=".9"/><ellipse cx="419" cy="328" rx="30" ry="8" fill="#52714b" transform="rotate(16 419 328)" opacity=".9"/><ellipse cx="486" cy="369" rx="20" ry="8" fill="#52714b" transform="rotate(-29 486 369)" opacity=".9"/></g>
  <g opacity=".95">
    <circle cx="533" cy="272" r="22" fill="#e2a94c"/>
    <path d="M533 251a22 22 0 0 1 0 44" fill="#fff3b0" opacity=".72"/>
  </g>
</svg>