<svg xmlns="http://www.w3.org/2000/svg" viewBox="0 0 900 675" role="img" aria-label="kosher chicken breast slices with vegetables">
  <defs>
    <radialGradient id="plate-glow" cx="50%" cy="46%" r="62%">
      <stop offset="0" stop-color="#fffdf4"/>
      <stop offset="1" stop-color="#fff7e7"/>
    </radialGradient>
    <linearGradient id="table" x1="0" y1="0" x2="1" y2="1">
      <stop offset="0" stop-color="#f4ecdc"/>
      <stop offset="1" stop-color="#d2b894"/>
    </linearGradient>
    <filter id="soft-shadow" x="-25%" y="-25%" width="150%" height="150%">
      <feDropShadow dx="0" dy="14" stdDeviation="15" flood-color="#342e25" flood-opacity=".28"/>
    </filter>
    <filter id="grain">
      <feTurbulence type="fractalNoise" baseFrequency=".85" numOctaves="2" seed="4947" result="noise"/>
      <feColorMatrix type="saturate" values=".12"/>
      <feComponentTransfer>
        <feFuncA type="table" tableValues="0 .12"/>
      </feComponentTransfer>
      <feBlend mode="multiply" in2="SourceGraphic"/>
    </filter>
  </defs>
  <rect width="900" height="675" fill="url(#table)"/>
  <rect width="900" height="675" filter="url(#grain)" opacity=".34"/>
  <ellipse cx="450" cy="365" rx="332" ry="222" fill="#5d4b3c" opacity=".12"/>
  <ellipse cx="450" cy="350" rx="318" ry="214" fill="url(#plate-glow)"/>
  <ellipse cx="450" cy="350" rx="260" ry="164" fill="#f6ead4"/>
  <g><circle cx="275" cy="417" r="9" fill="#f4e6bd" opacity=".82"/><circle cx="316" cy="446" r="10" fill="#e7d6a7" opacity=".82"/><circle cx="357" cy="290" r="4" fill="#e7d6a7" opacity=".82"/><circle cx="398" cy="319" r="5" fill="#f4e6bd" opacity=".82"/><circle cx="439" cy="348" r="6" fill="#e7d6a7" opacity=".82"/><circle cx="480" cy="377" r="7" fill="#e7d6a7" opacity=".82"/><circle cx="521" cy="406" r="8" fill="#f4e6bd" opacity=".82"/><circle cx="562" cy="435" r="9" fill="#e7d6a7" opacity=".82"/><circle cx="603" cy="464" r="10" fill="#e7d6a7" opacity=".82"/><circle cx="644" cy="308" r="4" fill="#f4e6bd" opacity=".82"/><circle cx="275" cy="337" r="5" fill="#e7d6a7" opacity=".82"/><circle cx="316" cy="366" r="6" fill="#e7d6a7" opacity=".82"/><circle cx="357" cy="395" r="7" fill="#f4e6bd" opacity=".82"/><circle cx="398" cy="424" r="8" fill="#e7d6a7" opacity=".82"/><circle cx="439" cy="453" r="9" fill="#e7d6a7" opacity=".82"/><circle cx="480" cy="297" r="10" fill="#f4e6bd" opacity=".82"/><circle cx="521" cy="326" r="4" fill="#e7d6a7" opacity=".82"/><circle cx="562" cy="355" r="5" fill="#e7d6a7" opacity=".82"/><circle cx="603" cy="384" r="6" fill="#f4e6bd" opacity=".82"/><circle cx="644" cy="413" r="7" fill="#e7d6a7" opacity=".82"/><circle cx="275" cy="442" r="8" fill="#e7d6a7" opacity=".82"/><circle cx="316" cy="286" r="9" fill="#f4e6bd" opacity=".82"/><circle cx="357" cy="315" r="10" fill="#e7d6a7" opacity=".82"/><circle cx="398" cy="344" r="4" fill="#e7d6a7" opacity=".82"/><circle cx="439" cy="373" r="5" fill="#f4e6bd" opacity=".82"/><circle cx="480" cy="402" r="6" fill="#e7d6a7" opacity=".82"/><circle cx="521" cy="431" r="7" fill="#e7d6a7" opacity=".82"/><circle cx="562" cy="460" r="8" fill="#f4e6bd" opacity=".82"/><circle cx="603" cy="304" r="9" fill="#e7d6a7" opacity=".82"/><circle cx="644" cy="333" r="10" fill="#e7d6a7" opacity=".82"/><circle cx="275" cy="362" r="4" fill="#f4e6bd" opacity=".82"/><circle cx="316" cy="391" r="5" fill="#e7d6a7" opacity=".82"/><circle cx="357" cy="420" r="6" fill="#e7d6a7" opacity=".82"/><circle cx="398" cy="449" r="7" fill="#f4e6bd" opacity=".82"/><circle cx="439" cy="293" r="8" fill="#e7d6a7" opacity=".82"/><circle cx="480" cy="322" r="9" fill="#e7d6a7" opacity=".82"/><circle cx="521" cy="351" r="10" fill="#f4e6bd" opacity=".82"/><circle cx="562" cy="380" r="4" fill="#e7d6a7" opacity=".82"/><circle cx="603" cy="409" r="5" fill="#e7d6a7" opacity=".82"/><circle cx="644" cy="438" r="6" fill="#f4e6bd" opacity=".82"/><circle cx="275" cy="282" r="7" fill="#e7d6a7" opacity=".82"/><circle cx="316" cy="311" r="8" fill="#e7d6a7" opacity=".82"/><circle cx="357" cy="340" r="9" fill="#f4e6bd" opacity=".82"/><circle cx="398" cy="369" r="10" fill="#e7d6a7" opacity=".82"/></g>
  
  <g filter="url(#soft-shadow)" fill="#b46a3f">
    <ellipse cx="330" cy="330" rx="86" ry="54" transform="rotate(-18 330 330)"/>
    <ellipse cx="465" cy="316" rx="95" ry="58" transform="rotate(10 465 316)"/>
    <ellipse cx="560" cy="398" rx="86" ry="50" transform="rotate(-10 560 398)"/>
    <path d="M280 360c78 35 196 38 320 5" fill="none" stroke="#815035" stroke-width="11" stroke-linecap="round" opacity=".45"/>
  </g>
  <g><rect x="407" y="357" width="58" height="14" rx="7" fill="#dc8543" transform="rotate(-26 407 357)" opacity=".82"/><rect x="478" y="410" width="58" height="14" rx="7" fill="#dc8543" transform="rotate(-11 478 410)" opacity=".82"/><rect x="549" y="283" width="58" height="14" rx="7" fill="#dc8543" transform="rotate(4 549 283)" opacity=".82"/><rect x="620" y="336" width="58" height="14" rx="7" fill="#dc8543" transform="rotate(19 620 336)" opacity=".82"/><rect x="321" y="389" width="58" height="14" rx="7" fill="#dc8543" transform="rotate(34 321 389)" opacity=".82"/><rect x="392" y="442" width="58" height="14" rx="7" fill="#dc8543" transform="rotate(-26 392 442)" opacity=".82"/><rect x="463" y="315" width="58" height="14" rx="7" fill="#dc8543" transform="rotate(-11 463 315)" opacity=".82"/><ellipse cx="332" cy="302" rx="31" ry="11" fill="#7aa36d" transform="rotate(-24 332 302)" opacity=".75"/><ellipse cx="393" cy="349" rx="31" ry="11" fill="#7aa36d" transform="rotate(-6 393 349)" opacity=".75"/><ellipse cx="454" cy="396" rx="31" ry="11" fill="#7aa36d" transform="rotate(12 454 396)" opacity=".75"/><ellipse cx="515" cy="443" rx="31" ry="11" fill="#7aa36d" transform="rotate(30 515 443)" opacity=".75"/><ellipse cx="576" cy="320" rx="31" ry="11" fill="#7aa36d" transform="rotate(-24 576 320)" opacity=".75"/><ellipse cx="287" cy="367" rx="31" ry="11" fill="#7aa36d" transform="rotate(-6 287 367)" opacity=".75"/><ellipse cx="332" cy="407" rx="20" ry="8" fill="#557753" transform="rotate(17 332 407)" opacity=".9"/><ellipse cx="399" cy="448" rx="25" ry="8" fill="#557753" transform="rotate(-28 399 448)" opacity=".9"/><ellipse cx="466" cy="239" rx="30" ry="8" fill="#557753" transform="rotate(-5 466 239)" opacity=".9"/><ellipse cx="533" cy="280" rx="20" ry="8" fill="#557753" transform="rotate(18 533 280)" opacity=".9"/><ellipse cx="600" cy="321" rx="25" ry="8" fill="#557753" transform="rotate(-27 600 321)" opacity=".9"/><ellipse cx="262" cy="362" rx="30" ry="8" fill="#557753" transform="rotate(-4 262 362)" opacity=".9"/><ellipse cx="329" cy="403" rx="20" ry="8" fill="#557753" transform="rotate(19 329 403)" opacity=".9"/><ellipse cx="396" cy="444" rx="25" ry="8" fill="#557753" transform="rotate(-26 396 444)" opacity=".9"/><ellipse cx="463" cy="235" rx="30" ry="8" fill="#557753" transform="rotate(-3 463 235)" opacity=".9"/><ellipse cx="530" cy="276" rx="20" ry="8" fill="#557753" transform="rotate(20 530 276)" opacity=".9"/><ellipse cx="597" cy="317" rx="25" ry="8" fill="#557753" transform="rotate(-25 597 317)" opacity=".9"/><ellipse cx="259" cy="358" rx="30" ry="8" fill="#557753" transform="rotate(-2 259 358)" opacity=".9"/><ellipse cx="326" cy="399" rx="20" ry="8" fill="#557753" transform="rotate(21 326 399)" opacity=".9"/></g>
  <g opacity=".95">
    <circle cx="543" cy="262" r="22" fill="#e5b14d"/>
    <path d="M543 241a22 22 0 0 1 0 44" fill="#fff3b0" opacity=".72"/>
  </g>
</svg>