<svg xmlns="http://www.w3.org/2000/svg" viewBox="0 0 900 675" role="img" aria-label="kosher chicken breast slices with vegetables">
  <defs>
    <radialGradient id="plate-glow" cx="50%" cy="46%" r="62%">
      <stop offset="0" stop-color="#fffdf4"/>
      <stop offset="1" stop-color="#fff7e7"/>
    </radialGradient>
    <linearGradient id="table" x1="0" y1="0" x2="1" y2="1">
      <stop offset="0" stop-color="#f4ecdc"/>
      <stop offset="1" stop-color="#d2b894"/>
    </linearGradient>
    <filter id="soft-shadow" x="-25%" y="-25%" width="150%" height="150%">
      <feDropShadow dx="0" dy="14" stdDeviation="15" flood-color="#342e25" flood-opacity=".28"/>
    </filter>
    <filter id="grain">
      <feTurbulence type="fractalNoise" baseFrequency=".85" numOctaves="2" seed="5335" result="noise"/>
      <feColorMatrix type="saturate" values=".12"/>
      <feComponentTransfer>
        <feFuncA type="table" tableValues="0 .12"/>
      </feComponentTransfer>
      <feBlend mode="multiply" in2="SourceGraphic"/>
    </filter>
  </defs>
  <rect width="900" height="675" fill="url(#table)"/>
  <rect width="900" height="675" filter="url(#grain)" opacity=".34"/>
  <ellipse cx="450" cy="365" rx="332" ry="222" fill="#5d4b3c" opacity=".12"/>
  <ellipse cx="450" cy="350" rx="318" ry="214" fill="url(#plate-glow)"/>
  <ellipse cx="450" cy="350" rx="260" ry="164" fill="#f6ead4"/>
  <g><circle cx="253" cy="435" r="5" fill="#f4e6bd" opacity=".82"/><circle cx="294" cy="464" r="6" fill="#e7d6a7" opacity=".82"/><circle cx="335" cy="308" r="7" fill="#e7d6a7" opacity=".82"/><circle cx="376" cy="337" r="8" fill="#f4e6bd" opacity=".82"/><circle cx="417" cy="366" r="9" fill="#e7d6a7" opacity=".82"/><circle cx="458" cy="395" r="10" fill="#e7d6a7" opacity=".82"/><circle cx="499" cy="424" r="4" fill="#f4e6bd" opacity=".82"/><circle cx="540" cy="453" r="5" fill="#e7d6a7" opacity=".82"/><circle cx="581" cy="297" r="6" fill="#e7d6a7" opacity=".82"/><circle cx="622" cy="326" r="7" fill="#f4e6bd" opacity=".82"/><circle cx="253" cy="355" r="8" fill="#e7d6a7" opacity=".82"/><circle cx="294" cy="384" r="9" fill="#e7d6a7" opacity=".82"/><circle cx="335" cy="413" r="10" fill="#f4e6bd" opacity=".82"/><circle cx="376" cy="442" r="4" fill="#e7d6a7" opacity=".82"/><circle cx="417" cy="286" r="5" fill="#e7d6a7" opacity=".82"/><circle cx="458" cy="315" r="6" fill="#f4e6bd" opacity=".82"/><circle cx="499" cy="344" r="7" fill="#e7d6a7" opacity=".82"/><circle cx="540" cy="373" r="8" fill="#e7d6a7" opacity=".82"/><circle cx="581" cy="402" r="9" fill="#f4e6bd" opacity=".82"/><circle cx="622" cy="431" r="10" fill="#e7d6a7" opacity=".82"/><circle cx="253" cy="460" r="4" fill="#e7d6a7" opacity=".82"/><circle cx="294" cy="304" r="5" fill="#f4e6bd" opacity=".82"/><circle cx="335" cy="333" r="6" fill="#e7d6a7" opacity=".82"/><circle cx="376" cy="362" r="7" fill="#e7d6a7" opacity=".82"/><circle cx="417" cy="391" r="8" fill="#f4e6bd" opacity=".82"/><circle cx="458" cy="420" r="9" fill="#e7d6a7" opacity=".82"/><circle cx="499" cy="449" r="10" fill="#e7d6a7" opacity=".82"/><circle cx="540" cy="293" r="4" fill="#f4e6bd" opacity=".82"/><circle cx="581" cy="322" r="5" fill="#e7d6a7" opacity=".82"/><circle cx="622" cy="351" r="6" fill="#e7d6a7" opacity=".82"/><circle cx="253" cy="380" r="7" fill="#f4e6bd" opacity=".82"/><circle cx="294" cy="409" r="8" fill="#e7d6a7" opacity=".82"/><circle cx="335" cy="438" r="9" fill="#e7d6a7" opacity=".82"/><circle cx="376" cy="282" r="10" fill="#f4e6bd" opacity=".82"/><circle cx="417" cy="311" r="4" fill="#e7d6a7" opacity=".82"/><circle cx="458" cy="340" r="5" fill="#e7d6a7" opacity=".82"/><circle cx="499" cy="369" r="6" fill="#f4e6bd" opacity=".82"/><circle cx="540" cy="398" r="7" fill="#e7d6a7" opacity=".82"/><circle cx="581" cy="427" r="8" fill="#e7d6a7" opacity=".82"/><circle cx="622" cy="456" r="9" fill="#f4e6bd" opacity=".82"/><circle cx="253" cy="300" r="10" fill="#e7d6a7" opacity=".82"/><circle cx="294" cy="329" r="4" fill="#e7d6a7" opacity=".82"/><circle cx="335" cy="358" r="5" fill="#f4e6bd" opacity=".82"/><circle cx="376" cy="387" r="6" fill="#e7d6a7" opacity=".82"/></g>
  
  <g filter="url(#soft-shadow)" fill="#b46a3f">
    <ellipse cx="330" cy="330" rx="86" ry="54" transform="rotate(-18 330 330)"/>
    <ellipse cx="465" cy="316" rx="95" ry="58" transform="rotate(10 465 316)"/>
    <ellipse cx="560" cy="398" rx="86" ry="50" transform="rotate(-10 560 398)"/>
    <path d="M280 360c78 35 196 38 320 5" fill="none" stroke="#815035" stroke-width="11" stroke-linecap="round" opacity=".45"/>
  </g>
  <g><rect x="425" y="385" width="58" height="14" rx="7" fill="#dc8543" transform="rotate(-26 425 385)" opacity=".82"/><rect x="496" y="438" width="58" height="14" rx="7" fill="#dc8543" transform="rotate(-11 496 438)" opacity=".82"/><rect x="567" y="311" width="58" height="14" rx="7" fill="#dc8543" transform="rotate(4 567 311)" opacity=".82"/><rect x="638" y="364" width="58" height="14" rx="7" fill="#dc8543" transform="rotate(19 638 364)" opacity=".82"/><rect x="339" y="417" width="58" height="14" rx="7" fill="#dc8543" transform="rotate(34 339 417)" opacity=".82"/><rect x="410" y="290" width="58" height="14" rx="7" fill="#dc8543" transform="rotate(-26 410 290)" opacity=".82"/><rect x="481" y="343" width="58" height="14" rx="7" fill="#dc8543" transform="rotate(-11 481 343)" opacity=".82"/><ellipse cx="370" cy="350" rx="31" ry="11" fill="#7aa36d" transform="rotate(-24 370 350)" opacity=".75"/><ellipse cx="431" cy="397" rx="31" ry="11" fill="#7aa36d" transform="rotate(-6 431 397)" opacity=".75"/><ellipse cx="492" cy="444" rx="31" ry="11" fill="#7aa36d" transform="rotate(12 492 444)" opacity=".75"/><ellipse cx="553" cy="321" rx="31" ry="11" fill="#7aa36d" transform="rotate(30 553 321)" opacity=".75"/><ellipse cx="614" cy="368" rx="31" ry="11" fill="#7aa36d" transform="rotate(-24 614 368)" opacity=".75"/><ellipse cx="325" cy="415" rx="31" ry="11" fill="#7aa36d" transform="rotate(-6 325 415)" opacity=".75"/><ellipse cx="315" cy="295" rx="20" ry="8" fill="#557753" transform="rotate(-3 315 295)" opacity=".9"/><ellipse cx="382" cy="336" rx="25" ry="8" fill="#557753" transform="rotate(20 382 336)" opacity=".9"/><ellipse cx="449" cy="377" rx="30" ry="8" fill="#557753" transform="rotate(-25 449 377)" opacity=".9"/><ellipse cx="516" cy="418" rx="20" ry="8" fill="#557753" transform="rotate(-2 516 418)" opacity=".9"/><ellipse cx="583" cy="459" rx="25" ry="8" fill="#557753" transform="rotate(21 583 459)" opacity=".9"/><ellipse cx="245" cy="250" rx="30" ry="8" fill="#557753" transform="rotate(-24 245 250)" opacity=".9"/><ellipse cx="312" cy="291" rx="20" ry="8" fill="#557753" transform="rotate(-1 312 291)" opacity=".9"/><ellipse cx="379" cy="332" rx="25" ry="8" fill="#557753" transform="rotate(22 379 332)" opacity=".9"/><ellipse cx="446" cy="373" rx="30" ry="8" fill="#557753" transform="rotate(-23 446 373)" opacity=".9"/><ellipse cx="513" cy="414" rx="20" ry="8" fill="#557753" transform="rotate(0 513 414)" opacity=".9"/><ellipse cx="580" cy="455" rx="25" ry="8" fill="#557753" transform="rotate(23 580 455)" opacity=".9"/><ellipse cx="647" cy="246" rx="30" ry="8" fill="#557753" transform="rotate(-22 647 246)" opacity=".9"/><ellipse cx="309" cy="287" rx="20" ry="8" fill="#557753" transform="rotate(1 309 287)" opacity=".9"/></g>
  <g opacity=".95">
    <circle cx="555" cy="250" r="22" fill="#e5b14d"/>
    <path d="M555 229a22 22 0 0 1 0 44" fill="#fff3b0" opacity=".72"/>
  </g>
</svg>