<svg xmlns="http://www.w3.org/2000/svg" viewBox="0 0 900 675" role="img" aria-label="kosher chicken breast slices with vegetables">
  <defs>
    <radialGradient id="plate-glow" cx="50%" cy="46%" r="62%">
      <stop offset="0" stop-color="#fffdf4"/>
      <stop offset="1" stop-color="#fff7e7"/>
    </radialGradient>
    <linearGradient id="table" x1="0" y1="0" x2="1" y2="1">
      <stop offset="0" stop-color="#f4ecdc"/>
      <stop offset="1" stop-color="#d2b894"/>
    </linearGradient>
    <filter id="soft-shadow" x="-25%" y="-25%" width="150%" height="150%">
      <feDropShadow dx="0" dy="14" stdDeviation="15" flood-color="#342e25" flood-opacity=".28"/>
    </filter>
    <filter id="grain">
      <feTurbulence type="fractalNoise" baseFrequency=".85" numOctaves="2" seed="5044" result="noise"/>
      <feColorMatrix type="saturate" values=".12"/>
      <feComponentTransfer>
        <feFuncA type="table" tableValues="0 .12"/>
      </feComponentTransfer>
      <feBlend mode="multiply" in2="SourceGraphic"/>
    </filter>
  </defs>
  <rect width="900" height="675" fill="url(#table)"/>
  <rect width="900" height="675" filter="url(#grain)" opacity=".34"/>
  <ellipse cx="450" cy="365" rx="332" ry="222" fill="#5d4b3c" opacity=".12"/>
  <ellipse cx="450" cy="350" rx="318" ry="214" fill="url(#plate-glow)"/>
  <ellipse cx="450" cy="350" rx="260" ry="164" fill="#f6ead4"/>
  <g><circle cx="372" cy="329" r="8" fill="#f4e6bd" opacity=".82"/><circle cx="413" cy="358" r="9" fill="#e7d6a7" opacity=".82"/><circle cx="454" cy="387" r="10" fill="#e7d6a7" opacity=".82"/><circle cx="495" cy="416" r="4" fill="#f4e6bd" opacity=".82"/><circle cx="536" cy="445" r="5" fill="#e7d6a7" opacity=".82"/><circle cx="577" cy="289" r="6" fill="#e7d6a7" opacity=".82"/><circle cx="618" cy="318" r="7" fill="#f4e6bd" opacity=".82"/><circle cx="249" cy="347" r="8" fill="#e7d6a7" opacity=".82"/><circle cx="290" cy="376" r="9" fill="#e7d6a7" opacity=".82"/><circle cx="331" cy="405" r="10" fill="#f4e6bd" opacity=".82"/><circle cx="372" cy="434" r="4" fill="#e7d6a7" opacity=".82"/><circle cx="413" cy="463" r="5" fill="#e7d6a7" opacity=".82"/><circle cx="454" cy="307" r="6" fill="#f4e6bd" opacity=".82"/><circle cx="495" cy="336" r="7" fill="#e7d6a7" opacity=".82"/><circle cx="536" cy="365" r="8" fill="#e7d6a7" opacity=".82"/><circle cx="577" cy="394" r="9" fill="#f4e6bd" opacity=".82"/><circle cx="618" cy="423" r="10" fill="#e7d6a7" opacity=".82"/><circle cx="249" cy="452" r="4" fill="#e7d6a7" opacity=".82"/><circle cx="290" cy="296" r="5" fill="#f4e6bd" opacity=".82"/><circle cx="331" cy="325" r="6" fill="#e7d6a7" opacity=".82"/><circle cx="372" cy="354" r="7" fill="#e7d6a7" opacity=".82"/><circle cx="413" cy="383" r="8" fill="#f4e6bd" opacity=".82"/><circle cx="454" cy="412" r="9" fill="#e7d6a7" opacity=".82"/><circle cx="495" cy="441" r="10" fill="#e7d6a7" opacity=".82"/><circle cx="536" cy="285" r="4" fill="#f4e6bd" opacity=".82"/><circle cx="577" cy="314" r="5" fill="#e7d6a7" opacity=".82"/><circle cx="618" cy="343" r="6" fill="#e7d6a7" opacity=".82"/><circle cx="249" cy="372" r="7" fill="#f4e6bd" opacity=".82"/><circle cx="290" cy="401" r="8" fill="#e7d6a7" opacity=".82"/><circle cx="331" cy="430" r="9" fill="#e7d6a7" opacity=".82"/><circle cx="372" cy="459" r="10" fill="#f4e6bd" opacity=".82"/><circle cx="413" cy="303" r="4" fill="#e7d6a7" opacity=".82"/><circle cx="454" cy="332" r="5" fill="#e7d6a7" opacity=".82"/><circle cx="495" cy="361" r="6" fill="#f4e6bd" opacity=".82"/><circle cx="536" cy="390" r="7" fill="#e7d6a7" opacity=".82"/><circle cx="577" cy="419" r="8" fill="#e7d6a7" opacity=".82"/><circle cx="618" cy="448" r="9" fill="#f4e6bd" opacity=".82"/><circle cx="249" cy="292" r="10" fill="#e7d6a7" opacity=".82"/><circle cx="290" cy="321" r="4" fill="#e7d6a7" opacity=".82"/><circle cx="331" cy="350" r="5" fill="#f4e6bd" opacity=".82"/><circle cx="372" cy="379" r="6" fill="#e7d6a7" opacity=".82"/><circle cx="413" cy="408" r="7" fill="#e7d6a7" opacity=".82"/><circle cx="454" cy="437" r="8" fill="#f4e6bd" opacity=".82"/><circle cx="495" cy="281" r="9" fill="#e7d6a7" opacity=".82"/></g>
  
  <g filter="url(#soft-shadow)" fill="#b46a3f">
    <ellipse cx="330" cy="330" rx="86" ry="54" transform="rotate(-18 330 330)"/>
    <ellipse cx="465" cy="316" rx="95" ry="58" transform="rotate(10 465 316)"/>
    <ellipse cx="560" cy="398" rx="86" ry="50" transform="rotate(-10 560 398)"/>
    <path d="M280 360c78 35 196 38 320 5" fill="none" stroke="#815035" stroke-width="11" stroke-linecap="round" opacity=".45"/>
  </g>
  <g><rect x="504" y="274" width="58" height="14" rx="7" fill="#dc8543" transform="rotate(-26 504 274)" opacity=".82"/><rect x="575" y="327" width="58" height="14" rx="7" fill="#dc8543" transform="rotate(-11 575 327)" opacity=".82"/><rect x="276" y="380" width="58" height="14" rx="7" fill="#dc8543" transform="rotate(4 276 380)" opacity=".82"/><rect x="347" y="433" width="58" height="14" rx="7" fill="#dc8543" transform="rotate(19 347 433)" opacity=".82"/><rect x="418" y="306" width="58" height="14" rx="7" fill="#dc8543" transform="rotate(34 418 306)" opacity=".82"/><rect x="489" y="359" width="58" height="14" rx="7" fill="#dc8543" transform="rotate(-26 489 359)" opacity=".82"/><rect x="560" y="412" width="58" height="14" rx="7" fill="#dc8543" transform="rotate(-11 560 412)" opacity=".82"/><ellipse cx="429" cy="399" rx="31" ry="11" fill="#7aa36d" transform="rotate(-24 429 399)" opacity=".75"/><ellipse cx="490" cy="446" rx="31" ry="11" fill="#7aa36d" transform="rotate(-6 490 446)" opacity=".75"/><ellipse cx="551" cy="323" rx="31" ry="11" fill="#7aa36d" transform="rotate(12 551 323)" opacity=".75"/><ellipse cx="612" cy="370" rx="31" ry="11" fill="#7aa36d" transform="rotate(30 612 370)" opacity=".75"/><ellipse cx="323" cy="417" rx="31" ry="11" fill="#7aa36d" transform="rotate(-24 323 417)" opacity=".75"/><ellipse cx="384" cy="294" rx="31" ry="11" fill="#7aa36d" transform="rotate(-6 384 294)" opacity=".75"/><ellipse cx="429" cy="254" rx="20" ry="8" fill="#557753" transform="rotate(-22 429 254)" opacity=".9"/><ellipse cx="496" cy="295" rx="25" ry="8" fill="#557753" transform="rotate(1 496 295)" opacity=".9"/><ellipse cx="563" cy="336" rx="30" ry="8" fill="#557753" transform="rotate(24 563 336)" opacity=".9"/><ellipse cx="630" cy="377" rx="20" ry="8" fill="#557753" transform="rotate(-21 630 377)" opacity=".9"/><ellipse cx="292" cy="418" rx="25" ry="8" fill="#557753" transform="rotate(2 292 418)" opacity=".9"/><ellipse cx="359" cy="459" rx="30" ry="8" fill="#557753" transform="rotate(25 359 459)" opacity=".9"/><ellipse cx="426" cy="250" rx="20" ry="8" fill="#557753" transform="rotate(-20 426 250)" opacity=".9"/><ellipse cx="493" cy="291" rx="25" ry="8" fill="#557753" transform="rotate(3 493 291)" opacity=".9"/><ellipse cx="560" cy="332" rx="30" ry="8" fill="#557753" transform="rotate(26 560 332)" opacity=".9"/><ellipse cx="627" cy="373" rx="20" ry="8" fill="#557753" transform="rotate(-19 627 373)" opacity=".9"/><ellipse cx="289" cy="414" rx="25" ry="8" fill="#557753" transform="rotate(4 289 414)" opacity=".9"/><ellipse cx="356" cy="455" rx="30" ry="8" fill="#557753" transform="rotate(27 356 455)" opacity=".9"/><ellipse cx="423" cy="246" rx="20" ry="8" fill="#557753" transform="rotate(-18 423 246)" opacity=".9"/></g>
  <g opacity=".95">
    <circle cx="606" cy="239" r="22" fill="#e5b14d"/>
    <path d="M606 218a22 22 0 0 1 0 44" fill="#fff3b0" opacity=".72"/>
  </g>
</svg>