<svg xmlns="http://www.w3.org/2000/svg" viewBox="0 0 900 675" role="img" aria-label="kosher chicken breast slices with vegetables">
  <defs>
    <radialGradient id="plate-glow" cx="50%" cy="46%" r="62%">
      <stop offset="0" stop-color="#fffdf4"/>
      <stop offset="1" stop-color="#fff7e7"/>
    </radialGradient>
    <linearGradient id="table" x1="0" y1="0" x2="1" y2="1">
      <stop offset="0" stop-color="#f4ecdc"/>
      <stop offset="1" stop-color="#d2b894"/>
    </linearGradient>
    <filter id="soft-shadow" x="-25%" y="-25%" width="150%" height="150%">
      <feDropShadow dx="0" dy="14" stdDeviation="15" flood-color="#342e25" flood-opacity=".28"/>
    </filter>
    <filter id="grain">
      <feTurbulence type="fractalNoise" baseFrequency=".85" numOctaves="2" seed="5432" result="noise"/>
      <feColorMatrix type="saturate" values=".12"/>
      <feComponentTransfer>
        <feFuncA type="table" tableValues="0 .12"/>
      </feComponentTransfer>
      <feBlend mode="multiply" in2="SourceGraphic"/>
    </filter>
  </defs>
  <rect width="900" height="675" fill="url(#table)"/>
  <rect width="900" height="675" filter="url(#grain)" opacity=".34"/>
  <ellipse cx="450" cy="365" rx="332" ry="222" fill="#5d4b3c" opacity=".12"/>
  <ellipse cx="450" cy="350" rx="318" ry="214" fill="url(#plate-glow)"/>
  <ellipse cx="450" cy="350" rx="260" ry="164" fill="#f6ead4"/>
  <g><circle cx="350" cy="347" r="4" fill="#f4e6bd" opacity=".82"/><circle cx="391" cy="376" r="5" fill="#e7d6a7" opacity=".82"/><circle cx="432" cy="405" r="6" fill="#e7d6a7" opacity=".82"/><circle cx="473" cy="434" r="7" fill="#f4e6bd" opacity=".82"/><circle cx="514" cy="463" r="8" fill="#e7d6a7" opacity=".82"/><circle cx="555" cy="307" r="9" fill="#e7d6a7" opacity=".82"/><circle cx="596" cy="336" r="10" fill="#f4e6bd" opacity=".82"/><circle cx="637" cy="365" r="4" fill="#e7d6a7" opacity=".82"/><circle cx="268" cy="394" r="5" fill="#e7d6a7" opacity=".82"/><circle cx="309" cy="423" r="6" fill="#f4e6bd" opacity=".82"/><circle cx="350" cy="452" r="7" fill="#e7d6a7" opacity=".82"/><circle cx="391" cy="296" r="8" fill="#e7d6a7" opacity=".82"/><circle cx="432" cy="325" r="9" fill="#f4e6bd" opacity=".82"/><circle cx="473" cy="354" r="10" fill="#e7d6a7" opacity=".82"/><circle cx="514" cy="383" r="4" fill="#e7d6a7" opacity=".82"/><circle cx="555" cy="412" r="5" fill="#f4e6bd" opacity=".82"/><circle cx="596" cy="441" r="6" fill="#e7d6a7" opacity=".82"/><circle cx="637" cy="285" r="7" fill="#e7d6a7" opacity=".82"/><circle cx="268" cy="314" r="8" fill="#f4e6bd" opacity=".82"/><circle cx="309" cy="343" r="9" fill="#e7d6a7" opacity=".82"/><circle cx="350" cy="372" r="10" fill="#e7d6a7" opacity=".82"/><circle cx="391" cy="401" r="4" fill="#f4e6bd" opacity=".82"/><circle cx="432" cy="430" r="5" fill="#e7d6a7" opacity=".82"/><circle cx="473" cy="459" r="6" fill="#e7d6a7" opacity=".82"/><circle cx="514" cy="303" r="7" fill="#f4e6bd" opacity=".82"/><circle cx="555" cy="332" r="8" fill="#e7d6a7" opacity=".82"/><circle cx="596" cy="361" r="9" fill="#e7d6a7" opacity=".82"/><circle cx="637" cy="390" r="10" fill="#f4e6bd" opacity=".82"/><circle cx="268" cy="419" r="4" fill="#e7d6a7" opacity=".82"/><circle cx="309" cy="448" r="5" fill="#e7d6a7" opacity=".82"/><circle cx="350" cy="292" r="6" fill="#f4e6bd" opacity=".82"/><circle cx="391" cy="321" r="7" fill="#e7d6a7" opacity=".82"/><circle cx="432" cy="350" r="8" fill="#e7d6a7" opacity=".82"/><circle cx="473" cy="379" r="9" fill="#f4e6bd" opacity=".82"/><circle cx="514" cy="408" r="10" fill="#e7d6a7" opacity=".82"/><circle cx="555" cy="437" r="4" fill="#e7d6a7" opacity=".82"/><circle cx="596" cy="281" r="5" fill="#f4e6bd" opacity=".82"/><circle cx="637" cy="310" r="6" fill="#e7d6a7" opacity=".82"/><circle cx="268" cy="339" r="7" fill="#e7d6a7" opacity=".82"/><circle cx="309" cy="368" r="8" fill="#f4e6bd" opacity=".82"/><circle cx="350" cy="397" r="9" fill="#e7d6a7" opacity=".82"/><circle cx="391" cy="426" r="10" fill="#e7d6a7" opacity=".82"/><circle cx="432" cy="455" r="4" fill="#f4e6bd" opacity=".82"/><circle cx="473" cy="299" r="5" fill="#e7d6a7" opacity=".82"/></g>
  
  <g filter="url(#soft-shadow)" fill="#b46a3f">
    <ellipse cx="330" cy="330" rx="86" ry="54" transform="rotate(-18 330 330)"/>
    <ellipse cx="465" cy="316" rx="95" ry="58" transform="rotate(10 465 316)"/>
    <ellipse cx="560" cy="398" rx="86" ry="50" transform="rotate(-10 560 398)"/>
    <path d="M280 360c78 35 196 38 320 5" fill="none" stroke="#815035" stroke-width="11" stroke-linecap="round" opacity=".45"/>
  </g>
  <g><rect x="522" y="302" width="58" height="14" rx="7" fill="#dc8543" transform="rotate(-26 522 302)" opacity=".82"/><rect x="593" y="355" width="58" height="14" rx="7" fill="#dc8543" transform="rotate(-11 593 355)" opacity=".82"/><rect x="294" y="408" width="58" height="14" rx="7" fill="#dc8543" transform="rotate(4 294 408)" opacity=".82"/><rect x="365" y="281" width="58" height="14" rx="7" fill="#dc8543" transform="rotate(19 365 281)" opacity=".82"/><rect x="436" y="334" width="58" height="14" rx="7" fill="#dc8543" transform="rotate(34 436 334)" opacity=".82"/><rect x="507" y="387" width="58" height="14" rx="7" fill="#dc8543" transform="rotate(-26 507 387)" opacity=".82"/><rect x="578" y="440" width="58" height="14" rx="7" fill="#dc8543" transform="rotate(-11 578 440)" opacity=".82"/><ellipse cx="467" cy="447" rx="31" ry="11" fill="#7aa36d" transform="rotate(-24 467 447)" opacity=".75"/><ellipse cx="528" cy="324" rx="31" ry="11" fill="#7aa36d" transform="rotate(-6 528 324)" opacity=".75"/><ellipse cx="589" cy="371" rx="31" ry="11" fill="#7aa36d" transform="rotate(12 589 371)" opacity=".75"/><ellipse cx="300" cy="418" rx="31" ry="11" fill="#7aa36d" transform="rotate(30 300 418)" opacity=".75"/><ellipse cx="361" cy="295" rx="31" ry="11" fill="#7aa36d" transform="rotate(-24 361 295)" opacity=".75"/><ellipse cx="422" cy="342" rx="31" ry="11" fill="#7aa36d" transform="rotate(-6 422 342)" opacity=".75"/><ellipse cx="412" cy="392" rx="20" ry="8" fill="#557753" transform="rotate(26 412 392)" opacity=".9"/><ellipse cx="479" cy="433" rx="25" ry="8" fill="#557753" transform="rotate(-19 479 433)" opacity=".9"/><ellipse cx="546" cy="224" rx="30" ry="8" fill="#557753" transform="rotate(4 546 224)" opacity=".9"/><ellipse cx="613" cy="265" rx="20" ry="8" fill="#557753" transform="rotate(27 613 265)" opacity=".9"/><ellipse cx="275" cy="306" rx="25" ry="8" fill="#557753" transform="rotate(-18 275 306)" opacity=".9"/><ellipse cx="342" cy="347" rx="30" ry="8" fill="#557753" transform="rotate(5 342 347)" opacity=".9"/><ellipse cx="409" cy="388" rx="20" ry="8" fill="#557753" transform="rotate(28 409 388)" opacity=".9"/><ellipse cx="476" cy="429" rx="25" ry="8" fill="#557753" transform="rotate(-17 476 429)" opacity=".9"/><ellipse cx="543" cy="220" rx="30" ry="8" fill="#557753" transform="rotate(6 543 220)" opacity=".9"/><ellipse cx="610" cy="261" rx="20" ry="8" fill="#557753" transform="rotate(29 610 261)" opacity=".9"/><ellipse cx="272" cy="302" rx="25" ry="8" fill="#557753" transform="rotate(-16 272 302)" opacity=".9"/><ellipse cx="339" cy="343" rx="30" ry="8" fill="#557753" transform="rotate(7 339 343)" opacity=".9"/><ellipse cx="406" cy="384" rx="20" ry="8" fill="#557753" transform="rotate(30 406 384)" opacity=".9"/></g>
  <g opacity=".95">
    <circle cx="538" cy="267" r="22" fill="#e5b14d"/>
    <path d="M538 246a22 22 0 0 1 0 44" fill="#fff3b0" opacity=".72"/>
  </g>
</svg>