<svg xmlns="http://www.w3.org/2000/svg" viewBox="0 0 900 675" role="img" aria-label="kosher chicken breast slices with vegetables">
  <defs>
    <radialGradient id="plate-glow" cx="50%" cy="46%" r="62%">
      <stop offset="0" stop-color="#fffdf4"/>
      <stop offset="1" stop-color="#fff7e7"/>
    </radialGradient>
    <linearGradient id="table" x1="0" y1="0" x2="1" y2="1">
      <stop offset="0" stop-color="#f4ecdc"/>
      <stop offset="1" stop-color="#d2b894"/>
    </linearGradient>
    <filter id="soft-shadow" x="-25%" y="-25%" width="150%" height="150%">
      <feDropShadow dx="0" dy="14" stdDeviation="15" flood-color="#342e25" flood-opacity=".28"/>
    </filter>
    <filter id="grain">
      <feTurbulence type="fractalNoise" baseFrequency=".85" numOctaves="2" seed="5141" result="noise"/>
      <feColorMatrix type="saturate" values=".12"/>
      <feComponentTransfer>
        <feFuncA type="table" tableValues="0 .12"/>
      </feComponentTransfer>
      <feBlend mode="multiply" in2="SourceGraphic"/>
    </filter>
  </defs>
  <rect width="900" height="675" fill="url(#table)"/>
  <rect width="900" height="675" filter="url(#grain)" opacity=".34"/>
  <ellipse cx="450" cy="365" rx="332" ry="222" fill="#5d4b3c" opacity=".12"/>
  <ellipse cx="450" cy="350" rx="318" ry="214" fill="url(#plate-glow)"/>
  <ellipse cx="450" cy="350" rx="260" ry="164" fill="#f6ead4"/>
  <g><circle cx="469" cy="426" r="7" fill="#f4e6bd" opacity=".82"/><circle cx="510" cy="455" r="8" fill="#e7d6a7" opacity=".82"/><circle cx="551" cy="299" r="9" fill="#e7d6a7" opacity=".82"/><circle cx="592" cy="328" r="10" fill="#f4e6bd" opacity=".82"/><circle cx="633" cy="357" r="4" fill="#e7d6a7" opacity=".82"/><circle cx="264" cy="386" r="5" fill="#e7d6a7" opacity=".82"/><circle cx="305" cy="415" r="6" fill="#f4e6bd" opacity=".82"/><circle cx="346" cy="444" r="7" fill="#e7d6a7" opacity=".82"/><circle cx="387" cy="288" r="8" fill="#e7d6a7" opacity=".82"/><circle cx="428" cy="317" r="9" fill="#f4e6bd" opacity=".82"/><circle cx="469" cy="346" r="10" fill="#e7d6a7" opacity=".82"/><circle cx="510" cy="375" r="4" fill="#e7d6a7" opacity=".82"/><circle cx="551" cy="404" r="5" fill="#f4e6bd" opacity=".82"/><circle cx="592" cy="433" r="6" fill="#e7d6a7" opacity=".82"/><circle cx="633" cy="462" r="7" fill="#e7d6a7" opacity=".82"/><circle cx="264" cy="306" r="8" fill="#f4e6bd" opacity=".82"/><circle cx="305" cy="335" r="9" fill="#e7d6a7" opacity=".82"/><circle cx="346" cy="364" r="10" fill="#e7d6a7" opacity=".82"/><circle cx="387" cy="393" r="4" fill="#f4e6bd" opacity=".82"/><circle cx="428" cy="422" r="5" fill="#e7d6a7" opacity=".82"/><circle cx="469" cy="451" r="6" fill="#e7d6a7" opacity=".82"/><circle cx="510" cy="295" r="7" fill="#f4e6bd" opacity=".82"/><circle cx="551" cy="324" r="8" fill="#e7d6a7" opacity=".82"/><circle cx="592" cy="353" r="9" fill="#e7d6a7" opacity=".82"/><circle cx="633" cy="382" r="10" fill="#f4e6bd" opacity=".82"/><circle cx="264" cy="411" r="4" fill="#e7d6a7" opacity=".82"/><circle cx="305" cy="440" r="5" fill="#e7d6a7" opacity=".82"/><circle cx="346" cy="284" r="6" fill="#f4e6bd" opacity=".82"/><circle cx="387" cy="313" r="7" fill="#e7d6a7" opacity=".82"/><circle cx="428" cy="342" r="8" fill="#e7d6a7" opacity=".82"/><circle cx="469" cy="371" r="9" fill="#f4e6bd" opacity=".82"/><circle cx="510" cy="400" r="10" fill="#e7d6a7" opacity=".82"/><circle cx="551" cy="429" r="4" fill="#e7d6a7" opacity=".82"/><circle cx="592" cy="458" r="5" fill="#f4e6bd" opacity=".82"/><circle cx="633" cy="302" r="6" fill="#e7d6a7" opacity=".82"/><circle cx="264" cy="331" r="7" fill="#e7d6a7" opacity=".82"/><circle cx="305" cy="360" r="8" fill="#f4e6bd" opacity=".82"/><circle cx="346" cy="389" r="9" fill="#e7d6a7" opacity=".82"/><circle cx="387" cy="418" r="10" fill="#e7d6a7" opacity=".82"/><circle cx="428" cy="447" r="4" fill="#f4e6bd" opacity=".82"/><circle cx="469" cy="291" r="5" fill="#e7d6a7" opacity=".82"/><circle cx="510" cy="320" r="6" fill="#e7d6a7" opacity=".82"/><circle cx="551" cy="349" r="7" fill="#f4e6bd" opacity=".82"/><circle cx="592" cy="378" r="8" fill="#e7d6a7" opacity=".82"/></g>
  
  <g filter="url(#soft-shadow)" fill="#b46a3f">
    <ellipse cx="330" cy="330" rx="86" ry="54" transform="rotate(-18 330 330)"/>
    <ellipse cx="465" cy="316" rx="95" ry="58" transform="rotate(10 465 316)"/>
    <ellipse cx="560" cy="398" rx="86" ry="50" transform="rotate(-10 560 398)"/>
    <path d="M280 360c78 35 196 38 320 5" fill="none" stroke="#815035" stroke-width="11" stroke-linecap="round" opacity=".45"/>
  </g>
  <g><rect x="601" y="371" width="58" height="14" rx="7" fill="#dc8543" transform="rotate(-26 601 371)" opacity=".82"/><rect x="302" y="424" width="58" height="14" rx="7" fill="#dc8543" transform="rotate(-11 302 424)" opacity=".82"/><rect x="373" y="297" width="58" height="14" rx="7" fill="#dc8543" transform="rotate(4 373 297)" opacity=".82"/><rect x="444" y="350" width="58" height="14" rx="7" fill="#dc8543" transform="rotate(19 444 350)" opacity=".82"/><rect x="515" y="403" width="58" height="14" rx="7" fill="#dc8543" transform="rotate(34 515 403)" opacity=".82"/><rect x="586" y="276" width="58" height="14" rx="7" fill="#dc8543" transform="rotate(-26 586 276)" opacity=".82"/><rect x="287" y="329" width="58" height="14" rx="7" fill="#dc8543" transform="rotate(-11 287 329)" opacity=".82"/><ellipse cx="526" cy="326" rx="31" ry="11" fill="#7aa36d" transform="rotate(-24 526 326)" opacity=".75"/><ellipse cx="587" cy="373" rx="31" ry="11" fill="#7aa36d" transform="rotate(-6 587 373)" opacity=".75"/><ellipse cx="298" cy="420" rx="31" ry="11" fill="#7aa36d" transform="rotate(12 298 420)" opacity=".75"/><ellipse cx="359" cy="297" rx="31" ry="11" fill="#7aa36d" transform="rotate(30 359 297)" opacity=".75"/><ellipse cx="420" cy="344" rx="31" ry="11" fill="#7aa36d" transform="rotate(-24 420 344)" opacity=".75"/><ellipse cx="481" cy="391" rx="31" ry="11" fill="#7aa36d" transform="rotate(-6 481 391)" opacity=".75"/><ellipse cx="526" cy="351" rx="20" ry="8" fill="#557753" transform="rotate(7 526 351)" opacity=".9"/><ellipse cx="593" cy="392" rx="25" ry="8" fill="#557753" transform="rotate(30 593 392)" opacity=".9"/><ellipse cx="255" cy="433" rx="30" ry="8" fill="#557753" transform="rotate(-15 255 433)" opacity=".9"/><ellipse cx="322" cy="224" rx="20" ry="8" fill="#557753" transform="rotate(8 322 224)" opacity=".9"/><ellipse cx="389" cy="265" rx="25" ry="8" fill="#557753" transform="rotate(31 389 265)" opacity=".9"/><ellipse cx="456" cy="306" rx="30" ry="8" fill="#557753" transform="rotate(-14 456 306)" opacity=".9"/><ellipse cx="523" cy="347" rx="20" ry="8" fill="#557753" transform="rotate(9 523 347)" opacity=".9"/><ellipse cx="590" cy="388" rx="25" ry="8" fill="#557753" transform="rotate(32 590 388)" opacity=".9"/><ellipse cx="252" cy="429" rx="30" ry="8" fill="#557753" transform="rotate(-13 252 429)" opacity=".9"/><ellipse cx="319" cy="220" rx="20" ry="8" fill="#557753" transform="rotate(10 319 220)" opacity=".9"/><ellipse cx="386" cy="261" rx="25" ry="8" fill="#557753" transform="rotate(33 386 261)" opacity=".9"/><ellipse cx="453" cy="302" rx="30" ry="8" fill="#557753" transform="rotate(-12 453 302)" opacity=".9"/><ellipse cx="520" cy="343" rx="20" ry="8" fill="#557753" transform="rotate(11 520 343)" opacity=".9"/></g>
  <g opacity=".95">
    <circle cx="589" cy="256" r="22" fill="#e5b14d"/>
    <path d="M589 235a22 22 0 0 1 0 44" fill="#fff3b0" opacity=".72"/>
  </g>
</svg>