<svg xmlns="http://www.w3.org/2000/svg" viewBox="0 0 900 675" role="img" aria-label="kosher chicken thighs with carrots and herbs">
  <defs>
    <radialGradient id="plate-glow" cx="50%" cy="46%" r="62%">
      <stop offset="0" stop-color="#fffdf4"/>
      <stop offset="1" stop-color="#fff7e7"/>
    </radialGradient>
    <linearGradient id="table" x1="0" y1="0" x2="1" y2="1">
      <stop offset="0" stop-color="#f4ecdc"/>
      <stop offset="1" stop-color="#d2b894"/>
    </linearGradient>
    <filter id="soft-shadow" x="-25%" y="-25%" width="150%" height="150%">
      <feDropShadow dx="0" dy="14" stdDeviation="15" flood-color="#342e25" flood-opacity=".28"/>
    </filter>
    <filter id="grain">
      <feTurbulence type="fractalNoise" baseFrequency=".85" numOctaves="2" seed="4365" result="noise"/>
      <feColorMatrix type="saturate" values=".12"/>
      <feComponentTransfer>
        <feFuncA type="table" tableValues="0 .12"/>
      </feComponentTransfer>
      <feBlend mode="multiply" in2="SourceGraphic"/>
    </filter>
  </defs>
  <rect width="900" height="675" fill="url(#table)"/>
  <rect width="900" height="675" filter="url(#grain)" opacity=".34"/>
  <ellipse cx="450" cy="365" rx="332" ry="222" fill="#5d4b3c" opacity=".12"/>
  <ellipse cx="450" cy="350" rx="318" ry="214" fill="url(#plate-glow)"/>
  <ellipse cx="450" cy="350" rx="260" ry="164" fill="#f6ead4"/>
  <g><circle cx="513" cy="390" r="8" fill="#f4e6bd" opacity=".82"/><circle cx="554" cy="419" r="9" fill="#e7d6a7" opacity=".82"/><circle cx="595" cy="448" r="10" fill="#e7d6a7" opacity=".82"/><circle cx="636" cy="292" r="4" fill="#f4e6bd" opacity=".82"/><circle cx="267" cy="321" r="5" fill="#e7d6a7" opacity=".82"/><circle cx="308" cy="350" r="6" fill="#e7d6a7" opacity=".82"/><circle cx="349" cy="379" r="7" fill="#f4e6bd" opacity=".82"/><circle cx="390" cy="408" r="8" fill="#e7d6a7" opacity=".82"/><circle cx="431" cy="437" r="9" fill="#e7d6a7" opacity=".82"/><circle cx="472" cy="281" r="10" fill="#f4e6bd" opacity=".82"/><circle cx="513" cy="310" r="4" fill="#e7d6a7" opacity=".82"/><circle cx="554" cy="339" r="5" fill="#e7d6a7" opacity=".82"/><circle cx="595" cy="368" r="6" fill="#f4e6bd" opacity=".82"/><circle cx="636" cy="397" r="7" fill="#e7d6a7" opacity=".82"/><circle cx="267" cy="426" r="8" fill="#e7d6a7" opacity=".82"/><circle cx="308" cy="455" r="9" fill="#f4e6bd" opacity=".82"/><circle cx="349" cy="299" r="10" fill="#e7d6a7" opacity=".82"/><circle cx="390" cy="328" r="4" fill="#e7d6a7" opacity=".82"/><circle cx="431" cy="357" r="5" fill="#f4e6bd" opacity=".82"/><circle cx="472" cy="386" r="6" fill="#e7d6a7" opacity=".82"/><circle cx="513" cy="415" r="7" fill="#e7d6a7" opacity=".82"/><circle cx="554" cy="444" r="8" fill="#f4e6bd" opacity=".82"/><circle cx="595" cy="288" r="9" fill="#e7d6a7" opacity=".82"/><circle cx="636" cy="317" r="10" fill="#e7d6a7" opacity=".82"/><circle cx="267" cy="346" r="4" fill="#f4e6bd" opacity=".82"/><circle cx="308" cy="375" r="5" fill="#e7d6a7" opacity=".82"/><circle cx="349" cy="404" r="6" fill="#e7d6a7" opacity=".82"/><circle cx="390" cy="433" r="7" fill="#f4e6bd" opacity=".82"/><circle cx="431" cy="462" r="8" fill="#e7d6a7" opacity=".82"/><circle cx="472" cy="306" r="9" fill="#e7d6a7" opacity=".82"/><circle cx="513" cy="335" r="10" fill="#f4e6bd" opacity=".82"/><circle cx="554" cy="364" r="4" fill="#e7d6a7" opacity=".82"/><circle cx="595" cy="393" r="5" fill="#e7d6a7" opacity=".82"/><circle cx="636" cy="422" r="6" fill="#f4e6bd" opacity=".82"/><circle cx="267" cy="451" r="7" fill="#e7d6a7" opacity=".82"/><circle cx="308" cy="295" r="8" fill="#e7d6a7" opacity=".82"/><circle cx="349" cy="324" r="9" fill="#f4e6bd" opacity=".82"/><circle cx="390" cy="353" r="10" fill="#e7d6a7" opacity=".82"/><circle cx="431" cy="382" r="4" fill="#e7d6a7" opacity=".82"/><circle cx="472" cy="411" r="5" fill="#f4e6bd" opacity=".82"/><circle cx="513" cy="440" r="6" fill="#e7d6a7" opacity=".82"/><circle cx="554" cy="284" r="7" fill="#e7d6a7" opacity=".82"/><circle cx="595" cy="313" r="8" fill="#f4e6bd" opacity=".82"/><circle cx="636" cy="342" r="9" fill="#e7d6a7" opacity=".82"/></g>
  
  <g filter="url(#soft-shadow)" fill="#b46a3f">
    <ellipse cx="330" cy="330" rx="86" ry="54" transform="rotate(-18 330 330)"/>
    <ellipse cx="465" cy="316" rx="95" ry="58" transform="rotate(10 465 316)"/>
    <ellipse cx="560" cy="398" rx="86" ry="50" transform="rotate(-10 560 398)"/>
    <path d="M280 360c78 35 196 38 320 5" fill="none" stroke="#815035" stroke-width="11" stroke-linecap="round" opacity=".45"/>
  </g>
  <g><rect x="565" y="315" width="58" height="14" rx="7" fill="#dc8543" transform="rotate(-26 565 315)" opacity=".82"/><rect x="636" y="368" width="58" height="14" rx="7" fill="#dc8543" transform="rotate(-11 636 368)" opacity=".82"/><rect x="337" y="421" width="58" height="14" rx="7" fill="#dc8543" transform="rotate(4 337 421)" opacity=".82"/><rect x="408" y="294" width="58" height="14" rx="7" fill="#dc8543" transform="rotate(19 408 294)" opacity=".82"/><rect x="479" y="347" width="58" height="14" rx="7" fill="#dc8543" transform="rotate(34 479 347)" opacity=".82"/><rect x="550" y="400" width="58" height="14" rx="7" fill="#dc8543" transform="rotate(-26 550 400)" opacity=".82"/><rect x="621" y="273" width="58" height="14" rx="7" fill="#dc8543" transform="rotate(-11 621 273)" opacity=".82"/><ellipse cx="450" cy="400" rx="31" ry="11" fill="#7aa36d" transform="rotate(-24 450 400)" opacity=".75"/><ellipse cx="511" cy="447" rx="31" ry="11" fill="#7aa36d" transform="rotate(-6 511 447)" opacity=".75"/><ellipse cx="572" cy="324" rx="31" ry="11" fill="#7aa36d" transform="rotate(12 572 324)" opacity=".75"/><ellipse cx="633" cy="371" rx="31" ry="11" fill="#7aa36d" transform="rotate(30 633 371)" opacity=".75"/><ellipse cx="344" cy="418" rx="31" ry="11" fill="#7aa36d" transform="rotate(-24 344 418)" opacity=".75"/><ellipse cx="405" cy="295" rx="31" ry="11" fill="#7aa36d" transform="rotate(-6 405 295)" opacity=".75"/><ellipse cx="560" cy="325" rx="20" ry="8" fill="#557753" transform="rotate(-21 560 325)" opacity=".9"/><ellipse cx="627" cy="366" rx="25" ry="8" fill="#557753" transform="rotate(2 627 366)" opacity=".9"/><ellipse cx="289" cy="407" rx="30" ry="8" fill="#557753" transform="rotate(25 289 407)" opacity=".9"/><ellipse cx="356" cy="448" rx="20" ry="8" fill="#557753" transform="rotate(-20 356 448)" opacity=".9"/><ellipse cx="423" cy="239" rx="25" ry="8" fill="#557753" transform="rotate(3 423 239)" opacity=".9"/><ellipse cx="490" cy="280" rx="30" ry="8" fill="#557753" transform="rotate(26 490 280)" opacity=".9"/><ellipse cx="557" cy="321" rx="20" ry="8" fill="#557753" transform="rotate(-19 557 321)" opacity=".9"/><ellipse cx="624" cy="362" rx="25" ry="8" fill="#557753" transform="rotate(4 624 362)" opacity=".9"/><ellipse cx="286" cy="403" rx="30" ry="8" fill="#557753" transform="rotate(27 286 403)" opacity=".9"/><ellipse cx="353" cy="444" rx="20" ry="8" fill="#557753" transform="rotate(-18 353 444)" opacity=".9"/><ellipse cx="420" cy="235" rx="25" ry="8" fill="#557753" transform="rotate(5 420 235)" opacity=".9"/><ellipse cx="487" cy="276" rx="30" ry="8" fill="#557753" transform="rotate(28 487 276)" opacity=".9"/><ellipse cx="554" cy="317" rx="20" ry="8" fill="#557753" transform="rotate(-17 554 317)" opacity=".9"/></g>
  <g opacity=".95">
    <circle cx="565" cy="240" r="22" fill="#e5b14d"/>
    <path d="M565 219a22 22 0 0 1 0 44" fill="#fff3b0" opacity=".72"/>
  </g>
</svg>