<svg xmlns="http://www.w3.org/2000/svg" viewBox="0 0 900 675" role="img" aria-label="dairy and nut kosher plates">
  <defs>
    <radialGradient id="plate-glow" cx="50%" cy="46%" r="62%">
      <stop offset="0" stop-color="#fffdf4"/>
      <stop offset="1" stop-color="#fffaf0"/>
    </radialGradient>
    <linearGradient id="table" x1="0" y1="0" x2="1" y2="1">
      <stop offset="0" stop-color="#f4ecdf"/>
      <stop offset="1" stop-color="#d0bfa5"/>
    </linearGradient>
    <filter id="soft-shadow" x="-25%" y="-25%" width="150%" height="150%">
      <feDropShadow dx="0" dy="14" stdDeviation="15" flood-color="#303229" flood-opacity=".28"/>
    </filter>
    <filter id="grain">
      <feTurbulence type="fractalNoise" baseFrequency=".85" numOctaves="2" seed="10185" result="noise"/>
      <feColorMatrix type="saturate" values=".12"/>
      <feComponentTransfer>
        <feFuncA type="table" tableValues="0 .12"/>
      </feComponentTransfer>
      <feBlend mode="multiply" in2="SourceGraphic"/>
    </filter>
  </defs>
  <rect width="900" height="675" fill="url(#table)"/>
  <rect width="900" height="675" filter="url(#grain)" opacity=".34"/>
  <ellipse cx="450" cy="365" rx="332" ry="222" fill="#5d4b3c" opacity=".12"/>
  <ellipse cx="450" cy="350" rx="318" ry="214" fill="url(#plate-glow)"/>
  <ellipse cx="450" cy="350" rx="260" ry="164" fill="#f6ead4"/>
  <g><circle cx="593" cy="290" r="4" fill="#f4e6bd" opacity=".82"/><circle cx="634" cy="319" r="5" fill="#dfcca0" opacity=".82"/><circle cx="265" cy="348" r="6" fill="#dfcca0" opacity=".82"/><circle cx="306" cy="377" r="7" fill="#f4e6bd" opacity=".82"/><circle cx="347" cy="406" r="8" fill="#dfcca0" opacity=".82"/><circle cx="388" cy="435" r="9" fill="#dfcca0" opacity=".82"/><circle cx="429" cy="464" r="10" fill="#f4e6bd" opacity=".82"/><circle cx="470" cy="308" r="4" fill="#dfcca0" opacity=".82"/><circle cx="511" cy="337" r="5" fill="#dfcca0" opacity=".82"/><circle cx="552" cy="366" r="6" fill="#f4e6bd" opacity=".82"/><circle cx="593" cy="395" r="7" fill="#dfcca0" opacity=".82"/><circle cx="634" cy="424" r="8" fill="#dfcca0" opacity=".82"/><circle cx="265" cy="453" r="9" fill="#f4e6bd" opacity=".82"/><circle cx="306" cy="297" r="10" fill="#dfcca0" opacity=".82"/><circle cx="347" cy="326" r="4" fill="#dfcca0" opacity=".82"/><circle cx="388" cy="355" r="5" fill="#f4e6bd" opacity=".82"/><circle cx="429" cy="384" r="6" fill="#dfcca0" opacity=".82"/><circle cx="470" cy="413" r="7" fill="#dfcca0" opacity=".82"/><circle cx="511" cy="442" r="8" fill="#f4e6bd" opacity=".82"/><circle cx="552" cy="286" r="9" fill="#dfcca0" opacity=".82"/><circle cx="593" cy="315" r="10" fill="#dfcca0" opacity=".82"/><circle cx="634" cy="344" r="4" fill="#f4e6bd" opacity=".82"/><circle cx="265" cy="373" r="5" fill="#dfcca0" opacity=".82"/><circle cx="306" cy="402" r="6" fill="#dfcca0" opacity=".82"/><circle cx="347" cy="431" r="7" fill="#f4e6bd" opacity=".82"/><circle cx="388" cy="460" r="8" fill="#dfcca0" opacity=".82"/><circle cx="429" cy="304" r="9" fill="#dfcca0" opacity=".82"/><circle cx="470" cy="333" r="10" fill="#f4e6bd" opacity=".82"/><circle cx="511" cy="362" r="4" fill="#dfcca0" opacity=".82"/><circle cx="552" cy="391" r="5" fill="#dfcca0" opacity=".82"/><circle cx="593" cy="420" r="6" fill="#f4e6bd" opacity=".82"/><circle cx="634" cy="449" r="7" fill="#dfcca0" opacity=".82"/><circle cx="265" cy="293" r="8" fill="#dfcca0" opacity=".82"/><circle cx="306" cy="322" r="9" fill="#f4e6bd" opacity=".82"/><circle cx="347" cy="351" r="10" fill="#dfcca0" opacity=".82"/><circle cx="388" cy="380" r="4" fill="#dfcca0" opacity=".82"/><circle cx="429" cy="409" r="5" fill="#f4e6bd" opacity=".82"/><circle cx="470" cy="438" r="6" fill="#dfcca0" opacity=".82"/><circle cx="511" cy="282" r="7" fill="#dfcca0" opacity=".82"/><circle cx="552" cy="311" r="8" fill="#f4e6bd" opacity=".82"/><circle cx="593" cy="340" r="9" fill="#dfcca0" opacity=".82"/><circle cx="634" cy="369" r="10" fill="#dfcca0" opacity=".82"/><circle cx="265" cy="398" r="4" fill="#f4e6bd" opacity=".82"/><circle cx="306" cy="427" r="5" fill="#dfcca0" opacity=".82"/></g>
  
  <g filter="url(#soft-shadow)">
    <path d="M270 332c88-42 254-53 374-14 38 12 39 51 3 70-112 58-299 61-403 7-34-18-24-45 26-63z" fill="#f2ead8"/>
    <rect x="585" y="365" width="28" height="18" rx="5" fill="#b9a67e" transform="rotate(-24 585 365)"/><rect x="338" y="402" width="28" height="18" rx="5" fill="#fffaf0" transform="rotate(-12 338 402)"/><rect x="391" y="314" width="28" height="18" rx="5" fill="#fffaf0" transform="rotate(0 391 314)"/><rect x="444" y="351" width="28" height="18" rx="5" fill="#b9a67e" transform="rotate(12 444 351)"/><rect x="497" y="388" width="28" height="18" rx="5" fill="#fffaf0" transform="rotate(24 497 388)"/><rect x="550" y="425" width="28" height="18" rx="5" fill="#fffaf0" transform="rotate(-24 550 425)"/><rect x="303" y="337" width="28" height="18" rx="5" fill="#b9a67e" transform="rotate(-12 303 337)"/><rect x="356" y="374" width="28" height="18" rx="5" fill="#fffaf0" transform="rotate(0 356 374)"/><rect x="409" y="411" width="28" height="18" rx="5" fill="#fffaf0" transform="rotate(12 409 411)"/><rect x="462" y="323" width="28" height="18" rx="5" fill="#b9a67e" transform="rotate(24 462 323)"/><rect x="515" y="360" width="28" height="18" rx="5" fill="#fffaf0" transform="rotate(-24 515 360)"/><rect x="568" y="397" width="28" height="18" rx="5" fill="#fffaf0" transform="rotate(-12 568 397)"/><rect x="321" y="309" width="28" height="18" rx="5" fill="#b9a67e" transform="rotate(0 321 309)"/><rect x="374" y="346" width="28" height="18" rx="5" fill="#fffaf0" transform="rotate(12 374 346)"/><rect x="427" y="383" width="28" height="18" rx="5" fill="#fffaf0" transform="rotate(24 427 383)"/><rect x="480" y="420" width="28" height="18" rx="5" fill="#b9a67e" transform="rotate(-24 480 420)"/>
  </g>
  <g><rect x="465" y="375" width="58" height="14" rx="7" fill="#dc8543" transform="rotate(-26 465 375)" opacity=".82"/><rect x="536" y="428" width="58" height="14" rx="7" fill="#dc8543" transform="rotate(-11 536 428)" opacity=".82"/><rect x="607" y="301" width="58" height="14" rx="7" fill="#dc8543" transform="rotate(4 607 301)" opacity=".82"/><rect x="308" y="354" width="58" height="14" rx="7" fill="#dc8543" transform="rotate(19 308 354)" opacity=".82"/><rect x="379" y="407" width="58" height="14" rx="7" fill="#dc8543" transform="rotate(34 379 407)" opacity=".82"/><rect x="450" y="280" width="58" height="14" rx="7" fill="#dc8543" transform="rotate(-26 450 280)" opacity=".82"/><rect x="521" y="333" width="58" height="14" rx="7" fill="#dc8543" transform="rotate(-11 521 333)" opacity=".82"/><ellipse cx="320" cy="440" rx="31" ry="11" fill="#7aa36d" transform="rotate(-24 320 440)" opacity=".75"/><ellipse cx="381" cy="317" rx="31" ry="11" fill="#7aa36d" transform="rotate(-6 381 317)" opacity=".75"/><ellipse cx="442" cy="364" rx="31" ry="11" fill="#7aa36d" transform="rotate(12 442 364)" opacity=".75"/><ellipse cx="503" cy="411" rx="31" ry="11" fill="#7aa36d" transform="rotate(30 503 411)" opacity=".75"/><ellipse cx="564" cy="288" rx="31" ry="11" fill="#7aa36d" transform="rotate(-24 564 288)" opacity=".75"/><ellipse cx="625" cy="335" rx="31" ry="11" fill="#7aa36d" transform="rotate(-6 625 335)" opacity=".75"/><ellipse cx="305" cy="395" rx="20" ry="8" fill="#4e7459" transform="rotate(19 305 395)" opacity=".9"/><ellipse cx="372" cy="436" rx="25" ry="8" fill="#4e7459" transform="rotate(-26 372 436)" opacity=".9"/><ellipse cx="439" cy="227" rx="30" ry="8" fill="#4e7459" transform="rotate(-3 439 227)" opacity=".9"/><ellipse cx="506" cy="268" rx="20" ry="8" fill="#4e7459" transform="rotate(20 506 268)" opacity=".9"/><ellipse cx="573" cy="309" rx="25" ry="8" fill="#4e7459" transform="rotate(-25 573 309)" opacity=".9"/><ellipse cx="640" cy="350" rx="30" ry="8" fill="#4e7459" transform="rotate(-2 640 350)" opacity=".9"/><ellipse cx="302" cy="391" rx="20" ry="8" fill="#4e7459" transform="rotate(21 302 391)" opacity=".9"/><ellipse cx="369" cy="432" rx="25" ry="8" fill="#4e7459" transform="rotate(-24 369 432)" opacity=".9"/><ellipse cx="436" cy="223" rx="30" ry="8" fill="#4e7459" transform="rotate(-1 436 223)" opacity=".9"/><ellipse cx="503" cy="264" rx="20" ry="8" fill="#4e7459" transform="rotate(22 503 264)" opacity=".9"/><ellipse cx="570" cy="305" rx="25" ry="8" fill="#4e7459" transform="rotate(-23 570 305)" opacity=".9"/><ellipse cx="637" cy="346" rx="30" ry="8" fill="#4e7459" transform="rotate(0 637 346)" opacity=".9"/><ellipse cx="299" cy="387" rx="20" ry="8" fill="#4e7459" transform="rotate(23 299 387)" opacity=".9"/></g>
  <g opacity=".95">
    <circle cx="585" cy="260" r="22" fill="#d9aa56"/>
    <path d="M585 239a22 22 0 0 1 0 44" fill="#fff3b0" opacity=".72"/>
  </g>
</svg>