<svg xmlns="http://www.w3.org/2000/svg" viewBox="0 0 900 675" role="img" aria-label="dairy and nut kosher plates">
  <defs>
    <radialGradient id="plate-glow" cx="50%" cy="46%" r="62%">
      <stop offset="0" stop-color="#fffdf4"/>
      <stop offset="1" stop-color="#fffaf0"/>
    </radialGradient>
    <linearGradient id="table" x1="0" y1="0" x2="1" y2="1">
      <stop offset="0" stop-color="#f4ecdf"/>
      <stop offset="1" stop-color="#d0bfa5"/>
    </linearGradient>
    <filter id="soft-shadow" x="-25%" y="-25%" width="150%" height="150%">
      <feDropShadow dx="0" dy="14" stdDeviation="15" flood-color="#303229" flood-opacity=".28"/>
    </filter>
    <filter id="grain">
      <feTurbulence type="fractalNoise" baseFrequency=".85" numOctaves="2" seed="9991" result="noise"/>
      <feColorMatrix type="saturate" values=".12"/>
      <feComponentTransfer>
        <feFuncA type="table" tableValues="0 .12"/>
      </feComponentTransfer>
      <feBlend mode="multiply" in2="SourceGraphic"/>
    </filter>
  </defs>
  <rect width="900" height="675" fill="url(#table)"/>
  <rect width="900" height="675" filter="url(#grain)" opacity=".34"/>
  <ellipse cx="450" cy="365" rx="332" ry="222" fill="#5d4b3c" opacity=".12"/>
  <ellipse cx="450" cy="350" rx="318" ry="214" fill="url(#plate-glow)"/>
  <ellipse cx="450" cy="350" rx="260" ry="164" fill="#f6ead4"/>
  <g><circle cx="399" cy="281" r="6" fill="#f4e6bd" opacity=".82"/><circle cx="440" cy="310" r="7" fill="#dfcca0" opacity=".82"/><circle cx="481" cy="339" r="8" fill="#dfcca0" opacity=".82"/><circle cx="522" cy="368" r="9" fill="#f4e6bd" opacity=".82"/><circle cx="563" cy="397" r="10" fill="#dfcca0" opacity=".82"/><circle cx="604" cy="426" r="4" fill="#dfcca0" opacity=".82"/><circle cx="645" cy="455" r="5" fill="#f4e6bd" opacity=".82"/><circle cx="276" cy="299" r="6" fill="#dfcca0" opacity=".82"/><circle cx="317" cy="328" r="7" fill="#dfcca0" opacity=".82"/><circle cx="358" cy="357" r="8" fill="#f4e6bd" opacity=".82"/><circle cx="399" cy="386" r="9" fill="#dfcca0" opacity=".82"/><circle cx="440" cy="415" r="10" fill="#dfcca0" opacity=".82"/><circle cx="481" cy="444" r="4" fill="#f4e6bd" opacity=".82"/><circle cx="522" cy="288" r="5" fill="#dfcca0" opacity=".82"/><circle cx="563" cy="317" r="6" fill="#dfcca0" opacity=".82"/><circle cx="604" cy="346" r="7" fill="#f4e6bd" opacity=".82"/><circle cx="645" cy="375" r="8" fill="#dfcca0" opacity=".82"/><circle cx="276" cy="404" r="9" fill="#dfcca0" opacity=".82"/><circle cx="317" cy="433" r="10" fill="#f4e6bd" opacity=".82"/><circle cx="358" cy="462" r="4" fill="#dfcca0" opacity=".82"/><circle cx="399" cy="306" r="5" fill="#dfcca0" opacity=".82"/><circle cx="440" cy="335" r="6" fill="#f4e6bd" opacity=".82"/><circle cx="481" cy="364" r="7" fill="#dfcca0" opacity=".82"/><circle cx="522" cy="393" r="8" fill="#dfcca0" opacity=".82"/><circle cx="563" cy="422" r="9" fill="#f4e6bd" opacity=".82"/><circle cx="604" cy="451" r="10" fill="#dfcca0" opacity=".82"/><circle cx="645" cy="295" r="4" fill="#dfcca0" opacity=".82"/><circle cx="276" cy="324" r="5" fill="#f4e6bd" opacity=".82"/><circle cx="317" cy="353" r="6" fill="#dfcca0" opacity=".82"/><circle cx="358" cy="382" r="7" fill="#dfcca0" opacity=".82"/><circle cx="399" cy="411" r="8" fill="#f4e6bd" opacity=".82"/><circle cx="440" cy="440" r="9" fill="#dfcca0" opacity=".82"/><circle cx="481" cy="284" r="10" fill="#dfcca0" opacity=".82"/><circle cx="522" cy="313" r="4" fill="#f4e6bd" opacity=".82"/><circle cx="563" cy="342" r="5" fill="#dfcca0" opacity=".82"/><circle cx="604" cy="371" r="6" fill="#dfcca0" opacity=".82"/><circle cx="645" cy="400" r="7" fill="#f4e6bd" opacity=".82"/><circle cx="276" cy="429" r="8" fill="#dfcca0" opacity=".82"/><circle cx="317" cy="458" r="9" fill="#dfcca0" opacity=".82"/><circle cx="358" cy="302" r="10" fill="#f4e6bd" opacity=".82"/><circle cx="399" cy="331" r="4" fill="#dfcca0" opacity=".82"/><circle cx="440" cy="360" r="5" fill="#dfcca0" opacity=".82"/><circle cx="481" cy="389" r="6" fill="#f4e6bd" opacity=".82"/><circle cx="522" cy="418" r="7" fill="#dfcca0" opacity=".82"/></g>
  
  <g filter="url(#soft-shadow)">
    <path d="M270 332c88-42 254-53 374-14 38 12 39 51 3 70-112 58-299 61-403 7-34-18-24-45 26-63z" fill="#f2ead8"/>
    <rect x="391" y="421" width="28" height="18" rx="5" fill="#b9a67e" transform="rotate(-24 391 421)"/><rect x="444" y="333" width="28" height="18" rx="5" fill="#fffaf0" transform="rotate(-12 444 333)"/><rect x="497" y="370" width="28" height="18" rx="5" fill="#fffaf0" transform="rotate(0 497 370)"/><rect x="550" y="407" width="28" height="18" rx="5" fill="#b9a67e" transform="rotate(12 550 407)"/><rect x="303" y="319" width="28" height="18" rx="5" fill="#fffaf0" transform="rotate(24 303 319)"/><rect x="356" y="356" width="28" height="18" rx="5" fill="#fffaf0" transform="rotate(-24 356 356)"/><rect x="409" y="393" width="28" height="18" rx="5" fill="#b9a67e" transform="rotate(-12 409 393)"/><rect x="462" y="305" width="28" height="18" rx="5" fill="#fffaf0" transform="rotate(0 462 305)"/><rect x="515" y="342" width="28" height="18" rx="5" fill="#fffaf0" transform="rotate(12 515 342)"/><rect x="568" y="379" width="28" height="18" rx="5" fill="#b9a67e" transform="rotate(24 568 379)"/><rect x="321" y="416" width="28" height="18" rx="5" fill="#fffaf0" transform="rotate(-24 321 416)"/><rect x="374" y="328" width="28" height="18" rx="5" fill="#fffaf0" transform="rotate(-12 374 328)"/><rect x="427" y="365" width="28" height="18" rx="5" fill="#b9a67e" transform="rotate(0 427 365)"/><rect x="480" y="402" width="28" height="18" rx="5" fill="#fffaf0" transform="rotate(12 480 402)"/><rect x="533" y="314" width="28" height="18" rx="5" fill="#fffaf0" transform="rotate(24 533 314)"/><rect x="586" y="351" width="28" height="18" rx="5" fill="#b9a67e" transform="rotate(-24 586 351)"/>
  </g>
  <g><rect x="271" y="361" width="58" height="14" rx="7" fill="#dc8543" transform="rotate(-26 271 361)" opacity=".82"/><rect x="342" y="414" width="58" height="14" rx="7" fill="#dc8543" transform="rotate(-11 342 414)" opacity=".82"/><rect x="413" y="287" width="58" height="14" rx="7" fill="#dc8543" transform="rotate(4 413 287)" opacity=".82"/><rect x="484" y="340" width="58" height="14" rx="7" fill="#dc8543" transform="rotate(19 484 340)" opacity=".82"/><rect x="555" y="393" width="58" height="14" rx="7" fill="#dc8543" transform="rotate(34 555 393)" opacity=".82"/><rect x="626" y="446" width="58" height="14" rx="7" fill="#dc8543" transform="rotate(-26 626 446)" opacity=".82"/><rect x="327" y="319" width="58" height="14" rx="7" fill="#dc8543" transform="rotate(-11 327 319)" opacity=".82"/><ellipse cx="476" cy="416" rx="31" ry="11" fill="#7aa36d" transform="rotate(-24 476 416)" opacity=".75"/><ellipse cx="537" cy="293" rx="31" ry="11" fill="#7aa36d" transform="rotate(-6 537 293)" opacity=".75"/><ellipse cx="598" cy="340" rx="31" ry="11" fill="#7aa36d" transform="rotate(12 598 340)" opacity=".75"/><ellipse cx="309" cy="387" rx="31" ry="11" fill="#7aa36d" transform="rotate(30 309 387)" opacity=".75"/><ellipse cx="370" cy="434" rx="31" ry="11" fill="#7aa36d" transform="rotate(-24 370 434)" opacity=".75"/><ellipse cx="431" cy="311" rx="31" ry="11" fill="#7aa36d" transform="rotate(-6 431 311)" opacity=".75"/><ellipse cx="516" cy="451" rx="20" ry="8" fill="#4e7459" transform="rotate(29 516 451)" opacity=".9"/><ellipse cx="583" cy="242" rx="25" ry="8" fill="#4e7459" transform="rotate(-16 583 242)" opacity=".9"/><ellipse cx="245" cy="283" rx="30" ry="8" fill="#4e7459" transform="rotate(7 245 283)" opacity=".9"/><ellipse cx="312" cy="324" rx="20" ry="8" fill="#4e7459" transform="rotate(30 312 324)" opacity=".9"/><ellipse cx="379" cy="365" rx="25" ry="8" fill="#4e7459" transform="rotate(-15 379 365)" opacity=".9"/><ellipse cx="446" cy="406" rx="30" ry="8" fill="#4e7459" transform="rotate(8 446 406)" opacity=".9"/><ellipse cx="513" cy="447" rx="20" ry="8" fill="#4e7459" transform="rotate(31 513 447)" opacity=".9"/><ellipse cx="580" cy="238" rx="25" ry="8" fill="#4e7459" transform="rotate(-14 580 238)" opacity=".9"/><ellipse cx="647" cy="279" rx="30" ry="8" fill="#4e7459" transform="rotate(9 647 279)" opacity=".9"/><ellipse cx="309" cy="320" rx="20" ry="8" fill="#4e7459" transform="rotate(32 309 320)" opacity=".9"/><ellipse cx="376" cy="361" rx="25" ry="8" fill="#4e7459" transform="rotate(-13 376 361)" opacity=".9"/><ellipse cx="443" cy="402" rx="30" ry="8" fill="#4e7459" transform="rotate(10 443 402)" opacity=".9"/><ellipse cx="510" cy="443" rx="20" ry="8" fill="#4e7459" transform="rotate(33 510 443)" opacity=".9"/></g>
  <g opacity=".95">
    <circle cx="539" cy="266" r="22" fill="#d9aa56"/>
    <path d="M539 245a22 22 0 0 1 0 44" fill="#fff3b0" opacity=".72"/>
  </g>
</svg>