<svg xmlns="http://www.w3.org/2000/svg" viewBox="0 0 900 675" role="img" aria-label="egg-based kosher meal with herbs">
  <defs>
    <radialGradient id="plate-glow" cx="50%" cy="46%" r="62%">
      <stop offset="0" stop-color="#fffdf4"/>
      <stop offset="1" stop-color="#fff9ec"/>
    </radialGradient>
    <linearGradient id="table" x1="0" y1="0" x2="1" y2="1">
      <stop offset="0" stop-color="#f5efe1"/>
      <stop offset="1" stop-color="#d3c2a4"/>
    </linearGradient>
    <filter id="soft-shadow" x="-25%" y="-25%" width="150%" height="150%">
      <feDropShadow dx="0" dy="14" stdDeviation="15" flood-color="#2d342b" flood-opacity=".28"/>
    </filter>
    <filter id="grain">
      <feTurbulence type="fractalNoise" baseFrequency=".85" numOctaves="2" seed="7566" result="noise"/>
      <feColorMatrix type="saturate" values=".12"/>
      <feComponentTransfer>
        <feFuncA type="table" tableValues="0 .12"/>
      </feComponentTransfer>
      <feBlend mode="multiply" in2="SourceGraphic"/>
    </filter>
  </defs>
  <rect width="900" height="675" fill="url(#table)"/>
  <rect width="900" height="675" filter="url(#grain)" opacity=".34"/>
  <ellipse cx="450" cy="365" rx="332" ry="222" fill="#5d4b3c" opacity=".12"/>
  <ellipse cx="450" cy="350" rx="318" ry="214" fill="url(#plate-glow)"/>
  <ellipse cx="450" cy="350" rx="260" ry="164" fill="#f6ead4"/>
  <g><circle cx="434" cy="446" r="10" fill="#f4e6bd" opacity=".82"/><circle cx="475" cy="290" r="4" fill="#ead7aa" opacity=".82"/><circle cx="516" cy="319" r="5" fill="#ead7aa" opacity=".82"/><circle cx="557" cy="348" r="6" fill="#f4e6bd" opacity=".82"/><circle cx="598" cy="377" r="7" fill="#ead7aa" opacity=".82"/><circle cx="639" cy="406" r="8" fill="#ead7aa" opacity=".82"/><circle cx="270" cy="435" r="9" fill="#f4e6bd" opacity=".82"/><circle cx="311" cy="464" r="10" fill="#ead7aa" opacity=".82"/><circle cx="352" cy="308" r="4" fill="#ead7aa" opacity=".82"/><circle cx="393" cy="337" r="5" fill="#f4e6bd" opacity=".82"/><circle cx="434" cy="366" r="6" fill="#ead7aa" opacity=".82"/><circle cx="475" cy="395" r="7" fill="#ead7aa" opacity=".82"/><circle cx="516" cy="424" r="8" fill="#f4e6bd" opacity=".82"/><circle cx="557" cy="453" r="9" fill="#ead7aa" opacity=".82"/><circle cx="598" cy="297" r="10" fill="#ead7aa" opacity=".82"/><circle cx="639" cy="326" r="4" fill="#f4e6bd" opacity=".82"/><circle cx="270" cy="355" r="5" fill="#ead7aa" opacity=".82"/><circle cx="311" cy="384" r="6" fill="#ead7aa" opacity=".82"/><circle cx="352" cy="413" r="7" fill="#f4e6bd" opacity=".82"/><circle cx="393" cy="442" r="8" fill="#ead7aa" opacity=".82"/><circle cx="434" cy="286" r="9" fill="#ead7aa" opacity=".82"/><circle cx="475" cy="315" r="10" fill="#f4e6bd" opacity=".82"/><circle cx="516" cy="344" r="4" fill="#ead7aa" opacity=".82"/><circle cx="557" cy="373" r="5" fill="#ead7aa" opacity=".82"/><circle cx="598" cy="402" r="6" fill="#f4e6bd" opacity=".82"/><circle cx="639" cy="431" r="7" fill="#ead7aa" opacity=".82"/><circle cx="270" cy="460" r="8" fill="#ead7aa" opacity=".82"/><circle cx="311" cy="304" r="9" fill="#f4e6bd" opacity=".82"/><circle cx="352" cy="333" r="10" fill="#ead7aa" opacity=".82"/><circle cx="393" cy="362" r="4" fill="#ead7aa" opacity=".82"/><circle cx="434" cy="391" r="5" fill="#f4e6bd" opacity=".82"/><circle cx="475" cy="420" r="6" fill="#ead7aa" opacity=".82"/><circle cx="516" cy="449" r="7" fill="#ead7aa" opacity=".82"/><circle cx="557" cy="293" r="8" fill="#f4e6bd" opacity=".82"/><circle cx="598" cy="322" r="9" fill="#ead7aa" opacity=".82"/><circle cx="639" cy="351" r="10" fill="#ead7aa" opacity=".82"/><circle cx="270" cy="380" r="4" fill="#f4e6bd" opacity=".82"/><circle cx="311" cy="409" r="5" fill="#ead7aa" opacity=".82"/><circle cx="352" cy="438" r="6" fill="#ead7aa" opacity=".82"/><circle cx="393" cy="282" r="7" fill="#f4e6bd" opacity=".82"/><circle cx="434" cy="311" r="8" fill="#ead7aa" opacity=".82"/><circle cx="475" cy="340" r="9" fill="#ead7aa" opacity=".82"/><circle cx="516" cy="369" r="10" fill="#f4e6bd" opacity=".82"/><circle cx="557" cy="398" r="4" fill="#ead7aa" opacity=".82"/></g>
  
  <g filter="url(#soft-shadow)">
    <ellipse cx="345" cy="330" rx="82" ry="62" fill="#fff6df"/>
    <circle cx="355" cy="330" r="30" fill="#e0a93e"/>
    <ellipse cx="515" cy="350" rx="88" ry="64" fill="#fff6df"/>
    <circle cx="505" cy="350" r="31" fill="#e0a93e"/>
    <path d="M274 423c84 23 258 19 370-12" fill="none" stroke="#f1ca61" stroke-width="18" stroke-linecap="round" opacity=".5"/>
  </g>
  <g><rect x="436" y="276" width="58" height="14" rx="7" fill="#dc8543" transform="rotate(-26 436 276)" opacity=".82"/><rect x="507" y="329" width="58" height="14" rx="7" fill="#dc8543" transform="rotate(-11 507 329)" opacity=".82"/><rect x="578" y="382" width="58" height="14" rx="7" fill="#dc8543" transform="rotate(4 578 382)" opacity=".82"/><rect x="279" y="435" width="58" height="14" rx="7" fill="#dc8543" transform="rotate(19 279 435)" opacity=".82"/><rect x="350" y="308" width="58" height="14" rx="7" fill="#dc8543" transform="rotate(34 350 308)" opacity=".82"/><rect x="421" y="361" width="58" height="14" rx="7" fill="#dc8543" transform="rotate(-26 421 361)" opacity=".82"/><rect x="492" y="414" width="58" height="14" rx="7" fill="#dc8543" transform="rotate(-11 492 414)" opacity=".82"/><ellipse cx="501" cy="371" rx="31" ry="11" fill="#7aa36d" transform="rotate(-24 501 371)" opacity=".75"/><ellipse cx="562" cy="418" rx="31" ry="11" fill="#7aa36d" transform="rotate(-6 562 418)" opacity=".75"/><ellipse cx="623" cy="295" rx="31" ry="11" fill="#7aa36d" transform="rotate(12 623 295)" opacity=".75"/><ellipse cx="334" cy="342" rx="31" ry="11" fill="#7aa36d" transform="rotate(30 334 342)" opacity=".75"/><ellipse cx="395" cy="389" rx="31" ry="11" fill="#7aa36d" transform="rotate(-24 395 389)" opacity=".75"/><ellipse cx="456" cy="436" rx="31" ry="11" fill="#7aa36d" transform="rotate(-6 456 436)" opacity=".75"/><ellipse cx="521" cy="276" rx="20" ry="8" fill="#59805b" transform="rotate(-16 521 276)" opacity=".9"/><ellipse cx="588" cy="317" rx="25" ry="8" fill="#59805b" transform="rotate(7 588 317)" opacity=".9"/><ellipse cx="250" cy="358" rx="30" ry="8" fill="#59805b" transform="rotate(30 250 358)" opacity=".9"/><ellipse cx="317" cy="399" rx="20" ry="8" fill="#59805b" transform="rotate(-15 317 399)" opacity=".9"/><ellipse cx="384" cy="440" rx="25" ry="8" fill="#59805b" transform="rotate(8 384 440)" opacity=".9"/><ellipse cx="451" cy="231" rx="30" ry="8" fill="#59805b" transform="rotate(31 451 231)" opacity=".9"/><ellipse cx="518" cy="272" rx="20" ry="8" fill="#59805b" transform="rotate(-14 518 272)" opacity=".9"/><ellipse cx="585" cy="313" rx="25" ry="8" fill="#59805b" transform="rotate(9 585 313)" opacity=".9"/><ellipse cx="247" cy="354" rx="30" ry="8" fill="#59805b" transform="rotate(32 247 354)" opacity=".9"/><ellipse cx="314" cy="395" rx="20" ry="8" fill="#59805b" transform="rotate(-13 314 395)" opacity=".9"/><ellipse cx="381" cy="436" rx="25" ry="8" fill="#59805b" transform="rotate(10 381 436)" opacity=".9"/><ellipse cx="448" cy="227" rx="30" ry="8" fill="#59805b" transform="rotate(33 448 227)" opacity=".9"/><ellipse cx="515" cy="268" rx="20" ry="8" fill="#59805b" transform="rotate(-12 515 268)" opacity=".9"/></g>
  <g opacity=".95">
    <circle cx="564" cy="241" r="22" fill="#f1ca61"/>
    <path d="M564 220a22 22 0 0 1 0 44" fill="#fff3b0" opacity=".72"/>
  </g>
</svg>