<svg xmlns="http://www.w3.org/2000/svg" viewBox="0 0 900 675" role="img" aria-label="kosher lamb or duck with herbs">
  <defs>
    <radialGradient id="plate-glow" cx="50%" cy="46%" r="62%">
      <stop offset="0" stop-color="#fffdf4"/>
      <stop offset="1" stop-color="#fff7e9"/>
    </radialGradient>
    <linearGradient id="table" x1="0" y1="0" x2="1" y2="1">
      <stop offset="0" stop-color="#eee2d2"/>
      <stop offset="1" stop-color="#c7a987"/>
    </linearGradient>
    <filter id="soft-shadow" x="-25%" y="-25%" width="150%" height="150%">
      <feDropShadow dx="0" dy="14" stdDeviation="15" flood-color="#332821" flood-opacity=".28"/>
    </filter>
    <filter id="grain">
      <feTurbulence type="fractalNoise" baseFrequency=".85" numOctaves="2" seed="6596" result="noise"/>
      <feColorMatrix type="saturate" values=".12"/>
      <feComponentTransfer>
        <feFuncA type="table" tableValues="0 .12"/>
      </feComponentTransfer>
      <feBlend mode="multiply" in2="SourceGraphic"/>
    </filter>
  </defs>
  <rect width="900" height="675" fill="url(#table)"/>
  <rect width="900" height="675" filter="url(#grain)" opacity=".34"/>
  <ellipse cx="450" cy="365" rx="332" ry="222" fill="#5d4b3c" opacity=".12"/>
  <ellipse cx="450" cy="350" rx="318" ry="214" fill="url(#plate-glow)"/>
  <ellipse cx="450" cy="350" rx="260" ry="164" fill="#f6ead4"/>
  <g><circle cx="284" cy="401" r="6" fill="#f4e6bd" opacity=".82"/><circle cx="325" cy="430" r="7" fill="#dbc391" opacity=".82"/><circle cx="366" cy="459" r="8" fill="#dbc391" opacity=".82"/><circle cx="407" cy="303" r="9" fill="#f4e6bd" opacity=".82"/><circle cx="448" cy="332" r="10" fill="#dbc391" opacity=".82"/><circle cx="489" cy="361" r="4" fill="#dbc391" opacity=".82"/><circle cx="530" cy="390" r="5" fill="#f4e6bd" opacity=".82"/><circle cx="571" cy="419" r="6" fill="#dbc391" opacity=".82"/><circle cx="612" cy="448" r="7" fill="#dbc391" opacity=".82"/><circle cx="653" cy="292" r="8" fill="#f4e6bd" opacity=".82"/><circle cx="284" cy="321" r="9" fill="#dbc391" opacity=".82"/><circle cx="325" cy="350" r="10" fill="#dbc391" opacity=".82"/><circle cx="366" cy="379" r="4" fill="#f4e6bd" opacity=".82"/><circle cx="407" cy="408" r="5" fill="#dbc391" opacity=".82"/><circle cx="448" cy="437" r="6" fill="#dbc391" opacity=".82"/><circle cx="489" cy="281" r="7" fill="#f4e6bd" opacity=".82"/><circle cx="530" cy="310" r="8" fill="#dbc391" opacity=".82"/><circle cx="571" cy="339" r="9" fill="#dbc391" opacity=".82"/><circle cx="612" cy="368" r="10" fill="#f4e6bd" opacity=".82"/><circle cx="653" cy="397" r="4" fill="#dbc391" opacity=".82"/><circle cx="284" cy="426" r="5" fill="#dbc391" opacity=".82"/><circle cx="325" cy="455" r="6" fill="#f4e6bd" opacity=".82"/><circle cx="366" cy="299" r="7" fill="#dbc391" opacity=".82"/><circle cx="407" cy="328" r="8" fill="#dbc391" opacity=".82"/><circle cx="448" cy="357" r="9" fill="#f4e6bd" opacity=".82"/><circle cx="489" cy="386" r="10" fill="#dbc391" opacity=".82"/><circle cx="530" cy="415" r="4" fill="#dbc391" opacity=".82"/><circle cx="571" cy="444" r="5" fill="#f4e6bd" opacity=".82"/><circle cx="612" cy="288" r="6" fill="#dbc391" opacity=".82"/><circle cx="653" cy="317" r="7" fill="#dbc391" opacity=".82"/><circle cx="284" cy="346" r="8" fill="#f4e6bd" opacity=".82"/><circle cx="325" cy="375" r="9" fill="#dbc391" opacity=".82"/><circle cx="366" cy="404" r="10" fill="#dbc391" opacity=".82"/><circle cx="407" cy="433" r="4" fill="#f4e6bd" opacity=".82"/><circle cx="448" cy="462" r="5" fill="#dbc391" opacity=".82"/><circle cx="489" cy="306" r="6" fill="#dbc391" opacity=".82"/><circle cx="530" cy="335" r="7" fill="#f4e6bd" opacity=".82"/><circle cx="571" cy="364" r="8" fill="#dbc391" opacity=".82"/><circle cx="612" cy="393" r="9" fill="#dbc391" opacity=".82"/><circle cx="653" cy="422" r="10" fill="#f4e6bd" opacity=".82"/><circle cx="284" cy="451" r="4" fill="#dbc391" opacity=".82"/><circle cx="325" cy="295" r="5" fill="#dbc391" opacity=".82"/><circle cx="366" cy="324" r="6" fill="#f4e6bd" opacity=".82"/><circle cx="407" cy="353" r="7" fill="#dbc391" opacity=".82"/></g>
  
  <g filter="url(#soft-shadow)" fill="#8a4f3d">
    <ellipse cx="330" cy="330" rx="86" ry="54" transform="rotate(-18 330 330)"/>
    <ellipse cx="465" cy="316" rx="95" ry="58" transform="rotate(10 465 316)"/>
    <ellipse cx="560" cy="398" rx="86" ry="50" transform="rotate(-10 560 398)"/>
    <path d="M280 360c78 35 196 38 320 5" fill="none" stroke="#5d372e" stroke-width="11" stroke-linecap="round" opacity=".45"/>
  </g>
  <g><rect x="576" y="386" width="58" height="14" rx="7" fill="#dc8543" transform="rotate(-26 576 386)" opacity=".82"/><rect x="277" y="439" width="58" height="14" rx="7" fill="#dc8543" transform="rotate(-11 277 439)" opacity=".82"/><rect x="348" y="312" width="58" height="14" rx="7" fill="#dc8543" transform="rotate(4 348 312)" opacity=".82"/><rect x="419" y="365" width="58" height="14" rx="7" fill="#dc8543" transform="rotate(19 419 365)" opacity=".82"/><rect x="490" y="418" width="58" height="14" rx="7" fill="#dc8543" transform="rotate(34 490 418)" opacity=".82"/><rect x="561" y="291" width="58" height="14" rx="7" fill="#dc8543" transform="rotate(-26 561 291)" opacity=".82"/><rect x="632" y="344" width="58" height="14" rx="7" fill="#dc8543" transform="rotate(-11 632 344)" opacity=".82"/><ellipse cx="581" cy="421" rx="31" ry="11" fill="#7aa36d" transform="rotate(-24 581 421)" opacity=".75"/><ellipse cx="292" cy="298" rx="31" ry="11" fill="#7aa36d" transform="rotate(-6 292 298)" opacity=".75"/><ellipse cx="353" cy="345" rx="31" ry="11" fill="#7aa36d" transform="rotate(12 353 345)" opacity=".75"/><ellipse cx="414" cy="392" rx="31" ry="11" fill="#7aa36d" transform="rotate(30 414 392)" opacity=".75"/><ellipse cx="475" cy="439" rx="31" ry="11" fill="#7aa36d" transform="rotate(-24 475 439)" opacity=".75"/><ellipse cx="536" cy="316" rx="31" ry="11" fill="#7aa36d" transform="rotate(-6 536 316)" opacity=".75"/><ellipse cx="361" cy="306" rx="20" ry="8" fill="#52714b" transform="rotate(-34 361 306)" opacity=".9"/><ellipse cx="428" cy="347" rx="25" ry="8" fill="#52714b" transform="rotate(-11 428 347)" opacity=".9"/><ellipse cx="495" cy="388" rx="30" ry="8" fill="#52714b" transform="rotate(12 495 388)" opacity=".9"/><ellipse cx="562" cy="429" rx="20" ry="8" fill="#52714b" transform="rotate(-33 562 429)" opacity=".9"/><ellipse cx="629" cy="220" rx="25" ry="8" fill="#52714b" transform="rotate(-10 629 220)" opacity=".9"/><ellipse cx="291" cy="261" rx="30" ry="8" fill="#52714b" transform="rotate(13 291 261)" opacity=".9"/><ellipse cx="358" cy="302" rx="20" ry="8" fill="#52714b" transform="rotate(-32 358 302)" opacity=".9"/><ellipse cx="425" cy="343" rx="25" ry="8" fill="#52714b" transform="rotate(-9 425 343)" opacity=".9"/><ellipse cx="492" cy="384" rx="30" ry="8" fill="#52714b" transform="rotate(14 492 384)" opacity=".9"/><ellipse cx="559" cy="425" rx="20" ry="8" fill="#52714b" transform="rotate(-31 559 425)" opacity=".9"/><ellipse cx="626" cy="216" rx="25" ry="8" fill="#52714b" transform="rotate(-8 626 216)" opacity=".9"/><ellipse cx="288" cy="257" rx="30" ry="8" fill="#52714b" transform="rotate(15 288 257)" opacity=".9"/><ellipse cx="355" cy="298" rx="20" ry="8" fill="#52714b" transform="rotate(-30 355 298)" opacity=".9"/></g>
  <g opacity=".95">
    <circle cx="574" cy="271" r="22" fill="#e2a94c"/>
    <path d="M574 250a22 22 0 0 1 0 44" fill="#fff3b0" opacity=".72"/>
  </g>
</svg>