<svg xmlns="http://www.w3.org/2000/svg" viewBox="0 0 900 675" role="img" aria-label="legume bowls with warm spices">
  <defs>
    <radialGradient id="plate-glow" cx="50%" cy="46%" r="62%">
      <stop offset="0" stop-color="#fffdf4"/>
      <stop offset="1" stop-color="#fff8ec"/>
    </radialGradient>
    <linearGradient id="table" x1="0" y1="0" x2="1" y2="1">
      <stop offset="0" stop-color="#f1ead8"/>
      <stop offset="1" stop-color="#cdb896"/>
    </linearGradient>
    <filter id="soft-shadow" x="-25%" y="-25%" width="150%" height="150%">
      <feDropShadow dx="0" dy="14" stdDeviation="15" flood-color="#322d24" flood-opacity=".28"/>
    </filter>
    <filter id="grain">
      <feTurbulence type="fractalNoise" baseFrequency=".85" numOctaves="2" seed="8245" result="noise"/>
      <feColorMatrix type="saturate" values=".12"/>
      <feComponentTransfer>
        <feFuncA type="table" tableValues="0 .12"/>
      </feComponentTransfer>
      <feBlend mode="multiply" in2="SourceGraphic"/>
    </filter>
  </defs>
  <rect width="900" height="675" fill="url(#table)"/>
  <rect width="900" height="675" filter="url(#grain)" opacity=".34"/>
  <ellipse cx="450" cy="365" rx="332" ry="222" fill="#5d4b3c" opacity=".12"/>
  <ellipse cx="450" cy="350" rx="318" ry="214" fill="url(#plate-glow)"/>
  <ellipse cx="450" cy="350" rx="260" ry="164" fill="#f6ead4"/>
  <g><circle cx="293" cy="385" r="10" fill="#f4e6bd" opacity=".82"/><circle cx="334" cy="414" r="4" fill="#e5d19b" opacity=".82"/><circle cx="375" cy="443" r="5" fill="#e5d19b" opacity=".82"/><circle cx="416" cy="287" r="6" fill="#f4e6bd" opacity=".82"/><circle cx="457" cy="316" r="7" fill="#e5d19b" opacity=".82"/><circle cx="498" cy="345" r="8" fill="#e5d19b" opacity=".82"/><circle cx="539" cy="374" r="9" fill="#f4e6bd" opacity=".82"/><circle cx="580" cy="403" r="10" fill="#e5d19b" opacity=".82"/><circle cx="621" cy="432" r="4" fill="#e5d19b" opacity=".82"/><circle cx="252" cy="461" r="5" fill="#f4e6bd" opacity=".82"/><circle cx="293" cy="305" r="6" fill="#e5d19b" opacity=".82"/><circle cx="334" cy="334" r="7" fill="#e5d19b" opacity=".82"/><circle cx="375" cy="363" r="8" fill="#f4e6bd" opacity=".82"/><circle cx="416" cy="392" r="9" fill="#e5d19b" opacity=".82"/><circle cx="457" cy="421" r="10" fill="#e5d19b" opacity=".82"/><circle cx="498" cy="450" r="4" fill="#f4e6bd" opacity=".82"/><circle cx="539" cy="294" r="5" fill="#e5d19b" opacity=".82"/><circle cx="580" cy="323" r="6" fill="#e5d19b" opacity=".82"/><circle cx="621" cy="352" r="7" fill="#f4e6bd" opacity=".82"/><circle cx="252" cy="381" r="8" fill="#e5d19b" opacity=".82"/><circle cx="293" cy="410" r="9" fill="#e5d19b" opacity=".82"/><circle cx="334" cy="439" r="10" fill="#f4e6bd" opacity=".82"/><circle cx="375" cy="283" r="4" fill="#e5d19b" opacity=".82"/><circle cx="416" cy="312" r="5" fill="#e5d19b" opacity=".82"/><circle cx="457" cy="341" r="6" fill="#f4e6bd" opacity=".82"/><circle cx="498" cy="370" r="7" fill="#e5d19b" opacity=".82"/><circle cx="539" cy="399" r="8" fill="#e5d19b" opacity=".82"/><circle cx="580" cy="428" r="9" fill="#f4e6bd" opacity=".82"/><circle cx="621" cy="457" r="10" fill="#e5d19b" opacity=".82"/><circle cx="252" cy="301" r="4" fill="#e5d19b" opacity=".82"/><circle cx="293" cy="330" r="5" fill="#f4e6bd" opacity=".82"/><circle cx="334" cy="359" r="6" fill="#e5d19b" opacity=".82"/><circle cx="375" cy="388" r="7" fill="#e5d19b" opacity=".82"/><circle cx="416" cy="417" r="8" fill="#f4e6bd" opacity=".82"/><circle cx="457" cy="446" r="9" fill="#e5d19b" opacity=".82"/><circle cx="498" cy="290" r="10" fill="#e5d19b" opacity=".82"/><circle cx="539" cy="319" r="4" fill="#f4e6bd" opacity=".82"/><circle cx="580" cy="348" r="5" fill="#e5d19b" opacity=".82"/><circle cx="621" cy="377" r="6" fill="#e5d19b" opacity=".82"/><circle cx="252" cy="406" r="7" fill="#f4e6bd" opacity=".82"/><circle cx="293" cy="435" r="8" fill="#e5d19b" opacity=".82"/><circle cx="334" cy="464" r="9" fill="#e5d19b" opacity=".82"/><circle cx="375" cy="308" r="10" fill="#f4e6bd" opacity=".82"/><circle cx="416" cy="337" r="4" fill="#e5d19b" opacity=".82"/></g>
  
  <g filter="url(#soft-shadow)" fill="#c5894d">
    <circle cx="485" cy="380" r="14"/><circle cx="532" cy="411" r="15"/><circle cx="579" cy="442" r="16"/><circle cx="316" cy="313" r="17"/><circle cx="363" cy="344" r="18"/><circle cx="410" cy="375" r="19"/><circle cx="457" cy="406" r="20"/><circle cx="504" cy="437" r="21"/><circle cx="551" cy="308" r="13"/><circle cx="598" cy="339" r="14"/><circle cx="335" cy="370" r="15"/><circle cx="382" cy="401" r="16"/><circle cx="429" cy="432" r="17"/><circle cx="476" cy="303" r="18"/><circle cx="523" cy="334" r="19"/><circle cx="570" cy="365" r="20"/><circle cx="307" cy="396" r="21"/><circle cx="354" cy="427" r="13"/><circle cx="401" cy="298" r="14"/><circle cx="448" cy="329" r="15"/><circle cx="495" cy="360" r="16"/><circle cx="542" cy="391" r="17"/>
  </g>
  <g><rect x="375" y="415" width="58" height="14" rx="7" fill="#dc8543" transform="rotate(-26 375 415)" opacity=".82"/><rect x="446" y="288" width="58" height="14" rx="7" fill="#dc8543" transform="rotate(-11 446 288)" opacity=".82"/><rect x="517" y="341" width="58" height="14" rx="7" fill="#dc8543" transform="rotate(4 517 341)" opacity=".82"/><rect x="588" y="394" width="58" height="14" rx="7" fill="#dc8543" transform="rotate(19 588 394)" opacity=".82"/><rect x="289" y="447" width="58" height="14" rx="7" fill="#dc8543" transform="rotate(34 289 447)" opacity=".82"/><rect x="360" y="320" width="58" height="14" rx="7" fill="#dc8543" transform="rotate(-26 360 320)" opacity=".82"/><rect x="431" y="373" width="58" height="14" rx="7" fill="#dc8543" transform="rotate(-11 431 373)" opacity=".82"/><ellipse cx="480" cy="370" rx="31" ry="11" fill="#7aa36d" transform="rotate(-24 480 370)" opacity=".75"/><ellipse cx="541" cy="417" rx="31" ry="11" fill="#7aa36d" transform="rotate(-6 541 417)" opacity=".75"/><ellipse cx="602" cy="294" rx="31" ry="11" fill="#7aa36d" transform="rotate(12 602 294)" opacity=".75"/><ellipse cx="313" cy="341" rx="31" ry="11" fill="#7aa36d" transform="rotate(30 313 341)" opacity=".75"/><ellipse cx="374" cy="388" rx="31" ry="11" fill="#7aa36d" transform="rotate(-24 374 388)" opacity=".75"/><ellipse cx="435" cy="435" rx="31" ry="11" fill="#7aa36d" transform="rotate(-6 435 435)" opacity=".75"/><ellipse cx="390" cy="455" rx="20" ry="8" fill="#56764f" transform="rotate(-17 390 455)" opacity=".9"/><ellipse cx="457" cy="246" rx="25" ry="8" fill="#56764f" transform="rotate(6 457 246)" opacity=".9"/><ellipse cx="524" cy="287" rx="30" ry="8" fill="#56764f" transform="rotate(29 524 287)" opacity=".9"/><ellipse cx="591" cy="328" rx="20" ry="8" fill="#56764f" transform="rotate(-16 591 328)" opacity=".9"/><ellipse cx="253" cy="369" rx="25" ry="8" fill="#56764f" transform="rotate(7 253 369)" opacity=".9"/><ellipse cx="320" cy="410" rx="30" ry="8" fill="#56764f" transform="rotate(30 320 410)" opacity=".9"/><ellipse cx="387" cy="451" rx="20" ry="8" fill="#56764f" transform="rotate(-15 387 451)" opacity=".9"/><ellipse cx="454" cy="242" rx="25" ry="8" fill="#56764f" transform="rotate(8 454 242)" opacity=".9"/><ellipse cx="521" cy="283" rx="30" ry="8" fill="#56764f" transform="rotate(31 521 283)" opacity=".9"/><ellipse cx="588" cy="324" rx="20" ry="8" fill="#56764f" transform="rotate(-14 588 324)" opacity=".9"/><ellipse cx="250" cy="365" rx="25" ry="8" fill="#56764f" transform="rotate(9 250 365)" opacity=".9"/><ellipse cx="317" cy="406" rx="30" ry="8" fill="#56764f" transform="rotate(32 317 406)" opacity=".9"/><ellipse cx="384" cy="447" rx="20" ry="8" fill="#56764f" transform="rotate(-13 384 447)" opacity=".9"/></g>
  <g opacity=".95">
    <circle cx="605" cy="240" r="22" fill="#deb04d"/>
    <path d="M605 219a22 22 0 0 1 0 44" fill="#fff3b0" opacity=".72"/>
  </g>
</svg>