<svg xmlns="http://www.w3.org/2000/svg" viewBox="0 0 900 675" role="img" aria-label="legume bowls with warm spices">
  <defs>
    <radialGradient id="plate-glow" cx="50%" cy="46%" r="62%">
      <stop offset="0" stop-color="#fffdf4"/>
      <stop offset="1" stop-color="#fff8ec"/>
    </radialGradient>
    <linearGradient id="table" x1="0" y1="0" x2="1" y2="1">
      <stop offset="0" stop-color="#f1ead8"/>
      <stop offset="1" stop-color="#cdb896"/>
    </linearGradient>
    <filter id="soft-shadow" x="-25%" y="-25%" width="150%" height="150%">
      <feDropShadow dx="0" dy="14" stdDeviation="15" flood-color="#322d24" flood-opacity=".28"/>
    </filter>
    <filter id="grain">
      <feTurbulence type="fractalNoise" baseFrequency=".85" numOctaves="2" seed="8730" result="noise"/>
      <feColorMatrix type="saturate" values=".12"/>
      <feComponentTransfer>
        <feFuncA type="table" tableValues="0 .12"/>
      </feComponentTransfer>
      <feBlend mode="multiply" in2="SourceGraphic"/>
    </filter>
  </defs>
  <rect width="900" height="675" fill="url(#table)"/>
  <rect width="900" height="675" filter="url(#grain)" opacity=".34"/>
  <ellipse cx="450" cy="365" rx="332" ry="222" fill="#5d4b3c" opacity=".12"/>
  <ellipse cx="450" cy="350" rx="318" ry="214" fill="url(#plate-glow)"/>
  <ellipse cx="450" cy="350" rx="260" ry="164" fill="#f6ead4"/>
  <g><circle cx="368" cy="315" r="5" fill="#f4e6bd" opacity=".82"/><circle cx="409" cy="344" r="6" fill="#e5d19b" opacity=".82"/><circle cx="450" cy="373" r="7" fill="#e5d19b" opacity=".82"/><circle cx="491" cy="402" r="8" fill="#f4e6bd" opacity=".82"/><circle cx="532" cy="431" r="9" fill="#e5d19b" opacity=".82"/><circle cx="573" cy="460" r="10" fill="#e5d19b" opacity=".82"/><circle cx="614" cy="304" r="4" fill="#f4e6bd" opacity=".82"/><circle cx="655" cy="333" r="5" fill="#e5d19b" opacity=".82"/><circle cx="286" cy="362" r="6" fill="#e5d19b" opacity=".82"/><circle cx="327" cy="391" r="7" fill="#f4e6bd" opacity=".82"/><circle cx="368" cy="420" r="8" fill="#e5d19b" opacity=".82"/><circle cx="409" cy="449" r="9" fill="#e5d19b" opacity=".82"/><circle cx="450" cy="293" r="10" fill="#f4e6bd" opacity=".82"/><circle cx="491" cy="322" r="4" fill="#e5d19b" opacity=".82"/><circle cx="532" cy="351" r="5" fill="#e5d19b" opacity=".82"/><circle cx="573" cy="380" r="6" fill="#f4e6bd" opacity=".82"/><circle cx="614" cy="409" r="7" fill="#e5d19b" opacity=".82"/><circle cx="655" cy="438" r="8" fill="#e5d19b" opacity=".82"/><circle cx="286" cy="282" r="9" fill="#f4e6bd" opacity=".82"/><circle cx="327" cy="311" r="10" fill="#e5d19b" opacity=".82"/><circle cx="368" cy="340" r="4" fill="#e5d19b" opacity=".82"/><circle cx="409" cy="369" r="5" fill="#f4e6bd" opacity=".82"/><circle cx="450" cy="398" r="6" fill="#e5d19b" opacity=".82"/><circle cx="491" cy="427" r="7" fill="#e5d19b" opacity=".82"/><circle cx="532" cy="456" r="8" fill="#f4e6bd" opacity=".82"/><circle cx="573" cy="300" r="9" fill="#e5d19b" opacity=".82"/><circle cx="614" cy="329" r="10" fill="#e5d19b" opacity=".82"/><circle cx="655" cy="358" r="4" fill="#f4e6bd" opacity=".82"/><circle cx="286" cy="387" r="5" fill="#e5d19b" opacity=".82"/><circle cx="327" cy="416" r="6" fill="#e5d19b" opacity=".82"/><circle cx="368" cy="445" r="7" fill="#f4e6bd" opacity=".82"/><circle cx="409" cy="289" r="8" fill="#e5d19b" opacity=".82"/><circle cx="450" cy="318" r="9" fill="#e5d19b" opacity=".82"/><circle cx="491" cy="347" r="10" fill="#f4e6bd" opacity=".82"/><circle cx="532" cy="376" r="4" fill="#e5d19b" opacity=".82"/><circle cx="573" cy="405" r="5" fill="#e5d19b" opacity=".82"/><circle cx="614" cy="434" r="6" fill="#f4e6bd" opacity=".82"/><circle cx="655" cy="463" r="7" fill="#e5d19b" opacity=".82"/><circle cx="286" cy="307" r="8" fill="#e5d19b" opacity=".82"/><circle cx="327" cy="336" r="9" fill="#f4e6bd" opacity=".82"/><circle cx="368" cy="365" r="10" fill="#e5d19b" opacity=".82"/><circle cx="409" cy="394" r="4" fill="#e5d19b" opacity=".82"/><circle cx="450" cy="423" r="5" fill="#f4e6bd" opacity=".82"/><circle cx="491" cy="452" r="6" fill="#e5d19b" opacity=".82"/></g>
  
  <g filter="url(#soft-shadow)" fill="#c5894d">
    <circle cx="350" cy="385" r="13"/><circle cx="397" cy="416" r="14"/><circle cx="444" cy="447" r="15"/><circle cx="491" cy="318" r="16"/><circle cx="538" cy="349" r="17"/><circle cx="585" cy="380" r="18"/><circle cx="322" cy="411" r="19"/><circle cx="369" cy="442" r="20"/><circle cx="416" cy="313" r="21"/><circle cx="463" cy="344" r="13"/><circle cx="510" cy="375" r="14"/><circle cx="557" cy="406" r="15"/><circle cx="604" cy="437" r="16"/><circle cx="341" cy="308" r="17"/><circle cx="388" cy="339" r="18"/><circle cx="435" cy="370" r="19"/><circle cx="482" cy="401" r="20"/><circle cx="529" cy="432" r="21"/><circle cx="576" cy="303" r="13"/><circle cx="313" cy="334" r="14"/><circle cx="360" cy="365" r="15"/><circle cx="407" cy="396" r="16"/>
  </g>
  <g><rect x="490" y="360" width="58" height="14" rx="7" fill="#dc8543" transform="rotate(-26 490 360)" opacity=".82"/><rect x="561" y="413" width="58" height="14" rx="7" fill="#dc8543" transform="rotate(-11 561 413)" opacity=".82"/><rect x="632" y="286" width="58" height="14" rx="7" fill="#dc8543" transform="rotate(4 632 286)" opacity=".82"/><rect x="333" y="339" width="58" height="14" rx="7" fill="#dc8543" transform="rotate(19 333 339)" opacity=".82"/><rect x="404" y="392" width="58" height="14" rx="7" fill="#dc8543" transform="rotate(34 404 392)" opacity=".82"/><rect x="475" y="445" width="58" height="14" rx="7" fill="#dc8543" transform="rotate(-26 475 445)" opacity=".82"/><rect x="546" y="318" width="58" height="14" rx="7" fill="#dc8543" transform="rotate(-11 546 318)" opacity=".82"/><ellipse cx="615" cy="345" rx="31" ry="11" fill="#7aa36d" transform="rotate(-24 615 345)" opacity=".75"/><ellipse cx="326" cy="392" rx="31" ry="11" fill="#7aa36d" transform="rotate(-6 326 392)" opacity=".75"/><ellipse cx="387" cy="439" rx="31" ry="11" fill="#7aa36d" transform="rotate(12 387 439)" opacity=".75"/><ellipse cx="448" cy="316" rx="31" ry="11" fill="#7aa36d" transform="rotate(30 448 316)" opacity=".75"/><ellipse cx="509" cy="363" rx="31" ry="11" fill="#7aa36d" transform="rotate(-24 509 363)" opacity=".75"/><ellipse cx="570" cy="410" rx="31" ry="11" fill="#7aa36d" transform="rotate(-6 570 410)" opacity=".75"/><ellipse cx="470" cy="440" rx="20" ry="8" fill="#56764f" transform="rotate(-8 470 440)" opacity=".9"/><ellipse cx="537" cy="231" rx="25" ry="8" fill="#56764f" transform="rotate(15 537 231)" opacity=".9"/><ellipse cx="604" cy="272" rx="30" ry="8" fill="#56764f" transform="rotate(-30 604 272)" opacity=".9"/><ellipse cx="266" cy="313" rx="20" ry="8" fill="#56764f" transform="rotate(-7 266 313)" opacity=".9"/><ellipse cx="333" cy="354" rx="25" ry="8" fill="#56764f" transform="rotate(16 333 354)" opacity=".9"/><ellipse cx="400" cy="395" rx="30" ry="8" fill="#56764f" transform="rotate(-29 400 395)" opacity=".9"/><ellipse cx="467" cy="436" rx="20" ry="8" fill="#56764f" transform="rotate(-6 467 436)" opacity=".9"/><ellipse cx="534" cy="227" rx="25" ry="8" fill="#56764f" transform="rotate(17 534 227)" opacity=".9"/><ellipse cx="601" cy="268" rx="30" ry="8" fill="#56764f" transform="rotate(-28 601 268)" opacity=".9"/><ellipse cx="263" cy="309" rx="20" ry="8" fill="#56764f" transform="rotate(-5 263 309)" opacity=".9"/><ellipse cx="330" cy="350" rx="25" ry="8" fill="#56764f" transform="rotate(18 330 350)" opacity=".9"/><ellipse cx="397" cy="391" rx="30" ry="8" fill="#56764f" transform="rotate(-27 397 391)" opacity=".9"/><ellipse cx="464" cy="432" rx="20" ry="8" fill="#56764f" transform="rotate(-4 464 432)" opacity=".9"/></g>
  <g opacity=".95">
    <circle cx="600" cy="245" r="22" fill="#deb04d"/>
    <path d="M600 224a22 22 0 0 1 0 44" fill="#fff3b0" opacity=".72"/>
  </g>
</svg>