<svg xmlns="http://www.w3.org/2000/svg" viewBox="0 0 900 675" role="img" aria-label="legume bowls with warm spices">
  <defs>
    <radialGradient id="plate-glow" cx="50%" cy="46%" r="62%">
      <stop offset="0" stop-color="#fffdf4"/>
      <stop offset="1" stop-color="#fff8ec"/>
    </radialGradient>
    <linearGradient id="table" x1="0" y1="0" x2="1" y2="1">
      <stop offset="0" stop-color="#f1ead8"/>
      <stop offset="1" stop-color="#cdb896"/>
    </linearGradient>
    <filter id="soft-shadow" x="-25%" y="-25%" width="150%" height="150%">
      <feDropShadow dx="0" dy="14" stdDeviation="15" flood-color="#322d24" flood-opacity=".28"/>
    </filter>
    <filter id="grain">
      <feTurbulence type="fractalNoise" baseFrequency=".85" numOctaves="2" seed="8827" result="noise"/>
      <feColorMatrix type="saturate" values=".12"/>
      <feComponentTransfer>
        <feFuncA type="table" tableValues="0 .12"/>
      </feComponentTransfer>
      <feBlend mode="multiply" in2="SourceGraphic"/>
    </filter>
  </defs>
  <rect width="900" height="675" fill="url(#table)"/>
  <rect width="900" height="675" filter="url(#grain)" opacity=".34"/>
  <ellipse cx="450" cy="365" rx="332" ry="222" fill="#5d4b3c" opacity=".12"/>
  <ellipse cx="450" cy="350" rx="318" ry="214" fill="url(#plate-glow)"/>
  <ellipse cx="450" cy="350" rx="260" ry="164" fill="#f6ead4"/>
  <g><circle cx="465" cy="412" r="4" fill="#f4e6bd" opacity=".82"/><circle cx="506" cy="441" r="5" fill="#e5d19b" opacity=".82"/><circle cx="547" cy="285" r="6" fill="#e5d19b" opacity=".82"/><circle cx="588" cy="314" r="7" fill="#f4e6bd" opacity=".82"/><circle cx="629" cy="343" r="8" fill="#e5d19b" opacity=".82"/><circle cx="260" cy="372" r="9" fill="#e5d19b" opacity=".82"/><circle cx="301" cy="401" r="10" fill="#f4e6bd" opacity=".82"/><circle cx="342" cy="430" r="4" fill="#e5d19b" opacity=".82"/><circle cx="383" cy="459" r="5" fill="#e5d19b" opacity=".82"/><circle cx="424" cy="303" r="6" fill="#f4e6bd" opacity=".82"/><circle cx="465" cy="332" r="7" fill="#e5d19b" opacity=".82"/><circle cx="506" cy="361" r="8" fill="#e5d19b" opacity=".82"/><circle cx="547" cy="390" r="9" fill="#f4e6bd" opacity=".82"/><circle cx="588" cy="419" r="10" fill="#e5d19b" opacity=".82"/><circle cx="629" cy="448" r="4" fill="#e5d19b" opacity=".82"/><circle cx="260" cy="292" r="5" fill="#f4e6bd" opacity=".82"/><circle cx="301" cy="321" r="6" fill="#e5d19b" opacity=".82"/><circle cx="342" cy="350" r="7" fill="#e5d19b" opacity=".82"/><circle cx="383" cy="379" r="8" fill="#f4e6bd" opacity=".82"/><circle cx="424" cy="408" r="9" fill="#e5d19b" opacity=".82"/><circle cx="465" cy="437" r="10" fill="#e5d19b" opacity=".82"/><circle cx="506" cy="281" r="4" fill="#f4e6bd" opacity=".82"/><circle cx="547" cy="310" r="5" fill="#e5d19b" opacity=".82"/><circle cx="588" cy="339" r="6" fill="#e5d19b" opacity=".82"/><circle cx="629" cy="368" r="7" fill="#f4e6bd" opacity=".82"/><circle cx="260" cy="397" r="8" fill="#e5d19b" opacity=".82"/><circle cx="301" cy="426" r="9" fill="#e5d19b" opacity=".82"/><circle cx="342" cy="455" r="10" fill="#f4e6bd" opacity=".82"/><circle cx="383" cy="299" r="4" fill="#e5d19b" opacity=".82"/><circle cx="424" cy="328" r="5" fill="#e5d19b" opacity=".82"/><circle cx="465" cy="357" r="6" fill="#f4e6bd" opacity=".82"/><circle cx="506" cy="386" r="7" fill="#e5d19b" opacity=".82"/><circle cx="547" cy="415" r="8" fill="#e5d19b" opacity=".82"/><circle cx="588" cy="444" r="9" fill="#f4e6bd" opacity=".82"/><circle cx="629" cy="288" r="10" fill="#e5d19b" opacity=".82"/><circle cx="260" cy="317" r="4" fill="#e5d19b" opacity=".82"/><circle cx="301" cy="346" r="5" fill="#f4e6bd" opacity=".82"/><circle cx="342" cy="375" r="6" fill="#e5d19b" opacity=".82"/><circle cx="383" cy="404" r="7" fill="#e5d19b" opacity=".82"/><circle cx="424" cy="433" r="8" fill="#f4e6bd" opacity=".82"/><circle cx="465" cy="462" r="9" fill="#e5d19b" opacity=".82"/><circle cx="506" cy="306" r="10" fill="#e5d19b" opacity=".82"/><circle cx="547" cy="335" r="4" fill="#f4e6bd" opacity=".82"/><circle cx="588" cy="364" r="5" fill="#e5d19b" opacity=".82"/></g>
  
  <g filter="url(#soft-shadow)" fill="#c5894d">
    <circle cx="447" cy="322" r="20"/><circle cx="494" cy="353" r="21"/><circle cx="541" cy="384" r="13"/><circle cx="588" cy="415" r="14"/><circle cx="325" cy="446" r="15"/><circle cx="372" cy="317" r="16"/><circle cx="419" cy="348" r="17"/><circle cx="466" cy="379" r="18"/><circle cx="513" cy="410" r="19"/><circle cx="560" cy="441" r="20"/><circle cx="607" cy="312" r="21"/><circle cx="344" cy="343" r="13"/><circle cx="391" cy="374" r="14"/><circle cx="438" cy="405" r="15"/><circle cx="485" cy="436" r="16"/><circle cx="532" cy="307" r="17"/><circle cx="579" cy="338" r="18"/><circle cx="316" cy="369" r="19"/><circle cx="363" cy="400" r="20"/><circle cx="410" cy="431" r="21"/><circle cx="457" cy="302" r="13"/><circle cx="504" cy="333" r="14"/>
  </g>
  <g><rect x="587" y="277" width="58" height="14" rx="7" fill="#dc8543" transform="rotate(-26 587 277)" opacity=".82"/><rect x="288" y="330" width="58" height="14" rx="7" fill="#dc8543" transform="rotate(-11 288 330)" opacity=".82"/><rect x="359" y="383" width="58" height="14" rx="7" fill="#dc8543" transform="rotate(4 359 383)" opacity=".82"/><rect x="430" y="436" width="58" height="14" rx="7" fill="#dc8543" transform="rotate(19 430 436)" opacity=".82"/><rect x="501" y="309" width="58" height="14" rx="7" fill="#dc8543" transform="rotate(34 501 309)" opacity=".82"/><rect x="572" y="362" width="58" height="14" rx="7" fill="#dc8543" transform="rotate(-26 572 362)" opacity=".82"/><rect x="273" y="415" width="58" height="14" rx="7" fill="#dc8543" transform="rotate(-11 273 415)" opacity=".82"/><ellipse cx="362" cy="442" rx="31" ry="11" fill="#7aa36d" transform="rotate(-24 362 442)" opacity=".75"/><ellipse cx="423" cy="319" rx="31" ry="11" fill="#7aa36d" transform="rotate(-6 423 319)" opacity=".75"/><ellipse cx="484" cy="366" rx="31" ry="11" fill="#7aa36d" transform="rotate(12 484 366)" opacity=".75"/><ellipse cx="545" cy="413" rx="31" ry="11" fill="#7aa36d" transform="rotate(30 545 413)" opacity=".75"/><ellipse cx="606" cy="290" rx="31" ry="11" fill="#7aa36d" transform="rotate(-24 606 290)" opacity=".75"/><ellipse cx="317" cy="337" rx="31" ry="11" fill="#7aa36d" transform="rotate(-6 317 337)" opacity=".75"/><ellipse cx="567" cy="287" rx="20" ry="8" fill="#56764f" transform="rotate(21 567 287)" opacity=".9"/><ellipse cx="634" cy="328" rx="25" ry="8" fill="#56764f" transform="rotate(-24 634 328)" opacity=".9"/><ellipse cx="296" cy="369" rx="30" ry="8" fill="#56764f" transform="rotate(-1 296 369)" opacity=".9"/><ellipse cx="363" cy="410" rx="20" ry="8" fill="#56764f" transform="rotate(22 363 410)" opacity=".9"/><ellipse cx="430" cy="451" rx="25" ry="8" fill="#56764f" transform="rotate(-23 430 451)" opacity=".9"/><ellipse cx="497" cy="242" rx="30" ry="8" fill="#56764f" transform="rotate(0 497 242)" opacity=".9"/><ellipse cx="564" cy="283" rx="20" ry="8" fill="#56764f" transform="rotate(23 564 283)" opacity=".9"/><ellipse cx="631" cy="324" rx="25" ry="8" fill="#56764f" transform="rotate(-22 631 324)" opacity=".9"/><ellipse cx="293" cy="365" rx="30" ry="8" fill="#56764f" transform="rotate(1 293 365)" opacity=".9"/><ellipse cx="360" cy="406" rx="20" ry="8" fill="#56764f" transform="rotate(24 360 406)" opacity=".9"/><ellipse cx="427" cy="447" rx="25" ry="8" fill="#56764f" transform="rotate(-21 427 447)" opacity=".9"/><ellipse cx="494" cy="238" rx="30" ry="8" fill="#56764f" transform="rotate(2 494 238)" opacity=".9"/><ellipse cx="561" cy="279" rx="20" ry="8" fill="#56764f" transform="rotate(25 561 279)" opacity=".9"/></g>
  <g opacity=".95">
    <circle cx="583" cy="262" r="22" fill="#deb04d"/>
    <path d="M583 241a22 22 0 0 1 0 44" fill="#fff3b0" opacity=".72"/>
  </g>
</svg>