<svg xmlns="http://www.w3.org/2000/svg" viewBox="0 0 900 675" role="img" aria-label="legume bowls with warm spices">
  <defs>
    <radialGradient id="plate-glow" cx="50%" cy="46%" r="62%">
      <stop offset="0" stop-color="#fffdf4"/>
      <stop offset="1" stop-color="#fff8ec"/>
    </radialGradient>
    <linearGradient id="table" x1="0" y1="0" x2="1" y2="1">
      <stop offset="0" stop-color="#f1ead8"/>
      <stop offset="1" stop-color="#cdb896"/>
    </linearGradient>
    <filter id="soft-shadow" x="-25%" y="-25%" width="150%" height="150%">
      <feDropShadow dx="0" dy="14" stdDeviation="15" flood-color="#322d24" flood-opacity=".28"/>
    </filter>
    <filter id="grain">
      <feTurbulence type="fractalNoise" baseFrequency=".85" numOctaves="2" seed="8536" result="noise"/>
      <feColorMatrix type="saturate" values=".12"/>
      <feComponentTransfer>
        <feFuncA type="table" tableValues="0 .12"/>
      </feComponentTransfer>
      <feBlend mode="multiply" in2="SourceGraphic"/>
    </filter>
  </defs>
  <rect width="900" height="675" fill="url(#table)"/>
  <rect width="900" height="675" filter="url(#grain)" opacity=".34"/>
  <ellipse cx="450" cy="365" rx="332" ry="222" fill="#5d4b3c" opacity=".12"/>
  <ellipse cx="450" cy="350" rx="318" ry="214" fill="url(#plate-glow)"/>
  <ellipse cx="450" cy="350" rx="260" ry="164" fill="#f6ead4"/>
  <g><circle cx="584" cy="306" r="7" fill="#f4e6bd" opacity=".82"/><circle cx="625" cy="335" r="8" fill="#e5d19b" opacity=".82"/><circle cx="256" cy="364" r="9" fill="#e5d19b" opacity=".82"/><circle cx="297" cy="393" r="10" fill="#f4e6bd" opacity=".82"/><circle cx="338" cy="422" r="4" fill="#e5d19b" opacity=".82"/><circle cx="379" cy="451" r="5" fill="#e5d19b" opacity=".82"/><circle cx="420" cy="295" r="6" fill="#f4e6bd" opacity=".82"/><circle cx="461" cy="324" r="7" fill="#e5d19b" opacity=".82"/><circle cx="502" cy="353" r="8" fill="#e5d19b" opacity=".82"/><circle cx="543" cy="382" r="9" fill="#f4e6bd" opacity=".82"/><circle cx="584" cy="411" r="10" fill="#e5d19b" opacity=".82"/><circle cx="625" cy="440" r="4" fill="#e5d19b" opacity=".82"/><circle cx="256" cy="284" r="5" fill="#f4e6bd" opacity=".82"/><circle cx="297" cy="313" r="6" fill="#e5d19b" opacity=".82"/><circle cx="338" cy="342" r="7" fill="#e5d19b" opacity=".82"/><circle cx="379" cy="371" r="8" fill="#f4e6bd" opacity=".82"/><circle cx="420" cy="400" r="9" fill="#e5d19b" opacity=".82"/><circle cx="461" cy="429" r="10" fill="#e5d19b" opacity=".82"/><circle cx="502" cy="458" r="4" fill="#f4e6bd" opacity=".82"/><circle cx="543" cy="302" r="5" fill="#e5d19b" opacity=".82"/><circle cx="584" cy="331" r="6" fill="#e5d19b" opacity=".82"/><circle cx="625" cy="360" r="7" fill="#f4e6bd" opacity=".82"/><circle cx="256" cy="389" r="8" fill="#e5d19b" opacity=".82"/><circle cx="297" cy="418" r="9" fill="#e5d19b" opacity=".82"/><circle cx="338" cy="447" r="10" fill="#f4e6bd" opacity=".82"/><circle cx="379" cy="291" r="4" fill="#e5d19b" opacity=".82"/><circle cx="420" cy="320" r="5" fill="#e5d19b" opacity=".82"/><circle cx="461" cy="349" r="6" fill="#f4e6bd" opacity=".82"/><circle cx="502" cy="378" r="7" fill="#e5d19b" opacity=".82"/><circle cx="543" cy="407" r="8" fill="#e5d19b" opacity=".82"/><circle cx="584" cy="436" r="9" fill="#f4e6bd" opacity=".82"/><circle cx="625" cy="280" r="10" fill="#e5d19b" opacity=".82"/><circle cx="256" cy="309" r="4" fill="#e5d19b" opacity=".82"/><circle cx="297" cy="338" r="5" fill="#f4e6bd" opacity=".82"/><circle cx="338" cy="367" r="6" fill="#e5d19b" opacity=".82"/><circle cx="379" cy="396" r="7" fill="#e5d19b" opacity=".82"/><circle cx="420" cy="425" r="8" fill="#f4e6bd" opacity=".82"/><circle cx="461" cy="454" r="9" fill="#e5d19b" opacity=".82"/><circle cx="502" cy="298" r="10" fill="#e5d19b" opacity=".82"/><circle cx="543" cy="327" r="4" fill="#f4e6bd" opacity=".82"/><circle cx="584" cy="356" r="5" fill="#e5d19b" opacity=".82"/><circle cx="625" cy="385" r="6" fill="#e5d19b" opacity=".82"/><circle cx="256" cy="414" r="7" fill="#f4e6bd" opacity=".82"/><circle cx="297" cy="443" r="8" fill="#e5d19b" opacity=".82"/></g>
  
  <g filter="url(#soft-shadow)" fill="#c5894d">
    <circle cx="466" cy="351" r="17"/><circle cx="513" cy="382" r="18"/><circle cx="560" cy="413" r="19"/><circle cx="607" cy="444" r="20"/><circle cx="344" cy="315" r="21"/><circle cx="391" cy="346" r="13"/><circle cx="438" cy="377" r="14"/><circle cx="485" cy="408" r="15"/><circle cx="532" cy="439" r="16"/><circle cx="579" cy="310" r="17"/><circle cx="316" cy="341" r="18"/><circle cx="363" cy="372" r="19"/><circle cx="410" cy="403" r="20"/><circle cx="457" cy="434" r="21"/><circle cx="504" cy="305" r="13"/><circle cx="551" cy="336" r="14"/><circle cx="598" cy="367" r="15"/><circle cx="335" cy="398" r="16"/><circle cx="382" cy="429" r="17"/><circle cx="429" cy="300" r="18"/><circle cx="476" cy="331" r="19"/><circle cx="523" cy="362" r="20"/>
  </g>
  <g><rect x="296" y="346" width="58" height="14" rx="7" fill="#dc8543" transform="rotate(-26 296 346)" opacity=".82"/><rect x="367" y="399" width="58" height="14" rx="7" fill="#dc8543" transform="rotate(-11 367 399)" opacity=".82"/><rect x="438" y="272" width="58" height="14" rx="7" fill="#dc8543" transform="rotate(4 438 272)" opacity=".82"/><rect x="509" y="325" width="58" height="14" rx="7" fill="#dc8543" transform="rotate(19 509 325)" opacity=".82"/><rect x="580" y="378" width="58" height="14" rx="7" fill="#dc8543" transform="rotate(34 580 378)" opacity=".82"/><rect x="281" y="431" width="58" height="14" rx="7" fill="#dc8543" transform="rotate(-26 281 431)" opacity=".82"/><rect x="352" y="304" width="58" height="14" rx="7" fill="#dc8543" transform="rotate(-11 352 304)" opacity=".82"/><ellipse cx="421" cy="321" rx="31" ry="11" fill="#7aa36d" transform="rotate(-24 421 321)" opacity=".75"/><ellipse cx="482" cy="368" rx="31" ry="11" fill="#7aa36d" transform="rotate(-6 482 368)" opacity=".75"/><ellipse cx="543" cy="415" rx="31" ry="11" fill="#7aa36d" transform="rotate(12 543 415)" opacity=".75"/><ellipse cx="604" cy="292" rx="31" ry="11" fill="#7aa36d" transform="rotate(30 604 292)" opacity=".75"/><ellipse cx="315" cy="339" rx="31" ry="11" fill="#7aa36d" transform="rotate(-24 315 339)" opacity=".75"/><ellipse cx="376" cy="386" rx="31" ry="11" fill="#7aa36d" transform="rotate(-6 376 386)" opacity=".75"/><ellipse cx="276" cy="246" rx="20" ry="8" fill="#56764f" transform="rotate(2 276 246)" opacity=".9"/><ellipse cx="343" cy="287" rx="25" ry="8" fill="#56764f" transform="rotate(25 343 287)" opacity=".9"/><ellipse cx="410" cy="328" rx="30" ry="8" fill="#56764f" transform="rotate(-20 410 328)" opacity=".9"/><ellipse cx="477" cy="369" rx="20" ry="8" fill="#56764f" transform="rotate(3 477 369)" opacity=".9"/><ellipse cx="544" cy="410" rx="25" ry="8" fill="#56764f" transform="rotate(26 544 410)" opacity=".9"/><ellipse cx="611" cy="451" rx="30" ry="8" fill="#56764f" transform="rotate(-19 611 451)" opacity=".9"/><ellipse cx="273" cy="242" rx="20" ry="8" fill="#56764f" transform="rotate(4 273 242)" opacity=".9"/><ellipse cx="340" cy="283" rx="25" ry="8" fill="#56764f" transform="rotate(27 340 283)" opacity=".9"/><ellipse cx="407" cy="324" rx="30" ry="8" fill="#56764f" transform="rotate(-18 407 324)" opacity=".9"/><ellipse cx="474" cy="365" rx="20" ry="8" fill="#56764f" transform="rotate(5 474 365)" opacity=".9"/><ellipse cx="541" cy="406" rx="25" ry="8" fill="#56764f" transform="rotate(28 541 406)" opacity=".9"/><ellipse cx="608" cy="447" rx="30" ry="8" fill="#56764f" transform="rotate(-17 608 447)" opacity=".9"/><ellipse cx="270" cy="238" rx="20" ry="8" fill="#56764f" transform="rotate(6 270 238)" opacity=".9"/></g>
  <g opacity=".95">
    <circle cx="554" cy="251" r="22" fill="#deb04d"/>
    <path d="M554 230a22 22 0 0 1 0 44" fill="#fff3b0" opacity=".72"/>
  </g>
</svg>