<svg xmlns="http://www.w3.org/2000/svg" viewBox="0 0 900 675" role="img" aria-label="mushrooms and vegetables with grains">
  <defs>
    <radialGradient id="plate-glow" cx="50%" cy="46%" r="62%">
      <stop offset="0" stop-color="#fffdf4"/>
      <stop offset="1" stop-color="#fff9ec"/>
    </radialGradient>
    <linearGradient id="table" x1="0" y1="0" x2="1" y2="1">
      <stop offset="0" stop-color="#eef0dc"/>
      <stop offset="1" stop-color="#c2c29a"/>
    </linearGradient>
    <filter id="soft-shadow" x="-25%" y="-25%" width="150%" height="150%">
      <feDropShadow dx="0" dy="14" stdDeviation="15" flood-color="#273529" flood-opacity=".28"/>
    </filter>
    <filter id="grain">
      <feTurbulence type="fractalNoise" baseFrequency=".85" numOctaves="2" seed="9603" result="noise"/>
      <feColorMatrix type="saturate" values=".12"/>
      <feComponentTransfer>
        <feFuncA type="table" tableValues="0 .12"/>
      </feComponentTransfer>
      <feBlend mode="multiply" in2="SourceGraphic"/>
    </filter>
  </defs>
  <rect width="900" height="675" fill="url(#table)"/>
  <rect width="900" height="675" filter="url(#grain)" opacity=".34"/>
  <ellipse cx="450" cy="365" rx="332" ry="222" fill="#5d4b3c" opacity=".12"/>
  <ellipse cx="450" cy="350" rx="318" ry="214" fill="url(#plate-glow)"/>
  <ellipse cx="450" cy="350" rx="260" ry="164" fill="#f6ead4"/>
  <g><circle cx="421" cy="448" r="10" fill="#f4e6bd" opacity=".82"/><circle cx="462" cy="292" r="4" fill="#ded0a2" opacity=".82"/><circle cx="503" cy="321" r="5" fill="#ded0a2" opacity=".82"/><circle cx="544" cy="350" r="6" fill="#f4e6bd" opacity=".82"/><circle cx="585" cy="379" r="7" fill="#ded0a2" opacity=".82"/><circle cx="626" cy="408" r="8" fill="#ded0a2" opacity=".82"/><circle cx="257" cy="437" r="9" fill="#f4e6bd" opacity=".82"/><circle cx="298" cy="281" r="10" fill="#ded0a2" opacity=".82"/><circle cx="339" cy="310" r="4" fill="#ded0a2" opacity=".82"/><circle cx="380" cy="339" r="5" fill="#f4e6bd" opacity=".82"/><circle cx="421" cy="368" r="6" fill="#ded0a2" opacity=".82"/><circle cx="462" cy="397" r="7" fill="#ded0a2" opacity=".82"/><circle cx="503" cy="426" r="8" fill="#f4e6bd" opacity=".82"/><circle cx="544" cy="455" r="9" fill="#ded0a2" opacity=".82"/><circle cx="585" cy="299" r="10" fill="#ded0a2" opacity=".82"/><circle cx="626" cy="328" r="4" fill="#f4e6bd" opacity=".82"/><circle cx="257" cy="357" r="5" fill="#ded0a2" opacity=".82"/><circle cx="298" cy="386" r="6" fill="#ded0a2" opacity=".82"/><circle cx="339" cy="415" r="7" fill="#f4e6bd" opacity=".82"/><circle cx="380" cy="444" r="8" fill="#ded0a2" opacity=".82"/><circle cx="421" cy="288" r="9" fill="#ded0a2" opacity=".82"/><circle cx="462" cy="317" r="10" fill="#f4e6bd" opacity=".82"/><circle cx="503" cy="346" r="4" fill="#ded0a2" opacity=".82"/><circle cx="544" cy="375" r="5" fill="#ded0a2" opacity=".82"/><circle cx="585" cy="404" r="6" fill="#f4e6bd" opacity=".82"/><circle cx="626" cy="433" r="7" fill="#ded0a2" opacity=".82"/><circle cx="257" cy="462" r="8" fill="#ded0a2" opacity=".82"/><circle cx="298" cy="306" r="9" fill="#f4e6bd" opacity=".82"/><circle cx="339" cy="335" r="10" fill="#ded0a2" opacity=".82"/><circle cx="380" cy="364" r="4" fill="#ded0a2" opacity=".82"/><circle cx="421" cy="393" r="5" fill="#f4e6bd" opacity=".82"/><circle cx="462" cy="422" r="6" fill="#ded0a2" opacity=".82"/><circle cx="503" cy="451" r="7" fill="#ded0a2" opacity=".82"/><circle cx="544" cy="295" r="8" fill="#f4e6bd" opacity=".82"/><circle cx="585" cy="324" r="9" fill="#ded0a2" opacity=".82"/><circle cx="626" cy="353" r="10" fill="#ded0a2" opacity=".82"/><circle cx="257" cy="382" r="4" fill="#f4e6bd" opacity=".82"/><circle cx="298" cy="411" r="5" fill="#ded0a2" opacity=".82"/><circle cx="339" cy="440" r="6" fill="#ded0a2" opacity=".82"/><circle cx="380" cy="284" r="7" fill="#f4e6bd" opacity=".82"/><circle cx="421" cy="313" r="8" fill="#ded0a2" opacity=".82"/><circle cx="462" cy="342" r="9" fill="#ded0a2" opacity=".82"/><circle cx="503" cy="371" r="10" fill="#f4e6bd" opacity=".82"/><circle cx="544" cy="400" r="4" fill="#ded0a2" opacity=".82"/></g>
  
  <g filter="url(#soft-shadow)" fill="#d37b45">
    <path d="M310 306c70-22 170-17 246 13 42 17 50 55 14 83-84 66-253 62-323-7-31-30-12-68 63-89z"/>
    <path d="M302 390c92 41 236 35 325-17" fill="none" stroke="#7c6f3f" stroke-width="14" stroke-linecap="round" opacity=".5"/>
  </g>
  <g><rect x="623" y="333" width="58" height="14" rx="7" fill="#dc8543" transform="rotate(-26 623 333)" opacity=".82"/><rect x="324" y="386" width="58" height="14" rx="7" fill="#dc8543" transform="rotate(-11 324 386)" opacity=".82"/><rect x="395" y="439" width="58" height="14" rx="7" fill="#dc8543" transform="rotate(4 395 439)" opacity=".82"/><rect x="466" y="312" width="58" height="14" rx="7" fill="#dc8543" transform="rotate(19 466 312)" opacity=".82"/><rect x="537" y="365" width="58" height="14" rx="7" fill="#dc8543" transform="rotate(34 537 365)" opacity=".82"/><rect x="608" y="418" width="58" height="14" rx="7" fill="#dc8543" transform="rotate(-26 608 418)" opacity=".82"/><rect x="309" y="291" width="58" height="14" rx="7" fill="#dc8543" transform="rotate(-11 309 291)" opacity=".82"/><ellipse cx="438" cy="368" rx="31" ry="11" fill="#7aa36d" transform="rotate(-24 438 368)" opacity=".75"/><ellipse cx="499" cy="415" rx="31" ry="11" fill="#7aa36d" transform="rotate(-6 499 415)" opacity=".75"/><ellipse cx="560" cy="292" rx="31" ry="11" fill="#7aa36d" transform="rotate(12 560 292)" opacity=".75"/><ellipse cx="621" cy="339" rx="31" ry="11" fill="#7aa36d" transform="rotate(30 621 339)" opacity=".75"/><ellipse cx="332" cy="386" rx="31" ry="11" fill="#7aa36d" transform="rotate(-24 332 386)" opacity=".75"/><ellipse cx="393" cy="433" rx="31" ry="11" fill="#7aa36d" transform="rotate(-6 393 433)" opacity=".75"/><ellipse cx="533" cy="313" rx="20" ry="8" fill="#426f50" transform="rotate(-19 533 313)" opacity=".9"/><ellipse cx="600" cy="354" rx="25" ry="8" fill="#426f50" transform="rotate(4 600 354)" opacity=".9"/><ellipse cx="262" cy="395" rx="30" ry="8" fill="#426f50" transform="rotate(27 262 395)" opacity=".9"/><ellipse cx="329" cy="436" rx="20" ry="8" fill="#426f50" transform="rotate(-18 329 436)" opacity=".9"/><ellipse cx="396" cy="227" rx="25" ry="8" fill="#426f50" transform="rotate(5 396 227)" opacity=".9"/><ellipse cx="463" cy="268" rx="30" ry="8" fill="#426f50" transform="rotate(28 463 268)" opacity=".9"/><ellipse cx="530" cy="309" rx="20" ry="8" fill="#426f50" transform="rotate(-17 530 309)" opacity=".9"/><ellipse cx="597" cy="350" rx="25" ry="8" fill="#426f50" transform="rotate(6 597 350)" opacity=".9"/><ellipse cx="259" cy="391" rx="30" ry="8" fill="#426f50" transform="rotate(29 259 391)" opacity=".9"/><ellipse cx="326" cy="432" rx="20" ry="8" fill="#426f50" transform="rotate(-16 326 432)" opacity=".9"/><ellipse cx="393" cy="223" rx="25" ry="8" fill="#426f50" transform="rotate(7 393 223)" opacity=".9"/><ellipse cx="460" cy="264" rx="30" ry="8" fill="#426f50" transform="rotate(30 460 264)" opacity=".9"/><ellipse cx="527" cy="305" rx="20" ry="8" fill="#426f50" transform="rotate(-15 527 305)" opacity=".9"/></g>
  <g opacity=".95">
    <circle cx="607" cy="238" r="22" fill="#e7b84c"/>
    <path d="M607 217a22 22 0 0 1 0 44" fill="#fff3b0" opacity=".72"/>
  </g>
</svg>