<svg xmlns="http://www.w3.org/2000/svg" viewBox="0 0 900 675" role="img" aria-label="salmon fillets with herbs and grains">
  <defs>
    <radialGradient id="plate-glow" cx="50%" cy="46%" r="62%">
      <stop offset="0" stop-color="#fffdf4"/>
      <stop offset="1" stop-color="#fff9ec"/>
    </radialGradient>
    <linearGradient id="table" x1="0" y1="0" x2="1" y2="1">
      <stop offset="0" stop-color="#f1eadf"/>
      <stop offset="1" stop-color="#d7bf9f"/>
    </linearGradient>
    <filter id="soft-shadow" x="-25%" y="-25%" width="150%" height="150%">
      <feDropShadow dx="0" dy="14" stdDeviation="15" flood-color="#2e3a35" flood-opacity=".28"/>
    </filter>
    <filter id="grain">
      <feTurbulence type="fractalNoise" baseFrequency=".85" numOctaves="2" seed="3298" result="noise"/>
      <feColorMatrix type="saturate" values=".12"/>
      <feComponentTransfer>
        <feFuncA type="table" tableValues="0 .12"/>
      </feComponentTransfer>
      <feBlend mode="multiply" in2="SourceGraphic"/>
    </filter>
  </defs>
  <rect width="900" height="675" fill="url(#table)"/>
  <rect width="900" height="675" filter="url(#grain)" opacity=".34"/>
  <ellipse cx="450" cy="365" rx="332" ry="222" fill="#5d4b3c" opacity=".12"/>
  <ellipse cx="450" cy="350" rx="318" ry="214" fill="url(#plate-glow)"/>
  <ellipse cx="450" cy="350" rx="260" ry="164" fill="#f6ead4"/>
  <g><circle cx="266" cy="433" r="5" fill="#f4e6bd" opacity=".82"/><circle cx="307" cy="462" r="6" fill="#dccd9e" opacity=".82"/><circle cx="348" cy="306" r="7" fill="#dccd9e" opacity=".82"/><circle cx="389" cy="335" r="8" fill="#f4e6bd" opacity=".82"/><circle cx="430" cy="364" r="9" fill="#dccd9e" opacity=".82"/><circle cx="471" cy="393" r="10" fill="#dccd9e" opacity=".82"/><circle cx="512" cy="422" r="4" fill="#f4e6bd" opacity=".82"/><circle cx="553" cy="451" r="5" fill="#dccd9e" opacity=".82"/><circle cx="594" cy="295" r="6" fill="#dccd9e" opacity=".82"/><circle cx="635" cy="324" r="7" fill="#f4e6bd" opacity=".82"/><circle cx="266" cy="353" r="8" fill="#dccd9e" opacity=".82"/><circle cx="307" cy="382" r="9" fill="#dccd9e" opacity=".82"/><circle cx="348" cy="411" r="10" fill="#f4e6bd" opacity=".82"/><circle cx="389" cy="440" r="4" fill="#dccd9e" opacity=".82"/><circle cx="430" cy="284" r="5" fill="#dccd9e" opacity=".82"/><circle cx="471" cy="313" r="6" fill="#f4e6bd" opacity=".82"/><circle cx="512" cy="342" r="7" fill="#dccd9e" opacity=".82"/><circle cx="553" cy="371" r="8" fill="#dccd9e" opacity=".82"/><circle cx="594" cy="400" r="9" fill="#f4e6bd" opacity=".82"/><circle cx="635" cy="429" r="10" fill="#dccd9e" opacity=".82"/><circle cx="266" cy="458" r="4" fill="#dccd9e" opacity=".82"/><circle cx="307" cy="302" r="5" fill="#f4e6bd" opacity=".82"/><circle cx="348" cy="331" r="6" fill="#dccd9e" opacity=".82"/><circle cx="389" cy="360" r="7" fill="#dccd9e" opacity=".82"/><circle cx="430" cy="389" r="8" fill="#f4e6bd" opacity=".82"/><circle cx="471" cy="418" r="9" fill="#dccd9e" opacity=".82"/><circle cx="512" cy="447" r="10" fill="#dccd9e" opacity=".82"/><circle cx="553" cy="291" r="4" fill="#f4e6bd" opacity=".82"/><circle cx="594" cy="320" r="5" fill="#dccd9e" opacity=".82"/><circle cx="635" cy="349" r="6" fill="#dccd9e" opacity=".82"/><circle cx="266" cy="378" r="7" fill="#f4e6bd" opacity=".82"/><circle cx="307" cy="407" r="8" fill="#dccd9e" opacity=".82"/><circle cx="348" cy="436" r="9" fill="#dccd9e" opacity=".82"/><circle cx="389" cy="280" r="10" fill="#f4e6bd" opacity=".82"/><circle cx="430" cy="309" r="4" fill="#dccd9e" opacity=".82"/><circle cx="471" cy="338" r="5" fill="#dccd9e" opacity=".82"/><circle cx="512" cy="367" r="6" fill="#f4e6bd" opacity=".82"/><circle cx="553" cy="396" r="7" fill="#dccd9e" opacity=".82"/><circle cx="594" cy="425" r="8" fill="#dccd9e" opacity=".82"/><circle cx="635" cy="454" r="9" fill="#f4e6bd" opacity=".82"/><circle cx="266" cy="298" r="10" fill="#dccd9e" opacity=".82"/><circle cx="307" cy="327" r="4" fill="#dccd9e" opacity=".82"/><circle cx="348" cy="356" r="5" fill="#f4e6bd" opacity=".82"/><circle cx="389" cy="385" r="6" fill="#dccd9e" opacity=".82"/></g>
  
  <g filter="url(#soft-shadow)">
    <path d="M260 318c88-78 262-90 378-28 38 20 46 66 12 95-98 84-300 94-415 20-39-25-31-59 25-87z" fill="#d97858"/>
    <path d="M280 329c83 40 227 40 336 4" fill="none" stroke="#a95445" stroke-width="12" stroke-linecap="round" opacity=".45"/>
    <path d="M308 377c88 34 205 31 300-8" fill="none" stroke="#fffaf1" stroke-width="9" stroke-linecap="round" opacity=".65"/>
    <circle cx="542" cy="310" r="16" fill="#f0cf67" opacity=".95"/>
  </g>
  <g><rect x="608" y="328" width="58" height="14" rx="7" fill="#dc8543" transform="rotate(-26 608 328)" opacity=".82"/><rect x="309" y="381" width="58" height="14" rx="7" fill="#dc8543" transform="rotate(-11 309 381)" opacity=".82"/><rect x="380" y="434" width="58" height="14" rx="7" fill="#dc8543" transform="rotate(4 380 434)" opacity=".82"/><rect x="451" y="307" width="58" height="14" rx="7" fill="#dc8543" transform="rotate(19 451 307)" opacity=".82"/><rect x="522" y="360" width="58" height="14" rx="7" fill="#dc8543" transform="rotate(34 522 360)" opacity=".82"/><rect x="593" y="413" width="58" height="14" rx="7" fill="#dc8543" transform="rotate(-26 593 413)" opacity=".82"/><rect x="294" y="286" width="58" height="14" rx="7" fill="#dc8543" transform="rotate(-11 294 286)" opacity=".82"/><ellipse cx="433" cy="353" rx="31" ry="11" fill="#7aa36d" transform="rotate(-24 433 353)" opacity=".75"/><ellipse cx="494" cy="400" rx="31" ry="11" fill="#7aa36d" transform="rotate(-6 494 400)" opacity=".75"/><ellipse cx="555" cy="447" rx="31" ry="11" fill="#7aa36d" transform="rotate(12 555 447)" opacity=".75"/><ellipse cx="616" cy="324" rx="31" ry="11" fill="#7aa36d" transform="rotate(30 616 324)" opacity=".75"/><ellipse cx="327" cy="371" rx="31" ry="11" fill="#7aa36d" transform="rotate(-24 327 371)" opacity=".75"/><ellipse cx="388" cy="418" rx="31" ry="11" fill="#7aa36d" transform="rotate(-6 388 418)" opacity=".75"/><ellipse cx="303" cy="258" rx="20" ry="8" fill="#496f55" transform="rotate(0 303 258)" opacity=".9"/><ellipse cx="370" cy="299" rx="25" ry="8" fill="#496f55" transform="rotate(23 370 299)" opacity=".9"/><ellipse cx="437" cy="340" rx="30" ry="8" fill="#496f55" transform="rotate(-22 437 340)" opacity=".9"/><ellipse cx="504" cy="381" rx="20" ry="8" fill="#496f55" transform="rotate(1 504 381)" opacity=".9"/><ellipse cx="571" cy="422" rx="25" ry="8" fill="#496f55" transform="rotate(24 571 422)" opacity=".9"/><ellipse cx="638" cy="213" rx="30" ry="8" fill="#496f55" transform="rotate(-21 638 213)" opacity=".9"/><ellipse cx="300" cy="254" rx="20" ry="8" fill="#496f55" transform="rotate(2 300 254)" opacity=".9"/><ellipse cx="367" cy="295" rx="25" ry="8" fill="#496f55" transform="rotate(25 367 295)" opacity=".9"/><ellipse cx="434" cy="336" rx="30" ry="8" fill="#496f55" transform="rotate(-20 434 336)" opacity=".9"/><ellipse cx="501" cy="377" rx="20" ry="8" fill="#496f55" transform="rotate(3 501 377)" opacity=".9"/><ellipse cx="568" cy="418" rx="25" ry="8" fill="#496f55" transform="rotate(26 568 418)" opacity=".9"/><ellipse cx="635" cy="459" rx="30" ry="8" fill="#496f55" transform="rotate(-19 635 459)" opacity=".9"/><ellipse cx="297" cy="250" rx="20" ry="8" fill="#496f55" transform="rotate(4 297 250)" opacity=".9"/></g>
  <g opacity=".95">
    <circle cx="592" cy="253" r="22" fill="#f0cf67"/>
    <path d="M592 232a22 22 0 0 1 0 44" fill="#fff3b0" opacity=".72"/>
  </g>
</svg>