<svg xmlns="http://www.w3.org/2000/svg" viewBox="0 0 900 675" role="img" aria-label="salmon fillets with herbs and grains">
  <defs>
    <radialGradient id="plate-glow" cx="50%" cy="46%" r="62%">
      <stop offset="0" stop-color="#fffdf4"/>
      <stop offset="1" stop-color="#fff9ec"/>
    </radialGradient>
    <linearGradient id="table" x1="0" y1="0" x2="1" y2="1">
      <stop offset="0" stop-color="#f1eadf"/>
      <stop offset="1" stop-color="#d7bf9f"/>
    </linearGradient>
    <filter id="soft-shadow" x="-25%" y="-25%" width="150%" height="150%">
      <feDropShadow dx="0" dy="14" stdDeviation="15" flood-color="#2e3a35" flood-opacity=".28"/>
    </filter>
    <filter id="grain">
      <feTurbulence type="fractalNoise" baseFrequency=".85" numOctaves="2" seed="3007" result="noise"/>
      <feColorMatrix type="saturate" values=".12"/>
      <feComponentTransfer>
        <feFuncA type="table" tableValues="0 .12"/>
      </feComponentTransfer>
      <feBlend mode="multiply" in2="SourceGraphic"/>
    </filter>
  </defs>
  <rect width="900" height="675" fill="url(#table)"/>
  <rect width="900" height="675" filter="url(#grain)" opacity=".34"/>
  <ellipse cx="450" cy="365" rx="332" ry="222" fill="#5d4b3c" opacity=".12"/>
  <ellipse cx="450" cy="350" rx="318" ry="214" fill="url(#plate-glow)"/>
  <ellipse cx="450" cy="350" rx="260" ry="164" fill="#f6ead4"/>
  <g><circle cx="385" cy="327" r="8" fill="#f4e6bd" opacity=".82"/><circle cx="426" cy="356" r="9" fill="#dccd9e" opacity=".82"/><circle cx="467" cy="385" r="10" fill="#dccd9e" opacity=".82"/><circle cx="508" cy="414" r="4" fill="#f4e6bd" opacity=".82"/><circle cx="549" cy="443" r="5" fill="#dccd9e" opacity=".82"/><circle cx="590" cy="287" r="6" fill="#dccd9e" opacity=".82"/><circle cx="631" cy="316" r="7" fill="#f4e6bd" opacity=".82"/><circle cx="262" cy="345" r="8" fill="#dccd9e" opacity=".82"/><circle cx="303" cy="374" r="9" fill="#dccd9e" opacity=".82"/><circle cx="344" cy="403" r="10" fill="#f4e6bd" opacity=".82"/><circle cx="385" cy="432" r="4" fill="#dccd9e" opacity=".82"/><circle cx="426" cy="461" r="5" fill="#dccd9e" opacity=".82"/><circle cx="467" cy="305" r="6" fill="#f4e6bd" opacity=".82"/><circle cx="508" cy="334" r="7" fill="#dccd9e" opacity=".82"/><circle cx="549" cy="363" r="8" fill="#dccd9e" opacity=".82"/><circle cx="590" cy="392" r="9" fill="#f4e6bd" opacity=".82"/><circle cx="631" cy="421" r="10" fill="#dccd9e" opacity=".82"/><circle cx="262" cy="450" r="4" fill="#dccd9e" opacity=".82"/><circle cx="303" cy="294" r="5" fill="#f4e6bd" opacity=".82"/><circle cx="344" cy="323" r="6" fill="#dccd9e" opacity=".82"/><circle cx="385" cy="352" r="7" fill="#dccd9e" opacity=".82"/><circle cx="426" cy="381" r="8" fill="#f4e6bd" opacity=".82"/><circle cx="467" cy="410" r="9" fill="#dccd9e" opacity=".82"/><circle cx="508" cy="439" r="10" fill="#dccd9e" opacity=".82"/><circle cx="549" cy="283" r="4" fill="#f4e6bd" opacity=".82"/><circle cx="590" cy="312" r="5" fill="#dccd9e" opacity=".82"/><circle cx="631" cy="341" r="6" fill="#dccd9e" opacity=".82"/><circle cx="262" cy="370" r="7" fill="#f4e6bd" opacity=".82"/><circle cx="303" cy="399" r="8" fill="#dccd9e" opacity=".82"/><circle cx="344" cy="428" r="9" fill="#dccd9e" opacity=".82"/><circle cx="385" cy="457" r="10" fill="#f4e6bd" opacity=".82"/><circle cx="426" cy="301" r="4" fill="#dccd9e" opacity=".82"/><circle cx="467" cy="330" r="5" fill="#dccd9e" opacity=".82"/><circle cx="508" cy="359" r="6" fill="#f4e6bd" opacity=".82"/><circle cx="549" cy="388" r="7" fill="#dccd9e" opacity=".82"/><circle cx="590" cy="417" r="8" fill="#dccd9e" opacity=".82"/><circle cx="631" cy="446" r="9" fill="#f4e6bd" opacity=".82"/><circle cx="262" cy="290" r="10" fill="#dccd9e" opacity=".82"/><circle cx="303" cy="319" r="4" fill="#dccd9e" opacity=".82"/><circle cx="344" cy="348" r="5" fill="#f4e6bd" opacity=".82"/><circle cx="385" cy="377" r="6" fill="#dccd9e" opacity=".82"/><circle cx="426" cy="406" r="7" fill="#dccd9e" opacity=".82"/><circle cx="467" cy="435" r="8" fill="#f4e6bd" opacity=".82"/><circle cx="508" cy="464" r="9" fill="#dccd9e" opacity=".82"/></g>
  
  <g filter="url(#soft-shadow)">
    <path d="M260 318c88-78 262-90 378-28 38 20 46 66 12 95-98 84-300 94-415 20-39-25-31-59 25-87z" fill="#d97858"/>
    <path d="M280 329c83 40 227 40 336 4" fill="none" stroke="#a95445" stroke-width="12" stroke-linecap="round" opacity=".45"/>
    <path d="M308 377c88 34 205 31 300-8" fill="none" stroke="#fffaf1" stroke-width="9" stroke-linecap="round" opacity=".65"/>
    <circle cx="539" cy="307" r="16" fill="#f0cf67" opacity=".95"/>
  </g>
  <g><rect x="317" y="397" width="58" height="14" rx="7" fill="#dc8543" transform="rotate(-26 317 397)" opacity=".82"/><rect x="388" y="270" width="58" height="14" rx="7" fill="#dc8543" transform="rotate(-11 388 270)" opacity=".82"/><rect x="459" y="323" width="58" height="14" rx="7" fill="#dc8543" transform="rotate(4 459 323)" opacity=".82"/><rect x="530" y="376" width="58" height="14" rx="7" fill="#dc8543" transform="rotate(19 530 376)" opacity=".82"/><rect x="601" y="429" width="58" height="14" rx="7" fill="#dc8543" transform="rotate(34 601 429)" opacity=".82"/><rect x="302" y="302" width="58" height="14" rx="7" fill="#dc8543" transform="rotate(-26 302 302)" opacity=".82"/><rect x="373" y="355" width="58" height="14" rx="7" fill="#dc8543" transform="rotate(-11 373 355)" opacity=".82"/><ellipse cx="492" cy="402" rx="31" ry="11" fill="#7aa36d" transform="rotate(-24 492 402)" opacity=".75"/><ellipse cx="553" cy="449" rx="31" ry="11" fill="#7aa36d" transform="rotate(-6 553 449)" opacity=".75"/><ellipse cx="614" cy="326" rx="31" ry="11" fill="#7aa36d" transform="rotate(12 614 326)" opacity=".75"/><ellipse cx="325" cy="373" rx="31" ry="11" fill="#7aa36d" transform="rotate(30 325 373)" opacity=".75"/><ellipse cx="386" cy="420" rx="31" ry="11" fill="#7aa36d" transform="rotate(-24 386 420)" opacity=".75"/><ellipse cx="447" cy="297" rx="31" ry="11" fill="#7aa36d" transform="rotate(-6 447 297)" opacity=".75"/><ellipse cx="417" cy="217" rx="20" ry="8" fill="#496f55" transform="rotate(-19 417 217)" opacity=".9"/><ellipse cx="484" cy="258" rx="25" ry="8" fill="#496f55" transform="rotate(4 484 258)" opacity=".9"/><ellipse cx="551" cy="299" rx="30" ry="8" fill="#496f55" transform="rotate(27 551 299)" opacity=".9"/><ellipse cx="618" cy="340" rx="20" ry="8" fill="#496f55" transform="rotate(-18 618 340)" opacity=".9"/><ellipse cx="280" cy="381" rx="25" ry="8" fill="#496f55" transform="rotate(5 280 381)" opacity=".9"/><ellipse cx="347" cy="422" rx="30" ry="8" fill="#496f55" transform="rotate(28 347 422)" opacity=".9"/><ellipse cx="414" cy="213" rx="20" ry="8" fill="#496f55" transform="rotate(-17 414 213)" opacity=".9"/><ellipse cx="481" cy="254" rx="25" ry="8" fill="#496f55" transform="rotate(6 481 254)" opacity=".9"/><ellipse cx="548" cy="295" rx="30" ry="8" fill="#496f55" transform="rotate(29 548 295)" opacity=".9"/><ellipse cx="615" cy="336" rx="20" ry="8" fill="#496f55" transform="rotate(-16 615 336)" opacity=".9"/><ellipse cx="277" cy="377" rx="25" ry="8" fill="#496f55" transform="rotate(7 277 377)" opacity=".9"/><ellipse cx="344" cy="418" rx="30" ry="8" fill="#496f55" transform="rotate(30 344 418)" opacity=".9"/><ellipse cx="411" cy="459" rx="20" ry="8" fill="#496f55" transform="rotate(-15 411 459)" opacity=".9"/></g>
  <g opacity=".95">
    <circle cx="563" cy="242" r="22" fill="#f0cf67"/>
    <path d="M563 221a22 22 0 0 1 0 44" fill="#fff3b0" opacity=".72"/>
  </g>
</svg>