<svg xmlns="http://www.w3.org/2000/svg" viewBox="0 0 900 675" role="img" aria-label="walleye fillets with kosher for Passover sides">
  <defs>
    <radialGradient id="plate-glow" cx="50%" cy="46%" r="62%">
      <stop offset="0" stop-color="#fffdf4"/>
      <stop offset="1" stop-color="#fff8ea"/>
    </radialGradient>
    <linearGradient id="table" x1="0" y1="0" x2="1" y2="1">
      <stop offset="0" stop-color="#f3eee2"/>
      <stop offset="1" stop-color="#d8c7ab"/>
    </linearGradient>
    <filter id="soft-shadow" x="-25%" y="-25%" width="150%" height="150%">
      <feDropShadow dx="0" dy="14" stdDeviation="15" flood-color="#253a35" flood-opacity=".28"/>
    </filter>
    <filter id="grain">
      <feTurbulence type="fractalNoise" baseFrequency=".85" numOctaves="2" seed="1552" result="noise"/>
      <feColorMatrix type="saturate" values=".12"/>
      <feComponentTransfer>
        <feFuncA type="table" tableValues="0 .12"/>
      </feComponentTransfer>
      <feBlend mode="multiply" in2="SourceGraphic"/>
    </filter>
  </defs>
  <rect width="900" height="675" fill="url(#table)"/>
  <rect width="900" height="675" filter="url(#grain)" opacity=".34"/>
  <ellipse cx="450" cy="365" rx="332" ry="222" fill="#5d4b3c" opacity=".12"/>
  <ellipse cx="450" cy="350" rx="318" ry="214" fill="url(#plate-glow)"/>
  <ellipse cx="450" cy="350" rx="260" ry="164" fill="#f6ead4"/>
  <g><circle cx="570" cy="352" r="9" fill="#f4e6bd" opacity=".82"/><circle cx="611" cy="381" r="10" fill="#ead8ab" opacity=".82"/><circle cx="652" cy="410" r="4" fill="#ead8ab" opacity=".82"/><circle cx="283" cy="439" r="5" fill="#f4e6bd" opacity=".82"/><circle cx="324" cy="283" r="6" fill="#ead8ab" opacity=".82"/><circle cx="365" cy="312" r="7" fill="#ead8ab" opacity=".82"/><circle cx="406" cy="341" r="8" fill="#f4e6bd" opacity=".82"/><circle cx="447" cy="370" r="9" fill="#ead8ab" opacity=".82"/><circle cx="488" cy="399" r="10" fill="#ead8ab" opacity=".82"/><circle cx="529" cy="428" r="4" fill="#f4e6bd" opacity=".82"/><circle cx="570" cy="457" r="5" fill="#ead8ab" opacity=".82"/><circle cx="611" cy="301" r="6" fill="#ead8ab" opacity=".82"/><circle cx="652" cy="330" r="7" fill="#f4e6bd" opacity=".82"/><circle cx="283" cy="359" r="8" fill="#ead8ab" opacity=".82"/><circle cx="324" cy="388" r="9" fill="#ead8ab" opacity=".82"/><circle cx="365" cy="417" r="10" fill="#f4e6bd" opacity=".82"/><circle cx="406" cy="446" r="4" fill="#ead8ab" opacity=".82"/><circle cx="447" cy="290" r="5" fill="#ead8ab" opacity=".82"/><circle cx="488" cy="319" r="6" fill="#f4e6bd" opacity=".82"/><circle cx="529" cy="348" r="7" fill="#ead8ab" opacity=".82"/><circle cx="570" cy="377" r="8" fill="#ead8ab" opacity=".82"/><circle cx="611" cy="406" r="9" fill="#f4e6bd" opacity=".82"/><circle cx="652" cy="435" r="10" fill="#ead8ab" opacity=".82"/><circle cx="283" cy="464" r="4" fill="#ead8ab" opacity=".82"/><circle cx="324" cy="308" r="5" fill="#f4e6bd" opacity=".82"/><circle cx="365" cy="337" r="6" fill="#ead8ab" opacity=".82"/><circle cx="406" cy="366" r="7" fill="#ead8ab" opacity=".82"/><circle cx="447" cy="395" r="8" fill="#f4e6bd" opacity=".82"/><circle cx="488" cy="424" r="9" fill="#ead8ab" opacity=".82"/><circle cx="529" cy="453" r="10" fill="#ead8ab" opacity=".82"/><circle cx="570" cy="297" r="4" fill="#f4e6bd" opacity=".82"/><circle cx="611" cy="326" r="5" fill="#ead8ab" opacity=".82"/><circle cx="652" cy="355" r="6" fill="#ead8ab" opacity=".82"/><circle cx="283" cy="384" r="7" fill="#f4e6bd" opacity=".82"/><circle cx="324" cy="413" r="8" fill="#ead8ab" opacity=".82"/><circle cx="365" cy="442" r="9" fill="#ead8ab" opacity=".82"/><circle cx="406" cy="286" r="10" fill="#f4e6bd" opacity=".82"/><circle cx="447" cy="315" r="4" fill="#ead8ab" opacity=".82"/><circle cx="488" cy="344" r="5" fill="#ead8ab" opacity=".82"/><circle cx="529" cy="373" r="6" fill="#f4e6bd" opacity=".82"/><circle cx="570" cy="402" r="7" fill="#ead8ab" opacity=".82"/><circle cx="611" cy="431" r="8" fill="#ead8ab" opacity=".82"/><circle cx="652" cy="460" r="9" fill="#f4e6bd" opacity=".82"/><circle cx="283" cy="304" r="10" fill="#ead8ab" opacity=".82"/></g>
  
  <g filter="url(#soft-shadow)">
    <path d="M260 318c88-78 262-90 378-28 38 20 46 66 12 95-98 84-300 94-415 20-39-25-31-59 25-87z" fill="#f6efe4"/>
    <path d="M280 329c83 40 227 40 336 4" fill="none" stroke="#d7b98a" stroke-width="12" stroke-linecap="round" opacity=".45"/>
    <path d="M308 377c88 34 205 31 300-8" fill="none" stroke="#fffaf1" stroke-width="9" stroke-linecap="round" opacity=".65"/>
    <circle cx="524" cy="316" r="16" fill="#f1c85d" opacity=".95"/>
  </g>
  <g><rect x="342" y="382" width="58" height="14" rx="7" fill="#dc8543" transform="rotate(-26 342 382)" opacity=".82"/><rect x="413" y="435" width="58" height="14" rx="7" fill="#dc8543" transform="rotate(-11 413 435)" opacity=".82"/><rect x="484" y="308" width="58" height="14" rx="7" fill="#dc8543" transform="rotate(4 484 308)" opacity=".82"/><rect x="555" y="361" width="58" height="14" rx="7" fill="#dc8543" transform="rotate(19 555 361)" opacity=".82"/><rect x="626" y="414" width="58" height="14" rx="7" fill="#dc8543" transform="rotate(34 626 414)" opacity=".82"/><rect x="327" y="287" width="58" height="14" rx="7" fill="#dc8543" transform="rotate(-26 327 287)" opacity=".82"/><rect x="398" y="340" width="58" height="14" rx="7" fill="#dc8543" transform="rotate(-11 398 340)" opacity=".82"/><ellipse cx="437" cy="307" rx="31" ry="11" fill="#7aa36d" transform="rotate(-24 437 307)" opacity=".75"/><ellipse cx="498" cy="354" rx="31" ry="11" fill="#7aa36d" transform="rotate(-6 498 354)" opacity=".75"/><ellipse cx="559" cy="401" rx="31" ry="11" fill="#7aa36d" transform="rotate(12 559 401)" opacity=".75"/><ellipse cx="620" cy="448" rx="31" ry="11" fill="#7aa36d" transform="rotate(30 620 448)" opacity=".75"/><ellipse cx="331" cy="325" rx="31" ry="11" fill="#7aa36d" transform="rotate(-24 331 325)" opacity=".75"/><ellipse cx="392" cy="372" rx="31" ry="11" fill="#7aa36d" transform="rotate(-6 392 372)" opacity=".75"/><ellipse cx="582" cy="262" rx="20" ry="8" fill="#45745c" transform="rotate(22 582 262)" opacity=".9"/><ellipse cx="649" cy="303" rx="25" ry="8" fill="#45745c" transform="rotate(-23 649 303)" opacity=".9"/><ellipse cx="311" cy="344" rx="30" ry="8" fill="#45745c" transform="rotate(0 311 344)" opacity=".9"/><ellipse cx="378" cy="385" rx="20" ry="8" fill="#45745c" transform="rotate(23 378 385)" opacity=".9"/><ellipse cx="445" cy="426" rx="25" ry="8" fill="#45745c" transform="rotate(-22 445 426)" opacity=".9"/><ellipse cx="512" cy="217" rx="30" ry="8" fill="#45745c" transform="rotate(1 512 217)" opacity=".9"/><ellipse cx="579" cy="258" rx="20" ry="8" fill="#45745c" transform="rotate(24 579 258)" opacity=".9"/><ellipse cx="646" cy="299" rx="25" ry="8" fill="#45745c" transform="rotate(-21 646 299)" opacity=".9"/><ellipse cx="308" cy="340" rx="30" ry="8" fill="#45745c" transform="rotate(2 308 340)" opacity=".9"/><ellipse cx="375" cy="381" rx="20" ry="8" fill="#45745c" transform="rotate(25 375 381)" opacity=".9"/><ellipse cx="442" cy="422" rx="25" ry="8" fill="#45745c" transform="rotate(-20 442 422)" opacity=".9"/><ellipse cx="509" cy="213" rx="30" ry="8" fill="#45745c" transform="rotate(3 509 213)" opacity=".9"/><ellipse cx="576" cy="254" rx="20" ry="8" fill="#45745c" transform="rotate(26 576 254)" opacity=".9"/></g>
  <g opacity=".95">
    <circle cx="578" cy="267" r="22" fill="#f1c85d"/>
    <path d="M578 246a22 22 0 0 1 0 44" fill="#fff3b0" opacity=".72"/>
  </g>
</svg>