<svg xmlns="http://www.w3.org/2000/svg" viewBox="0 0 900 675" role="img" aria-label="walleye fillets with kosher for Passover sides">
  <defs>
    <radialGradient id="plate-glow" cx="50%" cy="46%" r="62%">
      <stop offset="0" stop-color="#fffdf4"/>
      <stop offset="1" stop-color="#fff8ea"/>
    </radialGradient>
    <linearGradient id="table" x1="0" y1="0" x2="1" y2="1">
      <stop offset="0" stop-color="#f3eee2"/>
      <stop offset="1" stop-color="#d8c7ab"/>
    </linearGradient>
    <filter id="soft-shadow" x="-25%" y="-25%" width="150%" height="150%">
      <feDropShadow dx="0" dy="14" stdDeviation="15" flood-color="#253a35" flood-opacity=".28"/>
    </filter>
    <filter id="grain">
      <feTurbulence type="fractalNoise" baseFrequency=".85" numOctaves="2" seed="1164" result="noise"/>
      <feColorMatrix type="saturate" values=".12"/>
      <feComponentTransfer>
        <feFuncA type="table" tableValues="0 .12"/>
      </feComponentTransfer>
      <feBlend mode="multiply" in2="SourceGraphic"/>
    </filter>
  </defs>
  <rect width="900" height="675" fill="url(#table)"/>
  <rect width="900" height="675" filter="url(#grain)" opacity=".34"/>
  <ellipse cx="450" cy="365" rx="332" ry="222" fill="#5d4b3c" opacity=".12"/>
  <ellipse cx="450" cy="350" rx="318" ry="214" fill="url(#plate-glow)"/>
  <ellipse cx="450" cy="350" rx="260" ry="164" fill="#f6ead4"/>
  <g><circle cx="592" cy="334" r="6" fill="#f4e6bd" opacity=".82"/><circle cx="633" cy="363" r="7" fill="#ead8ab" opacity=".82"/><circle cx="264" cy="392" r="8" fill="#ead8ab" opacity=".82"/><circle cx="305" cy="421" r="9" fill="#f4e6bd" opacity=".82"/><circle cx="346" cy="450" r="10" fill="#ead8ab" opacity=".82"/><circle cx="387" cy="294" r="4" fill="#ead8ab" opacity=".82"/><circle cx="428" cy="323" r="5" fill="#f4e6bd" opacity=".82"/><circle cx="469" cy="352" r="6" fill="#ead8ab" opacity=".82"/><circle cx="510" cy="381" r="7" fill="#ead8ab" opacity=".82"/><circle cx="551" cy="410" r="8" fill="#f4e6bd" opacity=".82"/><circle cx="592" cy="439" r="9" fill="#ead8ab" opacity=".82"/><circle cx="633" cy="283" r="10" fill="#ead8ab" opacity=".82"/><circle cx="264" cy="312" r="4" fill="#f4e6bd" opacity=".82"/><circle cx="305" cy="341" r="5" fill="#ead8ab" opacity=".82"/><circle cx="346" cy="370" r="6" fill="#ead8ab" opacity=".82"/><circle cx="387" cy="399" r="7" fill="#f4e6bd" opacity=".82"/><circle cx="428" cy="428" r="8" fill="#ead8ab" opacity=".82"/><circle cx="469" cy="457" r="9" fill="#ead8ab" opacity=".82"/><circle cx="510" cy="301" r="10" fill="#f4e6bd" opacity=".82"/><circle cx="551" cy="330" r="4" fill="#ead8ab" opacity=".82"/><circle cx="592" cy="359" r="5" fill="#ead8ab" opacity=".82"/><circle cx="633" cy="388" r="6" fill="#f4e6bd" opacity=".82"/><circle cx="264" cy="417" r="7" fill="#ead8ab" opacity=".82"/><circle cx="305" cy="446" r="8" fill="#ead8ab" opacity=".82"/><circle cx="346" cy="290" r="9" fill="#f4e6bd" opacity=".82"/><circle cx="387" cy="319" r="10" fill="#ead8ab" opacity=".82"/><circle cx="428" cy="348" r="4" fill="#ead8ab" opacity=".82"/><circle cx="469" cy="377" r="5" fill="#f4e6bd" opacity=".82"/><circle cx="510" cy="406" r="6" fill="#ead8ab" opacity=".82"/><circle cx="551" cy="435" r="7" fill="#ead8ab" opacity=".82"/><circle cx="592" cy="464" r="8" fill="#f4e6bd" opacity=".82"/><circle cx="633" cy="308" r="9" fill="#ead8ab" opacity=".82"/><circle cx="264" cy="337" r="10" fill="#ead8ab" opacity=".82"/><circle cx="305" cy="366" r="4" fill="#f4e6bd" opacity=".82"/><circle cx="346" cy="395" r="5" fill="#ead8ab" opacity=".82"/><circle cx="387" cy="424" r="6" fill="#ead8ab" opacity=".82"/><circle cx="428" cy="453" r="7" fill="#f4e6bd" opacity=".82"/><circle cx="469" cy="297" r="8" fill="#ead8ab" opacity=".82"/><circle cx="510" cy="326" r="9" fill="#ead8ab" opacity=".82"/><circle cx="551" cy="355" r="10" fill="#f4e6bd" opacity=".82"/><circle cx="592" cy="384" r="4" fill="#ead8ab" opacity=".82"/><circle cx="633" cy="413" r="5" fill="#ead8ab" opacity=".82"/><circle cx="264" cy="442" r="6" fill="#f4e6bd" opacity=".82"/><circle cx="305" cy="286" r="7" fill="#ead8ab" opacity=".82"/></g>
  
  <g filter="url(#soft-shadow)">
    <path d="M260 318c88-78 262-90 378-28 38 20 46 66 12 95-98 84-300 94-415 20-39-25-31-59 25-87z" fill="#f6efe4"/>
    <path d="M280 329c83 40 227 40 336 4" fill="none" stroke="#d7b98a" stroke-width="12" stroke-linecap="round" opacity=".45"/>
    <path d="M308 377c88 34 205 31 300-8" fill="none" stroke="#fffaf1" stroke-width="9" stroke-linecap="round" opacity=".65"/>
    <circle cx="532" cy="312" r="16" fill="#f1c85d" opacity=".95"/>
  </g>
  <g><rect x="324" y="354" width="58" height="14" rx="7" fill="#dc8543" transform="rotate(-26 324 354)" opacity=".82"/><rect x="395" y="407" width="58" height="14" rx="7" fill="#dc8543" transform="rotate(-11 395 407)" opacity=".82"/><rect x="466" y="280" width="58" height="14" rx="7" fill="#dc8543" transform="rotate(4 466 280)" opacity=".82"/><rect x="537" y="333" width="58" height="14" rx="7" fill="#dc8543" transform="rotate(19 537 333)" opacity=".82"/><rect x="608" y="386" width="58" height="14" rx="7" fill="#dc8543" transform="rotate(34 608 386)" opacity=".82"/><rect x="309" y="439" width="58" height="14" rx="7" fill="#dc8543" transform="rotate(-26 309 439)" opacity=".82"/><rect x="380" y="312" width="58" height="14" rx="7" fill="#dc8543" transform="rotate(-11 380 312)" opacity=".82"/><ellipse cx="399" cy="429" rx="31" ry="11" fill="#7aa36d" transform="rotate(-24 399 429)" opacity=".75"/><ellipse cx="460" cy="306" rx="31" ry="11" fill="#7aa36d" transform="rotate(-6 460 306)" opacity=".75"/><ellipse cx="521" cy="353" rx="31" ry="11" fill="#7aa36d" transform="rotate(12 521 353)" opacity=".75"/><ellipse cx="582" cy="400" rx="31" ry="11" fill="#7aa36d" transform="rotate(30 582 400)" opacity=".75"/><ellipse cx="293" cy="447" rx="31" ry="11" fill="#7aa36d" transform="rotate(-24 293 447)" opacity=".75"/><ellipse cx="354" cy="324" rx="31" ry="11" fill="#7aa36d" transform="rotate(-6 354 324)" opacity=".75"/><ellipse cx="599" cy="374" rx="20" ry="8" fill="#45745c" transform="rotate(-26 599 374)" opacity=".9"/><ellipse cx="261" cy="415" rx="25" ry="8" fill="#45745c" transform="rotate(-3 261 415)" opacity=".9"/><ellipse cx="328" cy="456" rx="30" ry="8" fill="#45745c" transform="rotate(20 328 456)" opacity=".9"/><ellipse cx="395" cy="247" rx="20" ry="8" fill="#45745c" transform="rotate(-25 395 247)" opacity=".9"/><ellipse cx="462" cy="288" rx="25" ry="8" fill="#45745c" transform="rotate(-2 462 288)" opacity=".9"/><ellipse cx="529" cy="329" rx="30" ry="8" fill="#45745c" transform="rotate(21 529 329)" opacity=".9"/><ellipse cx="596" cy="370" rx="20" ry="8" fill="#45745c" transform="rotate(-24 596 370)" opacity=".9"/><ellipse cx="258" cy="411" rx="25" ry="8" fill="#45745c" transform="rotate(-1 258 411)" opacity=".9"/><ellipse cx="325" cy="452" rx="30" ry="8" fill="#45745c" transform="rotate(22 325 452)" opacity=".9"/><ellipse cx="392" cy="243" rx="20" ry="8" fill="#45745c" transform="rotate(-23 392 243)" opacity=".9"/><ellipse cx="459" cy="284" rx="25" ry="8" fill="#45745c" transform="rotate(0 459 284)" opacity=".9"/><ellipse cx="526" cy="325" rx="30" ry="8" fill="#45745c" transform="rotate(23 526 325)" opacity=".9"/><ellipse cx="593" cy="366" rx="20" ry="8" fill="#45745c" transform="rotate(-22 593 366)" opacity=".9"/></g>
  <g opacity=".95">
    <circle cx="566" cy="239" r="22" fill="#f1c85d"/>
    <path d="M566 218a22 22 0 0 1 0 44" fill="#fff3b0" opacity=".72"/>
  </g>
</svg>