<svg xmlns="http://www.w3.org/2000/svg" viewBox="0 0 900 675" role="img" aria-label="walleye fillets with weeknight grains">
  <defs>
    <radialGradient id="plate-glow" cx="50%" cy="46%" r="62%">
      <stop offset="0" stop-color="#fffdf4"/>
      <stop offset="1" stop-color="#fff8ea"/>
    </radialGradient>
    <linearGradient id="table" x1="0" y1="0" x2="1" y2="1">
      <stop offset="0" stop-color="#f3eee2"/>
      <stop offset="1" stop-color="#d8c7ab"/>
    </linearGradient>
    <filter id="soft-shadow" x="-25%" y="-25%" width="150%" height="150%">
      <feDropShadow dx="0" dy="14" stdDeviation="15" flood-color="#253a35" flood-opacity=".28"/>
    </filter>
    <filter id="grain">
      <feTurbulence type="fractalNoise" baseFrequency=".85" numOctaves="2" seed="1843" result="noise"/>
      <feColorMatrix type="saturate" values=".12"/>
      <feComponentTransfer>
        <feFuncA type="table" tableValues="0 .12"/>
      </feComponentTransfer>
      <feBlend mode="multiply" in2="SourceGraphic"/>
    </filter>
  </defs>
  <rect width="900" height="675" fill="url(#table)"/>
  <rect width="900" height="675" filter="url(#grain)" opacity=".34"/>
  <ellipse cx="450" cy="365" rx="332" ry="222" fill="#5d4b3c" opacity=".12"/>
  <ellipse cx="450" cy="350" rx="318" ry="214" fill="url(#plate-glow)"/>
  <ellipse cx="450" cy="350" rx="260" ry="164" fill="#f6ead4"/>
  <g><circle cx="451" cy="458" r="6" fill="#f4e6bd" opacity=".82"/><circle cx="492" cy="302" r="7" fill="#ead8ab" opacity=".82"/><circle cx="533" cy="331" r="8" fill="#ead8ab" opacity=".82"/><circle cx="574" cy="360" r="9" fill="#f4e6bd" opacity=".82"/><circle cx="615" cy="389" r="10" fill="#ead8ab" opacity=".82"/><circle cx="656" cy="418" r="4" fill="#ead8ab" opacity=".82"/><circle cx="287" cy="447" r="5" fill="#f4e6bd" opacity=".82"/><circle cx="328" cy="291" r="6" fill="#ead8ab" opacity=".82"/><circle cx="369" cy="320" r="7" fill="#ead8ab" opacity=".82"/><circle cx="410" cy="349" r="8" fill="#f4e6bd" opacity=".82"/><circle cx="451" cy="378" r="9" fill="#ead8ab" opacity=".82"/><circle cx="492" cy="407" r="10" fill="#ead8ab" opacity=".82"/><circle cx="533" cy="436" r="4" fill="#f4e6bd" opacity=".82"/><circle cx="574" cy="280" r="5" fill="#ead8ab" opacity=".82"/><circle cx="615" cy="309" r="6" fill="#ead8ab" opacity=".82"/><circle cx="656" cy="338" r="7" fill="#f4e6bd" opacity=".82"/><circle cx="287" cy="367" r="8" fill="#ead8ab" opacity=".82"/><circle cx="328" cy="396" r="9" fill="#ead8ab" opacity=".82"/><circle cx="369" cy="425" r="10" fill="#f4e6bd" opacity=".82"/><circle cx="410" cy="454" r="4" fill="#ead8ab" opacity=".82"/><circle cx="451" cy="298" r="5" fill="#ead8ab" opacity=".82"/><circle cx="492" cy="327" r="6" fill="#f4e6bd" opacity=".82"/><circle cx="533" cy="356" r="7" fill="#ead8ab" opacity=".82"/><circle cx="574" cy="385" r="8" fill="#ead8ab" opacity=".82"/><circle cx="615" cy="414" r="9" fill="#f4e6bd" opacity=".82"/><circle cx="656" cy="443" r="10" fill="#ead8ab" opacity=".82"/><circle cx="287" cy="287" r="4" fill="#ead8ab" opacity=".82"/><circle cx="328" cy="316" r="5" fill="#f4e6bd" opacity=".82"/><circle cx="369" cy="345" r="6" fill="#ead8ab" opacity=".82"/><circle cx="410" cy="374" r="7" fill="#ead8ab" opacity=".82"/><circle cx="451" cy="403" r="8" fill="#f4e6bd" opacity=".82"/><circle cx="492" cy="432" r="9" fill="#ead8ab" opacity=".82"/><circle cx="533" cy="461" r="10" fill="#ead8ab" opacity=".82"/><circle cx="574" cy="305" r="4" fill="#f4e6bd" opacity=".82"/><circle cx="615" cy="334" r="5" fill="#ead8ab" opacity=".82"/><circle cx="656" cy="363" r="6" fill="#ead8ab" opacity=".82"/><circle cx="287" cy="392" r="7" fill="#f4e6bd" opacity=".82"/><circle cx="328" cy="421" r="8" fill="#ead8ab" opacity=".82"/><circle cx="369" cy="450" r="9" fill="#ead8ab" opacity=".82"/><circle cx="410" cy="294" r="10" fill="#f4e6bd" opacity=".82"/><circle cx="451" cy="323" r="4" fill="#ead8ab" opacity=".82"/><circle cx="492" cy="352" r="5" fill="#ead8ab" opacity=".82"/><circle cx="533" cy="381" r="6" fill="#f4e6bd" opacity=".82"/><circle cx="574" cy="410" r="7" fill="#ead8ab" opacity=".82"/></g>
  
  <g filter="url(#soft-shadow)">
    <path d="M260 318c88-78 262-90 378-28 38 20 46 66 12 95-98 84-300 94-415 20-39-25-31-59 25-87z" fill="#f6efe4"/>
    <path d="M280 329c83 40 227 40 336 4" fill="none" stroke="#d7b98a" stroke-width="12" stroke-linecap="round" opacity=".45"/>
    <path d="M308 377c88 34 205 31 300-8" fill="none" stroke="#fffaf1" stroke-width="9" stroke-linecap="round" opacity=".65"/>
    <circle cx="527" cy="319" r="16" fill="#f1c85d" opacity=".95"/>
  </g>
  <g><rect x="633" y="313" width="58" height="14" rx="7" fill="#dc8543" transform="rotate(-26 633 313)" opacity=".82"/><rect x="334" y="366" width="58" height="14" rx="7" fill="#dc8543" transform="rotate(-11 334 366)" opacity=".82"/><rect x="405" y="419" width="58" height="14" rx="7" fill="#dc8543" transform="rotate(4 405 419)" opacity=".82"/><rect x="476" y="292" width="58" height="14" rx="7" fill="#dc8543" transform="rotate(19 476 292)" opacity=".82"/><rect x="547" y="345" width="58" height="14" rx="7" fill="#dc8543" transform="rotate(34 547 345)" opacity=".82"/><rect x="618" y="398" width="58" height="14" rx="7" fill="#dc8543" transform="rotate(-26 618 398)" opacity=".82"/><rect x="319" y="271" width="58" height="14" rx="7" fill="#dc8543" transform="rotate(-11 319 271)" opacity=".82"/><ellipse cx="378" cy="428" rx="31" ry="11" fill="#7aa36d" transform="rotate(-24 378 428)" opacity=".75"/><ellipse cx="439" cy="305" rx="31" ry="11" fill="#7aa36d" transform="rotate(-6 439 305)" opacity=".75"/><ellipse cx="500" cy="352" rx="31" ry="11" fill="#7aa36d" transform="rotate(12 500 352)" opacity=".75"/><ellipse cx="561" cy="399" rx="31" ry="11" fill="#7aa36d" transform="rotate(30 561 399)" opacity=".75"/><ellipse cx="622" cy="446" rx="31" ry="11" fill="#7aa36d" transform="rotate(-24 622 446)" opacity=".75"/><ellipse cx="333" cy="323" rx="31" ry="11" fill="#7aa36d" transform="rotate(-6 333 323)" opacity=".75"/><ellipse cx="468" cy="303" rx="20" ry="8" fill="#45745c" transform="rotate(-27 468 303)" opacity=".9"/><ellipse cx="535" cy="344" rx="25" ry="8" fill="#45745c" transform="rotate(-4 535 344)" opacity=".9"/><ellipse cx="602" cy="385" rx="30" ry="8" fill="#45745c" transform="rotate(19 602 385)" opacity=".9"/><ellipse cx="264" cy="426" rx="20" ry="8" fill="#45745c" transform="rotate(-26 264 426)" opacity=".9"/><ellipse cx="331" cy="217" rx="25" ry="8" fill="#45745c" transform="rotate(-3 331 217)" opacity=".9"/><ellipse cx="398" cy="258" rx="30" ry="8" fill="#45745c" transform="rotate(20 398 258)" opacity=".9"/><ellipse cx="465" cy="299" rx="20" ry="8" fill="#45745c" transform="rotate(-25 465 299)" opacity=".9"/><ellipse cx="532" cy="340" rx="25" ry="8" fill="#45745c" transform="rotate(-2 532 340)" opacity=".9"/><ellipse cx="599" cy="381" rx="30" ry="8" fill="#45745c" transform="rotate(21 599 381)" opacity=".9"/><ellipse cx="261" cy="422" rx="20" ry="8" fill="#45745c" transform="rotate(-24 261 422)" opacity=".9"/><ellipse cx="328" cy="213" rx="25" ry="8" fill="#45745c" transform="rotate(-1 328 213)" opacity=".9"/><ellipse cx="395" cy="254" rx="30" ry="8" fill="#45745c" transform="rotate(22 395 254)" opacity=".9"/><ellipse cx="462" cy="295" rx="20" ry="8" fill="#45745c" transform="rotate(-23 462 295)" opacity=".9"/></g>
  <g opacity=".95">
    <circle cx="607" cy="238" r="22" fill="#f1c85d"/>
    <path d="M607 217a22 22 0 0 1 0 44" fill="#fff3b0" opacity=".72"/>
  </g>
</svg>