<svg xmlns="http://www.w3.org/2000/svg" viewBox="0 0 900 675" role="img" aria-label="walleye fillets with kosher for Passover sides">
  <defs>
    <radialGradient id="plate-glow" cx="50%" cy="46%" r="62%">
      <stop offset="0" stop-color="#fffdf4"/>
      <stop offset="1" stop-color="#fff8ea"/>
    </radialGradient>
    <linearGradient id="table" x1="0" y1="0" x2="1" y2="1">
      <stop offset="0" stop-color="#f3eee2"/>
      <stop offset="1" stop-color="#d8c7ab"/>
    </linearGradient>
    <filter id="soft-shadow" x="-25%" y="-25%" width="150%" height="150%">
      <feDropShadow dx="0" dy="14" stdDeviation="15" flood-color="#253a35" flood-opacity=".28"/>
    </filter>
    <filter id="grain">
      <feTurbulence type="fractalNoise" baseFrequency=".85" numOctaves="2" seed="582" result="noise"/>
      <feColorMatrix type="saturate" values=".12"/>
      <feComponentTransfer>
        <feFuncA type="table" tableValues="0 .12"/>
      </feComponentTransfer>
      <feBlend mode="multiply" in2="SourceGraphic"/>
    </filter>
  </defs>
  <rect width="900" height="675" fill="url(#table)"/>
  <rect width="900" height="675" filter="url(#grain)" opacity=".34"/>
  <ellipse cx="450" cy="365" rx="332" ry="222" fill="#5d4b3c" opacity=".12"/>
  <ellipse cx="450" cy="350" rx="318" ry="214" fill="url(#plate-glow)"/>
  <ellipse cx="450" cy="350" rx="260" ry="164" fill="#f6ead4"/>
  <g><circle cx="420" cy="307" r="5" fill="#f4e6bd" opacity=".82"/><circle cx="461" cy="336" r="6" fill="#ead8ab" opacity=".82"/><circle cx="502" cy="365" r="7" fill="#ead8ab" opacity=".82"/><circle cx="543" cy="394" r="8" fill="#f4e6bd" opacity=".82"/><circle cx="584" cy="423" r="9" fill="#ead8ab" opacity=".82"/><circle cx="625" cy="452" r="10" fill="#ead8ab" opacity=".82"/><circle cx="256" cy="296" r="4" fill="#f4e6bd" opacity=".82"/><circle cx="297" cy="325" r="5" fill="#ead8ab" opacity=".82"/><circle cx="338" cy="354" r="6" fill="#ead8ab" opacity=".82"/><circle cx="379" cy="383" r="7" fill="#f4e6bd" opacity=".82"/><circle cx="420" cy="412" r="8" fill="#ead8ab" opacity=".82"/><circle cx="461" cy="441" r="9" fill="#ead8ab" opacity=".82"/><circle cx="502" cy="285" r="10" fill="#f4e6bd" opacity=".82"/><circle cx="543" cy="314" r="4" fill="#ead8ab" opacity=".82"/><circle cx="584" cy="343" r="5" fill="#ead8ab" opacity=".82"/><circle cx="625" cy="372" r="6" fill="#f4e6bd" opacity=".82"/><circle cx="256" cy="401" r="7" fill="#ead8ab" opacity=".82"/><circle cx="297" cy="430" r="8" fill="#ead8ab" opacity=".82"/><circle cx="338" cy="459" r="9" fill="#f4e6bd" opacity=".82"/><circle cx="379" cy="303" r="10" fill="#ead8ab" opacity=".82"/><circle cx="420" cy="332" r="4" fill="#ead8ab" opacity=".82"/><circle cx="461" cy="361" r="5" fill="#f4e6bd" opacity=".82"/><circle cx="502" cy="390" r="6" fill="#ead8ab" opacity=".82"/><circle cx="543" cy="419" r="7" fill="#ead8ab" opacity=".82"/><circle cx="584" cy="448" r="8" fill="#f4e6bd" opacity=".82"/><circle cx="625" cy="292" r="9" fill="#ead8ab" opacity=".82"/><circle cx="256" cy="321" r="10" fill="#ead8ab" opacity=".82"/><circle cx="297" cy="350" r="4" fill="#f4e6bd" opacity=".82"/><circle cx="338" cy="379" r="5" fill="#ead8ab" opacity=".82"/><circle cx="379" cy="408" r="6" fill="#ead8ab" opacity=".82"/><circle cx="420" cy="437" r="7" fill="#f4e6bd" opacity=".82"/><circle cx="461" cy="281" r="8" fill="#ead8ab" opacity=".82"/><circle cx="502" cy="310" r="9" fill="#ead8ab" opacity=".82"/><circle cx="543" cy="339" r="10" fill="#f4e6bd" opacity=".82"/><circle cx="584" cy="368" r="4" fill="#ead8ab" opacity=".82"/><circle cx="625" cy="397" r="5" fill="#ead8ab" opacity=".82"/><circle cx="256" cy="426" r="6" fill="#f4e6bd" opacity=".82"/><circle cx="297" cy="455" r="7" fill="#ead8ab" opacity=".82"/><circle cx="338" cy="299" r="8" fill="#ead8ab" opacity=".82"/><circle cx="379" cy="328" r="9" fill="#f4e6bd" opacity=".82"/><circle cx="420" cy="357" r="10" fill="#ead8ab" opacity=".82"/><circle cx="461" cy="386" r="4" fill="#ead8ab" opacity=".82"/><circle cx="502" cy="415" r="5" fill="#f4e6bd" opacity=".82"/><circle cx="543" cy="444" r="6" fill="#ead8ab" opacity=".82"/></g>
  
  <g filter="url(#soft-shadow)">
    <path d="M260 318c88-78 262-90 378-28 38 20 46 66 12 95-98 84-300 94-415 20-39-25-31-59 25-87z" fill="#f6efe4"/>
    <path d="M280 329c83 40 227 40 336 4" fill="none" stroke="#d7b98a" stroke-width="12" stroke-linecap="round" opacity=".45"/>
    <path d="M308 377c88 34 205 31 300-8" fill="none" stroke="#fffaf1" stroke-width="9" stroke-linecap="round" opacity=".65"/>
    <circle cx="526" cy="306" r="16" fill="#f1c85d" opacity=".95"/>
  </g>
  <g><rect x="482" y="312" width="58" height="14" rx="7" fill="#dc8543" transform="rotate(-26 482 312)" opacity=".82"/><rect x="553" y="365" width="58" height="14" rx="7" fill="#dc8543" transform="rotate(-11 553 365)" opacity=".82"/><rect x="624" y="418" width="58" height="14" rx="7" fill="#dc8543" transform="rotate(4 624 418)" opacity=".82"/><rect x="325" y="291" width="58" height="14" rx="7" fill="#dc8543" transform="rotate(19 325 291)" opacity=".82"/><rect x="396" y="344" width="58" height="14" rx="7" fill="#dc8543" transform="rotate(34 396 344)" opacity=".82"/><rect x="467" y="397" width="58" height="14" rx="7" fill="#dc8543" transform="rotate(-26 467 397)" opacity=".82"/><rect x="538" y="270" width="58" height="14" rx="7" fill="#dc8543" transform="rotate(-11 538 270)" opacity=".82"/><ellipse cx="517" cy="357" rx="31" ry="11" fill="#7aa36d" transform="rotate(-24 517 357)" opacity=".75"/><ellipse cx="578" cy="404" rx="31" ry="11" fill="#7aa36d" transform="rotate(-6 578 404)" opacity=".75"/><ellipse cx="289" cy="451" rx="31" ry="11" fill="#7aa36d" transform="rotate(12 289 451)" opacity=".75"/><ellipse cx="350" cy="328" rx="31" ry="11" fill="#7aa36d" transform="rotate(30 350 328)" opacity=".75"/><ellipse cx="411" cy="375" rx="31" ry="11" fill="#7aa36d" transform="rotate(-24 411 375)" opacity=".75"/><ellipse cx="472" cy="422" rx="31" ry="11" fill="#7aa36d" transform="rotate(-6 472 422)" opacity=".75"/><ellipse cx="422" cy="292" rx="20" ry="8" fill="#45745c" transform="rotate(4 422 292)" opacity=".9"/><ellipse cx="489" cy="333" rx="25" ry="8" fill="#45745c" transform="rotate(27 489 333)" opacity=".9"/><ellipse cx="556" cy="374" rx="30" ry="8" fill="#45745c" transform="rotate(-18 556 374)" opacity=".9"/><ellipse cx="623" cy="415" rx="20" ry="8" fill="#45745c" transform="rotate(5 623 415)" opacity=".9"/><ellipse cx="285" cy="456" rx="25" ry="8" fill="#45745c" transform="rotate(28 285 456)" opacity=".9"/><ellipse cx="352" cy="247" rx="30" ry="8" fill="#45745c" transform="rotate(-17 352 247)" opacity=".9"/><ellipse cx="419" cy="288" rx="20" ry="8" fill="#45745c" transform="rotate(6 419 288)" opacity=".9"/><ellipse cx="486" cy="329" rx="25" ry="8" fill="#45745c" transform="rotate(29 486 329)" opacity=".9"/><ellipse cx="553" cy="370" rx="30" ry="8" fill="#45745c" transform="rotate(-16 553 370)" opacity=".9"/><ellipse cx="620" cy="411" rx="20" ry="8" fill="#45745c" transform="rotate(7 620 411)" opacity=".9"/><ellipse cx="282" cy="452" rx="25" ry="8" fill="#45745c" transform="rotate(30 282 452)" opacity=".9"/><ellipse cx="349" cy="243" rx="30" ry="8" fill="#45745c" transform="rotate(-15 349 243)" opacity=".9"/><ellipse cx="416" cy="284" rx="20" ry="8" fill="#45745c" transform="rotate(8 416 284)" opacity=".9"/></g>
  <g opacity=".95">
    <circle cx="588" cy="257" r="22" fill="#f1c85d"/>
    <path d="M588 236a22 22 0 0 1 0 44" fill="#fff3b0" opacity=".72"/>
  </g>
</svg>