<svg xmlns="http://www.w3.org/2000/svg" viewBox="0 0 900 675" role="img" aria-label="white fish fillets with clean herb sides">
  <defs>
    <radialGradient id="plate-glow" cx="50%" cy="46%" r="62%">
      <stop offset="0" stop-color="#fffdf4"/>
      <stop offset="1" stop-color="#fff8ea"/>
    </radialGradient>
    <linearGradient id="table" x1="0" y1="0" x2="1" y2="1">
      <stop offset="0" stop-color="#f3eee2"/>
      <stop offset="1" stop-color="#d8c7ab"/>
    </linearGradient>
    <filter id="soft-shadow" x="-25%" y="-25%" width="150%" height="150%">
      <feDropShadow dx="0" dy="14" stdDeviation="15" flood-color="#253a35" flood-opacity=".28"/>
    </filter>
    <filter id="grain">
      <feTurbulence type="fractalNoise" baseFrequency=".85" numOctaves="2" seed="3395" result="noise"/>
      <feColorMatrix type="saturate" values=".12"/>
      <feComponentTransfer>
        <feFuncA type="table" tableValues="0 .12"/>
      </feComponentTransfer>
      <feBlend mode="multiply" in2="SourceGraphic"/>
    </filter>
  </defs>
  <rect width="900" height="675" fill="url(#table)"/>
  <rect width="900" height="675" filter="url(#grain)" opacity=".34"/>
  <ellipse cx="450" cy="365" rx="332" ry="222" fill="#5d4b3c" opacity=".12"/>
  <ellipse cx="450" cy="350" rx="318" ry="214" fill="url(#plate-glow)"/>
  <ellipse cx="450" cy="350" rx="260" ry="164" fill="#f6ead4"/>
  <g><circle cx="363" cy="345" r="4" fill="#f4e6bd" opacity=".82"/><circle cx="404" cy="374" r="5" fill="#ead8ab" opacity=".82"/><circle cx="445" cy="403" r="6" fill="#ead8ab" opacity=".82"/><circle cx="486" cy="432" r="7" fill="#f4e6bd" opacity=".82"/><circle cx="527" cy="461" r="8" fill="#ead8ab" opacity=".82"/><circle cx="568" cy="305" r="9" fill="#ead8ab" opacity=".82"/><circle cx="609" cy="334" r="10" fill="#f4e6bd" opacity=".82"/><circle cx="650" cy="363" r="4" fill="#ead8ab" opacity=".82"/><circle cx="281" cy="392" r="5" fill="#ead8ab" opacity=".82"/><circle cx="322" cy="421" r="6" fill="#f4e6bd" opacity=".82"/><circle cx="363" cy="450" r="7" fill="#ead8ab" opacity=".82"/><circle cx="404" cy="294" r="8" fill="#ead8ab" opacity=".82"/><circle cx="445" cy="323" r="9" fill="#f4e6bd" opacity=".82"/><circle cx="486" cy="352" r="10" fill="#ead8ab" opacity=".82"/><circle cx="527" cy="381" r="4" fill="#ead8ab" opacity=".82"/><circle cx="568" cy="410" r="5" fill="#f4e6bd" opacity=".82"/><circle cx="609" cy="439" r="6" fill="#ead8ab" opacity=".82"/><circle cx="650" cy="283" r="7" fill="#ead8ab" opacity=".82"/><circle cx="281" cy="312" r="8" fill="#f4e6bd" opacity=".82"/><circle cx="322" cy="341" r="9" fill="#ead8ab" opacity=".82"/><circle cx="363" cy="370" r="10" fill="#ead8ab" opacity=".82"/><circle cx="404" cy="399" r="4" fill="#f4e6bd" opacity=".82"/><circle cx="445" cy="428" r="5" fill="#ead8ab" opacity=".82"/><circle cx="486" cy="457" r="6" fill="#ead8ab" opacity=".82"/><circle cx="527" cy="301" r="7" fill="#f4e6bd" opacity=".82"/><circle cx="568" cy="330" r="8" fill="#ead8ab" opacity=".82"/><circle cx="609" cy="359" r="9" fill="#ead8ab" opacity=".82"/><circle cx="650" cy="388" r="10" fill="#f4e6bd" opacity=".82"/><circle cx="281" cy="417" r="4" fill="#ead8ab" opacity=".82"/><circle cx="322" cy="446" r="5" fill="#ead8ab" opacity=".82"/><circle cx="363" cy="290" r="6" fill="#f4e6bd" opacity=".82"/><circle cx="404" cy="319" r="7" fill="#ead8ab" opacity=".82"/><circle cx="445" cy="348" r="8" fill="#ead8ab" opacity=".82"/><circle cx="486" cy="377" r="9" fill="#f4e6bd" opacity=".82"/><circle cx="527" cy="406" r="10" fill="#ead8ab" opacity=".82"/><circle cx="568" cy="435" r="4" fill="#ead8ab" opacity=".82"/><circle cx="609" cy="464" r="5" fill="#f4e6bd" opacity=".82"/><circle cx="650" cy="308" r="6" fill="#ead8ab" opacity=".82"/><circle cx="281" cy="337" r="7" fill="#ead8ab" opacity=".82"/><circle cx="322" cy="366" r="8" fill="#f4e6bd" opacity=".82"/><circle cx="363" cy="395" r="9" fill="#ead8ab" opacity=".82"/><circle cx="404" cy="424" r="10" fill="#ead8ab" opacity=".82"/><circle cx="445" cy="453" r="4" fill="#f4e6bd" opacity=".82"/><circle cx="486" cy="297" r="5" fill="#ead8ab" opacity=".82"/></g>
  
  <g filter="url(#soft-shadow)">
    <path d="M260 318c88-78 262-90 378-28 38 20 46 66 12 95-98 84-300 94-415 20-39-25-31-59 25-87z" fill="#f6efe4"/>
    <path d="M280 329c83 40 227 40 336 4" fill="none" stroke="#d7b98a" stroke-width="12" stroke-linecap="round" opacity=".45"/>
    <path d="M308 377c88 34 205 31 300-8" fill="none" stroke="#fffaf1" stroke-width="9" stroke-linecap="round" opacity=".65"/>
    <circle cx="531" cy="311" r="16" fill="#f1c85d" opacity=".95"/>
  </g>
  <g><rect x="335" y="425" width="58" height="14" rx="7" fill="#dc8543" transform="rotate(-26 335 425)" opacity=".82"/><rect x="406" y="298" width="58" height="14" rx="7" fill="#dc8543" transform="rotate(-11 406 298)" opacity=".82"/><rect x="477" y="351" width="58" height="14" rx="7" fill="#dc8543" transform="rotate(4 477 351)" opacity=".82"/><rect x="548" y="404" width="58" height="14" rx="7" fill="#dc8543" transform="rotate(19 548 404)" opacity=".82"/><rect x="619" y="277" width="58" height="14" rx="7" fill="#dc8543" transform="rotate(34 619 277)" opacity=".82"/><rect x="320" y="330" width="58" height="14" rx="7" fill="#dc8543" transform="rotate(-26 320 330)" opacity=".82"/><rect x="391" y="383" width="58" height="14" rx="7" fill="#dc8543" transform="rotate(-11 391 383)" opacity=".82"/><ellipse cx="530" cy="450" rx="31" ry="11" fill="#7aa36d" transform="rotate(-24 530 450)" opacity=".75"/><ellipse cx="591" cy="327" rx="31" ry="11" fill="#7aa36d" transform="rotate(-6 591 327)" opacity=".75"/><ellipse cx="302" cy="374" rx="31" ry="11" fill="#7aa36d" transform="rotate(12 302 374)" opacity=".75"/><ellipse cx="363" cy="421" rx="31" ry="11" fill="#7aa36d" transform="rotate(30 363 421)" opacity=".75"/><ellipse cx="424" cy="298" rx="31" ry="11" fill="#7aa36d" transform="rotate(-24 424 298)" opacity=".75"/><ellipse cx="485" cy="345" rx="31" ry="11" fill="#7aa36d" transform="rotate(-6 485 345)" opacity=".75"/><ellipse cx="400" cy="355" rx="20" ry="8" fill="#45745c" transform="rotate(29 400 355)" opacity=".9"/><ellipse cx="467" cy="396" rx="25" ry="8" fill="#45745c" transform="rotate(-16 467 396)" opacity=".9"/><ellipse cx="534" cy="437" rx="30" ry="8" fill="#45745c" transform="rotate(7 534 437)" opacity=".9"/><ellipse cx="601" cy="228" rx="20" ry="8" fill="#45745c" transform="rotate(30 601 228)" opacity=".9"/><ellipse cx="263" cy="269" rx="25" ry="8" fill="#45745c" transform="rotate(-15 263 269)" opacity=".9"/><ellipse cx="330" cy="310" rx="30" ry="8" fill="#45745c" transform="rotate(8 330 310)" opacity=".9"/><ellipse cx="397" cy="351" rx="20" ry="8" fill="#45745c" transform="rotate(31 397 351)" opacity=".9"/><ellipse cx="464" cy="392" rx="25" ry="8" fill="#45745c" transform="rotate(-14 464 392)" opacity=".9"/><ellipse cx="531" cy="433" rx="30" ry="8" fill="#45745c" transform="rotate(9 531 433)" opacity=".9"/><ellipse cx="598" cy="224" rx="20" ry="8" fill="#45745c" transform="rotate(32 598 224)" opacity=".9"/><ellipse cx="260" cy="265" rx="25" ry="8" fill="#45745c" transform="rotate(-13 260 265)" opacity=".9"/><ellipse cx="327" cy="306" rx="30" ry="8" fill="#45745c" transform="rotate(10 327 306)" opacity=".9"/><ellipse cx="394" cy="347" rx="20" ry="8" fill="#45745c" transform="rotate(33 394 347)" opacity=".9"/></g>
  <g opacity=".95">
    <circle cx="575" cy="270" r="22" fill="#f1c85d"/>
    <path d="M575 249a22 22 0 0 1 0 44" fill="#fff3b0" opacity=".72"/>
  </g>
</svg>