<svg xmlns="http://www.w3.org/2000/svg" viewBox="0 0 1200 750" role="img" aria-label="Kosher home table with plated dishes">
  <defs>
    <linearGradient id="bg" x1="0" x2="1" y1="0" y2="1">
      <stop offset="0" stop-color="#f6e8cf"/>
      <stop offset="0.55" stop-color="#e9c78f"/>
      <stop offset="1" stop-color="#78a394"/>
    </linearGradient>
    <linearGradient id="cloth" x1="0" x2="1">
      <stop offset="0" stop-color="#f9f3e7"/>
      <stop offset="1" stop-color="#efe1ca"/>
    </linearGradient>
  </defs>
  <rect width="1200" height="750" fill="url(#bg)"/>
  <rect x="78" y="118" width="1044" height="514" rx="34" fill="url(#cloth)" opacity="0.95"/>
  <path d="M115 270h970M115 395h970M115 520h970M265 140v470M472 140v470M680 140v470M887 140v470" stroke="#d9be95" stroke-width="4" opacity="0.38"/>
  <circle cx="310" cy="372" r="128" fill="#fdf9ef" stroke="#2f655d" stroke-width="12"/>
  <circle cx="310" cy="372" r="86" fill="#d49457"/>
  <path d="M245 386c35-74 113-93 160-24-34 32-87 51-160 24z" fill="#7a9d62"/>
  <path d="M277 332c24 28 50 35 84 13" stroke="#f6e8cf" stroke-width="10" stroke-linecap="round"/>
  <circle cx="625" cy="355" r="116" fill="#fff8ea" stroke="#315d73" stroke-width="12"/>
  <path d="M548 369c56-91 123-101 169-13-44 37-97 42-169 13z" fill="#c28248"/>
  <path d="M568 330h118M562 389h141" stroke="#f7ead0" stroke-width="12" stroke-linecap="round"/>
  <circle cx="900" cy="392" r="102" fill="#fffaf0" stroke="#8b5e8e" stroke-width="11"/>
  <path d="M835 404c30-62 88-85 131-18-36 33-78 42-131 18z" fill="#5f8e83"/>
  <path d="M864 356c27 21 52 22 82 2" stroke="#f5e4c8" stroke-width="9" stroke-linecap="round"/>
  <rect x="156" y="604" width="888" height="26" rx="13" fill="#9c704a" opacity="0.45"/>
</svg>
