<svg xmlns="http://www.w3.org/2000/svg" viewBox="0 0 900 675" role="img" aria-label="walleye fillets with weeknight grains">
  <defs>
    <radialGradient id="plate-glow" cx="50%" cy="46%" r="62%">
      <stop offset="0" stop-color="#fffdf4"/>
      <stop offset="1" stop-color="#fff8ea"/>
    </radialGradient>
    <linearGradient id="table" x1="0" y1="0" x2="1" y2="1">
      <stop offset="0" stop-color="#f3eee2"/>
      <stop offset="1" stop-color="#d8c7ab"/>
    </linearGradient>
    <filter id="soft-shadow" x="-25%" y="-25%" width="150%" height="150%">
      <feDropShadow dx="0" dy="14" stdDeviation="15" flood-color="#253a35" flood-opacity=".28"/>
    </filter>
    <filter id="grain">
      <feTurbulence type="fractalNoise" baseFrequency=".85" numOctaves="2" seed="1940" result="noise"/>
      <feColorMatrix type="saturate" values=".12"/>
      <feComponentTransfer>
        <feFuncA type="table" tableValues="0 .12"/>
      </feComponentTransfer>
      <feBlend mode="multiply" in2="SourceGraphic"/>
    </filter>
  </defs>
  <rect width="900" height="675" fill="url(#table)"/>
  <rect width="900" height="675" filter="url(#grain)" opacity=".34"/>
  <ellipse cx="450" cy="365" rx="332" ry="222" fill="#5d4b3c" opacity=".12"/>
  <ellipse cx="450" cy="350" rx="318" ry="214" fill="url(#plate-glow)"/>
  <ellipse cx="450" cy="350" rx="260" ry="164" fill="#f6ead4"/>
  <g><circle cx="548" cy="370" r="5" fill="#f4e6bd" opacity=".82"/><circle cx="589" cy="399" r="6" fill="#ead8ab" opacity=".82"/><circle cx="630" cy="428" r="7" fill="#ead8ab" opacity=".82"/><circle cx="261" cy="457" r="8" fill="#f4e6bd" opacity=".82"/><circle cx="302" cy="301" r="9" fill="#ead8ab" opacity=".82"/><circle cx="343" cy="330" r="10" fill="#ead8ab" opacity=".82"/><circle cx="384" cy="359" r="4" fill="#f4e6bd" opacity=".82"/><circle cx="425" cy="388" r="5" fill="#ead8ab" opacity=".82"/><circle cx="466" cy="417" r="6" fill="#ead8ab" opacity=".82"/><circle cx="507" cy="446" r="7" fill="#f4e6bd" opacity=".82"/><circle cx="548" cy="290" r="8" fill="#ead8ab" opacity=".82"/><circle cx="589" cy="319" r="9" fill="#ead8ab" opacity=".82"/><circle cx="630" cy="348" r="10" fill="#f4e6bd" opacity=".82"/><circle cx="261" cy="377" r="4" fill="#ead8ab" opacity=".82"/><circle cx="302" cy="406" r="5" fill="#ead8ab" opacity=".82"/><circle cx="343" cy="435" r="6" fill="#f4e6bd" opacity=".82"/><circle cx="384" cy="464" r="7" fill="#ead8ab" opacity=".82"/><circle cx="425" cy="308" r="8" fill="#ead8ab" opacity=".82"/><circle cx="466" cy="337" r="9" fill="#f4e6bd" opacity=".82"/><circle cx="507" cy="366" r="10" fill="#ead8ab" opacity=".82"/><circle cx="548" cy="395" r="4" fill="#ead8ab" opacity=".82"/><circle cx="589" cy="424" r="5" fill="#f4e6bd" opacity=".82"/><circle cx="630" cy="453" r="6" fill="#ead8ab" opacity=".82"/><circle cx="261" cy="297" r="7" fill="#ead8ab" opacity=".82"/><circle cx="302" cy="326" r="8" fill="#f4e6bd" opacity=".82"/><circle cx="343" cy="355" r="9" fill="#ead8ab" opacity=".82"/><circle cx="384" cy="384" r="10" fill="#ead8ab" opacity=".82"/><circle cx="425" cy="413" r="4" fill="#f4e6bd" opacity=".82"/><circle cx="466" cy="442" r="5" fill="#ead8ab" opacity=".82"/><circle cx="507" cy="286" r="6" fill="#ead8ab" opacity=".82"/><circle cx="548" cy="315" r="7" fill="#f4e6bd" opacity=".82"/><circle cx="589" cy="344" r="8" fill="#ead8ab" opacity=".82"/><circle cx="630" cy="373" r="9" fill="#ead8ab" opacity=".82"/><circle cx="261" cy="402" r="10" fill="#f4e6bd" opacity=".82"/><circle cx="302" cy="431" r="4" fill="#ead8ab" opacity=".82"/><circle cx="343" cy="460" r="5" fill="#ead8ab" opacity=".82"/><circle cx="384" cy="304" r="6" fill="#f4e6bd" opacity=".82"/><circle cx="425" cy="333" r="7" fill="#ead8ab" opacity=".82"/><circle cx="466" cy="362" r="8" fill="#ead8ab" opacity=".82"/><circle cx="507" cy="391" r="9" fill="#f4e6bd" opacity=".82"/><circle cx="548" cy="420" r="10" fill="#ead8ab" opacity=".82"/><circle cx="589" cy="449" r="4" fill="#ead8ab" opacity=".82"/><circle cx="630" cy="293" r="5" fill="#f4e6bd" opacity=".82"/><circle cx="261" cy="322" r="6" fill="#ead8ab" opacity=".82"/></g>
  
  <g filter="url(#soft-shadow)">
    <path d="M260 318c88-78 262-90 378-28 38 20 46 66 12 95-98 84-300 94-415 20-39-25-31-59 25-87z" fill="#f6efe4"/>
    <path d="M280 329c83 40 227 40 336 4" fill="none" stroke="#d7b98a" stroke-width="12" stroke-linecap="round" opacity=".45"/>
    <path d="M308 377c88 34 205 31 300-8" fill="none" stroke="#fffaf1" stroke-width="9" stroke-linecap="round" opacity=".65"/>
    <circle cx="552" cy="320" r="16" fill="#f1c85d" opacity=".95"/>
  </g>
  <g><rect x="360" y="410" width="58" height="14" rx="7" fill="#dc8543" transform="rotate(-26 360 410)" opacity=".82"/><rect x="431" y="283" width="58" height="14" rx="7" fill="#dc8543" transform="rotate(-11 431 283)" opacity=".82"/><rect x="502" y="336" width="58" height="14" rx="7" fill="#dc8543" transform="rotate(4 502 336)" opacity=".82"/><rect x="573" y="389" width="58" height="14" rx="7" fill="#dc8543" transform="rotate(19 573 389)" opacity=".82"/><rect x="274" y="442" width="58" height="14" rx="7" fill="#dc8543" transform="rotate(34 274 442)" opacity=".82"/><rect x="345" y="315" width="58" height="14" rx="7" fill="#dc8543" transform="rotate(-26 345 315)" opacity=".82"/><rect x="416" y="368" width="58" height="14" rx="7" fill="#dc8543" transform="rotate(-11 416 368)" opacity=".82"/><ellipse cx="475" cy="355" rx="31" ry="11" fill="#7aa36d" transform="rotate(-24 475 355)" opacity=".75"/><ellipse cx="536" cy="402" rx="31" ry="11" fill="#7aa36d" transform="rotate(-6 536 402)" opacity=".75"/><ellipse cx="597" cy="449" rx="31" ry="11" fill="#7aa36d" transform="rotate(12 597 449)" opacity=".75"/><ellipse cx="308" cy="326" rx="31" ry="11" fill="#7aa36d" transform="rotate(30 308 326)" opacity=".75"/><ellipse cx="369" cy="373" rx="31" ry="11" fill="#7aa36d" transform="rotate(-24 369 373)" opacity=".75"/><ellipse cx="430" cy="420" rx="31" ry="11" fill="#7aa36d" transform="rotate(-6 430 420)" opacity=".75"/><ellipse cx="565" cy="400" rx="20" ry="8" fill="#45745c" transform="rotate(2 565 400)" opacity=".9"/><ellipse cx="632" cy="441" rx="25" ry="8" fill="#45745c" transform="rotate(25 632 441)" opacity=".9"/><ellipse cx="294" cy="232" rx="30" ry="8" fill="#45745c" transform="rotate(-20 294 232)" opacity=".9"/><ellipse cx="361" cy="273" rx="20" ry="8" fill="#45745c" transform="rotate(3 361 273)" opacity=".9"/><ellipse cx="428" cy="314" rx="25" ry="8" fill="#45745c" transform="rotate(26 428 314)" opacity=".9"/><ellipse cx="495" cy="355" rx="30" ry="8" fill="#45745c" transform="rotate(-19 495 355)" opacity=".9"/><ellipse cx="562" cy="396" rx="20" ry="8" fill="#45745c" transform="rotate(4 562 396)" opacity=".9"/><ellipse cx="629" cy="437" rx="25" ry="8" fill="#45745c" transform="rotate(27 629 437)" opacity=".9"/><ellipse cx="291" cy="228" rx="30" ry="8" fill="#45745c" transform="rotate(-18 291 228)" opacity=".9"/><ellipse cx="358" cy="269" rx="20" ry="8" fill="#45745c" transform="rotate(5 358 269)" opacity=".9"/><ellipse cx="425" cy="310" rx="25" ry="8" fill="#45745c" transform="rotate(28 425 310)" opacity=".9"/><ellipse cx="492" cy="351" rx="30" ry="8" fill="#45745c" transform="rotate(-17 492 351)" opacity=".9"/><ellipse cx="559" cy="392" rx="20" ry="8" fill="#45745c" transform="rotate(6 559 392)" opacity=".9"/></g>
  <g opacity=".95">
    <circle cx="590" cy="255" r="22" fill="#f1c85d"/>
    <path d="M590 234a22 22 0 0 1 0 44" fill="#fff3b0" opacity=".72"/>
  </g>
</svg>