<svg xmlns="http://www.w3.org/2000/svg" viewBox="0 0 900 675" role="img" aria-label="kosher beef with vegetables and grains">
  <defs>
    <radialGradient id="plate-glow" cx="50%" cy="46%" r="62%">
      <stop offset="0" stop-color="#fffdf4"/>
      <stop offset="1" stop-color="#fff7e9"/>
    </radialGradient>
    <linearGradient id="table" x1="0" y1="0" x2="1" y2="1">
      <stop offset="0" stop-color="#eee2d2"/>
      <stop offset="1" stop-color="#c7a987"/>
    </linearGradient>
    <filter id="soft-shadow" x="-25%" y="-25%" width="150%" height="150%">
      <feDropShadow dx="0" dy="14" stdDeviation="15" flood-color="#332821" flood-opacity=".28"/>
    </filter>
    <filter id="grain">
      <feTurbulence type="fractalNoise" baseFrequency=".85" numOctaves="2" seed="5626" result="noise"/>
      <feColorMatrix type="saturate" values=".12"/>
      <feComponentTransfer>
        <feFuncA type="table" tableValues="0 .12"/>
      </feComponentTransfer>
      <feBlend mode="multiply" in2="SourceGraphic"/>
    </filter>
  </defs>
  <rect width="900" height="675" fill="url(#table)"/>
  <rect width="900" height="675" filter="url(#grain)" opacity=".34"/>
  <ellipse cx="450" cy="365" rx="332" ry="222" fill="#5d4b3c" opacity=".12"/>
  <ellipse cx="450" cy="350" rx="318" ry="214" fill="url(#plate-glow)"/>
  <ellipse cx="450" cy="350" rx="260" ry="164" fill="#f6ead4"/>
  <g><circle cx="544" cy="356" r="9" fill="#f4e6bd" opacity=".82"/><circle cx="585" cy="385" r="10" fill="#dbc391" opacity=".82"/><circle cx="626" cy="414" r="4" fill="#dbc391" opacity=".82"/><circle cx="257" cy="443" r="5" fill="#f4e6bd" opacity=".82"/><circle cx="298" cy="287" r="6" fill="#dbc391" opacity=".82"/><circle cx="339" cy="316" r="7" fill="#dbc391" opacity=".82"/><circle cx="380" cy="345" r="8" fill="#f4e6bd" opacity=".82"/><circle cx="421" cy="374" r="9" fill="#dbc391" opacity=".82"/><circle cx="462" cy="403" r="10" fill="#dbc391" opacity=".82"/><circle cx="503" cy="432" r="4" fill="#f4e6bd" opacity=".82"/><circle cx="544" cy="461" r="5" fill="#dbc391" opacity=".82"/><circle cx="585" cy="305" r="6" fill="#dbc391" opacity=".82"/><circle cx="626" cy="334" r="7" fill="#f4e6bd" opacity=".82"/><circle cx="257" cy="363" r="8" fill="#dbc391" opacity=".82"/><circle cx="298" cy="392" r="9" fill="#dbc391" opacity=".82"/><circle cx="339" cy="421" r="10" fill="#f4e6bd" opacity=".82"/><circle cx="380" cy="450" r="4" fill="#dbc391" opacity=".82"/><circle cx="421" cy="294" r="5" fill="#dbc391" opacity=".82"/><circle cx="462" cy="323" r="6" fill="#f4e6bd" opacity=".82"/><circle cx="503" cy="352" r="7" fill="#dbc391" opacity=".82"/><circle cx="544" cy="381" r="8" fill="#dbc391" opacity=".82"/><circle cx="585" cy="410" r="9" fill="#f4e6bd" opacity=".82"/><circle cx="626" cy="439" r="10" fill="#dbc391" opacity=".82"/><circle cx="257" cy="283" r="4" fill="#dbc391" opacity=".82"/><circle cx="298" cy="312" r="5" fill="#f4e6bd" opacity=".82"/><circle cx="339" cy="341" r="6" fill="#dbc391" opacity=".82"/><circle cx="380" cy="370" r="7" fill="#dbc391" opacity=".82"/><circle cx="421" cy="399" r="8" fill="#f4e6bd" opacity=".82"/><circle cx="462" cy="428" r="9" fill="#dbc391" opacity=".82"/><circle cx="503" cy="457" r="10" fill="#dbc391" opacity=".82"/><circle cx="544" cy="301" r="4" fill="#f4e6bd" opacity=".82"/><circle cx="585" cy="330" r="5" fill="#dbc391" opacity=".82"/><circle cx="626" cy="359" r="6" fill="#dbc391" opacity=".82"/><circle cx="257" cy="388" r="7" fill="#f4e6bd" opacity=".82"/><circle cx="298" cy="417" r="8" fill="#dbc391" opacity=".82"/><circle cx="339" cy="446" r="9" fill="#dbc391" opacity=".82"/><circle cx="380" cy="290" r="10" fill="#f4e6bd" opacity=".82"/><circle cx="421" cy="319" r="4" fill="#dbc391" opacity=".82"/><circle cx="462" cy="348" r="5" fill="#dbc391" opacity=".82"/><circle cx="503" cy="377" r="6" fill="#f4e6bd" opacity=".82"/><circle cx="544" cy="406" r="7" fill="#dbc391" opacity=".82"/><circle cx="585" cy="435" r="8" fill="#dbc391" opacity=".82"/><circle cx="626" cy="464" r="9" fill="#f4e6bd" opacity=".82"/><circle cx="257" cy="308" r="10" fill="#dbc391" opacity=".82"/></g>
  
  <g filter="url(#soft-shadow)" fill="#8a4f3d">
    <ellipse cx="330" cy="330" rx="86" ry="54" transform="rotate(-18 330 330)"/>
    <ellipse cx="465" cy="316" rx="95" ry="58" transform="rotate(10 465 316)"/>
    <ellipse cx="560" cy="398" rx="86" ry="50" transform="rotate(-10 560 398)"/>
    <path d="M280 360c78 35 196 38 320 5" fill="none" stroke="#5d372e" stroke-width="11" stroke-linecap="round" opacity=".45"/>
  </g>
  <g><rect x="346" y="316" width="58" height="14" rx="7" fill="#dc8543" transform="rotate(-26 346 316)" opacity=".82"/><rect x="417" y="369" width="58" height="14" rx="7" fill="#dc8543" transform="rotate(-11 417 369)" opacity=".82"/><rect x="488" y="422" width="58" height="14" rx="7" fill="#dc8543" transform="rotate(4 488 422)" opacity=".82"/><rect x="559" y="295" width="58" height="14" rx="7" fill="#dc8543" transform="rotate(19 559 295)" opacity=".82"/><rect x="630" y="348" width="58" height="14" rx="7" fill="#dc8543" transform="rotate(34 630 348)" opacity=".82"/><rect x="331" y="401" width="58" height="14" rx="7" fill="#dc8543" transform="rotate(-26 331 401)" opacity=".82"/><rect x="402" y="274" width="58" height="14" rx="7" fill="#dc8543" transform="rotate(-11 402 274)" opacity=".82"/><ellipse cx="311" cy="301" rx="31" ry="11" fill="#7aa36d" transform="rotate(-24 311 301)" opacity=".75"/><ellipse cx="372" cy="348" rx="31" ry="11" fill="#7aa36d" transform="rotate(-6 372 348)" opacity=".75"/><ellipse cx="433" cy="395" rx="31" ry="11" fill="#7aa36d" transform="rotate(12 433 395)" opacity=".75"/><ellipse cx="494" cy="442" rx="31" ry="11" fill="#7aa36d" transform="rotate(30 494 442)" opacity=".75"/><ellipse cx="555" cy="319" rx="31" ry="11" fill="#7aa36d" transform="rotate(-24 555 319)" opacity=".75"/><ellipse cx="616" cy="366" rx="31" ry="11" fill="#7aa36d" transform="rotate(-6 616 366)" opacity=".75"/><ellipse cx="606" cy="336" rx="20" ry="8" fill="#52714b" transform="rotate(16 606 336)" opacity=".9"/><ellipse cx="268" cy="377" rx="25" ry="8" fill="#52714b" transform="rotate(-29 268 377)" opacity=".9"/><ellipse cx="335" cy="418" rx="30" ry="8" fill="#52714b" transform="rotate(-6 335 418)" opacity=".9"/><ellipse cx="402" cy="459" rx="20" ry="8" fill="#52714b" transform="rotate(17 402 459)" opacity=".9"/><ellipse cx="469" cy="250" rx="25" ry="8" fill="#52714b" transform="rotate(-28 469 250)" opacity=".9"/><ellipse cx="536" cy="291" rx="30" ry="8" fill="#52714b" transform="rotate(-5 536 291)" opacity=".9"/><ellipse cx="603" cy="332" rx="20" ry="8" fill="#52714b" transform="rotate(18 603 332)" opacity=".9"/><ellipse cx="265" cy="373" rx="25" ry="8" fill="#52714b" transform="rotate(-27 265 373)" opacity=".9"/><ellipse cx="332" cy="414" rx="30" ry="8" fill="#52714b" transform="rotate(-4 332 414)" opacity=".9"/><ellipse cx="399" cy="455" rx="20" ry="8" fill="#52714b" transform="rotate(19 399 455)" opacity=".9"/><ellipse cx="466" cy="246" rx="25" ry="8" fill="#52714b" transform="rotate(-26 466 246)" opacity=".9"/><ellipse cx="533" cy="287" rx="30" ry="8" fill="#52714b" transform="rotate(-3 533 287)" opacity=".9"/><ellipse cx="600" cy="328" rx="20" ry="8" fill="#52714b" transform="rotate(20 600 328)" opacity=".9"/></g>
  <g opacity=".95">
    <circle cx="584" cy="261" r="22" fill="#e2a94c"/>
    <path d="M584 240a22 22 0 0 1 0 44" fill="#fff3b0" opacity=".72"/>
  </g>
</svg>