<svg xmlns="http://www.w3.org/2000/svg" viewBox="0 0 900 675" role="img" aria-label="kosher chicken thighs with carrots and herbs">
  <defs>
    <radialGradient id="plate-glow" cx="50%" cy="46%" r="62%">
      <stop offset="0" stop-color="#fffdf4"/>
      <stop offset="1" stop-color="#fff7e7"/>
    </radialGradient>
    <linearGradient id="table" x1="0" y1="0" x2="1" y2="1">
      <stop offset="0" stop-color="#f4ecdc"/>
      <stop offset="1" stop-color="#d2b894"/>
    </linearGradient>
    <filter id="soft-shadow" x="-25%" y="-25%" width="150%" height="150%">
      <feDropShadow dx="0" dy="14" stdDeviation="15" flood-color="#342e25" flood-opacity=".28"/>
    </filter>
    <filter id="grain">
      <feTurbulence type="fractalNoise" baseFrequency=".85" numOctaves="2" seed="4462" result="noise"/>
      <feColorMatrix type="saturate" values=".12"/>
      <feComponentTransfer>
        <feFuncA type="table" tableValues="0 .12"/>
      </feComponentTransfer>
      <feBlend mode="multiply" in2="SourceGraphic"/>
    </filter>
  </defs>
  <rect width="900" height="675" fill="url(#table)"/>
  <rect width="900" height="675" filter="url(#grain)" opacity=".34"/>
  <ellipse cx="450" cy="365" rx="332" ry="222" fill="#5d4b3c" opacity=".12"/>
  <ellipse cx="450" cy="350" rx="318" ry="214" fill="url(#plate-glow)"/>
  <ellipse cx="450" cy="350" rx="260" ry="164" fill="#f6ead4"/>
  <g><circle cx="610" cy="302" r="7" fill="#f4e6bd" opacity=".82"/><circle cx="651" cy="331" r="8" fill="#e7d6a7" opacity=".82"/><circle cx="282" cy="360" r="9" fill="#e7d6a7" opacity=".82"/><circle cx="323" cy="389" r="10" fill="#f4e6bd" opacity=".82"/><circle cx="364" cy="418" r="4" fill="#e7d6a7" opacity=".82"/><circle cx="405" cy="447" r="5" fill="#e7d6a7" opacity=".82"/><circle cx="446" cy="291" r="6" fill="#f4e6bd" opacity=".82"/><circle cx="487" cy="320" r="7" fill="#e7d6a7" opacity=".82"/><circle cx="528" cy="349" r="8" fill="#e7d6a7" opacity=".82"/><circle cx="569" cy="378" r="9" fill="#f4e6bd" opacity=".82"/><circle cx="610" cy="407" r="10" fill="#e7d6a7" opacity=".82"/><circle cx="651" cy="436" r="4" fill="#e7d6a7" opacity=".82"/><circle cx="282" cy="280" r="5" fill="#f4e6bd" opacity=".82"/><circle cx="323" cy="309" r="6" fill="#e7d6a7" opacity=".82"/><circle cx="364" cy="338" r="7" fill="#e7d6a7" opacity=".82"/><circle cx="405" cy="367" r="8" fill="#f4e6bd" opacity=".82"/><circle cx="446" cy="396" r="9" fill="#e7d6a7" opacity=".82"/><circle cx="487" cy="425" r="10" fill="#e7d6a7" opacity=".82"/><circle cx="528" cy="454" r="4" fill="#f4e6bd" opacity=".82"/><circle cx="569" cy="298" r="5" fill="#e7d6a7" opacity=".82"/><circle cx="610" cy="327" r="6" fill="#e7d6a7" opacity=".82"/><circle cx="651" cy="356" r="7" fill="#f4e6bd" opacity=".82"/><circle cx="282" cy="385" r="8" fill="#e7d6a7" opacity=".82"/><circle cx="323" cy="414" r="9" fill="#e7d6a7" opacity=".82"/><circle cx="364" cy="443" r="10" fill="#f4e6bd" opacity=".82"/><circle cx="405" cy="287" r="4" fill="#e7d6a7" opacity=".82"/><circle cx="446" cy="316" r="5" fill="#e7d6a7" opacity=".82"/><circle cx="487" cy="345" r="6" fill="#f4e6bd" opacity=".82"/><circle cx="528" cy="374" r="7" fill="#e7d6a7" opacity=".82"/><circle cx="569" cy="403" r="8" fill="#e7d6a7" opacity=".82"/><circle cx="610" cy="432" r="9" fill="#f4e6bd" opacity=".82"/><circle cx="651" cy="461" r="10" fill="#e7d6a7" opacity=".82"/><circle cx="282" cy="305" r="4" fill="#e7d6a7" opacity=".82"/><circle cx="323" cy="334" r="5" fill="#f4e6bd" opacity=".82"/><circle cx="364" cy="363" r="6" fill="#e7d6a7" opacity=".82"/><circle cx="405" cy="392" r="7" fill="#e7d6a7" opacity=".82"/><circle cx="446" cy="421" r="8" fill="#f4e6bd" opacity=".82"/><circle cx="487" cy="450" r="9" fill="#e7d6a7" opacity=".82"/><circle cx="528" cy="294" r="10" fill="#e7d6a7" opacity=".82"/><circle cx="569" cy="323" r="4" fill="#f4e6bd" opacity=".82"/><circle cx="610" cy="352" r="5" fill="#e7d6a7" opacity=".82"/><circle cx="651" cy="381" r="6" fill="#e7d6a7" opacity=".82"/><circle cx="282" cy="410" r="7" fill="#f4e6bd" opacity=".82"/><circle cx="323" cy="439" r="8" fill="#e7d6a7" opacity=".82"/></g>
  
  <g filter="url(#soft-shadow)" fill="#b46a3f">
    <ellipse cx="330" cy="330" rx="86" ry="54" transform="rotate(-18 330 330)"/>
    <ellipse cx="465" cy="316" rx="95" ry="58" transform="rotate(10 465 316)"/>
    <ellipse cx="560" cy="398" rx="86" ry="50" transform="rotate(-10 560 398)"/>
    <path d="M280 360c78 35 196 38 320 5" fill="none" stroke="#815035" stroke-width="11" stroke-linecap="round" opacity=".45"/>
  </g>
  <g><rect x="292" y="412" width="58" height="14" rx="7" fill="#dc8543" transform="rotate(-26 292 412)" opacity=".82"/><rect x="363" y="285" width="58" height="14" rx="7" fill="#dc8543" transform="rotate(-11 363 285)" opacity=".82"/><rect x="434" y="338" width="58" height="14" rx="7" fill="#dc8543" transform="rotate(4 434 338)" opacity=".82"/><rect x="505" y="391" width="58" height="14" rx="7" fill="#dc8543" transform="rotate(19 505 391)" opacity=".82"/><rect x="576" y="444" width="58" height="14" rx="7" fill="#dc8543" transform="rotate(34 576 444)" opacity=".82"/><rect x="277" y="317" width="58" height="14" rx="7" fill="#dc8543" transform="rotate(-26 277 317)" opacity=".82"/><rect x="348" y="370" width="58" height="14" rx="7" fill="#dc8543" transform="rotate(-11 348 370)" opacity=".82"/><ellipse cx="547" cy="327" rx="31" ry="11" fill="#7aa36d" transform="rotate(-24 547 327)" opacity=".75"/><ellipse cx="608" cy="374" rx="31" ry="11" fill="#7aa36d" transform="rotate(-6 608 374)" opacity=".75"/><ellipse cx="319" cy="421" rx="31" ry="11" fill="#7aa36d" transform="rotate(12 319 421)" opacity=".75"/><ellipse cx="380" cy="298" rx="31" ry="11" fill="#7aa36d" transform="rotate(30 380 298)" opacity=".75"/><ellipse cx="441" cy="345" rx="31" ry="11" fill="#7aa36d" transform="rotate(-24 441 345)" opacity=".75"/><ellipse cx="502" cy="392" rx="31" ry="11" fill="#7aa36d" transform="rotate(-6 502 392)" opacity=".75"/><ellipse cx="252" cy="422" rx="20" ry="8" fill="#557753" transform="rotate(8 252 422)" opacity=".9"/><ellipse cx="319" cy="213" rx="25" ry="8" fill="#557753" transform="rotate(31 319 213)" opacity=".9"/><ellipse cx="386" cy="254" rx="30" ry="8" fill="#557753" transform="rotate(-14 386 254)" opacity=".9"/><ellipse cx="453" cy="295" rx="20" ry="8" fill="#557753" transform="rotate(9 453 295)" opacity=".9"/><ellipse cx="520" cy="336" rx="25" ry="8" fill="#557753" transform="rotate(32 520 336)" opacity=".9"/><ellipse cx="587" cy="377" rx="30" ry="8" fill="#557753" transform="rotate(-13 587 377)" opacity=".9"/><ellipse cx="249" cy="418" rx="20" ry="8" fill="#557753" transform="rotate(10 249 418)" opacity=".9"/><ellipse cx="316" cy="459" rx="25" ry="8" fill="#557753" transform="rotate(33 316 459)" opacity=".9"/><ellipse cx="383" cy="250" rx="30" ry="8" fill="#557753" transform="rotate(-12 383 250)" opacity=".9"/><ellipse cx="450" cy="291" rx="20" ry="8" fill="#557753" transform="rotate(11 450 291)" opacity=".9"/><ellipse cx="517" cy="332" rx="25" ry="8" fill="#557753" transform="rotate(-34 517 332)" opacity=".9"/><ellipse cx="584" cy="373" rx="30" ry="8" fill="#557753" transform="rotate(-11 584 373)" opacity=".9"/><ellipse cx="246" cy="414" rx="20" ry="8" fill="#557753" transform="rotate(12 246 414)" opacity=".9"/></g>
  <g opacity=".95">
    <circle cx="548" cy="257" r="22" fill="#e5b14d"/>
    <path d="M548 236a22 22 0 0 1 0 44" fill="#fff3b0" opacity=".72"/>
  </g>
</svg>