<svg xmlns="http://www.w3.org/2000/svg" viewBox="0 0 900 675" role="img" aria-label="kosher chicken thighs with carrots and herbs">
  <defs>
    <radialGradient id="plate-glow" cx="50%" cy="46%" r="62%">
      <stop offset="0" stop-color="#fffdf4"/>
      <stop offset="1" stop-color="#fff7e7"/>
    </radialGradient>
    <linearGradient id="table" x1="0" y1="0" x2="1" y2="1">
      <stop offset="0" stop-color="#f4ecdc"/>
      <stop offset="1" stop-color="#d2b894"/>
    </linearGradient>
    <filter id="soft-shadow" x="-25%" y="-25%" width="150%" height="150%">
      <feDropShadow dx="0" dy="14" stdDeviation="15" flood-color="#342e25" flood-opacity=".28"/>
    </filter>
    <filter id="grain">
      <feTurbulence type="fractalNoise" baseFrequency=".85" numOctaves="2" seed="4268" result="noise"/>
      <feColorMatrix type="saturate" values=".12"/>
      <feComponentTransfer>
        <feFuncA type="table" tableValues="0 .12"/>
      </feComponentTransfer>
      <feBlend mode="multiply" in2="SourceGraphic"/>
    </filter>
  </defs>
  <rect width="900" height="675" fill="url(#table)"/>
  <rect width="900" height="675" filter="url(#grain)" opacity=".34"/>
  <ellipse cx="450" cy="365" rx="332" ry="222" fill="#5d4b3c" opacity=".12"/>
  <ellipse cx="450" cy="350" rx="318" ry="214" fill="url(#plate-glow)"/>
  <ellipse cx="450" cy="350" rx="260" ry="164" fill="#f6ead4"/>
  <g><circle cx="416" cy="293" r="9" fill="#f4e6bd" opacity=".82"/><circle cx="457" cy="322" r="10" fill="#e7d6a7" opacity=".82"/><circle cx="498" cy="351" r="4" fill="#e7d6a7" opacity=".82"/><circle cx="539" cy="380" r="5" fill="#f4e6bd" opacity=".82"/><circle cx="580" cy="409" r="6" fill="#e7d6a7" opacity=".82"/><circle cx="621" cy="438" r="7" fill="#e7d6a7" opacity=".82"/><circle cx="252" cy="282" r="8" fill="#f4e6bd" opacity=".82"/><circle cx="293" cy="311" r="9" fill="#e7d6a7" opacity=".82"/><circle cx="334" cy="340" r="10" fill="#e7d6a7" opacity=".82"/><circle cx="375" cy="369" r="4" fill="#f4e6bd" opacity=".82"/><circle cx="416" cy="398" r="5" fill="#e7d6a7" opacity=".82"/><circle cx="457" cy="427" r="6" fill="#e7d6a7" opacity=".82"/><circle cx="498" cy="456" r="7" fill="#f4e6bd" opacity=".82"/><circle cx="539" cy="300" r="8" fill="#e7d6a7" opacity=".82"/><circle cx="580" cy="329" r="9" fill="#e7d6a7" opacity=".82"/><circle cx="621" cy="358" r="10" fill="#f4e6bd" opacity=".82"/><circle cx="252" cy="387" r="4" fill="#e7d6a7" opacity=".82"/><circle cx="293" cy="416" r="5" fill="#e7d6a7" opacity=".82"/><circle cx="334" cy="445" r="6" fill="#f4e6bd" opacity=".82"/><circle cx="375" cy="289" r="7" fill="#e7d6a7" opacity=".82"/><circle cx="416" cy="318" r="8" fill="#e7d6a7" opacity=".82"/><circle cx="457" cy="347" r="9" fill="#f4e6bd" opacity=".82"/><circle cx="498" cy="376" r="10" fill="#e7d6a7" opacity=".82"/><circle cx="539" cy="405" r="4" fill="#e7d6a7" opacity=".82"/><circle cx="580" cy="434" r="5" fill="#f4e6bd" opacity=".82"/><circle cx="621" cy="463" r="6" fill="#e7d6a7" opacity=".82"/><circle cx="252" cy="307" r="7" fill="#e7d6a7" opacity=".82"/><circle cx="293" cy="336" r="8" fill="#f4e6bd" opacity=".82"/><circle cx="334" cy="365" r="9" fill="#e7d6a7" opacity=".82"/><circle cx="375" cy="394" r="10" fill="#e7d6a7" opacity=".82"/><circle cx="416" cy="423" r="4" fill="#f4e6bd" opacity=".82"/><circle cx="457" cy="452" r="5" fill="#e7d6a7" opacity=".82"/><circle cx="498" cy="296" r="6" fill="#e7d6a7" opacity=".82"/><circle cx="539" cy="325" r="7" fill="#f4e6bd" opacity=".82"/><circle cx="580" cy="354" r="8" fill="#e7d6a7" opacity=".82"/><circle cx="621" cy="383" r="9" fill="#e7d6a7" opacity=".82"/><circle cx="252" cy="412" r="10" fill="#f4e6bd" opacity=".82"/><circle cx="293" cy="441" r="4" fill="#e7d6a7" opacity=".82"/><circle cx="334" cy="285" r="5" fill="#e7d6a7" opacity=".82"/><circle cx="375" cy="314" r="6" fill="#f4e6bd" opacity=".82"/><circle cx="416" cy="343" r="7" fill="#e7d6a7" opacity=".82"/><circle cx="457" cy="372" r="8" fill="#e7d6a7" opacity=".82"/><circle cx="498" cy="401" r="9" fill="#f4e6bd" opacity=".82"/><circle cx="539" cy="430" r="10" fill="#e7d6a7" opacity=".82"/></g>
  
  <g filter="url(#soft-shadow)" fill="#b46a3f">
    <ellipse cx="330" cy="330" rx="86" ry="54" transform="rotate(-18 330 330)"/>
    <ellipse cx="465" cy="316" rx="95" ry="58" transform="rotate(10 465 316)"/>
    <ellipse cx="560" cy="398" rx="86" ry="50" transform="rotate(-10 560 398)"/>
    <path d="M280 360c78 35 196 38 320 5" fill="none" stroke="#815035" stroke-width="11" stroke-linecap="round" opacity=".45"/>
  </g>
  <g><rect x="468" y="398" width="58" height="14" rx="7" fill="#dc8543" transform="rotate(-26 468 398)" opacity=".82"/><rect x="539" y="271" width="58" height="14" rx="7" fill="#dc8543" transform="rotate(-11 539 271)" opacity=".82"/><rect x="610" y="324" width="58" height="14" rx="7" fill="#dc8543" transform="rotate(4 610 324)" opacity=".82"/><rect x="311" y="377" width="58" height="14" rx="7" fill="#dc8543" transform="rotate(19 311 377)" opacity=".82"/><rect x="382" y="430" width="58" height="14" rx="7" fill="#dc8543" transform="rotate(34 382 430)" opacity=".82"/><rect x="453" y="303" width="58" height="14" rx="7" fill="#dc8543" transform="rotate(-26 453 303)" opacity=".82"/><rect x="524" y="356" width="58" height="14" rx="7" fill="#dc8543" transform="rotate(-11 524 356)" opacity=".82"/><ellipse cx="353" cy="303" rx="31" ry="11" fill="#7aa36d" transform="rotate(-24 353 303)" opacity=".75"/><ellipse cx="414" cy="350" rx="31" ry="11" fill="#7aa36d" transform="rotate(-6 414 350)" opacity=".75"/><ellipse cx="475" cy="397" rx="31" ry="11" fill="#7aa36d" transform="rotate(12 475 397)" opacity=".75"/><ellipse cx="536" cy="444" rx="31" ry="11" fill="#7aa36d" transform="rotate(30 536 444)" opacity=".75"/><ellipse cx="597" cy="321" rx="31" ry="11" fill="#7aa36d" transform="rotate(-24 597 321)" opacity=".75"/><ellipse cx="308" cy="368" rx="31" ry="11" fill="#7aa36d" transform="rotate(-6 308 368)" opacity=".75"/><ellipse cx="463" cy="228" rx="20" ry="8" fill="#557753" transform="rotate(18 463 228)" opacity=".9"/><ellipse cx="530" cy="269" rx="25" ry="8" fill="#557753" transform="rotate(-27 530 269)" opacity=".9"/><ellipse cx="597" cy="310" rx="30" ry="8" fill="#557753" transform="rotate(-4 597 310)" opacity=".9"/><ellipse cx="259" cy="351" rx="20" ry="8" fill="#557753" transform="rotate(19 259 351)" opacity=".9"/><ellipse cx="326" cy="392" rx="25" ry="8" fill="#557753" transform="rotate(-26 326 392)" opacity=".9"/><ellipse cx="393" cy="433" rx="30" ry="8" fill="#557753" transform="rotate(-3 393 433)" opacity=".9"/><ellipse cx="460" cy="224" rx="20" ry="8" fill="#557753" transform="rotate(20 460 224)" opacity=".9"/><ellipse cx="527" cy="265" rx="25" ry="8" fill="#557753" transform="rotate(-25 527 265)" opacity=".9"/><ellipse cx="594" cy="306" rx="30" ry="8" fill="#557753" transform="rotate(-2 594 306)" opacity=".9"/><ellipse cx="256" cy="347" rx="20" ry="8" fill="#557753" transform="rotate(21 256 347)" opacity=".9"/><ellipse cx="323" cy="388" rx="25" ry="8" fill="#557753" transform="rotate(-24 323 388)" opacity=".9"/><ellipse cx="390" cy="429" rx="30" ry="8" fill="#557753" transform="rotate(-1 390 429)" opacity=".9"/><ellipse cx="457" cy="220" rx="20" ry="8" fill="#557753" transform="rotate(22 457 220)" opacity=".9"/></g>
  <g opacity=".95">
    <circle cx="582" cy="263" r="22" fill="#e5b14d"/>
    <path d="M582 242a22 22 0 0 1 0 44" fill="#fff3b0" opacity=".72"/>
  </g>
</svg>