<svg xmlns="http://www.w3.org/2000/svg" viewBox="0 0 900 675" role="img" aria-label="dairy and nut kosher plates">
  <defs>
    <radialGradient id="plate-glow" cx="50%" cy="46%" r="62%">
      <stop offset="0" stop-color="#fffdf4"/>
      <stop offset="1" stop-color="#fffaf0"/>
    </radialGradient>
    <linearGradient id="table" x1="0" y1="0" x2="1" y2="1">
      <stop offset="0" stop-color="#f4ecdf"/>
      <stop offset="1" stop-color="#d0bfa5"/>
    </linearGradient>
    <filter id="soft-shadow" x="-25%" y="-25%" width="150%" height="150%">
      <feDropShadow dx="0" dy="14" stdDeviation="15" flood-color="#303229" flood-opacity=".28"/>
    </filter>
    <filter id="grain">
      <feTurbulence type="fractalNoise" baseFrequency=".85" numOctaves="2" seed="10088" result="noise"/>
      <feColorMatrix type="saturate" values=".12"/>
      <feComponentTransfer>
        <feFuncA type="table" tableValues="0 .12"/>
      </feComponentTransfer>
      <feBlend mode="multiply" in2="SourceGraphic"/>
    </filter>
  </defs>
  <rect width="900" height="675" fill="url(#table)"/>
  <rect width="900" height="675" filter="url(#grain)" opacity=".34"/>
  <ellipse cx="450" cy="365" rx="332" ry="222" fill="#5d4b3c" opacity=".12"/>
  <ellipse cx="450" cy="350" rx="318" ry="214" fill="url(#plate-glow)"/>
  <ellipse cx="450" cy="350" rx="260" ry="164" fill="#f6ead4"/>
  <g><circle cx="496" cy="378" r="5" fill="#f4e6bd" opacity=".82"/><circle cx="537" cy="407" r="6" fill="#dfcca0" opacity=".82"/><circle cx="578" cy="436" r="7" fill="#dfcca0" opacity=".82"/><circle cx="619" cy="280" r="8" fill="#f4e6bd" opacity=".82"/><circle cx="250" cy="309" r="9" fill="#dfcca0" opacity=".82"/><circle cx="291" cy="338" r="10" fill="#dfcca0" opacity=".82"/><circle cx="332" cy="367" r="4" fill="#f4e6bd" opacity=".82"/><circle cx="373" cy="396" r="5" fill="#dfcca0" opacity=".82"/><circle cx="414" cy="425" r="6" fill="#dfcca0" opacity=".82"/><circle cx="455" cy="454" r="7" fill="#f4e6bd" opacity=".82"/><circle cx="496" cy="298" r="8" fill="#dfcca0" opacity=".82"/><circle cx="537" cy="327" r="9" fill="#dfcca0" opacity=".82"/><circle cx="578" cy="356" r="10" fill="#f4e6bd" opacity=".82"/><circle cx="619" cy="385" r="4" fill="#dfcca0" opacity=".82"/><circle cx="250" cy="414" r="5" fill="#dfcca0" opacity=".82"/><circle cx="291" cy="443" r="6" fill="#f4e6bd" opacity=".82"/><circle cx="332" cy="287" r="7" fill="#dfcca0" opacity=".82"/><circle cx="373" cy="316" r="8" fill="#dfcca0" opacity=".82"/><circle cx="414" cy="345" r="9" fill="#f4e6bd" opacity=".82"/><circle cx="455" cy="374" r="10" fill="#dfcca0" opacity=".82"/><circle cx="496" cy="403" r="4" fill="#dfcca0" opacity=".82"/><circle cx="537" cy="432" r="5" fill="#f4e6bd" opacity=".82"/><circle cx="578" cy="461" r="6" fill="#dfcca0" opacity=".82"/><circle cx="619" cy="305" r="7" fill="#dfcca0" opacity=".82"/><circle cx="250" cy="334" r="8" fill="#f4e6bd" opacity=".82"/><circle cx="291" cy="363" r="9" fill="#dfcca0" opacity=".82"/><circle cx="332" cy="392" r="10" fill="#dfcca0" opacity=".82"/><circle cx="373" cy="421" r="4" fill="#f4e6bd" opacity=".82"/><circle cx="414" cy="450" r="5" fill="#dfcca0" opacity=".82"/><circle cx="455" cy="294" r="6" fill="#dfcca0" opacity=".82"/><circle cx="496" cy="323" r="7" fill="#f4e6bd" opacity=".82"/><circle cx="537" cy="352" r="8" fill="#dfcca0" opacity=".82"/><circle cx="578" cy="381" r="9" fill="#dfcca0" opacity=".82"/><circle cx="619" cy="410" r="10" fill="#f4e6bd" opacity=".82"/><circle cx="250" cy="439" r="4" fill="#dfcca0" opacity=".82"/><circle cx="291" cy="283" r="5" fill="#dfcca0" opacity=".82"/><circle cx="332" cy="312" r="6" fill="#f4e6bd" opacity=".82"/><circle cx="373" cy="341" r="7" fill="#dfcca0" opacity=".82"/><circle cx="414" cy="370" r="8" fill="#dfcca0" opacity=".82"/><circle cx="455" cy="399" r="9" fill="#f4e6bd" opacity=".82"/><circle cx="496" cy="428" r="10" fill="#dfcca0" opacity=".82"/><circle cx="537" cy="457" r="4" fill="#dfcca0" opacity=".82"/><circle cx="578" cy="301" r="5" fill="#f4e6bd" opacity=".82"/><circle cx="619" cy="330" r="6" fill="#dfcca0" opacity=".82"/></g>
  
  <g filter="url(#soft-shadow)">
    <path d="M270 332c88-42 254-53 374-14 38 12 39 51 3 70-112 58-299 61-403 7-34-18-24-45 26-63z" fill="#f2ead8"/>
    <rect x="488" y="393" width="28" height="18" rx="5" fill="#b9a67e" transform="rotate(-24 488 393)"/><rect x="541" y="305" width="28" height="18" rx="5" fill="#fffaf0" transform="rotate(-12 541 305)"/><rect x="594" y="342" width="28" height="18" rx="5" fill="#fffaf0" transform="rotate(0 594 342)"/><rect x="347" y="379" width="28" height="18" rx="5" fill="#b9a67e" transform="rotate(12 347 379)"/><rect x="400" y="416" width="28" height="18" rx="5" fill="#fffaf0" transform="rotate(24 400 416)"/><rect x="453" y="328" width="28" height="18" rx="5" fill="#fffaf0" transform="rotate(-24 453 328)"/><rect x="506" y="365" width="28" height="18" rx="5" fill="#b9a67e" transform="rotate(-12 506 365)"/><rect x="559" y="402" width="28" height="18" rx="5" fill="#fffaf0" transform="rotate(0 559 402)"/><rect x="312" y="314" width="28" height="18" rx="5" fill="#fffaf0" transform="rotate(12 312 314)"/><rect x="365" y="351" width="28" height="18" rx="5" fill="#b9a67e" transform="rotate(24 365 351)"/><rect x="418" y="388" width="28" height="18" rx="5" fill="#fffaf0" transform="rotate(-24 418 388)"/><rect x="471" y="425" width="28" height="18" rx="5" fill="#fffaf0" transform="rotate(-12 471 425)"/><rect x="524" y="337" width="28" height="18" rx="5" fill="#b9a67e" transform="rotate(0 524 337)"/><rect x="577" y="374" width="28" height="18" rx="5" fill="#fffaf0" transform="rotate(12 577 374)"/><rect x="330" y="411" width="28" height="18" rx="5" fill="#fffaf0" transform="rotate(24 330 411)"/><rect x="383" y="323" width="28" height="18" rx="5" fill="#b9a67e" transform="rotate(-24 383 323)"/>
  </g>
  <g><rect x="368" y="278" width="58" height="14" rx="7" fill="#dc8543" transform="rotate(-26 368 278)" opacity=".82"/><rect x="439" y="331" width="58" height="14" rx="7" fill="#dc8543" transform="rotate(-11 439 331)" opacity=".82"/><rect x="510" y="384" width="58" height="14" rx="7" fill="#dc8543" transform="rotate(4 510 384)" opacity=".82"/><rect x="581" y="437" width="58" height="14" rx="7" fill="#dc8543" transform="rotate(19 581 437)" opacity=".82"/><rect x="282" y="310" width="58" height="14" rx="7" fill="#dc8543" transform="rotate(34 282 310)" opacity=".82"/><rect x="353" y="363" width="58" height="14" rx="7" fill="#dc8543" transform="rotate(-26 353 363)" opacity=".82"/><rect x="424" y="416" width="58" height="14" rx="7" fill="#dc8543" transform="rotate(-11 424 416)" opacity=".82"/><ellipse cx="573" cy="343" rx="31" ry="11" fill="#7aa36d" transform="rotate(-24 573 343)" opacity=".75"/><ellipse cx="634" cy="390" rx="31" ry="11" fill="#7aa36d" transform="rotate(-6 634 390)" opacity=".75"/><ellipse cx="345" cy="437" rx="31" ry="11" fill="#7aa36d" transform="rotate(12 345 437)" opacity=".75"/><ellipse cx="406" cy="314" rx="31" ry="11" fill="#7aa36d" transform="rotate(30 406 314)" opacity=".75"/><ellipse cx="467" cy="361" rx="31" ry="11" fill="#7aa36d" transform="rotate(-24 467 361)" opacity=".75"/><ellipse cx="528" cy="408" rx="31" ry="11" fill="#7aa36d" transform="rotate(-6 528 408)" opacity=".75"/><ellipse cx="613" cy="298" rx="20" ry="8" fill="#4e7459" transform="rotate(-10 613 298)" opacity=".9"/><ellipse cx="275" cy="339" rx="25" ry="8" fill="#4e7459" transform="rotate(13 275 339)" opacity=".9"/><ellipse cx="342" cy="380" rx="30" ry="8" fill="#4e7459" transform="rotate(-32 342 380)" opacity=".9"/><ellipse cx="409" cy="421" rx="20" ry="8" fill="#4e7459" transform="rotate(-9 409 421)" opacity=".9"/><ellipse cx="476" cy="212" rx="25" ry="8" fill="#4e7459" transform="rotate(14 476 212)" opacity=".9"/><ellipse cx="543" cy="253" rx="30" ry="8" fill="#4e7459" transform="rotate(-31 543 253)" opacity=".9"/><ellipse cx="610" cy="294" rx="20" ry="8" fill="#4e7459" transform="rotate(-8 610 294)" opacity=".9"/><ellipse cx="272" cy="335" rx="25" ry="8" fill="#4e7459" transform="rotate(15 272 335)" opacity=".9"/><ellipse cx="339" cy="376" rx="30" ry="8" fill="#4e7459" transform="rotate(-30 339 376)" opacity=".9"/><ellipse cx="406" cy="417" rx="20" ry="8" fill="#4e7459" transform="rotate(-7 406 417)" opacity=".9"/><ellipse cx="473" cy="458" rx="25" ry="8" fill="#4e7459" transform="rotate(16 473 458)" opacity=".9"/><ellipse cx="540" cy="249" rx="30" ry="8" fill="#4e7459" transform="rotate(-29 540 249)" opacity=".9"/><ellipse cx="607" cy="290" rx="20" ry="8" fill="#4e7459" transform="rotate(-6 607 290)" opacity=".9"/></g>
  <g opacity=".95">
    <circle cx="602" cy="243" r="22" fill="#d9aa56"/>
    <path d="M602 222a22 22 0 0 1 0 44" fill="#fff3b0" opacity=".72"/>
  </g>
</svg>