<svg xmlns="http://www.w3.org/2000/svg" viewBox="0 0 900 675" role="img" aria-label="dairy and nut kosher plates">
  <defs>
    <radialGradient id="plate-glow" cx="50%" cy="46%" r="62%">
      <stop offset="0" stop-color="#fffdf4"/>
      <stop offset="1" stop-color="#fffaf0"/>
    </radialGradient>
    <linearGradient id="table" x1="0" y1="0" x2="1" y2="1">
      <stop offset="0" stop-color="#f4ecdf"/>
      <stop offset="1" stop-color="#d0bfa5"/>
    </linearGradient>
    <filter id="soft-shadow" x="-25%" y="-25%" width="150%" height="150%">
      <feDropShadow dx="0" dy="14" stdDeviation="15" flood-color="#303229" flood-opacity=".28"/>
    </filter>
    <filter id="grain">
      <feTurbulence type="fractalNoise" baseFrequency=".85" numOctaves="2" seed="10379" result="noise"/>
      <feColorMatrix type="saturate" values=".12"/>
      <feComponentTransfer>
        <feFuncA type="table" tableValues="0 .12"/>
      </feComponentTransfer>
      <feBlend mode="multiply" in2="SourceGraphic"/>
    </filter>
  </defs>
  <rect width="900" height="675" fill="url(#table)"/>
  <rect width="900" height="675" filter="url(#grain)" opacity=".34"/>
  <ellipse cx="450" cy="365" rx="332" ry="222" fill="#5d4b3c" opacity=".12"/>
  <ellipse cx="450" cy="350" rx="318" ry="214" fill="url(#plate-glow)"/>
  <ellipse cx="450" cy="350" rx="260" ry="164" fill="#f6ead4"/>
  <g><circle cx="377" cy="299" r="9" fill="#f4e6bd" opacity=".82"/><circle cx="418" cy="328" r="10" fill="#dfcca0" opacity=".82"/><circle cx="459" cy="357" r="4" fill="#dfcca0" opacity=".82"/><circle cx="500" cy="386" r="5" fill="#f4e6bd" opacity=".82"/><circle cx="541" cy="415" r="6" fill="#dfcca0" opacity=".82"/><circle cx="582" cy="444" r="7" fill="#dfcca0" opacity=".82"/><circle cx="623" cy="288" r="8" fill="#f4e6bd" opacity=".82"/><circle cx="254" cy="317" r="9" fill="#dfcca0" opacity=".82"/><circle cx="295" cy="346" r="10" fill="#dfcca0" opacity=".82"/><circle cx="336" cy="375" r="4" fill="#f4e6bd" opacity=".82"/><circle cx="377" cy="404" r="5" fill="#dfcca0" opacity=".82"/><circle cx="418" cy="433" r="6" fill="#dfcca0" opacity=".82"/><circle cx="459" cy="462" r="7" fill="#f4e6bd" opacity=".82"/><circle cx="500" cy="306" r="8" fill="#dfcca0" opacity=".82"/><circle cx="541" cy="335" r="9" fill="#dfcca0" opacity=".82"/><circle cx="582" cy="364" r="10" fill="#f4e6bd" opacity=".82"/><circle cx="623" cy="393" r="4" fill="#dfcca0" opacity=".82"/><circle cx="254" cy="422" r="5" fill="#dfcca0" opacity=".82"/><circle cx="295" cy="451" r="6" fill="#f4e6bd" opacity=".82"/><circle cx="336" cy="295" r="7" fill="#dfcca0" opacity=".82"/><circle cx="377" cy="324" r="8" fill="#dfcca0" opacity=".82"/><circle cx="418" cy="353" r="9" fill="#f4e6bd" opacity=".82"/><circle cx="459" cy="382" r="10" fill="#dfcca0" opacity=".82"/><circle cx="500" cy="411" r="4" fill="#dfcca0" opacity=".82"/><circle cx="541" cy="440" r="5" fill="#f4e6bd" opacity=".82"/><circle cx="582" cy="284" r="6" fill="#dfcca0" opacity=".82"/><circle cx="623" cy="313" r="7" fill="#dfcca0" opacity=".82"/><circle cx="254" cy="342" r="8" fill="#f4e6bd" opacity=".82"/><circle cx="295" cy="371" r="9" fill="#dfcca0" opacity=".82"/><circle cx="336" cy="400" r="10" fill="#dfcca0" opacity=".82"/><circle cx="377" cy="429" r="4" fill="#f4e6bd" opacity=".82"/><circle cx="418" cy="458" r="5" fill="#dfcca0" opacity=".82"/><circle cx="459" cy="302" r="6" fill="#dfcca0" opacity=".82"/><circle cx="500" cy="331" r="7" fill="#f4e6bd" opacity=".82"/><circle cx="541" cy="360" r="8" fill="#dfcca0" opacity=".82"/><circle cx="582" cy="389" r="9" fill="#dfcca0" opacity=".82"/><circle cx="623" cy="418" r="10" fill="#f4e6bd" opacity=".82"/><circle cx="254" cy="447" r="4" fill="#dfcca0" opacity=".82"/><circle cx="295" cy="291" r="5" fill="#dfcca0" opacity=".82"/><circle cx="336" cy="320" r="6" fill="#f4e6bd" opacity=".82"/><circle cx="377" cy="349" r="7" fill="#dfcca0" opacity=".82"/><circle cx="418" cy="378" r="8" fill="#dfcca0" opacity=".82"/><circle cx="459" cy="407" r="9" fill="#f4e6bd" opacity=".82"/><circle cx="500" cy="436" r="10" fill="#dfcca0" opacity=".82"/></g>
  
  <g filter="url(#soft-shadow)">
    <path d="M270 332c88-42 254-53 374-14 38 12 39 51 3 70-112 58-299 61-403 7-34-18-24-45 26-63z" fill="#f2ead8"/>
    <rect x="479" y="309" width="28" height="18" rx="5" fill="#b9a67e" transform="rotate(-24 479 309)"/><rect x="532" y="346" width="28" height="18" rx="5" fill="#fffaf0" transform="rotate(-12 532 346)"/><rect x="585" y="383" width="28" height="18" rx="5" fill="#fffaf0" transform="rotate(0 585 383)"/><rect x="338" y="420" width="28" height="18" rx="5" fill="#b9a67e" transform="rotate(12 338 420)"/><rect x="391" y="332" width="28" height="18" rx="5" fill="#fffaf0" transform="rotate(24 391 332)"/><rect x="444" y="369" width="28" height="18" rx="5" fill="#fffaf0" transform="rotate(-24 444 369)"/><rect x="497" y="406" width="28" height="18" rx="5" fill="#b9a67e" transform="rotate(-12 497 406)"/><rect x="550" y="318" width="28" height="18" rx="5" fill="#fffaf0" transform="rotate(0 550 318)"/><rect x="303" y="355" width="28" height="18" rx="5" fill="#fffaf0" transform="rotate(12 303 355)"/><rect x="356" y="392" width="28" height="18" rx="5" fill="#b9a67e" transform="rotate(24 356 392)"/><rect x="409" y="429" width="28" height="18" rx="5" fill="#fffaf0" transform="rotate(-24 409 429)"/><rect x="462" y="341" width="28" height="18" rx="5" fill="#fffaf0" transform="rotate(-12 462 341)"/><rect x="515" y="378" width="28" height="18" rx="5" fill="#b9a67e" transform="rotate(0 515 378)"/><rect x="568" y="415" width="28" height="18" rx="5" fill="#fffaf0" transform="rotate(12 568 415)"/><rect x="321" y="327" width="28" height="18" rx="5" fill="#fffaf0" transform="rotate(24 321 327)"/><rect x="374" y="364" width="28" height="18" rx="5" fill="#b9a67e" transform="rotate(-24 374 364)"/>
  </g>
  <g><rect x="289" y="389" width="58" height="14" rx="7" fill="#dc8543" transform="rotate(-26 289 389)" opacity=".82"/><rect x="360" y="442" width="58" height="14" rx="7" fill="#dc8543" transform="rotate(-11 360 442)" opacity=".82"/><rect x="431" y="315" width="58" height="14" rx="7" fill="#dc8543" transform="rotate(4 431 315)" opacity=".82"/><rect x="502" y="368" width="58" height="14" rx="7" fill="#dc8543" transform="rotate(19 502 368)" opacity=".82"/><rect x="573" y="421" width="58" height="14" rx="7" fill="#dc8543" transform="rotate(34 573 421)" opacity=".82"/><rect x="274" y="294" width="58" height="14" rx="7" fill="#dc8543" transform="rotate(-26 274 294)" opacity=".82"/><rect x="345" y="347" width="58" height="14" rx="7" fill="#dc8543" transform="rotate(-11 345 347)" opacity=".82"/><ellipse cx="514" cy="294" rx="31" ry="11" fill="#7aa36d" transform="rotate(-24 514 294)" opacity=".75"/><ellipse cx="575" cy="341" rx="31" ry="11" fill="#7aa36d" transform="rotate(-6 575 341)" opacity=".75"/><ellipse cx="286" cy="388" rx="31" ry="11" fill="#7aa36d" transform="rotate(12 286 388)" opacity=".75"/><ellipse cx="347" cy="435" rx="31" ry="11" fill="#7aa36d" transform="rotate(30 347 435)" opacity=".75"/><ellipse cx="408" cy="312" rx="31" ry="11" fill="#7aa36d" transform="rotate(-24 408 312)" opacity=".75"/><ellipse cx="469" cy="359" rx="31" ry="11" fill="#7aa36d" transform="rotate(-6 469 359)" opacity=".75"/><ellipse cx="499" cy="339" rx="20" ry="8" fill="#4e7459" transform="rotate(9 499 339)" opacity=".9"/><ellipse cx="566" cy="380" rx="25" ry="8" fill="#4e7459" transform="rotate(32 566 380)" opacity=".9"/><ellipse cx="633" cy="421" rx="30" ry="8" fill="#4e7459" transform="rotate(-13 633 421)" opacity=".9"/><ellipse cx="295" cy="212" rx="20" ry="8" fill="#4e7459" transform="rotate(10 295 212)" opacity=".9"/><ellipse cx="362" cy="253" rx="25" ry="8" fill="#4e7459" transform="rotate(33 362 253)" opacity=".9"/><ellipse cx="429" cy="294" rx="30" ry="8" fill="#4e7459" transform="rotate(-12 429 294)" opacity=".9"/><ellipse cx="496" cy="335" rx="20" ry="8" fill="#4e7459" transform="rotate(11 496 335)" opacity=".9"/><ellipse cx="563" cy="376" rx="25" ry="8" fill="#4e7459" transform="rotate(-34 563 376)" opacity=".9"/><ellipse cx="630" cy="417" rx="30" ry="8" fill="#4e7459" transform="rotate(-11 630 417)" opacity=".9"/><ellipse cx="292" cy="458" rx="20" ry="8" fill="#4e7459" transform="rotate(12 292 458)" opacity=".9"/><ellipse cx="359" cy="249" rx="25" ry="8" fill="#4e7459" transform="rotate(-33 359 249)" opacity=".9"/><ellipse cx="426" cy="290" rx="30" ry="8" fill="#4e7459" transform="rotate(-10 426 290)" opacity=".9"/><ellipse cx="493" cy="331" rx="20" ry="8" fill="#4e7459" transform="rotate(13 493 331)" opacity=".9"/></g>
  <g opacity=".95">
    <circle cx="551" cy="254" r="22" fill="#d9aa56"/>
    <path d="M551 233a22 22 0 0 1 0 44" fill="#fff3b0" opacity=".72"/>
  </g>
</svg>