<svg xmlns="http://www.w3.org/2000/svg" viewBox="0 0 900 675" role="img" aria-label="dairy and nut kosher plates">
  <defs>
    <radialGradient id="plate-glow" cx="50%" cy="46%" r="62%">
      <stop offset="0" stop-color="#fffdf4"/>
      <stop offset="1" stop-color="#fffaf0"/>
    </radialGradient>
    <linearGradient id="table" x1="0" y1="0" x2="1" y2="1">
      <stop offset="0" stop-color="#f4ecdf"/>
      <stop offset="1" stop-color="#d0bfa5"/>
    </linearGradient>
    <filter id="soft-shadow" x="-25%" y="-25%" width="150%" height="150%">
      <feDropShadow dx="0" dy="14" stdDeviation="15" flood-color="#303229" flood-opacity=".28"/>
    </filter>
    <filter id="grain">
      <feTurbulence type="fractalNoise" baseFrequency=".85" numOctaves="2" seed="10282" result="noise"/>
      <feColorMatrix type="saturate" values=".12"/>
      <feComponentTransfer>
        <feFuncA type="table" tableValues="0 .12"/>
      </feComponentTransfer>
      <feBlend mode="multiply" in2="SourceGraphic"/>
    </filter>
  </defs>
  <rect width="900" height="675" fill="url(#table)"/>
  <rect width="900" height="675" filter="url(#grain)" opacity=".34"/>
  <ellipse cx="450" cy="365" rx="332" ry="222" fill="#5d4b3c" opacity=".12"/>
  <ellipse cx="450" cy="350" rx="318" ry="214" fill="url(#plate-glow)"/>
  <ellipse cx="450" cy="350" rx="260" ry="164" fill="#f6ead4"/>
  <g><circle cx="280" cy="387" r="10" fill="#f4e6bd" opacity=".82"/><circle cx="321" cy="416" r="4" fill="#dfcca0" opacity=".82"/><circle cx="362" cy="445" r="5" fill="#dfcca0" opacity=".82"/><circle cx="403" cy="289" r="6" fill="#f4e6bd" opacity=".82"/><circle cx="444" cy="318" r="7" fill="#dfcca0" opacity=".82"/><circle cx="485" cy="347" r="8" fill="#dfcca0" opacity=".82"/><circle cx="526" cy="376" r="9" fill="#f4e6bd" opacity=".82"/><circle cx="567" cy="405" r="10" fill="#dfcca0" opacity=".82"/><circle cx="608" cy="434" r="4" fill="#dfcca0" opacity=".82"/><circle cx="649" cy="463" r="5" fill="#f4e6bd" opacity=".82"/><circle cx="280" cy="307" r="6" fill="#dfcca0" opacity=".82"/><circle cx="321" cy="336" r="7" fill="#dfcca0" opacity=".82"/><circle cx="362" cy="365" r="8" fill="#f4e6bd" opacity=".82"/><circle cx="403" cy="394" r="9" fill="#dfcca0" opacity=".82"/><circle cx="444" cy="423" r="10" fill="#dfcca0" opacity=".82"/><circle cx="485" cy="452" r="4" fill="#f4e6bd" opacity=".82"/><circle cx="526" cy="296" r="5" fill="#dfcca0" opacity=".82"/><circle cx="567" cy="325" r="6" fill="#dfcca0" opacity=".82"/><circle cx="608" cy="354" r="7" fill="#f4e6bd" opacity=".82"/><circle cx="649" cy="383" r="8" fill="#dfcca0" opacity=".82"/><circle cx="280" cy="412" r="9" fill="#dfcca0" opacity=".82"/><circle cx="321" cy="441" r="10" fill="#f4e6bd" opacity=".82"/><circle cx="362" cy="285" r="4" fill="#dfcca0" opacity=".82"/><circle cx="403" cy="314" r="5" fill="#dfcca0" opacity=".82"/><circle cx="444" cy="343" r="6" fill="#f4e6bd" opacity=".82"/><circle cx="485" cy="372" r="7" fill="#dfcca0" opacity=".82"/><circle cx="526" cy="401" r="8" fill="#dfcca0" opacity=".82"/><circle cx="567" cy="430" r="9" fill="#f4e6bd" opacity=".82"/><circle cx="608" cy="459" r="10" fill="#dfcca0" opacity=".82"/><circle cx="649" cy="303" r="4" fill="#dfcca0" opacity=".82"/><circle cx="280" cy="332" r="5" fill="#f4e6bd" opacity=".82"/><circle cx="321" cy="361" r="6" fill="#dfcca0" opacity=".82"/><circle cx="362" cy="390" r="7" fill="#dfcca0" opacity=".82"/><circle cx="403" cy="419" r="8" fill="#f4e6bd" opacity=".82"/><circle cx="444" cy="448" r="9" fill="#dfcca0" opacity=".82"/><circle cx="485" cy="292" r="10" fill="#dfcca0" opacity=".82"/><circle cx="526" cy="321" r="4" fill="#f4e6bd" opacity=".82"/><circle cx="567" cy="350" r="5" fill="#dfcca0" opacity=".82"/><circle cx="608" cy="379" r="6" fill="#dfcca0" opacity=".82"/><circle cx="649" cy="408" r="7" fill="#f4e6bd" opacity=".82"/><circle cx="280" cy="437" r="8" fill="#dfcca0" opacity=".82"/><circle cx="321" cy="281" r="9" fill="#dfcca0" opacity=".82"/><circle cx="362" cy="310" r="10" fill="#f4e6bd" opacity=".82"/><circle cx="403" cy="339" r="4" fill="#dfcca0" opacity=".82"/></g>
  
  <g filter="url(#soft-shadow)">
    <path d="M270 332c88-42 254-53 374-14 38 12 39 51 3 70-112 58-299 61-403 7-34-18-24-45 26-63z" fill="#f2ead8"/>
    <rect x="382" y="337" width="28" height="18" rx="5" fill="#b9a67e" transform="rotate(-24 382 337)"/><rect x="435" y="374" width="28" height="18" rx="5" fill="#fffaf0" transform="rotate(-12 435 374)"/><rect x="488" y="411" width="28" height="18" rx="5" fill="#fffaf0" transform="rotate(0 488 411)"/><rect x="541" y="323" width="28" height="18" rx="5" fill="#b9a67e" transform="rotate(12 541 323)"/><rect x="594" y="360" width="28" height="18" rx="5" fill="#fffaf0" transform="rotate(24 594 360)"/><rect x="347" y="397" width="28" height="18" rx="5" fill="#fffaf0" transform="rotate(-24 347 397)"/><rect x="400" y="309" width="28" height="18" rx="5" fill="#b9a67e" transform="rotate(-12 400 309)"/><rect x="453" y="346" width="28" height="18" rx="5" fill="#fffaf0" transform="rotate(0 453 346)"/><rect x="506" y="383" width="28" height="18" rx="5" fill="#fffaf0" transform="rotate(12 506 383)"/><rect x="559" y="420" width="28" height="18" rx="5" fill="#b9a67e" transform="rotate(24 559 420)"/><rect x="312" y="332" width="28" height="18" rx="5" fill="#fffaf0" transform="rotate(-24 312 332)"/><rect x="365" y="369" width="28" height="18" rx="5" fill="#fffaf0" transform="rotate(-12 365 369)"/><rect x="418" y="406" width="28" height="18" rx="5" fill="#b9a67e" transform="rotate(0 418 406)"/><rect x="471" y="318" width="28" height="18" rx="5" fill="#fffaf0" transform="rotate(12 471 318)"/><rect x="524" y="355" width="28" height="18" rx="5" fill="#fffaf0" transform="rotate(24 524 355)"/><rect x="577" y="392" width="28" height="18" rx="5" fill="#b9a67e" transform="rotate(-24 577 392)"/>
  </g>
  <g><rect x="562" y="292" width="58" height="14" rx="7" fill="#dc8543" transform="rotate(-26 562 292)" opacity=".82"/><rect x="633" y="345" width="58" height="14" rx="7" fill="#dc8543" transform="rotate(-11 633 345)" opacity=".82"/><rect x="334" y="398" width="58" height="14" rx="7" fill="#dc8543" transform="rotate(4 334 398)" opacity=".82"/><rect x="405" y="271" width="58" height="14" rx="7" fill="#dc8543" transform="rotate(19 405 271)" opacity=".82"/><rect x="476" y="324" width="58" height="14" rx="7" fill="#dc8543" transform="rotate(34 476 324)" opacity=".82"/><rect x="547" y="377" width="58" height="14" rx="7" fill="#dc8543" transform="rotate(-26 547 377)" opacity=".82"/><rect x="618" y="430" width="58" height="14" rx="7" fill="#dc8543" transform="rotate(-11 618 430)" opacity=".82"/><ellipse cx="417" cy="367" rx="31" ry="11" fill="#7aa36d" transform="rotate(-24 417 367)" opacity=".75"/><ellipse cx="478" cy="414" rx="31" ry="11" fill="#7aa36d" transform="rotate(-6 478 414)" opacity=".75"/><ellipse cx="539" cy="291" rx="31" ry="11" fill="#7aa36d" transform="rotate(12 539 291)" opacity=".75"/><ellipse cx="600" cy="338" rx="31" ry="11" fill="#7aa36d" transform="rotate(30 600 338)" opacity=".75"/><ellipse cx="311" cy="385" rx="31" ry="11" fill="#7aa36d" transform="rotate(-24 311 385)" opacity=".75"/><ellipse cx="372" cy="432" rx="31" ry="11" fill="#7aa36d" transform="rotate(-6 372 432)" opacity=".75"/><ellipse cx="402" cy="242" rx="20" ry="8" fill="#4e7459" transform="rotate(-20 402 242)" opacity=".9"/><ellipse cx="469" cy="283" rx="25" ry="8" fill="#4e7459" transform="rotate(3 469 283)" opacity=".9"/><ellipse cx="536" cy="324" rx="30" ry="8" fill="#4e7459" transform="rotate(26 536 324)" opacity=".9"/><ellipse cx="603" cy="365" rx="20" ry="8" fill="#4e7459" transform="rotate(-19 603 365)" opacity=".9"/><ellipse cx="265" cy="406" rx="25" ry="8" fill="#4e7459" transform="rotate(4 265 406)" opacity=".9"/><ellipse cx="332" cy="447" rx="30" ry="8" fill="#4e7459" transform="rotate(27 332 447)" opacity=".9"/><ellipse cx="399" cy="238" rx="20" ry="8" fill="#4e7459" transform="rotate(-18 399 238)" opacity=".9"/><ellipse cx="466" cy="279" rx="25" ry="8" fill="#4e7459" transform="rotate(5 466 279)" opacity=".9"/><ellipse cx="533" cy="320" rx="30" ry="8" fill="#4e7459" transform="rotate(28 533 320)" opacity=".9"/><ellipse cx="600" cy="361" rx="20" ry="8" fill="#4e7459" transform="rotate(-17 600 361)" opacity=".9"/><ellipse cx="262" cy="402" rx="25" ry="8" fill="#4e7459" transform="rotate(6 262 402)" opacity=".9"/><ellipse cx="329" cy="443" rx="30" ry="8" fill="#4e7459" transform="rotate(29 329 443)" opacity=".9"/><ellipse cx="396" cy="234" rx="20" ry="8" fill="#4e7459" transform="rotate(-16 396 234)" opacity=".9"/></g>
  <g opacity=".95">
    <circle cx="568" cy="237" r="22" fill="#d9aa56"/>
    <path d="M568 216a22 22 0 0 1 0 44" fill="#fff3b0" opacity=".72"/>
  </g>
</svg>