<svg xmlns="http://www.w3.org/2000/svg" viewBox="0 0 900 675" role="img" aria-label="dairy and nut kosher plates">
  <defs>
    <radialGradient id="plate-glow" cx="50%" cy="46%" r="62%">
      <stop offset="0" stop-color="#fffdf4"/>
      <stop offset="1" stop-color="#fffaf0"/>
    </radialGradient>
    <linearGradient id="table" x1="0" y1="0" x2="1" y2="1">
      <stop offset="0" stop-color="#f4ecdf"/>
      <stop offset="1" stop-color="#d0bfa5"/>
    </linearGradient>
    <filter id="soft-shadow" x="-25%" y="-25%" width="150%" height="150%">
      <feDropShadow dx="0" dy="14" stdDeviation="15" flood-color="#303229" flood-opacity=".28"/>
    </filter>
    <filter id="grain">
      <feTurbulence type="fractalNoise" baseFrequency=".85" numOctaves="2" seed="10476" result="noise"/>
      <feColorMatrix type="saturate" values=".12"/>
      <feComponentTransfer>
        <feFuncA type="table" tableValues="0 .12"/>
      </feComponentTransfer>
      <feBlend mode="multiply" in2="SourceGraphic"/>
    </filter>
  </defs>
  <rect width="900" height="675" fill="url(#table)"/>
  <rect width="900" height="675" filter="url(#grain)" opacity=".34"/>
  <ellipse cx="450" cy="365" rx="332" ry="222" fill="#5d4b3c" opacity=".12"/>
  <ellipse cx="450" cy="350" rx="318" ry="214" fill="url(#plate-glow)"/>
  <ellipse cx="450" cy="350" rx="260" ry="164" fill="#f6ead4"/>
  <g><circle cx="474" cy="396" r="8" fill="#f4e6bd" opacity=".82"/><circle cx="515" cy="425" r="9" fill="#dfcca0" opacity=".82"/><circle cx="556" cy="454" r="10" fill="#dfcca0" opacity=".82"/><circle cx="597" cy="298" r="4" fill="#f4e6bd" opacity=".82"/><circle cx="638" cy="327" r="5" fill="#dfcca0" opacity=".82"/><circle cx="269" cy="356" r="6" fill="#dfcca0" opacity=".82"/><circle cx="310" cy="385" r="7" fill="#f4e6bd" opacity=".82"/><circle cx="351" cy="414" r="8" fill="#dfcca0" opacity=".82"/><circle cx="392" cy="443" r="9" fill="#dfcca0" opacity=".82"/><circle cx="433" cy="287" r="10" fill="#f4e6bd" opacity=".82"/><circle cx="474" cy="316" r="4" fill="#dfcca0" opacity=".82"/><circle cx="515" cy="345" r="5" fill="#dfcca0" opacity=".82"/><circle cx="556" cy="374" r="6" fill="#f4e6bd" opacity=".82"/><circle cx="597" cy="403" r="7" fill="#dfcca0" opacity=".82"/><circle cx="638" cy="432" r="8" fill="#dfcca0" opacity=".82"/><circle cx="269" cy="461" r="9" fill="#f4e6bd" opacity=".82"/><circle cx="310" cy="305" r="10" fill="#dfcca0" opacity=".82"/><circle cx="351" cy="334" r="4" fill="#dfcca0" opacity=".82"/><circle cx="392" cy="363" r="5" fill="#f4e6bd" opacity=".82"/><circle cx="433" cy="392" r="6" fill="#dfcca0" opacity=".82"/><circle cx="474" cy="421" r="7" fill="#dfcca0" opacity=".82"/><circle cx="515" cy="450" r="8" fill="#f4e6bd" opacity=".82"/><circle cx="556" cy="294" r="9" fill="#dfcca0" opacity=".82"/><circle cx="597" cy="323" r="10" fill="#dfcca0" opacity=".82"/><circle cx="638" cy="352" r="4" fill="#f4e6bd" opacity=".82"/><circle cx="269" cy="381" r="5" fill="#dfcca0" opacity=".82"/><circle cx="310" cy="410" r="6" fill="#dfcca0" opacity=".82"/><circle cx="351" cy="439" r="7" fill="#f4e6bd" opacity=".82"/><circle cx="392" cy="283" r="8" fill="#dfcca0" opacity=".82"/><circle cx="433" cy="312" r="9" fill="#dfcca0" opacity=".82"/><circle cx="474" cy="341" r="10" fill="#f4e6bd" opacity=".82"/><circle cx="515" cy="370" r="4" fill="#dfcca0" opacity=".82"/><circle cx="556" cy="399" r="5" fill="#dfcca0" opacity=".82"/><circle cx="597" cy="428" r="6" fill="#f4e6bd" opacity=".82"/><circle cx="638" cy="457" r="7" fill="#dfcca0" opacity=".82"/><circle cx="269" cy="301" r="8" fill="#dfcca0" opacity=".82"/><circle cx="310" cy="330" r="9" fill="#f4e6bd" opacity=".82"/><circle cx="351" cy="359" r="10" fill="#dfcca0" opacity=".82"/><circle cx="392" cy="388" r="4" fill="#dfcca0" opacity=".82"/><circle cx="433" cy="417" r="5" fill="#f4e6bd" opacity=".82"/><circle cx="474" cy="446" r="6" fill="#dfcca0" opacity=".82"/><circle cx="515" cy="290" r="7" fill="#dfcca0" opacity=".82"/><circle cx="556" cy="319" r="8" fill="#f4e6bd" opacity=".82"/><circle cx="597" cy="348" r="9" fill="#dfcca0" opacity=".82"/></g>
  
  <g filter="url(#soft-shadow)">
    <path d="M270 332c88-42 254-53 374-14 38 12 39 51 3 70-112 58-299 61-403 7-34-18-24-45 26-63z" fill="#f2ead8"/>
    <rect x="576" y="406" width="28" height="18" rx="5" fill="#b9a67e" transform="rotate(-24 576 406)"/><rect x="329" y="318" width="28" height="18" rx="5" fill="#fffaf0" transform="rotate(-12 329 318)"/><rect x="382" y="355" width="28" height="18" rx="5" fill="#fffaf0" transform="rotate(0 382 355)"/><rect x="435" y="392" width="28" height="18" rx="5" fill="#b9a67e" transform="rotate(12 435 392)"/><rect x="488" y="429" width="28" height="18" rx="5" fill="#fffaf0" transform="rotate(24 488 429)"/><rect x="541" y="341" width="28" height="18" rx="5" fill="#fffaf0" transform="rotate(-24 541 341)"/><rect x="594" y="378" width="28" height="18" rx="5" fill="#b9a67e" transform="rotate(-12 594 378)"/><rect x="347" y="415" width="28" height="18" rx="5" fill="#fffaf0" transform="rotate(0 347 415)"/><rect x="400" y="327" width="28" height="18" rx="5" fill="#fffaf0" transform="rotate(12 400 327)"/><rect x="453" y="364" width="28" height="18" rx="5" fill="#b9a67e" transform="rotate(24 453 364)"/><rect x="506" y="401" width="28" height="18" rx="5" fill="#fffaf0" transform="rotate(-24 506 401)"/><rect x="559" y="313" width="28" height="18" rx="5" fill="#fffaf0" transform="rotate(-12 559 313)"/><rect x="312" y="350" width="28" height="18" rx="5" fill="#b9a67e" transform="rotate(0 312 350)"/><rect x="365" y="387" width="28" height="18" rx="5" fill="#fffaf0" transform="rotate(12 365 387)"/><rect x="418" y="424" width="28" height="18" rx="5" fill="#fffaf0" transform="rotate(24 418 424)"/><rect x="471" y="336" width="28" height="18" rx="5" fill="#b9a67e" transform="rotate(-24 471 336)"/>
  </g>
  <g><rect x="386" y="306" width="58" height="14" rx="7" fill="#dc8543" transform="rotate(-26 386 306)" opacity=".82"/><rect x="457" y="359" width="58" height="14" rx="7" fill="#dc8543" transform="rotate(-11 457 359)" opacity=".82"/><rect x="528" y="412" width="58" height="14" rx="7" fill="#dc8543" transform="rotate(4 528 412)" opacity=".82"/><rect x="599" y="285" width="58" height="14" rx="7" fill="#dc8543" transform="rotate(19 599 285)" opacity=".82"/><rect x="300" y="338" width="58" height="14" rx="7" fill="#dc8543" transform="rotate(34 300 338)" opacity=".82"/><rect x="371" y="391" width="58" height="14" rx="7" fill="#dc8543" transform="rotate(-26 371 391)" opacity=".82"/><rect x="442" y="444" width="58" height="14" rx="7" fill="#dc8543" transform="rotate(-11 442 444)" opacity=".82"/><ellipse cx="611" cy="391" rx="31" ry="11" fill="#7aa36d" transform="rotate(-24 611 391)" opacity=".75"/><ellipse cx="322" cy="438" rx="31" ry="11" fill="#7aa36d" transform="rotate(-6 322 438)" opacity=".75"/><ellipse cx="383" cy="315" rx="31" ry="11" fill="#7aa36d" transform="rotate(12 383 315)" opacity=".75"/><ellipse cx="444" cy="362" rx="31" ry="11" fill="#7aa36d" transform="rotate(30 444 362)" opacity=".75"/><ellipse cx="505" cy="409" rx="31" ry="11" fill="#7aa36d" transform="rotate(-24 505 409)" opacity=".75"/><ellipse cx="566" cy="286" rx="31" ry="11" fill="#7aa36d" transform="rotate(-6 566 286)" opacity=".75"/><ellipse cx="596" cy="436" rx="20" ry="8" fill="#4e7459" transform="rotate(-30 596 436)" opacity=".9"/><ellipse cx="258" cy="227" rx="25" ry="8" fill="#4e7459" transform="rotate(-7 258 227)" opacity=".9"/><ellipse cx="325" cy="268" rx="30" ry="8" fill="#4e7459" transform="rotate(16 325 268)" opacity=".9"/><ellipse cx="392" cy="309" rx="20" ry="8" fill="#4e7459" transform="rotate(-29 392 309)" opacity=".9"/><ellipse cx="459" cy="350" rx="25" ry="8" fill="#4e7459" transform="rotate(-6 459 350)" opacity=".9"/><ellipse cx="526" cy="391" rx="30" ry="8" fill="#4e7459" transform="rotate(17 526 391)" opacity=".9"/><ellipse cx="593" cy="432" rx="20" ry="8" fill="#4e7459" transform="rotate(-28 593 432)" opacity=".9"/><ellipse cx="255" cy="223" rx="25" ry="8" fill="#4e7459" transform="rotate(-5 255 223)" opacity=".9"/><ellipse cx="322" cy="264" rx="30" ry="8" fill="#4e7459" transform="rotate(18 322 264)" opacity=".9"/><ellipse cx="389" cy="305" rx="20" ry="8" fill="#4e7459" transform="rotate(-27 389 305)" opacity=".9"/><ellipse cx="456" cy="346" rx="25" ry="8" fill="#4e7459" transform="rotate(-4 456 346)" opacity=".9"/><ellipse cx="523" cy="387" rx="30" ry="8" fill="#4e7459" transform="rotate(19 523 387)" opacity=".9"/><ellipse cx="590" cy="428" rx="20" ry="8" fill="#4e7459" transform="rotate(-26 590 428)" opacity=".9"/></g>
  <g opacity=".95">
    <circle cx="534" cy="271" r="22" fill="#d9aa56"/>
    <path d="M534 250a22 22 0 0 1 0 44" fill="#fff3b0" opacity=".72"/>
  </g>
</svg>