<svg xmlns="http://www.w3.org/2000/svg" viewBox="0 0 900 675" role="img" aria-label="dairy and nut kosher plates">
  <defs>
    <radialGradient id="plate-glow" cx="50%" cy="46%" r="62%">
      <stop offset="0" stop-color="#fffdf4"/>
      <stop offset="1" stop-color="#fffaf0"/>
    </radialGradient>
    <linearGradient id="table" x1="0" y1="0" x2="1" y2="1">
      <stop offset="0" stop-color="#f4ecdf"/>
      <stop offset="1" stop-color="#d0bfa5"/>
    </linearGradient>
    <filter id="soft-shadow" x="-25%" y="-25%" width="150%" height="150%">
      <feDropShadow dx="0" dy="14" stdDeviation="15" flood-color="#303229" flood-opacity=".28"/>
    </filter>
    <filter id="grain">
      <feTurbulence type="fractalNoise" baseFrequency=".85" numOctaves="2" seed="9894" result="noise"/>
      <feColorMatrix type="saturate" values=".12"/>
      <feComponentTransfer>
        <feFuncA type="table" tableValues="0 .12"/>
      </feComponentTransfer>
      <feBlend mode="multiply" in2="SourceGraphic"/>
    </filter>
  </defs>
  <rect width="900" height="675" fill="url(#table)"/>
  <rect width="900" height="675" filter="url(#grain)" opacity=".34"/>
  <ellipse cx="450" cy="365" rx="332" ry="222" fill="#5d4b3c" opacity=".12"/>
  <ellipse cx="450" cy="350" rx="318" ry="214" fill="url(#plate-glow)"/>
  <ellipse cx="450" cy="350" rx="260" ry="164" fill="#f6ead4"/>
  <g><circle cx="302" cy="369" r="7" fill="#f4e6bd" opacity=".82"/><circle cx="343" cy="398" r="8" fill="#dfcca0" opacity=".82"/><circle cx="384" cy="427" r="9" fill="#dfcca0" opacity=".82"/><circle cx="425" cy="456" r="10" fill="#f4e6bd" opacity=".82"/><circle cx="466" cy="300" r="4" fill="#dfcca0" opacity=".82"/><circle cx="507" cy="329" r="5" fill="#dfcca0" opacity=".82"/><circle cx="548" cy="358" r="6" fill="#f4e6bd" opacity=".82"/><circle cx="589" cy="387" r="7" fill="#dfcca0" opacity=".82"/><circle cx="630" cy="416" r="8" fill="#dfcca0" opacity=".82"/><circle cx="261" cy="445" r="9" fill="#f4e6bd" opacity=".82"/><circle cx="302" cy="289" r="10" fill="#dfcca0" opacity=".82"/><circle cx="343" cy="318" r="4" fill="#dfcca0" opacity=".82"/><circle cx="384" cy="347" r="5" fill="#f4e6bd" opacity=".82"/><circle cx="425" cy="376" r="6" fill="#dfcca0" opacity=".82"/><circle cx="466" cy="405" r="7" fill="#dfcca0" opacity=".82"/><circle cx="507" cy="434" r="8" fill="#f4e6bd" opacity=".82"/><circle cx="548" cy="463" r="9" fill="#dfcca0" opacity=".82"/><circle cx="589" cy="307" r="10" fill="#dfcca0" opacity=".82"/><circle cx="630" cy="336" r="4" fill="#f4e6bd" opacity=".82"/><circle cx="261" cy="365" r="5" fill="#dfcca0" opacity=".82"/><circle cx="302" cy="394" r="6" fill="#dfcca0" opacity=".82"/><circle cx="343" cy="423" r="7" fill="#f4e6bd" opacity=".82"/><circle cx="384" cy="452" r="8" fill="#dfcca0" opacity=".82"/><circle cx="425" cy="296" r="9" fill="#dfcca0" opacity=".82"/><circle cx="466" cy="325" r="10" fill="#f4e6bd" opacity=".82"/><circle cx="507" cy="354" r="4" fill="#dfcca0" opacity=".82"/><circle cx="548" cy="383" r="5" fill="#dfcca0" opacity=".82"/><circle cx="589" cy="412" r="6" fill="#f4e6bd" opacity=".82"/><circle cx="630" cy="441" r="7" fill="#dfcca0" opacity=".82"/><circle cx="261" cy="285" r="8" fill="#dfcca0" opacity=".82"/><circle cx="302" cy="314" r="9" fill="#f4e6bd" opacity=".82"/><circle cx="343" cy="343" r="10" fill="#dfcca0" opacity=".82"/><circle cx="384" cy="372" r="4" fill="#dfcca0" opacity=".82"/><circle cx="425" cy="401" r="5" fill="#f4e6bd" opacity=".82"/><circle cx="466" cy="430" r="6" fill="#dfcca0" opacity=".82"/><circle cx="507" cy="459" r="7" fill="#dfcca0" opacity=".82"/><circle cx="548" cy="303" r="8" fill="#f4e6bd" opacity=".82"/><circle cx="589" cy="332" r="9" fill="#dfcca0" opacity=".82"/><circle cx="630" cy="361" r="10" fill="#dfcca0" opacity=".82"/><circle cx="261" cy="390" r="4" fill="#f4e6bd" opacity=".82"/><circle cx="302" cy="419" r="5" fill="#dfcca0" opacity=".82"/><circle cx="343" cy="448" r="6" fill="#dfcca0" opacity=".82"/><circle cx="384" cy="292" r="7" fill="#f4e6bd" opacity=".82"/><circle cx="425" cy="321" r="8" fill="#dfcca0" opacity=".82"/></g>
  
  <g filter="url(#soft-shadow)">
    <path d="M270 332c88-42 254-53 374-14 38 12 39 51 3 70-112 58-299 61-403 7-34-18-24-45 26-63z" fill="#f2ead8"/>
    <rect x="594" y="324" width="28" height="18" rx="5" fill="#b9a67e" transform="rotate(-24 594 324)"/><rect x="347" y="361" width="28" height="18" rx="5" fill="#fffaf0" transform="rotate(-12 347 361)"/><rect x="400" y="398" width="28" height="18" rx="5" fill="#fffaf0" transform="rotate(0 400 398)"/><rect x="453" y="310" width="28" height="18" rx="5" fill="#b9a67e" transform="rotate(12 453 310)"/><rect x="506" y="347" width="28" height="18" rx="5" fill="#fffaf0" transform="rotate(24 506 347)"/><rect x="559" y="384" width="28" height="18" rx="5" fill="#fffaf0" transform="rotate(-24 559 384)"/><rect x="312" y="421" width="28" height="18" rx="5" fill="#b9a67e" transform="rotate(-12 312 421)"/><rect x="365" y="333" width="28" height="18" rx="5" fill="#fffaf0" transform="rotate(0 365 333)"/><rect x="418" y="370" width="28" height="18" rx="5" fill="#fffaf0" transform="rotate(12 418 370)"/><rect x="471" y="407" width="28" height="18" rx="5" fill="#b9a67e" transform="rotate(24 471 407)"/><rect x="524" y="319" width="28" height="18" rx="5" fill="#fffaf0" transform="rotate(-24 524 319)"/><rect x="577" y="356" width="28" height="18" rx="5" fill="#fffaf0" transform="rotate(-12 577 356)"/><rect x="330" y="393" width="28" height="18" rx="5" fill="#b9a67e" transform="rotate(0 330 393)"/><rect x="383" y="305" width="28" height="18" rx="5" fill="#fffaf0" transform="rotate(12 383 305)"/><rect x="436" y="342" width="28" height="18" rx="5" fill="#fffaf0" transform="rotate(24 436 342)"/><rect x="489" y="379" width="28" height="18" rx="5" fill="#b9a67e" transform="rotate(-24 489 379)"/>
  </g>
  <g><rect x="544" y="444" width="58" height="14" rx="7" fill="#dc8543" transform="rotate(-26 544 444)" opacity=".82"/><rect x="615" y="317" width="58" height="14" rx="7" fill="#dc8543" transform="rotate(-11 615 317)" opacity=".82"/><rect x="316" y="370" width="58" height="14" rx="7" fill="#dc8543" transform="rotate(4 316 370)" opacity=".82"/><rect x="387" y="423" width="58" height="14" rx="7" fill="#dc8543" transform="rotate(19 387 423)" opacity=".82"/><rect x="458" y="296" width="58" height="14" rx="7" fill="#dc8543" transform="rotate(34 458 296)" opacity=".82"/><rect x="529" y="349" width="58" height="14" rx="7" fill="#dc8543" transform="rotate(-26 529 349)" opacity=".82"/><rect x="600" y="402" width="58" height="14" rx="7" fill="#dc8543" transform="rotate(-11 600 402)" opacity=".82"/><ellipse cx="379" cy="319" rx="31" ry="11" fill="#7aa36d" transform="rotate(-24 379 319)" opacity=".75"/><ellipse cx="440" cy="366" rx="31" ry="11" fill="#7aa36d" transform="rotate(-6 440 366)" opacity=".75"/><ellipse cx="501" cy="413" rx="31" ry="11" fill="#7aa36d" transform="rotate(12 501 413)" opacity=".75"/><ellipse cx="562" cy="290" rx="31" ry="11" fill="#7aa36d" transform="rotate(30 562 290)" opacity=".75"/><ellipse cx="623" cy="337" rx="31" ry="11" fill="#7aa36d" transform="rotate(-24 623 337)" opacity=".75"/><ellipse cx="334" cy="384" rx="31" ry="11" fill="#7aa36d" transform="rotate(-6 334 384)" opacity=".75"/><ellipse cx="419" cy="354" rx="20" ry="8" fill="#4e7459" transform="rotate(0 419 354)" opacity=".9"/><ellipse cx="486" cy="395" rx="25" ry="8" fill="#4e7459" transform="rotate(23 486 395)" opacity=".9"/><ellipse cx="553" cy="436" rx="30" ry="8" fill="#4e7459" transform="rotate(-22 553 436)" opacity=".9"/><ellipse cx="620" cy="227" rx="20" ry="8" fill="#4e7459" transform="rotate(1 620 227)" opacity=".9"/><ellipse cx="282" cy="268" rx="25" ry="8" fill="#4e7459" transform="rotate(24 282 268)" opacity=".9"/><ellipse cx="349" cy="309" rx="30" ry="8" fill="#4e7459" transform="rotate(-21 349 309)" opacity=".9"/><ellipse cx="416" cy="350" rx="20" ry="8" fill="#4e7459" transform="rotate(2 416 350)" opacity=".9"/><ellipse cx="483" cy="391" rx="25" ry="8" fill="#4e7459" transform="rotate(25 483 391)" opacity=".9"/><ellipse cx="550" cy="432" rx="30" ry="8" fill="#4e7459" transform="rotate(-20 550 432)" opacity=".9"/><ellipse cx="617" cy="223" rx="20" ry="8" fill="#4e7459" transform="rotate(3 617 223)" opacity=".9"/><ellipse cx="279" cy="264" rx="25" ry="8" fill="#4e7459" transform="rotate(26 279 264)" opacity=".9"/><ellipse cx="346" cy="305" rx="30" ry="8" fill="#4e7459" transform="rotate(-19 346 305)" opacity=".9"/><ellipse cx="413" cy="346" rx="20" ry="8" fill="#4e7459" transform="rotate(4 413 346)" opacity=".9"/></g>
  <g opacity=".95">
    <circle cx="556" cy="249" r="22" fill="#d9aa56"/>
    <path d="M556 228a22 22 0 0 1 0 44" fill="#fff3b0" opacity=".72"/>
  </g>
</svg>