<svg xmlns="http://www.w3.org/2000/svg" viewBox="0 0 900 675" role="img" aria-label="egg-based kosher meal with herbs">
  <defs>
    <radialGradient id="plate-glow" cx="50%" cy="46%" r="62%">
      <stop offset="0" stop-color="#fffdf4"/>
      <stop offset="1" stop-color="#fff9ec"/>
    </radialGradient>
    <linearGradient id="table" x1="0" y1="0" x2="1" y2="1">
      <stop offset="0" stop-color="#f5efe1"/>
      <stop offset="1" stop-color="#d3c2a4"/>
    </linearGradient>
    <filter id="soft-shadow" x="-25%" y="-25%" width="150%" height="150%">
      <feDropShadow dx="0" dy="14" stdDeviation="15" flood-color="#2d342b" flood-opacity=".28"/>
    </filter>
    <filter id="grain">
      <feTurbulence type="fractalNoise" baseFrequency=".85" numOctaves="2" seed="7469" result="noise"/>
      <feColorMatrix type="saturate" values=".12"/>
      <feComponentTransfer>
        <feFuncA type="table" tableValues="0 .12"/>
      </feComponentTransfer>
      <feBlend mode="multiply" in2="SourceGraphic"/>
    </filter>
  </defs>
  <rect width="900" height="675" fill="url(#table)"/>
  <rect width="900" height="675" filter="url(#grain)" opacity=".34"/>
  <ellipse cx="450" cy="365" rx="332" ry="222" fill="#5d4b3c" opacity=".12"/>
  <ellipse cx="450" cy="350" rx="318" ry="214" fill="url(#plate-glow)"/>
  <ellipse cx="450" cy="350" rx="260" ry="164" fill="#f6ead4"/>
  <g><circle cx="337" cy="349" r="4" fill="#f4e6bd" opacity=".82"/><circle cx="378" cy="378" r="5" fill="#ead7aa" opacity=".82"/><circle cx="419" cy="407" r="6" fill="#ead7aa" opacity=".82"/><circle cx="460" cy="436" r="7" fill="#f4e6bd" opacity=".82"/><circle cx="501" cy="280" r="8" fill="#ead7aa" opacity=".82"/><circle cx="542" cy="309" r="9" fill="#ead7aa" opacity=".82"/><circle cx="583" cy="338" r="10" fill="#f4e6bd" opacity=".82"/><circle cx="624" cy="367" r="4" fill="#ead7aa" opacity=".82"/><circle cx="255" cy="396" r="5" fill="#ead7aa" opacity=".82"/><circle cx="296" cy="425" r="6" fill="#f4e6bd" opacity=".82"/><circle cx="337" cy="454" r="7" fill="#ead7aa" opacity=".82"/><circle cx="378" cy="298" r="8" fill="#ead7aa" opacity=".82"/><circle cx="419" cy="327" r="9" fill="#f4e6bd" opacity=".82"/><circle cx="460" cy="356" r="10" fill="#ead7aa" opacity=".82"/><circle cx="501" cy="385" r="4" fill="#ead7aa" opacity=".82"/><circle cx="542" cy="414" r="5" fill="#f4e6bd" opacity=".82"/><circle cx="583" cy="443" r="6" fill="#ead7aa" opacity=".82"/><circle cx="624" cy="287" r="7" fill="#ead7aa" opacity=".82"/><circle cx="255" cy="316" r="8" fill="#f4e6bd" opacity=".82"/><circle cx="296" cy="345" r="9" fill="#ead7aa" opacity=".82"/><circle cx="337" cy="374" r="10" fill="#ead7aa" opacity=".82"/><circle cx="378" cy="403" r="4" fill="#f4e6bd" opacity=".82"/><circle cx="419" cy="432" r="5" fill="#ead7aa" opacity=".82"/><circle cx="460" cy="461" r="6" fill="#ead7aa" opacity=".82"/><circle cx="501" cy="305" r="7" fill="#f4e6bd" opacity=".82"/><circle cx="542" cy="334" r="8" fill="#ead7aa" opacity=".82"/><circle cx="583" cy="363" r="9" fill="#ead7aa" opacity=".82"/><circle cx="624" cy="392" r="10" fill="#f4e6bd" opacity=".82"/><circle cx="255" cy="421" r="4" fill="#ead7aa" opacity=".82"/><circle cx="296" cy="450" r="5" fill="#ead7aa" opacity=".82"/><circle cx="337" cy="294" r="6" fill="#f4e6bd" opacity=".82"/><circle cx="378" cy="323" r="7" fill="#ead7aa" opacity=".82"/><circle cx="419" cy="352" r="8" fill="#ead7aa" opacity=".82"/><circle cx="460" cy="381" r="9" fill="#f4e6bd" opacity=".82"/><circle cx="501" cy="410" r="10" fill="#ead7aa" opacity=".82"/><circle cx="542" cy="439" r="4" fill="#ead7aa" opacity=".82"/><circle cx="583" cy="283" r="5" fill="#f4e6bd" opacity=".82"/><circle cx="624" cy="312" r="6" fill="#ead7aa" opacity=".82"/><circle cx="255" cy="341" r="7" fill="#ead7aa" opacity=".82"/><circle cx="296" cy="370" r="8" fill="#f4e6bd" opacity=".82"/><circle cx="337" cy="399" r="9" fill="#ead7aa" opacity=".82"/><circle cx="378" cy="428" r="10" fill="#ead7aa" opacity=".82"/><circle cx="419" cy="457" r="4" fill="#f4e6bd" opacity=".82"/><circle cx="460" cy="301" r="5" fill="#ead7aa" opacity=".82"/></g>
  
  <g filter="url(#soft-shadow)">
    <ellipse cx="345" cy="330" rx="82" ry="62" fill="#fff6df"/>
    <circle cx="355" cy="330" r="30" fill="#e0a93e"/>
    <ellipse cx="515" cy="350" rx="88" ry="64" fill="#fff6df"/>
    <circle cx="505" cy="350" r="31" fill="#e0a93e"/>
    <path d="M274 423c84 23 258 19 370-12" fill="none" stroke="#f1ca61" stroke-width="18" stroke-linecap="round" opacity=".5"/>
  </g>
  <g><rect x="339" y="359" width="58" height="14" rx="7" fill="#dc8543" transform="rotate(-26 339 359)" opacity=".82"/><rect x="410" y="412" width="58" height="14" rx="7" fill="#dc8543" transform="rotate(-11 410 412)" opacity=".82"/><rect x="481" y="285" width="58" height="14" rx="7" fill="#dc8543" transform="rotate(4 481 285)" opacity=".82"/><rect x="552" y="338" width="58" height="14" rx="7" fill="#dc8543" transform="rotate(19 552 338)" opacity=".82"/><rect x="623" y="391" width="58" height="14" rx="7" fill="#dc8543" transform="rotate(34 623 391)" opacity=".82"/><rect x="324" y="444" width="58" height="14" rx="7" fill="#dc8543" transform="rotate(-26 324 444)" opacity=".82"/><rect x="395" y="317" width="58" height="14" rx="7" fill="#dc8543" transform="rotate(-11 395 317)" opacity=".82"/><ellipse cx="404" cy="444" rx="31" ry="11" fill="#7aa36d" transform="rotate(-24 404 444)" opacity=".75"/><ellipse cx="465" cy="321" rx="31" ry="11" fill="#7aa36d" transform="rotate(-6 465 321)" opacity=".75"/><ellipse cx="526" cy="368" rx="31" ry="11" fill="#7aa36d" transform="rotate(12 526 368)" opacity=".75"/><ellipse cx="587" cy="415" rx="31" ry="11" fill="#7aa36d" transform="rotate(30 587 415)" opacity=".75"/><ellipse cx="298" cy="292" rx="31" ry="11" fill="#7aa36d" transform="rotate(-24 298 292)" opacity=".75"/><ellipse cx="359" cy="339" rx="31" ry="11" fill="#7aa36d" transform="rotate(-6 359 339)" opacity=".75"/><ellipse cx="424" cy="429" rx="20" ry="8" fill="#59805b" transform="rotate(23 424 429)" opacity=".9"/><ellipse cx="491" cy="220" rx="25" ry="8" fill="#59805b" transform="rotate(-22 491 220)" opacity=".9"/><ellipse cx="558" cy="261" rx="30" ry="8" fill="#59805b" transform="rotate(1 558 261)" opacity=".9"/><ellipse cx="625" cy="302" rx="20" ry="8" fill="#59805b" transform="rotate(24 625 302)" opacity=".9"/><ellipse cx="287" cy="343" rx="25" ry="8" fill="#59805b" transform="rotate(-21 287 343)" opacity=".9"/><ellipse cx="354" cy="384" rx="30" ry="8" fill="#59805b" transform="rotate(2 354 384)" opacity=".9"/><ellipse cx="421" cy="425" rx="20" ry="8" fill="#59805b" transform="rotate(25 421 425)" opacity=".9"/><ellipse cx="488" cy="216" rx="25" ry="8" fill="#59805b" transform="rotate(-20 488 216)" opacity=".9"/><ellipse cx="555" cy="257" rx="30" ry="8" fill="#59805b" transform="rotate(3 555 257)" opacity=".9"/><ellipse cx="622" cy="298" rx="20" ry="8" fill="#59805b" transform="rotate(26 622 298)" opacity=".9"/><ellipse cx="284" cy="339" rx="25" ry="8" fill="#59805b" transform="rotate(-19 284 339)" opacity=".9"/><ellipse cx="351" cy="380" rx="30" ry="8" fill="#59805b" transform="rotate(4 351 380)" opacity=".9"/><ellipse cx="418" cy="421" rx="20" ry="8" fill="#59805b" transform="rotate(27 418 421)" opacity=".9"/></g>
  <g opacity=".95">
    <circle cx="581" cy="264" r="22" fill="#f1ca61"/>
    <path d="M581 243a22 22 0 0 1 0 44" fill="#fff3b0" opacity=".72"/>
  </g>
</svg>