<svg xmlns="http://www.w3.org/2000/svg" viewBox="0 0 900 675" role="img" aria-label="egg-based kosher meal with herbs">
  <defs>
    <radialGradient id="plate-glow" cx="50%" cy="46%" r="62%">
      <stop offset="0" stop-color="#fffdf4"/>
      <stop offset="1" stop-color="#fff9ec"/>
    </radialGradient>
    <linearGradient id="table" x1="0" y1="0" x2="1" y2="1">
      <stop offset="0" stop-color="#f5efe1"/>
      <stop offset="1" stop-color="#d3c2a4"/>
    </linearGradient>
    <filter id="soft-shadow" x="-25%" y="-25%" width="150%" height="150%">
      <feDropShadow dx="0" dy="14" stdDeviation="15" flood-color="#2d342b" flood-opacity=".28"/>
    </filter>
    <filter id="grain">
      <feTurbulence type="fractalNoise" baseFrequency=".85" numOctaves="2" seed="6984" result="noise"/>
      <feColorMatrix type="saturate" values=".12"/>
      <feComponentTransfer>
        <feFuncA type="table" tableValues="0 .12"/>
      </feComponentTransfer>
      <feBlend mode="multiply" in2="SourceGraphic"/>
    </filter>
  </defs>
  <rect width="900" height="675" fill="url(#table)"/>
  <rect width="900" height="675" filter="url(#grain)" opacity=".34"/>
  <ellipse cx="450" cy="365" rx="332" ry="222" fill="#5d4b3c" opacity=".12"/>
  <ellipse cx="450" cy="350" rx="318" ry="214" fill="url(#plate-glow)"/>
  <ellipse cx="450" cy="350" rx="260" ry="164" fill="#f6ead4"/>
  <g><circle cx="262" cy="419" r="9" fill="#f4e6bd" opacity=".82"/><circle cx="303" cy="448" r="10" fill="#ead7aa" opacity=".82"/><circle cx="344" cy="292" r="4" fill="#ead7aa" opacity=".82"/><circle cx="385" cy="321" r="5" fill="#f4e6bd" opacity=".82"/><circle cx="426" cy="350" r="6" fill="#ead7aa" opacity=".82"/><circle cx="467" cy="379" r="7" fill="#ead7aa" opacity=".82"/><circle cx="508" cy="408" r="8" fill="#f4e6bd" opacity=".82"/><circle cx="549" cy="437" r="9" fill="#ead7aa" opacity=".82"/><circle cx="590" cy="281" r="10" fill="#ead7aa" opacity=".82"/><circle cx="631" cy="310" r="4" fill="#f4e6bd" opacity=".82"/><circle cx="262" cy="339" r="5" fill="#ead7aa" opacity=".82"/><circle cx="303" cy="368" r="6" fill="#ead7aa" opacity=".82"/><circle cx="344" cy="397" r="7" fill="#f4e6bd" opacity=".82"/><circle cx="385" cy="426" r="8" fill="#ead7aa" opacity=".82"/><circle cx="426" cy="455" r="9" fill="#ead7aa" opacity=".82"/><circle cx="467" cy="299" r="10" fill="#f4e6bd" opacity=".82"/><circle cx="508" cy="328" r="4" fill="#ead7aa" opacity=".82"/><circle cx="549" cy="357" r="5" fill="#ead7aa" opacity=".82"/><circle cx="590" cy="386" r="6" fill="#f4e6bd" opacity=".82"/><circle cx="631" cy="415" r="7" fill="#ead7aa" opacity=".82"/><circle cx="262" cy="444" r="8" fill="#ead7aa" opacity=".82"/><circle cx="303" cy="288" r="9" fill="#f4e6bd" opacity=".82"/><circle cx="344" cy="317" r="10" fill="#ead7aa" opacity=".82"/><circle cx="385" cy="346" r="4" fill="#ead7aa" opacity=".82"/><circle cx="426" cy="375" r="5" fill="#f4e6bd" opacity=".82"/><circle cx="467" cy="404" r="6" fill="#ead7aa" opacity=".82"/><circle cx="508" cy="433" r="7" fill="#ead7aa" opacity=".82"/><circle cx="549" cy="462" r="8" fill="#f4e6bd" opacity=".82"/><circle cx="590" cy="306" r="9" fill="#ead7aa" opacity=".82"/><circle cx="631" cy="335" r="10" fill="#ead7aa" opacity=".82"/><circle cx="262" cy="364" r="4" fill="#f4e6bd" opacity=".82"/><circle cx="303" cy="393" r="5" fill="#ead7aa" opacity=".82"/><circle cx="344" cy="422" r="6" fill="#ead7aa" opacity=".82"/><circle cx="385" cy="451" r="7" fill="#f4e6bd" opacity=".82"/><circle cx="426" cy="295" r="8" fill="#ead7aa" opacity=".82"/><circle cx="467" cy="324" r="9" fill="#ead7aa" opacity=".82"/><circle cx="508" cy="353" r="10" fill="#f4e6bd" opacity=".82"/><circle cx="549" cy="382" r="4" fill="#ead7aa" opacity=".82"/><circle cx="590" cy="411" r="5" fill="#ead7aa" opacity=".82"/><circle cx="631" cy="440" r="6" fill="#f4e6bd" opacity=".82"/><circle cx="262" cy="284" r="7" fill="#ead7aa" opacity=".82"/><circle cx="303" cy="313" r="8" fill="#ead7aa" opacity=".82"/><circle cx="344" cy="342" r="9" fill="#f4e6bd" opacity=".82"/><circle cx="385" cy="371" r="10" fill="#ead7aa" opacity=".82"/></g>
  
  <g filter="url(#soft-shadow)">
    <ellipse cx="345" cy="330" rx="82" ry="62" fill="#fff6df"/>
    <circle cx="355" cy="330" r="30" fill="#e0a93e"/>
    <ellipse cx="515" cy="350" rx="88" ry="64" fill="#fff6df"/>
    <circle cx="505" cy="350" r="31" fill="#e0a93e"/>
    <path d="M274 423c84 23 258 19 370-12" fill="none" stroke="#f1ca61" stroke-width="18" stroke-linecap="round" opacity=".5"/>
  </g>
  <g><rect x="594" y="414" width="58" height="14" rx="7" fill="#dc8543" transform="rotate(-26 594 414)" opacity=".82"/><rect x="295" y="287" width="58" height="14" rx="7" fill="#dc8543" transform="rotate(-11 295 287)" opacity=".82"/><rect x="366" y="340" width="58" height="14" rx="7" fill="#dc8543" transform="rotate(4 366 340)" opacity=".82"/><rect x="437" y="393" width="58" height="14" rx="7" fill="#dc8543" transform="rotate(19 437 393)" opacity=".82"/><rect x="508" y="446" width="58" height="14" rx="7" fill="#dc8543" transform="rotate(34 508 446)" opacity=".82"/><rect x="579" y="319" width="58" height="14" rx="7" fill="#dc8543" transform="rotate(-26 579 319)" opacity=".82"/><rect x="280" y="372" width="58" height="14" rx="7" fill="#dc8543" transform="rotate(-11 280 372)" opacity=".82"/><ellipse cx="619" cy="299" rx="31" ry="11" fill="#7aa36d" transform="rotate(-24 619 299)" opacity=".75"/><ellipse cx="330" cy="346" rx="31" ry="11" fill="#7aa36d" transform="rotate(-6 330 346)" opacity=".75"/><ellipse cx="391" cy="393" rx="31" ry="11" fill="#7aa36d" transform="rotate(12 391 393)" opacity=".75"/><ellipse cx="452" cy="440" rx="31" ry="11" fill="#7aa36d" transform="rotate(30 452 440)" opacity=".75"/><ellipse cx="513" cy="317" rx="31" ry="11" fill="#7aa36d" transform="rotate(-24 513 317)" opacity=".75"/><ellipse cx="574" cy="364" rx="31" ry="11" fill="#7aa36d" transform="rotate(-6 574 364)" opacity=".75"/><ellipse cx="344" cy="444" rx="20" ry="8" fill="#59805b" transform="rotate(14 344 444)" opacity=".9"/><ellipse cx="411" cy="235" rx="25" ry="8" fill="#59805b" transform="rotate(-31 411 235)" opacity=".9"/><ellipse cx="478" cy="276" rx="30" ry="8" fill="#59805b" transform="rotate(-8 478 276)" opacity=".9"/><ellipse cx="545" cy="317" rx="20" ry="8" fill="#59805b" transform="rotate(15 545 317)" opacity=".9"/><ellipse cx="612" cy="358" rx="25" ry="8" fill="#59805b" transform="rotate(-30 612 358)" opacity=".9"/><ellipse cx="274" cy="399" rx="30" ry="8" fill="#59805b" transform="rotate(-7 274 399)" opacity=".9"/><ellipse cx="341" cy="440" rx="20" ry="8" fill="#59805b" transform="rotate(16 341 440)" opacity=".9"/><ellipse cx="408" cy="231" rx="25" ry="8" fill="#59805b" transform="rotate(-29 408 231)" opacity=".9"/><ellipse cx="475" cy="272" rx="30" ry="8" fill="#59805b" transform="rotate(-6 475 272)" opacity=".9"/><ellipse cx="542" cy="313" rx="20" ry="8" fill="#59805b" transform="rotate(17 542 313)" opacity=".9"/><ellipse cx="609" cy="354" rx="25" ry="8" fill="#59805b" transform="rotate(-28 609 354)" opacity=".9"/><ellipse cx="271" cy="395" rx="30" ry="8" fill="#59805b" transform="rotate(-5 271 395)" opacity=".9"/><ellipse cx="338" cy="436" rx="20" ry="8" fill="#59805b" transform="rotate(18 338 436)" opacity=".9"/></g>
  <g opacity=".95">
    <circle cx="586" cy="259" r="22" fill="#f1ca61"/>
    <path d="M586 238a22 22 0 0 1 0 44" fill="#fff3b0" opacity=".72"/>
  </g>
</svg>