<svg xmlns="http://www.w3.org/2000/svg" viewBox="0 0 900 675" role="img" aria-label="kosher lamb or duck with herbs">
  <defs>
    <radialGradient id="plate-glow" cx="50%" cy="46%" r="62%">
      <stop offset="0" stop-color="#fffdf4"/>
      <stop offset="1" stop-color="#fff7e9"/>
    </radialGradient>
    <linearGradient id="table" x1="0" y1="0" x2="1" y2="1">
      <stop offset="0" stop-color="#eee2d2"/>
      <stop offset="1" stop-color="#c7a987"/>
    </linearGradient>
    <filter id="soft-shadow" x="-25%" y="-25%" width="150%" height="150%">
      <feDropShadow dx="0" dy="14" stdDeviation="15" flood-color="#332821" flood-opacity=".28"/>
    </filter>
    <filter id="grain">
      <feTurbulence type="fractalNoise" baseFrequency=".85" numOctaves="2" seed="6402" result="noise"/>
      <feColorMatrix type="saturate" values=".12"/>
      <feComponentTransfer>
        <feFuncA type="table" tableValues="0 .12"/>
      </feComponentTransfer>
      <feBlend mode="multiply" in2="SourceGraphic"/>
    </filter>
  </defs>
  <rect width="900" height="675" fill="url(#table)"/>
  <rect width="900" height="675" filter="url(#grain)" opacity=".34"/>
  <ellipse cx="450" cy="365" rx="332" ry="222" fill="#5d4b3c" opacity=".12"/>
  <ellipse cx="450" cy="350" rx="318" ry="214" fill="url(#plate-glow)"/>
  <ellipse cx="450" cy="350" rx="260" ry="164" fill="#f6ead4"/>
  <g><circle cx="500" cy="392" r="8" fill="#f4e6bd" opacity=".82"/><circle cx="541" cy="421" r="9" fill="#dbc391" opacity=".82"/><circle cx="582" cy="450" r="10" fill="#dbc391" opacity=".82"/><circle cx="623" cy="294" r="4" fill="#f4e6bd" opacity=".82"/><circle cx="254" cy="323" r="5" fill="#dbc391" opacity=".82"/><circle cx="295" cy="352" r="6" fill="#dbc391" opacity=".82"/><circle cx="336" cy="381" r="7" fill="#f4e6bd" opacity=".82"/><circle cx="377" cy="410" r="8" fill="#dbc391" opacity=".82"/><circle cx="418" cy="439" r="9" fill="#dbc391" opacity=".82"/><circle cx="459" cy="283" r="10" fill="#f4e6bd" opacity=".82"/><circle cx="500" cy="312" r="4" fill="#dbc391" opacity=".82"/><circle cx="541" cy="341" r="5" fill="#dbc391" opacity=".82"/><circle cx="582" cy="370" r="6" fill="#f4e6bd" opacity=".82"/><circle cx="623" cy="399" r="7" fill="#dbc391" opacity=".82"/><circle cx="254" cy="428" r="8" fill="#dbc391" opacity=".82"/><circle cx="295" cy="457" r="9" fill="#f4e6bd" opacity=".82"/><circle cx="336" cy="301" r="10" fill="#dbc391" opacity=".82"/><circle cx="377" cy="330" r="4" fill="#dbc391" opacity=".82"/><circle cx="418" cy="359" r="5" fill="#f4e6bd" opacity=".82"/><circle cx="459" cy="388" r="6" fill="#dbc391" opacity=".82"/><circle cx="500" cy="417" r="7" fill="#dbc391" opacity=".82"/><circle cx="541" cy="446" r="8" fill="#f4e6bd" opacity=".82"/><circle cx="582" cy="290" r="9" fill="#dbc391" opacity=".82"/><circle cx="623" cy="319" r="10" fill="#dbc391" opacity=".82"/><circle cx="254" cy="348" r="4" fill="#f4e6bd" opacity=".82"/><circle cx="295" cy="377" r="5" fill="#dbc391" opacity=".82"/><circle cx="336" cy="406" r="6" fill="#dbc391" opacity=".82"/><circle cx="377" cy="435" r="7" fill="#f4e6bd" opacity=".82"/><circle cx="418" cy="464" r="8" fill="#dbc391" opacity=".82"/><circle cx="459" cy="308" r="9" fill="#dbc391" opacity=".82"/><circle cx="500" cy="337" r="10" fill="#f4e6bd" opacity=".82"/><circle cx="541" cy="366" r="4" fill="#dbc391" opacity=".82"/><circle cx="582" cy="395" r="5" fill="#dbc391" opacity=".82"/><circle cx="623" cy="424" r="6" fill="#f4e6bd" opacity=".82"/><circle cx="254" cy="453" r="7" fill="#dbc391" opacity=".82"/><circle cx="295" cy="297" r="8" fill="#dbc391" opacity=".82"/><circle cx="336" cy="326" r="9" fill="#f4e6bd" opacity=".82"/><circle cx="377" cy="355" r="10" fill="#dbc391" opacity=".82"/><circle cx="418" cy="384" r="4" fill="#dbc391" opacity=".82"/><circle cx="459" cy="413" r="5" fill="#f4e6bd" opacity=".82"/><circle cx="500" cy="442" r="6" fill="#dbc391" opacity=".82"/><circle cx="541" cy="286" r="7" fill="#dbc391" opacity=".82"/><circle cx="582" cy="315" r="8" fill="#f4e6bd" opacity=".82"/><circle cx="623" cy="344" r="9" fill="#dbc391" opacity=".82"/></g>
  
  <g filter="url(#soft-shadow)" fill="#8a4f3d">
    <ellipse cx="330" cy="330" rx="86" ry="54" transform="rotate(-18 330 330)"/>
    <ellipse cx="465" cy="316" rx="95" ry="58" transform="rotate(10 465 316)"/>
    <ellipse cx="560" cy="398" rx="86" ry="50" transform="rotate(-10 560 398)"/>
    <path d="M280 360c78 35 196 38 320 5" fill="none" stroke="#5d372e" stroke-width="11" stroke-linecap="round" opacity=".45"/>
  </g>
  <g><rect x="382" y="372" width="58" height="14" rx="7" fill="#dc8543" transform="rotate(-26 382 372)" opacity=".82"/><rect x="453" y="425" width="58" height="14" rx="7" fill="#dc8543" transform="rotate(-11 453 425)" opacity=".82"/><rect x="524" y="298" width="58" height="14" rx="7" fill="#dc8543" transform="rotate(4 524 298)" opacity=".82"/><rect x="595" y="351" width="58" height="14" rx="7" fill="#dc8543" transform="rotate(19 595 351)" opacity=".82"/><rect x="296" y="404" width="58" height="14" rx="7" fill="#dc8543" transform="rotate(34 296 404)" opacity=".82"/><rect x="367" y="277" width="58" height="14" rx="7" fill="#dc8543" transform="rotate(-26 367 277)" opacity=".82"/><rect x="438" y="330" width="58" height="14" rx="7" fill="#dc8543" transform="rotate(-11 438 330)" opacity=".82"/><ellipse cx="387" cy="397" rx="31" ry="11" fill="#7aa36d" transform="rotate(-24 387 397)" opacity=".75"/><ellipse cx="448" cy="444" rx="31" ry="11" fill="#7aa36d" transform="rotate(-6 448 444)" opacity=".75"/><ellipse cx="509" cy="321" rx="31" ry="11" fill="#7aa36d" transform="rotate(12 509 321)" opacity=".75"/><ellipse cx="570" cy="368" rx="31" ry="11" fill="#7aa36d" transform="rotate(30 570 368)" opacity=".75"/><ellipse cx="631" cy="415" rx="31" ry="11" fill="#7aa36d" transform="rotate(-24 631 415)" opacity=".75"/><ellipse cx="342" cy="292" rx="31" ry="11" fill="#7aa36d" transform="rotate(-6 342 292)" opacity=".75"/><ellipse cx="572" cy="362" rx="20" ry="8" fill="#52714b" transform="rotate(-24 572 362)" opacity=".9"/><ellipse cx="639" cy="403" rx="25" ry="8" fill="#52714b" transform="rotate(-1 639 403)" opacity=".9"/><ellipse cx="301" cy="444" rx="30" ry="8" fill="#52714b" transform="rotate(22 301 444)" opacity=".9"/><ellipse cx="368" cy="235" rx="20" ry="8" fill="#52714b" transform="rotate(-23 368 235)" opacity=".9"/><ellipse cx="435" cy="276" rx="25" ry="8" fill="#52714b" transform="rotate(0 435 276)" opacity=".9"/><ellipse cx="502" cy="317" rx="30" ry="8" fill="#52714b" transform="rotate(23 502 317)" opacity=".9"/><ellipse cx="569" cy="358" rx="20" ry="8" fill="#52714b" transform="rotate(-22 569 358)" opacity=".9"/><ellipse cx="636" cy="399" rx="25" ry="8" fill="#52714b" transform="rotate(1 636 399)" opacity=".9"/><ellipse cx="298" cy="440" rx="30" ry="8" fill="#52714b" transform="rotate(24 298 440)" opacity=".9"/><ellipse cx="365" cy="231" rx="20" ry="8" fill="#52714b" transform="rotate(-21 365 231)" opacity=".9"/><ellipse cx="432" cy="272" rx="25" ry="8" fill="#52714b" transform="rotate(2 432 272)" opacity=".9"/><ellipse cx="499" cy="313" rx="30" ry="8" fill="#52714b" transform="rotate(25 499 313)" opacity=".9"/><ellipse cx="566" cy="354" rx="20" ry="8" fill="#52714b" transform="rotate(-20 566 354)" opacity=".9"/></g>
  <g opacity=".95">
    <circle cx="608" cy="237" r="22" fill="#e2a94c"/>
    <path d="M608 216a22 22 0 0 1 0 44" fill="#fff3b0" opacity=".72"/>
  </g>
</svg>