<svg xmlns="http://www.w3.org/2000/svg" viewBox="0 0 900 675" role="img" aria-label="kosher lamb or duck with herbs">
  <defs>
    <radialGradient id="plate-glow" cx="50%" cy="46%" r="62%">
      <stop offset="0" stop-color="#fffdf4"/>
      <stop offset="1" stop-color="#fff7e9"/>
    </radialGradient>
    <linearGradient id="table" x1="0" y1="0" x2="1" y2="1">
      <stop offset="0" stop-color="#eee2d2"/>
      <stop offset="1" stop-color="#c7a987"/>
    </linearGradient>
    <filter id="soft-shadow" x="-25%" y="-25%" width="150%" height="150%">
      <feDropShadow dx="0" dy="14" stdDeviation="15" flood-color="#332821" flood-opacity=".28"/>
    </filter>
    <filter id="grain">
      <feTurbulence type="fractalNoise" baseFrequency=".85" numOctaves="2" seed="6499" result="noise"/>
      <feColorMatrix type="saturate" values=".12"/>
      <feComponentTransfer>
        <feFuncA type="table" tableValues="0 .12"/>
      </feComponentTransfer>
      <feBlend mode="multiply" in2="SourceGraphic"/>
    </filter>
  </defs>
  <rect width="900" height="675" fill="url(#table)"/>
  <rect width="900" height="675" filter="url(#grain)" opacity=".34"/>
  <ellipse cx="450" cy="365" rx="332" ry="222" fill="#5d4b3c" opacity=".12"/>
  <ellipse cx="450" cy="350" rx="318" ry="214" fill="url(#plate-glow)"/>
  <ellipse cx="450" cy="350" rx="260" ry="164" fill="#f6ead4"/>
  <g><circle cx="597" cy="304" r="7" fill="#f4e6bd" opacity=".82"/><circle cx="638" cy="333" r="8" fill="#dbc391" opacity=".82"/><circle cx="269" cy="362" r="9" fill="#dbc391" opacity=".82"/><circle cx="310" cy="391" r="10" fill="#f4e6bd" opacity=".82"/><circle cx="351" cy="420" r="4" fill="#dbc391" opacity=".82"/><circle cx="392" cy="449" r="5" fill="#dbc391" opacity=".82"/><circle cx="433" cy="293" r="6" fill="#f4e6bd" opacity=".82"/><circle cx="474" cy="322" r="7" fill="#dbc391" opacity=".82"/><circle cx="515" cy="351" r="8" fill="#dbc391" opacity=".82"/><circle cx="556" cy="380" r="9" fill="#f4e6bd" opacity=".82"/><circle cx="597" cy="409" r="10" fill="#dbc391" opacity=".82"/><circle cx="638" cy="438" r="4" fill="#dbc391" opacity=".82"/><circle cx="269" cy="282" r="5" fill="#f4e6bd" opacity=".82"/><circle cx="310" cy="311" r="6" fill="#dbc391" opacity=".82"/><circle cx="351" cy="340" r="7" fill="#dbc391" opacity=".82"/><circle cx="392" cy="369" r="8" fill="#f4e6bd" opacity=".82"/><circle cx="433" cy="398" r="9" fill="#dbc391" opacity=".82"/><circle cx="474" cy="427" r="10" fill="#dbc391" opacity=".82"/><circle cx="515" cy="456" r="4" fill="#f4e6bd" opacity=".82"/><circle cx="556" cy="300" r="5" fill="#dbc391" opacity=".82"/><circle cx="597" cy="329" r="6" fill="#dbc391" opacity=".82"/><circle cx="638" cy="358" r="7" fill="#f4e6bd" opacity=".82"/><circle cx="269" cy="387" r="8" fill="#dbc391" opacity=".82"/><circle cx="310" cy="416" r="9" fill="#dbc391" opacity=".82"/><circle cx="351" cy="445" r="10" fill="#f4e6bd" opacity=".82"/><circle cx="392" cy="289" r="4" fill="#dbc391" opacity=".82"/><circle cx="433" cy="318" r="5" fill="#dbc391" opacity=".82"/><circle cx="474" cy="347" r="6" fill="#f4e6bd" opacity=".82"/><circle cx="515" cy="376" r="7" fill="#dbc391" opacity=".82"/><circle cx="556" cy="405" r="8" fill="#dbc391" opacity=".82"/><circle cx="597" cy="434" r="9" fill="#f4e6bd" opacity=".82"/><circle cx="638" cy="463" r="10" fill="#dbc391" opacity=".82"/><circle cx="269" cy="307" r="4" fill="#dbc391" opacity=".82"/><circle cx="310" cy="336" r="5" fill="#f4e6bd" opacity=".82"/><circle cx="351" cy="365" r="6" fill="#dbc391" opacity=".82"/><circle cx="392" cy="394" r="7" fill="#dbc391" opacity=".82"/><circle cx="433" cy="423" r="8" fill="#f4e6bd" opacity=".82"/><circle cx="474" cy="452" r="9" fill="#dbc391" opacity=".82"/><circle cx="515" cy="296" r="10" fill="#dbc391" opacity=".82"/><circle cx="556" cy="325" r="4" fill="#f4e6bd" opacity=".82"/><circle cx="597" cy="354" r="5" fill="#dbc391" opacity=".82"/><circle cx="638" cy="383" r="6" fill="#dbc391" opacity=".82"/><circle cx="269" cy="412" r="7" fill="#f4e6bd" opacity=".82"/><circle cx="310" cy="441" r="8" fill="#dbc391" opacity=".82"/></g>
  
  <g filter="url(#soft-shadow)" fill="#8a4f3d">
    <ellipse cx="330" cy="330" rx="86" ry="54" transform="rotate(-18 330 330)"/>
    <ellipse cx="465" cy="316" rx="95" ry="58" transform="rotate(10 465 316)"/>
    <ellipse cx="560" cy="398" rx="86" ry="50" transform="rotate(-10 560 398)"/>
    <path d="M280 360c78 35 196 38 320 5" fill="none" stroke="#5d372e" stroke-width="11" stroke-linecap="round" opacity=".45"/>
  </g>
  <g><rect x="479" y="289" width="58" height="14" rx="7" fill="#dc8543" transform="rotate(-26 479 289)" opacity=".82"/><rect x="550" y="342" width="58" height="14" rx="7" fill="#dc8543" transform="rotate(-11 550 342)" opacity=".82"/><rect x="621" y="395" width="58" height="14" rx="7" fill="#dc8543" transform="rotate(4 621 395)" opacity=".82"/><rect x="322" y="448" width="58" height="14" rx="7" fill="#dc8543" transform="rotate(19 322 448)" opacity=".82"/><rect x="393" y="321" width="58" height="14" rx="7" fill="#dc8543" transform="rotate(34 393 321)" opacity=".82"/><rect x="464" y="374" width="58" height="14" rx="7" fill="#dc8543" transform="rotate(-26 464 374)" opacity=".82"/><rect x="535" y="427" width="58" height="14" rx="7" fill="#dc8543" transform="rotate(-11 535 427)" opacity=".82"/><ellipse cx="484" cy="324" rx="31" ry="11" fill="#7aa36d" transform="rotate(-24 484 324)" opacity=".75"/><ellipse cx="545" cy="371" rx="31" ry="11" fill="#7aa36d" transform="rotate(-6 545 371)" opacity=".75"/><ellipse cx="606" cy="418" rx="31" ry="11" fill="#7aa36d" transform="rotate(12 606 418)" opacity=".75"/><ellipse cx="317" cy="295" rx="31" ry="11" fill="#7aa36d" transform="rotate(30 317 295)" opacity=".75"/><ellipse cx="378" cy="342" rx="31" ry="11" fill="#7aa36d" transform="rotate(-24 378 342)" opacity=".75"/><ellipse cx="439" cy="389" rx="31" ry="11" fill="#7aa36d" transform="rotate(-6 439 389)" opacity=".75"/><ellipse cx="264" cy="459" rx="20" ry="8" fill="#52714b" transform="rotate(5 264 459)" opacity=".9"/><ellipse cx="331" cy="250" rx="25" ry="8" fill="#52714b" transform="rotate(28 331 250)" opacity=".9"/><ellipse cx="398" cy="291" rx="30" ry="8" fill="#52714b" transform="rotate(-17 398 291)" opacity=".9"/><ellipse cx="465" cy="332" rx="20" ry="8" fill="#52714b" transform="rotate(6 465 332)" opacity=".9"/><ellipse cx="532" cy="373" rx="25" ry="8" fill="#52714b" transform="rotate(29 532 373)" opacity=".9"/><ellipse cx="599" cy="414" rx="30" ry="8" fill="#52714b" transform="rotate(-16 599 414)" opacity=".9"/><ellipse cx="261" cy="455" rx="20" ry="8" fill="#52714b" transform="rotate(7 261 455)" opacity=".9"/><ellipse cx="328" cy="246" rx="25" ry="8" fill="#52714b" transform="rotate(30 328 246)" opacity=".9"/><ellipse cx="395" cy="287" rx="30" ry="8" fill="#52714b" transform="rotate(-15 395 287)" opacity=".9"/><ellipse cx="462" cy="328" rx="20" ry="8" fill="#52714b" transform="rotate(8 462 328)" opacity=".9"/><ellipse cx="529" cy="369" rx="25" ry="8" fill="#52714b" transform="rotate(31 529 369)" opacity=".9"/><ellipse cx="596" cy="410" rx="30" ry="8" fill="#52714b" transform="rotate(-14 596 410)" opacity=".9"/><ellipse cx="258" cy="451" rx="20" ry="8" fill="#52714b" transform="rotate(9 258 451)" opacity=".9"/></g>
  <g opacity=".95">
    <circle cx="591" cy="254" r="22" fill="#e2a94c"/>
    <path d="M591 233a22 22 0 0 1 0 44" fill="#fff3b0" opacity=".72"/>
  </g>
</svg>