<svg xmlns="http://www.w3.org/2000/svg" viewBox="0 0 900 675" role="img" aria-label="legume bowls with warm spices">
  <defs>
    <radialGradient id="plate-glow" cx="50%" cy="46%" r="62%">
      <stop offset="0" stop-color="#fffdf4"/>
      <stop offset="1" stop-color="#fff8ec"/>
    </radialGradient>
    <linearGradient id="table" x1="0" y1="0" x2="1" y2="1">
      <stop offset="0" stop-color="#f1ead8"/>
      <stop offset="1" stop-color="#cdb896"/>
    </linearGradient>
    <filter id="soft-shadow" x="-25%" y="-25%" width="150%" height="150%">
      <feDropShadow dx="0" dy="14" stdDeviation="15" flood-color="#322d24" flood-opacity=".28"/>
    </filter>
    <filter id="grain">
      <feTurbulence type="fractalNoise" baseFrequency=".85" numOctaves="2" seed="8633" result="noise"/>
      <feColorMatrix type="saturate" values=".12"/>
      <feComponentTransfer>
        <feFuncA type="table" tableValues="0 .12"/>
      </feComponentTransfer>
      <feBlend mode="multiply" in2="SourceGraphic"/>
    </filter>
  </defs>
  <rect width="900" height="675" fill="url(#table)"/>
  <rect width="900" height="675" filter="url(#grain)" opacity=".34"/>
  <ellipse cx="450" cy="365" rx="332" ry="222" fill="#5d4b3c" opacity=".12"/>
  <ellipse cx="450" cy="350" rx="318" ry="214" fill="url(#plate-glow)"/>
  <ellipse cx="450" cy="350" rx="260" ry="164" fill="#f6ead4"/>
  <g><circle cx="271" cy="403" r="6" fill="#f4e6bd" opacity=".82"/><circle cx="312" cy="432" r="7" fill="#e5d19b" opacity=".82"/><circle cx="353" cy="461" r="8" fill="#e5d19b" opacity=".82"/><circle cx="394" cy="305" r="9" fill="#f4e6bd" opacity=".82"/><circle cx="435" cy="334" r="10" fill="#e5d19b" opacity=".82"/><circle cx="476" cy="363" r="4" fill="#e5d19b" opacity=".82"/><circle cx="517" cy="392" r="5" fill="#f4e6bd" opacity=".82"/><circle cx="558" cy="421" r="6" fill="#e5d19b" opacity=".82"/><circle cx="599" cy="450" r="7" fill="#e5d19b" opacity=".82"/><circle cx="640" cy="294" r="8" fill="#f4e6bd" opacity=".82"/><circle cx="271" cy="323" r="9" fill="#e5d19b" opacity=".82"/><circle cx="312" cy="352" r="10" fill="#e5d19b" opacity=".82"/><circle cx="353" cy="381" r="4" fill="#f4e6bd" opacity=".82"/><circle cx="394" cy="410" r="5" fill="#e5d19b" opacity=".82"/><circle cx="435" cy="439" r="6" fill="#e5d19b" opacity=".82"/><circle cx="476" cy="283" r="7" fill="#f4e6bd" opacity=".82"/><circle cx="517" cy="312" r="8" fill="#e5d19b" opacity=".82"/><circle cx="558" cy="341" r="9" fill="#e5d19b" opacity=".82"/><circle cx="599" cy="370" r="10" fill="#f4e6bd" opacity=".82"/><circle cx="640" cy="399" r="4" fill="#e5d19b" opacity=".82"/><circle cx="271" cy="428" r="5" fill="#e5d19b" opacity=".82"/><circle cx="312" cy="457" r="6" fill="#f4e6bd" opacity=".82"/><circle cx="353" cy="301" r="7" fill="#e5d19b" opacity=".82"/><circle cx="394" cy="330" r="8" fill="#e5d19b" opacity=".82"/><circle cx="435" cy="359" r="9" fill="#f4e6bd" opacity=".82"/><circle cx="476" cy="388" r="10" fill="#e5d19b" opacity=".82"/><circle cx="517" cy="417" r="4" fill="#e5d19b" opacity=".82"/><circle cx="558" cy="446" r="5" fill="#f4e6bd" opacity=".82"/><circle cx="599" cy="290" r="6" fill="#e5d19b" opacity=".82"/><circle cx="640" cy="319" r="7" fill="#e5d19b" opacity=".82"/><circle cx="271" cy="348" r="8" fill="#f4e6bd" opacity=".82"/><circle cx="312" cy="377" r="9" fill="#e5d19b" opacity=".82"/><circle cx="353" cy="406" r="10" fill="#e5d19b" opacity=".82"/><circle cx="394" cy="435" r="4" fill="#f4e6bd" opacity=".82"/><circle cx="435" cy="464" r="5" fill="#e5d19b" opacity=".82"/><circle cx="476" cy="308" r="6" fill="#e5d19b" opacity=".82"/><circle cx="517" cy="337" r="7" fill="#f4e6bd" opacity=".82"/><circle cx="558" cy="366" r="8" fill="#e5d19b" opacity=".82"/><circle cx="599" cy="395" r="9" fill="#e5d19b" opacity=".82"/><circle cx="640" cy="424" r="10" fill="#f4e6bd" opacity=".82"/><circle cx="271" cy="453" r="4" fill="#e5d19b" opacity=".82"/><circle cx="312" cy="297" r="5" fill="#e5d19b" opacity=".82"/><circle cx="353" cy="326" r="6" fill="#f4e6bd" opacity=".82"/><circle cx="394" cy="355" r="7" fill="#e5d19b" opacity=".82"/></g>
  
  <g filter="url(#soft-shadow)" fill="#c5894d">
    <circle cx="563" cy="448" r="15"/><circle cx="300" cy="319" r="16"/><circle cx="347" cy="350" r="17"/><circle cx="394" cy="381" r="18"/><circle cx="441" cy="412" r="19"/><circle cx="488" cy="443" r="20"/><circle cx="535" cy="314" r="21"/><circle cx="582" cy="345" r="13"/><circle cx="319" cy="376" r="14"/><circle cx="366" cy="407" r="15"/><circle cx="413" cy="438" r="16"/><circle cx="460" cy="309" r="17"/><circle cx="507" cy="340" r="18"/><circle cx="554" cy="371" r="19"/><circle cx="601" cy="402" r="20"/><circle cx="338" cy="433" r="21"/><circle cx="385" cy="304" r="13"/><circle cx="432" cy="335" r="14"/><circle cx="479" cy="366" r="15"/><circle cx="526" cy="397" r="16"/><circle cx="573" cy="428" r="17"/><circle cx="310" cy="299" r="18"/>
  </g>
  <g><rect x="393" y="443" width="58" height="14" rx="7" fill="#dc8543" transform="rotate(-26 393 443)" opacity=".82"/><rect x="464" y="316" width="58" height="14" rx="7" fill="#dc8543" transform="rotate(-11 464 316)" opacity=".82"/><rect x="535" y="369" width="58" height="14" rx="7" fill="#dc8543" transform="rotate(4 535 369)" opacity=".82"/><rect x="606" y="422" width="58" height="14" rx="7" fill="#dc8543" transform="rotate(19 606 422)" opacity=".82"/><rect x="307" y="295" width="58" height="14" rx="7" fill="#dc8543" transform="rotate(34 307 295)" opacity=".82"/><rect x="378" y="348" width="58" height="14" rx="7" fill="#dc8543" transform="rotate(-26 378 348)" opacity=".82"/><rect x="449" y="401" width="58" height="14" rx="7" fill="#dc8543" transform="rotate(-11 449 401)" opacity=".82"/><ellipse cx="518" cy="418" rx="31" ry="11" fill="#7aa36d" transform="rotate(-24 518 418)" opacity=".75"/><ellipse cx="579" cy="295" rx="31" ry="11" fill="#7aa36d" transform="rotate(-6 579 295)" opacity=".75"/><ellipse cx="290" cy="342" rx="31" ry="11" fill="#7aa36d" transform="rotate(12 290 342)" opacity=".75"/><ellipse cx="351" cy="389" rx="31" ry="11" fill="#7aa36d" transform="rotate(30 351 389)" opacity=".75"/><ellipse cx="412" cy="436" rx="31" ry="11" fill="#7aa36d" transform="rotate(-24 412 436)" opacity=".75"/><ellipse cx="473" cy="313" rx="31" ry="11" fill="#7aa36d" transform="rotate(-6 473 313)" opacity=".75"/><ellipse cx="373" cy="343" rx="20" ry="8" fill="#56764f" transform="rotate(31 373 343)" opacity=".9"/><ellipse cx="440" cy="384" rx="25" ry="8" fill="#56764f" transform="rotate(-14 440 384)" opacity=".9"/><ellipse cx="507" cy="425" rx="30" ry="8" fill="#56764f" transform="rotate(9 507 425)" opacity=".9"/><ellipse cx="574" cy="216" rx="20" ry="8" fill="#56764f" transform="rotate(32 574 216)" opacity=".9"/><ellipse cx="641" cy="257" rx="25" ry="8" fill="#56764f" transform="rotate(-13 641 257)" opacity=".9"/><ellipse cx="303" cy="298" rx="30" ry="8" fill="#56764f" transform="rotate(10 303 298)" opacity=".9"/><ellipse cx="370" cy="339" rx="20" ry="8" fill="#56764f" transform="rotate(33 370 339)" opacity=".9"/><ellipse cx="437" cy="380" rx="25" ry="8" fill="#56764f" transform="rotate(-12 437 380)" opacity=".9"/><ellipse cx="504" cy="421" rx="30" ry="8" fill="#56764f" transform="rotate(11 504 421)" opacity=".9"/><ellipse cx="571" cy="212" rx="20" ry="8" fill="#56764f" transform="rotate(-34 571 212)" opacity=".9"/><ellipse cx="638" cy="253" rx="25" ry="8" fill="#56764f" transform="rotate(-11 638 253)" opacity=".9"/><ellipse cx="300" cy="294" rx="30" ry="8" fill="#56764f" transform="rotate(12 300 294)" opacity=".9"/><ellipse cx="367" cy="335" rx="20" ry="8" fill="#56764f" transform="rotate(-33 367 335)" opacity=".9"/></g>
  <g opacity=".95">
    <circle cx="537" cy="268" r="22" fill="#deb04d"/>
    <path d="M537 247a22 22 0 0 1 0 44" fill="#fff3b0" opacity=".72"/>
  </g>
</svg>