<svg xmlns="http://www.w3.org/2000/svg" viewBox="0 0 900 675" role="img" aria-label="legume bowls with warm spices">
  <defs>
    <radialGradient id="plate-glow" cx="50%" cy="46%" r="62%">
      <stop offset="0" stop-color="#fffdf4"/>
      <stop offset="1" stop-color="#fff8ec"/>
    </radialGradient>
    <linearGradient id="table" x1="0" y1="0" x2="1" y2="1">
      <stop offset="0" stop-color="#f1ead8"/>
      <stop offset="1" stop-color="#cdb896"/>
    </linearGradient>
    <filter id="soft-shadow" x="-25%" y="-25%" width="150%" height="150%">
      <feDropShadow dx="0" dy="14" stdDeviation="15" flood-color="#322d24" flood-opacity=".28"/>
    </filter>
    <filter id="grain">
      <feTurbulence type="fractalNoise" baseFrequency=".85" numOctaves="2" seed="8924" result="noise"/>
      <feColorMatrix type="saturate" values=".12"/>
      <feComponentTransfer>
        <feFuncA type="table" tableValues="0 .12"/>
      </feComponentTransfer>
      <feBlend mode="multiply" in2="SourceGraphic"/>
    </filter>
  </defs>
  <rect width="900" height="675" fill="url(#table)"/>
  <rect width="900" height="675" filter="url(#grain)" opacity=".34"/>
  <ellipse cx="450" cy="365" rx="332" ry="222" fill="#5d4b3c" opacity=".12"/>
  <ellipse cx="450" cy="350" rx="318" ry="214" fill="url(#plate-glow)"/>
  <ellipse cx="450" cy="350" rx="260" ry="164" fill="#f6ead4"/>
  <g><circle cx="562" cy="324" r="10" fill="#f4e6bd" opacity=".82"/><circle cx="603" cy="353" r="4" fill="#e5d19b" opacity=".82"/><circle cx="644" cy="382" r="5" fill="#e5d19b" opacity=".82"/><circle cx="275" cy="411" r="6" fill="#f4e6bd" opacity=".82"/><circle cx="316" cy="440" r="7" fill="#e5d19b" opacity=".82"/><circle cx="357" cy="284" r="8" fill="#e5d19b" opacity=".82"/><circle cx="398" cy="313" r="9" fill="#f4e6bd" opacity=".82"/><circle cx="439" cy="342" r="10" fill="#e5d19b" opacity=".82"/><circle cx="480" cy="371" r="4" fill="#e5d19b" opacity=".82"/><circle cx="521" cy="400" r="5" fill="#f4e6bd" opacity=".82"/><circle cx="562" cy="429" r="6" fill="#e5d19b" opacity=".82"/><circle cx="603" cy="458" r="7" fill="#e5d19b" opacity=".82"/><circle cx="644" cy="302" r="8" fill="#f4e6bd" opacity=".82"/><circle cx="275" cy="331" r="9" fill="#e5d19b" opacity=".82"/><circle cx="316" cy="360" r="10" fill="#e5d19b" opacity=".82"/><circle cx="357" cy="389" r="4" fill="#f4e6bd" opacity=".82"/><circle cx="398" cy="418" r="5" fill="#e5d19b" opacity=".82"/><circle cx="439" cy="447" r="6" fill="#e5d19b" opacity=".82"/><circle cx="480" cy="291" r="7" fill="#f4e6bd" opacity=".82"/><circle cx="521" cy="320" r="8" fill="#e5d19b" opacity=".82"/><circle cx="562" cy="349" r="9" fill="#e5d19b" opacity=".82"/><circle cx="603" cy="378" r="10" fill="#f4e6bd" opacity=".82"/><circle cx="644" cy="407" r="4" fill="#e5d19b" opacity=".82"/><circle cx="275" cy="436" r="5" fill="#e5d19b" opacity=".82"/><circle cx="316" cy="280" r="6" fill="#f4e6bd" opacity=".82"/><circle cx="357" cy="309" r="7" fill="#e5d19b" opacity=".82"/><circle cx="398" cy="338" r="8" fill="#e5d19b" opacity=".82"/><circle cx="439" cy="367" r="9" fill="#f4e6bd" opacity=".82"/><circle cx="480" cy="396" r="10" fill="#e5d19b" opacity=".82"/><circle cx="521" cy="425" r="4" fill="#e5d19b" opacity=".82"/><circle cx="562" cy="454" r="5" fill="#f4e6bd" opacity=".82"/><circle cx="603" cy="298" r="6" fill="#e5d19b" opacity=".82"/><circle cx="644" cy="327" r="7" fill="#e5d19b" opacity=".82"/><circle cx="275" cy="356" r="8" fill="#f4e6bd" opacity=".82"/><circle cx="316" cy="385" r="9" fill="#e5d19b" opacity=".82"/><circle cx="357" cy="414" r="10" fill="#e5d19b" opacity=".82"/><circle cx="398" cy="443" r="4" fill="#f4e6bd" opacity=".82"/><circle cx="439" cy="287" r="5" fill="#e5d19b" opacity=".82"/><circle cx="480" cy="316" r="6" fill="#e5d19b" opacity=".82"/><circle cx="521" cy="345" r="7" fill="#f4e6bd" opacity=".82"/><circle cx="562" cy="374" r="8" fill="#e5d19b" opacity=".82"/><circle cx="603" cy="403" r="9" fill="#e5d19b" opacity=".82"/><circle cx="644" cy="432" r="10" fill="#f4e6bd" opacity=".82"/><circle cx="275" cy="461" r="4" fill="#e5d19b" opacity=".82"/></g>
  
  <g filter="url(#soft-shadow)" fill="#c5894d">
    <circle cx="544" cy="419" r="18"/><circle cx="591" cy="450" r="19"/><circle cx="328" cy="321" r="20"/><circle cx="375" cy="352" r="21"/><circle cx="422" cy="383" r="13"/><circle cx="469" cy="414" r="14"/><circle cx="516" cy="445" r="15"/><circle cx="563" cy="316" r="16"/><circle cx="300" cy="347" r="17"/><circle cx="347" cy="378" r="18"/><circle cx="394" cy="409" r="19"/><circle cx="441" cy="440" r="20"/><circle cx="488" cy="311" r="21"/><circle cx="535" cy="342" r="13"/><circle cx="582" cy="373" r="14"/><circle cx="319" cy="404" r="15"/><circle cx="366" cy="435" r="16"/><circle cx="413" cy="306" r="17"/><circle cx="460" cy="337" r="18"/><circle cx="507" cy="368" r="19"/><circle cx="554" cy="399" r="20"/><circle cx="601" cy="430" r="21"/>
  </g>
  <g><rect x="314" y="374" width="58" height="14" rx="7" fill="#dc8543" transform="rotate(-26 314 374)" opacity=".82"/><rect x="385" y="427" width="58" height="14" rx="7" fill="#dc8543" transform="rotate(-11 385 427)" opacity=".82"/><rect x="456" y="300" width="58" height="14" rx="7" fill="#dc8543" transform="rotate(4 456 300)" opacity=".82"/><rect x="527" y="353" width="58" height="14" rx="7" fill="#dc8543" transform="rotate(19 527 353)" opacity=".82"/><rect x="598" y="406" width="58" height="14" rx="7" fill="#dc8543" transform="rotate(34 598 406)" opacity=".82"/><rect x="299" y="279" width="58" height="14" rx="7" fill="#dc8543" transform="rotate(-26 299 279)" opacity=".82"/><rect x="370" y="332" width="58" height="14" rx="7" fill="#dc8543" transform="rotate(-11 370 332)" opacity=".82"/><ellipse cx="459" cy="369" rx="31" ry="11" fill="#7aa36d" transform="rotate(-24 459 369)" opacity=".75"/><ellipse cx="520" cy="416" rx="31" ry="11" fill="#7aa36d" transform="rotate(-6 520 416)" opacity=".75"/><ellipse cx="581" cy="293" rx="31" ry="11" fill="#7aa36d" transform="rotate(12 581 293)" opacity=".75"/><ellipse cx="292" cy="340" rx="31" ry="11" fill="#7aa36d" transform="rotate(30 292 340)" opacity=".75"/><ellipse cx="353" cy="387" rx="31" ry="11" fill="#7aa36d" transform="rotate(-24 353 387)" opacity=".75"/><ellipse cx="414" cy="434" rx="31" ry="11" fill="#7aa36d" transform="rotate(-6 414 434)" opacity=".75"/><ellipse cx="259" cy="384" rx="20" ry="8" fill="#56764f" transform="rotate(-18 259 384)" opacity=".9"/><ellipse cx="326" cy="425" rx="25" ry="8" fill="#56764f" transform="rotate(5 326 425)" opacity=".9"/><ellipse cx="393" cy="216" rx="30" ry="8" fill="#56764f" transform="rotate(28 393 216)" opacity=".9"/><ellipse cx="460" cy="257" rx="20" ry="8" fill="#56764f" transform="rotate(-17 460 257)" opacity=".9"/><ellipse cx="527" cy="298" rx="25" ry="8" fill="#56764f" transform="rotate(6 527 298)" opacity=".9"/><ellipse cx="594" cy="339" rx="30" ry="8" fill="#56764f" transform="rotate(29 594 339)" opacity=".9"/><ellipse cx="256" cy="380" rx="20" ry="8" fill="#56764f" transform="rotate(-16 256 380)" opacity=".9"/><ellipse cx="323" cy="421" rx="25" ry="8" fill="#56764f" transform="rotate(7 323 421)" opacity=".9"/><ellipse cx="390" cy="212" rx="30" ry="8" fill="#56764f" transform="rotate(30 390 212)" opacity=".9"/><ellipse cx="457" cy="253" rx="20" ry="8" fill="#56764f" transform="rotate(-15 457 253)" opacity=".9"/><ellipse cx="524" cy="294" rx="25" ry="8" fill="#56764f" transform="rotate(8 524 294)" opacity=".9"/><ellipse cx="591" cy="335" rx="30" ry="8" fill="#56764f" transform="rotate(31 591 335)" opacity=".9"/><ellipse cx="253" cy="376" rx="20" ry="8" fill="#56764f" transform="rotate(-14 253 376)" opacity=".9"/></g>
  <g opacity=".95">
    <circle cx="566" cy="239" r="22" fill="#deb04d"/>
    <path d="M566 218a22 22 0 0 1 0 44" fill="#fff3b0" opacity=".72"/>
  </g>
</svg>