<svg xmlns="http://www.w3.org/2000/svg" viewBox="0 0 900 675" role="img" aria-label="legume bowls with warm spices">
  <defs>
    <radialGradient id="plate-glow" cx="50%" cy="46%" r="62%">
      <stop offset="0" stop-color="#fffdf4"/>
      <stop offset="1" stop-color="#fff8ec"/>
    </radialGradient>
    <linearGradient id="table" x1="0" y1="0" x2="1" y2="1">
      <stop offset="0" stop-color="#f1ead8"/>
      <stop offset="1" stop-color="#cdb896"/>
    </linearGradient>
    <filter id="soft-shadow" x="-25%" y="-25%" width="150%" height="150%">
      <feDropShadow dx="0" dy="14" stdDeviation="15" flood-color="#322d24" flood-opacity=".28"/>
    </filter>
    <filter id="grain">
      <feTurbulence type="fractalNoise" baseFrequency=".85" numOctaves="2" seed="8342" result="noise"/>
      <feColorMatrix type="saturate" values=".12"/>
      <feComponentTransfer>
        <feFuncA type="table" tableValues="0 .12"/>
      </feComponentTransfer>
      <feBlend mode="multiply" in2="SourceGraphic"/>
    </filter>
  </defs>
  <rect width="900" height="675" fill="url(#table)"/>
  <rect width="900" height="675" filter="url(#grain)" opacity=".34"/>
  <ellipse cx="450" cy="365" rx="332" ry="222" fill="#5d4b3c" opacity=".12"/>
  <ellipse cx="450" cy="350" rx="318" ry="214" fill="url(#plate-glow)"/>
  <ellipse cx="450" cy="350" rx="260" ry="164" fill="#f6ead4"/>
  <g><circle cx="390" cy="297" r="9" fill="#f4e6bd" opacity=".82"/><circle cx="431" cy="326" r="10" fill="#e5d19b" opacity=".82"/><circle cx="472" cy="355" r="4" fill="#e5d19b" opacity=".82"/><circle cx="513" cy="384" r="5" fill="#f4e6bd" opacity=".82"/><circle cx="554" cy="413" r="6" fill="#e5d19b" opacity=".82"/><circle cx="595" cy="442" r="7" fill="#e5d19b" opacity=".82"/><circle cx="636" cy="286" r="8" fill="#f4e6bd" opacity=".82"/><circle cx="267" cy="315" r="9" fill="#e5d19b" opacity=".82"/><circle cx="308" cy="344" r="10" fill="#e5d19b" opacity=".82"/><circle cx="349" cy="373" r="4" fill="#f4e6bd" opacity=".82"/><circle cx="390" cy="402" r="5" fill="#e5d19b" opacity=".82"/><circle cx="431" cy="431" r="6" fill="#e5d19b" opacity=".82"/><circle cx="472" cy="460" r="7" fill="#f4e6bd" opacity=".82"/><circle cx="513" cy="304" r="8" fill="#e5d19b" opacity=".82"/><circle cx="554" cy="333" r="9" fill="#e5d19b" opacity=".82"/><circle cx="595" cy="362" r="10" fill="#f4e6bd" opacity=".82"/><circle cx="636" cy="391" r="4" fill="#e5d19b" opacity=".82"/><circle cx="267" cy="420" r="5" fill="#e5d19b" opacity=".82"/><circle cx="308" cy="449" r="6" fill="#f4e6bd" opacity=".82"/><circle cx="349" cy="293" r="7" fill="#e5d19b" opacity=".82"/><circle cx="390" cy="322" r="8" fill="#e5d19b" opacity=".82"/><circle cx="431" cy="351" r="9" fill="#f4e6bd" opacity=".82"/><circle cx="472" cy="380" r="10" fill="#e5d19b" opacity=".82"/><circle cx="513" cy="409" r="4" fill="#e5d19b" opacity=".82"/><circle cx="554" cy="438" r="5" fill="#f4e6bd" opacity=".82"/><circle cx="595" cy="282" r="6" fill="#e5d19b" opacity=".82"/><circle cx="636" cy="311" r="7" fill="#e5d19b" opacity=".82"/><circle cx="267" cy="340" r="8" fill="#f4e6bd" opacity=".82"/><circle cx="308" cy="369" r="9" fill="#e5d19b" opacity=".82"/><circle cx="349" cy="398" r="10" fill="#e5d19b" opacity=".82"/><circle cx="390" cy="427" r="4" fill="#f4e6bd" opacity=".82"/><circle cx="431" cy="456" r="5" fill="#e5d19b" opacity=".82"/><circle cx="472" cy="300" r="6" fill="#e5d19b" opacity=".82"/><circle cx="513" cy="329" r="7" fill="#f4e6bd" opacity=".82"/><circle cx="554" cy="358" r="8" fill="#e5d19b" opacity=".82"/><circle cx="595" cy="387" r="9" fill="#e5d19b" opacity=".82"/><circle cx="636" cy="416" r="10" fill="#f4e6bd" opacity=".82"/><circle cx="267" cy="445" r="4" fill="#e5d19b" opacity=".82"/><circle cx="308" cy="289" r="5" fill="#e5d19b" opacity=".82"/><circle cx="349" cy="318" r="6" fill="#f4e6bd" opacity=".82"/><circle cx="390" cy="347" r="7" fill="#e5d19b" opacity=".82"/><circle cx="431" cy="376" r="8" fill="#e5d19b" opacity=".82"/><circle cx="472" cy="405" r="9" fill="#f4e6bd" opacity=".82"/><circle cx="513" cy="434" r="10" fill="#e5d19b" opacity=".82"/></g>
  
  <g filter="url(#soft-shadow)" fill="#c5894d">
    <circle cx="582" cy="317" r="21"/><circle cx="319" cy="348" r="13"/><circle cx="366" cy="379" r="14"/><circle cx="413" cy="410" r="15"/><circle cx="460" cy="441" r="16"/><circle cx="507" cy="312" r="17"/><circle cx="554" cy="343" r="18"/><circle cx="601" cy="374" r="19"/><circle cx="338" cy="405" r="20"/><circle cx="385" cy="436" r="21"/><circle cx="432" cy="307" r="13"/><circle cx="479" cy="338" r="14"/><circle cx="526" cy="369" r="15"/><circle cx="573" cy="400" r="16"/><circle cx="310" cy="431" r="17"/><circle cx="357" cy="302" r="18"/><circle cx="404" cy="333" r="19"/><circle cx="451" cy="364" r="20"/><circle cx="498" cy="395" r="21"/><circle cx="545" cy="426" r="13"/><circle cx="592" cy="297" r="14"/><circle cx="329" cy="328" r="15"/>
  </g>
  <g><rect x="472" y="332" width="58" height="14" rx="7" fill="#dc8543" transform="rotate(-26 472 332)" opacity=".82"/><rect x="543" y="385" width="58" height="14" rx="7" fill="#dc8543" transform="rotate(-11 543 385)" opacity=".82"/><rect x="614" y="438" width="58" height="14" rx="7" fill="#dc8543" transform="rotate(4 614 438)" opacity=".82"/><rect x="315" y="311" width="58" height="14" rx="7" fill="#dc8543" transform="rotate(19 315 311)" opacity=".82"/><rect x="386" y="364" width="58" height="14" rx="7" fill="#dc8543" transform="rotate(34 386 364)" opacity=".82"/><rect x="457" y="417" width="58" height="14" rx="7" fill="#dc8543" transform="rotate(-26 457 417)" opacity=".82"/><rect x="528" y="290" width="58" height="14" rx="7" fill="#dc8543" transform="rotate(-11 528 290)" opacity=".82"/><ellipse cx="577" cy="297" rx="31" ry="11" fill="#7aa36d" transform="rotate(-24 577 297)" opacity=".75"/><ellipse cx="288" cy="344" rx="31" ry="11" fill="#7aa36d" transform="rotate(-6 288 344)" opacity=".75"/><ellipse cx="349" cy="391" rx="31" ry="11" fill="#7aa36d" transform="rotate(12 349 391)" opacity=".75"/><ellipse cx="410" cy="438" rx="31" ry="11" fill="#7aa36d" transform="rotate(30 410 438)" opacity=".75"/><ellipse cx="471" cy="315" rx="31" ry="11" fill="#7aa36d" transform="rotate(-24 471 315)" opacity=".75"/><ellipse cx="532" cy="362" rx="31" ry="11" fill="#7aa36d" transform="rotate(-6 532 362)" opacity=".75"/><ellipse cx="487" cy="302" rx="20" ry="8" fill="#56764f" transform="rotate(12 487 302)" opacity=".9"/><ellipse cx="554" cy="343" rx="25" ry="8" fill="#56764f" transform="rotate(-33 554 343)" opacity=".9"/><ellipse cx="621" cy="384" rx="30" ry="8" fill="#56764f" transform="rotate(-10 621 384)" opacity=".9"/><ellipse cx="283" cy="425" rx="20" ry="8" fill="#56764f" transform="rotate(13 283 425)" opacity=".9"/><ellipse cx="350" cy="216" rx="25" ry="8" fill="#56764f" transform="rotate(-32 350 216)" opacity=".9"/><ellipse cx="417" cy="257" rx="30" ry="8" fill="#56764f" transform="rotate(-9 417 257)" opacity=".9"/><ellipse cx="484" cy="298" rx="20" ry="8" fill="#56764f" transform="rotate(14 484 298)" opacity=".9"/><ellipse cx="551" cy="339" rx="25" ry="8" fill="#56764f" transform="rotate(-31 551 339)" opacity=".9"/><ellipse cx="618" cy="380" rx="30" ry="8" fill="#56764f" transform="rotate(-8 618 380)" opacity=".9"/><ellipse cx="280" cy="421" rx="20" ry="8" fill="#56764f" transform="rotate(15 280 421)" opacity=".9"/><ellipse cx="347" cy="212" rx="25" ry="8" fill="#56764f" transform="rotate(-30 347 212)" opacity=".9"/><ellipse cx="414" cy="253" rx="30" ry="8" fill="#56764f" transform="rotate(-7 414 253)" opacity=".9"/><ellipse cx="481" cy="294" rx="20" ry="8" fill="#56764f" transform="rotate(16 481 294)" opacity=".9"/></g>
  <g opacity=".95">
    <circle cx="588" cy="257" r="22" fill="#deb04d"/>
    <path d="M588 236a22 22 0 0 1 0 44" fill="#fff3b0" opacity=".72"/>
  </g>
</svg>