<svg xmlns="http://www.w3.org/2000/svg" viewBox="0 0 900 675" role="img" aria-label="legume bowls with warm spices">
  <defs>
    <radialGradient id="plate-glow" cx="50%" cy="46%" r="62%">
      <stop offset="0" stop-color="#fffdf4"/>
      <stop offset="1" stop-color="#fff8ec"/>
    </radialGradient>
    <linearGradient id="table" x1="0" y1="0" x2="1" y2="1">
      <stop offset="0" stop-color="#f1ead8"/>
      <stop offset="1" stop-color="#cdb896"/>
    </linearGradient>
    <filter id="soft-shadow" x="-25%" y="-25%" width="150%" height="150%">
      <feDropShadow dx="0" dy="14" stdDeviation="15" flood-color="#322d24" flood-opacity=".28"/>
    </filter>
    <filter id="grain">
      <feTurbulence type="fractalNoise" baseFrequency=".85" numOctaves="2" seed="8439" result="noise"/>
      <feColorMatrix type="saturate" values=".12"/>
      <feComponentTransfer>
        <feFuncA type="table" tableValues="0 .12"/>
      </feComponentTransfer>
      <feBlend mode="multiply" in2="SourceGraphic"/>
    </filter>
  </defs>
  <rect width="900" height="675" fill="url(#table)"/>
  <rect width="900" height="675" filter="url(#grain)" opacity=".34"/>
  <ellipse cx="450" cy="365" rx="332" ry="222" fill="#5d4b3c" opacity=".12"/>
  <ellipse cx="450" cy="350" rx="318" ry="214" fill="url(#plate-glow)"/>
  <ellipse cx="450" cy="350" rx="260" ry="164" fill="#f6ead4"/>
  <g><circle cx="487" cy="394" r="8" fill="#f4e6bd" opacity=".82"/><circle cx="528" cy="423" r="9" fill="#e5d19b" opacity=".82"/><circle cx="569" cy="452" r="10" fill="#e5d19b" opacity=".82"/><circle cx="610" cy="296" r="4" fill="#f4e6bd" opacity=".82"/><circle cx="651" cy="325" r="5" fill="#e5d19b" opacity=".82"/><circle cx="282" cy="354" r="6" fill="#e5d19b" opacity=".82"/><circle cx="323" cy="383" r="7" fill="#f4e6bd" opacity=".82"/><circle cx="364" cy="412" r="8" fill="#e5d19b" opacity=".82"/><circle cx="405" cy="441" r="9" fill="#e5d19b" opacity=".82"/><circle cx="446" cy="285" r="10" fill="#f4e6bd" opacity=".82"/><circle cx="487" cy="314" r="4" fill="#e5d19b" opacity=".82"/><circle cx="528" cy="343" r="5" fill="#e5d19b" opacity=".82"/><circle cx="569" cy="372" r="6" fill="#f4e6bd" opacity=".82"/><circle cx="610" cy="401" r="7" fill="#e5d19b" opacity=".82"/><circle cx="651" cy="430" r="8" fill="#e5d19b" opacity=".82"/><circle cx="282" cy="459" r="9" fill="#f4e6bd" opacity=".82"/><circle cx="323" cy="303" r="10" fill="#e5d19b" opacity=".82"/><circle cx="364" cy="332" r="4" fill="#e5d19b" opacity=".82"/><circle cx="405" cy="361" r="5" fill="#f4e6bd" opacity=".82"/><circle cx="446" cy="390" r="6" fill="#e5d19b" opacity=".82"/><circle cx="487" cy="419" r="7" fill="#e5d19b" opacity=".82"/><circle cx="528" cy="448" r="8" fill="#f4e6bd" opacity=".82"/><circle cx="569" cy="292" r="9" fill="#e5d19b" opacity=".82"/><circle cx="610" cy="321" r="10" fill="#e5d19b" opacity=".82"/><circle cx="651" cy="350" r="4" fill="#f4e6bd" opacity=".82"/><circle cx="282" cy="379" r="5" fill="#e5d19b" opacity=".82"/><circle cx="323" cy="408" r="6" fill="#e5d19b" opacity=".82"/><circle cx="364" cy="437" r="7" fill="#f4e6bd" opacity=".82"/><circle cx="405" cy="281" r="8" fill="#e5d19b" opacity=".82"/><circle cx="446" cy="310" r="9" fill="#e5d19b" opacity=".82"/><circle cx="487" cy="339" r="10" fill="#f4e6bd" opacity=".82"/><circle cx="528" cy="368" r="4" fill="#e5d19b" opacity=".82"/><circle cx="569" cy="397" r="5" fill="#e5d19b" opacity=".82"/><circle cx="610" cy="426" r="6" fill="#f4e6bd" opacity=".82"/><circle cx="651" cy="455" r="7" fill="#e5d19b" opacity=".82"/><circle cx="282" cy="299" r="8" fill="#e5d19b" opacity=".82"/><circle cx="323" cy="328" r="9" fill="#f4e6bd" opacity=".82"/><circle cx="364" cy="357" r="10" fill="#e5d19b" opacity=".82"/><circle cx="405" cy="386" r="4" fill="#e5d19b" opacity=".82"/><circle cx="446" cy="415" r="5" fill="#f4e6bd" opacity=".82"/><circle cx="487" cy="444" r="6" fill="#e5d19b" opacity=".82"/><circle cx="528" cy="288" r="7" fill="#e5d19b" opacity=".82"/><circle cx="569" cy="317" r="8" fill="#f4e6bd" opacity=".82"/><circle cx="610" cy="346" r="9" fill="#e5d19b" opacity=".82"/></g>
  
  <g filter="url(#soft-shadow)" fill="#c5894d">
    <circle cx="369" cy="414" r="19"/><circle cx="416" cy="445" r="20"/><circle cx="463" cy="316" r="21"/><circle cx="510" cy="347" r="13"/><circle cx="557" cy="378" r="14"/><circle cx="604" cy="409" r="15"/><circle cx="341" cy="440" r="16"/><circle cx="388" cy="311" r="17"/><circle cx="435" cy="342" r="18"/><circle cx="482" cy="373" r="19"/><circle cx="529" cy="404" r="20"/><circle cx="576" cy="435" r="21"/><circle cx="313" cy="306" r="13"/><circle cx="360" cy="337" r="14"/><circle cx="407" cy="368" r="15"/><circle cx="454" cy="399" r="16"/><circle cx="501" cy="430" r="17"/><circle cx="548" cy="301" r="18"/><circle cx="595" cy="332" r="19"/><circle cx="332" cy="363" r="20"/><circle cx="379" cy="394" r="21"/><circle cx="426" cy="425" r="13"/>
  </g>
  <g><rect x="569" y="429" width="58" height="14" rx="7" fill="#dc8543" transform="rotate(-26 569 429)" opacity=".82"/><rect x="270" y="302" width="58" height="14" rx="7" fill="#dc8543" transform="rotate(-11 270 302)" opacity=".82"/><rect x="341" y="355" width="58" height="14" rx="7" fill="#dc8543" transform="rotate(4 341 355)" opacity=".82"/><rect x="412" y="408" width="58" height="14" rx="7" fill="#dc8543" transform="rotate(19 412 408)" opacity=".82"/><rect x="483" y="281" width="58" height="14" rx="7" fill="#dc8543" transform="rotate(34 483 281)" opacity=".82"/><rect x="554" y="334" width="58" height="14" rx="7" fill="#dc8543" transform="rotate(-26 554 334)" opacity=".82"/><rect x="625" y="387" width="58" height="14" rx="7" fill="#dc8543" transform="rotate(-11 625 387)" opacity=".82"/><ellipse cx="324" cy="394" rx="31" ry="11" fill="#7aa36d" transform="rotate(-24 324 394)" opacity=".75"/><ellipse cx="385" cy="441" rx="31" ry="11" fill="#7aa36d" transform="rotate(-6 385 441)" opacity=".75"/><ellipse cx="446" cy="318" rx="31" ry="11" fill="#7aa36d" transform="rotate(12 446 318)" opacity=".75"/><ellipse cx="507" cy="365" rx="31" ry="11" fill="#7aa36d" transform="rotate(30 507 365)" opacity=".75"/><ellipse cx="568" cy="412" rx="31" ry="11" fill="#7aa36d" transform="rotate(-24 568 412)" opacity=".75"/><ellipse cx="629" cy="289" rx="31" ry="11" fill="#7aa36d" transform="rotate(-6 629 289)" opacity=".75"/><ellipse cx="584" cy="399" rx="20" ry="8" fill="#56764f" transform="rotate(-27 584 399)" opacity=".9"/><ellipse cx="246" cy="440" rx="25" ry="8" fill="#56764f" transform="rotate(-4 246 440)" opacity=".9"/><ellipse cx="313" cy="231" rx="30" ry="8" fill="#56764f" transform="rotate(19 313 231)" opacity=".9"/><ellipse cx="380" cy="272" rx="20" ry="8" fill="#56764f" transform="rotate(-26 380 272)" opacity=".9"/><ellipse cx="447" cy="313" rx="25" ry="8" fill="#56764f" transform="rotate(-3 447 313)" opacity=".9"/><ellipse cx="514" cy="354" rx="30" ry="8" fill="#56764f" transform="rotate(20 514 354)" opacity=".9"/><ellipse cx="581" cy="395" rx="20" ry="8" fill="#56764f" transform="rotate(-25 581 395)" opacity=".9"/><ellipse cx="648" cy="436" rx="25" ry="8" fill="#56764f" transform="rotate(-2 648 436)" opacity=".9"/><ellipse cx="310" cy="227" rx="30" ry="8" fill="#56764f" transform="rotate(21 310 227)" opacity=".9"/><ellipse cx="377" cy="268" rx="20" ry="8" fill="#56764f" transform="rotate(-24 377 268)" opacity=".9"/><ellipse cx="444" cy="309" rx="25" ry="8" fill="#56764f" transform="rotate(-1 444 309)" opacity=".9"/><ellipse cx="511" cy="350" rx="30" ry="8" fill="#56764f" transform="rotate(22 511 350)" opacity=".9"/><ellipse cx="578" cy="391" rx="20" ry="8" fill="#56764f" transform="rotate(-23 578 391)" opacity=".9"/></g>
  <g opacity=".95">
    <circle cx="571" cy="274" r="22" fill="#deb04d"/>
    <path d="M571 253a22 22 0 0 1 0 44" fill="#fff3b0" opacity=".72"/>
  </g>
</svg>