<svg xmlns="http://www.w3.org/2000/svg" viewBox="0 0 900 675" role="img" aria-label="mushrooms and vegetables with grains">
  <defs>
    <radialGradient id="plate-glow" cx="50%" cy="46%" r="62%">
      <stop offset="0" stop-color="#fffdf4"/>
      <stop offset="1" stop-color="#fff9ec"/>
    </radialGradient>
    <linearGradient id="table" x1="0" y1="0" x2="1" y2="1">
      <stop offset="0" stop-color="#eef0dc"/>
      <stop offset="1" stop-color="#c2c29a"/>
    </linearGradient>
    <filter id="soft-shadow" x="-25%" y="-25%" width="150%" height="150%">
      <feDropShadow dx="0" dy="14" stdDeviation="15" flood-color="#273529" flood-opacity=".28"/>
    </filter>
    <filter id="grain">
      <feTurbulence type="fractalNoise" baseFrequency=".85" numOctaves="2" seed="9118" result="noise"/>
      <feColorMatrix type="saturate" values=".12"/>
      <feComponentTransfer>
        <feFuncA type="table" tableValues="0 .12"/>
      </feComponentTransfer>
      <feBlend mode="multiply" in2="SourceGraphic"/>
    </filter>
  </defs>
  <rect width="900" height="675" fill="url(#table)"/>
  <rect width="900" height="675" filter="url(#grain)" opacity=".34"/>
  <ellipse cx="450" cy="365" rx="332" ry="222" fill="#5d4b3c" opacity=".12"/>
  <ellipse cx="450" cy="350" rx="318" ry="214" fill="url(#plate-glow)"/>
  <ellipse cx="450" cy="350" rx="260" ry="164" fill="#f6ead4"/>
  <g><circle cx="346" cy="333" r="8" fill="#f4e6bd" opacity=".82"/><circle cx="387" cy="362" r="9" fill="#ded0a2" opacity=".82"/><circle cx="428" cy="391" r="10" fill="#ded0a2" opacity=".82"/><circle cx="469" cy="420" r="4" fill="#f4e6bd" opacity=".82"/><circle cx="510" cy="449" r="5" fill="#ded0a2" opacity=".82"/><circle cx="551" cy="293" r="6" fill="#ded0a2" opacity=".82"/><circle cx="592" cy="322" r="7" fill="#f4e6bd" opacity=".82"/><circle cx="633" cy="351" r="8" fill="#ded0a2" opacity=".82"/><circle cx="264" cy="380" r="9" fill="#ded0a2" opacity=".82"/><circle cx="305" cy="409" r="10" fill="#f4e6bd" opacity=".82"/><circle cx="346" cy="438" r="4" fill="#ded0a2" opacity=".82"/><circle cx="387" cy="282" r="5" fill="#ded0a2" opacity=".82"/><circle cx="428" cy="311" r="6" fill="#f4e6bd" opacity=".82"/><circle cx="469" cy="340" r="7" fill="#ded0a2" opacity=".82"/><circle cx="510" cy="369" r="8" fill="#ded0a2" opacity=".82"/><circle cx="551" cy="398" r="9" fill="#f4e6bd" opacity=".82"/><circle cx="592" cy="427" r="10" fill="#ded0a2" opacity=".82"/><circle cx="633" cy="456" r="4" fill="#ded0a2" opacity=".82"/><circle cx="264" cy="300" r="5" fill="#f4e6bd" opacity=".82"/><circle cx="305" cy="329" r="6" fill="#ded0a2" opacity=".82"/><circle cx="346" cy="358" r="7" fill="#ded0a2" opacity=".82"/><circle cx="387" cy="387" r="8" fill="#f4e6bd" opacity=".82"/><circle cx="428" cy="416" r="9" fill="#ded0a2" opacity=".82"/><circle cx="469" cy="445" r="10" fill="#ded0a2" opacity=".82"/><circle cx="510" cy="289" r="4" fill="#f4e6bd" opacity=".82"/><circle cx="551" cy="318" r="5" fill="#ded0a2" opacity=".82"/><circle cx="592" cy="347" r="6" fill="#ded0a2" opacity=".82"/><circle cx="633" cy="376" r="7" fill="#f4e6bd" opacity=".82"/><circle cx="264" cy="405" r="8" fill="#ded0a2" opacity=".82"/><circle cx="305" cy="434" r="9" fill="#ded0a2" opacity=".82"/><circle cx="346" cy="463" r="10" fill="#f4e6bd" opacity=".82"/><circle cx="387" cy="307" r="4" fill="#ded0a2" opacity=".82"/><circle cx="428" cy="336" r="5" fill="#ded0a2" opacity=".82"/><circle cx="469" cy="365" r="6" fill="#f4e6bd" opacity=".82"/><circle cx="510" cy="394" r="7" fill="#ded0a2" opacity=".82"/><circle cx="551" cy="423" r="8" fill="#ded0a2" opacity=".82"/><circle cx="592" cy="452" r="9" fill="#f4e6bd" opacity=".82"/><circle cx="633" cy="296" r="10" fill="#ded0a2" opacity=".82"/><circle cx="264" cy="325" r="4" fill="#ded0a2" opacity=".82"/><circle cx="305" cy="354" r="5" fill="#f4e6bd" opacity=".82"/><circle cx="346" cy="383" r="6" fill="#ded0a2" opacity=".82"/><circle cx="387" cy="412" r="7" fill="#ded0a2" opacity=".82"/><circle cx="428" cy="441" r="8" fill="#f4e6bd" opacity=".82"/><circle cx="469" cy="285" r="9" fill="#ded0a2" opacity=".82"/></g>
  
  <g filter="url(#soft-shadow)" fill="#d37b45">
    <path d="M310 306c70-22 170-17 246 13 42 17 50 55 14 83-84 66-253 62-323-7-31-30-12-68 63-89z"/>
    <path d="M302 390c92 41 236 35 325-17" fill="none" stroke="#7c6f3f" stroke-width="14" stroke-linecap="round" opacity=".5"/>
  </g>
  <g><rect x="508" y="388" width="58" height="14" rx="7" fill="#dc8543" transform="rotate(-26 508 388)" opacity=".82"/><rect x="579" y="441" width="58" height="14" rx="7" fill="#dc8543" transform="rotate(-11 579 441)" opacity=".82"/><rect x="280" y="314" width="58" height="14" rx="7" fill="#dc8543" transform="rotate(4 280 314)" opacity=".82"/><rect x="351" y="367" width="58" height="14" rx="7" fill="#dc8543" transform="rotate(19 351 367)" opacity=".82"/><rect x="422" y="420" width="58" height="14" rx="7" fill="#dc8543" transform="rotate(34 422 420)" opacity=".82"/><rect x="493" y="293" width="58" height="14" rx="7" fill="#dc8543" transform="rotate(-26 493 293)" opacity=".82"/><rect x="564" y="346" width="58" height="14" rx="7" fill="#dc8543" transform="rotate(-11 564 346)" opacity=".82"/><ellipse cx="303" cy="393" rx="31" ry="11" fill="#7aa36d" transform="rotate(-24 303 393)" opacity=".75"/><ellipse cx="364" cy="440" rx="31" ry="11" fill="#7aa36d" transform="rotate(-6 364 440)" opacity=".75"/><ellipse cx="425" cy="317" rx="31" ry="11" fill="#7aa36d" transform="rotate(12 425 317)" opacity=".75"/><ellipse cx="486" cy="364" rx="31" ry="11" fill="#7aa36d" transform="rotate(30 486 364)" opacity=".75"/><ellipse cx="547" cy="411" rx="31" ry="11" fill="#7aa36d" transform="rotate(-24 547 411)" opacity=".75"/><ellipse cx="608" cy="288" rx="31" ry="11" fill="#7aa36d" transform="rotate(-6 608 288)" opacity=".75"/><ellipse cx="453" cy="328" rx="20" ry="8" fill="#426f50" transform="rotate(-28 453 328)" opacity=".9"/><ellipse cx="520" cy="369" rx="25" ry="8" fill="#426f50" transform="rotate(-5 520 369)" opacity=".9"/><ellipse cx="587" cy="410" rx="30" ry="8" fill="#426f50" transform="rotate(18 587 410)" opacity=".9"/><ellipse cx="249" cy="451" rx="20" ry="8" fill="#426f50" transform="rotate(-27 249 451)" opacity=".9"/><ellipse cx="316" cy="242" rx="25" ry="8" fill="#426f50" transform="rotate(-4 316 242)" opacity=".9"/><ellipse cx="383" cy="283" rx="30" ry="8" fill="#426f50" transform="rotate(19 383 283)" opacity=".9"/><ellipse cx="450" cy="324" rx="20" ry="8" fill="#426f50" transform="rotate(-26 450 324)" opacity=".9"/><ellipse cx="517" cy="365" rx="25" ry="8" fill="#426f50" transform="rotate(-3 517 365)" opacity=".9"/><ellipse cx="584" cy="406" rx="30" ry="8" fill="#426f50" transform="rotate(20 584 406)" opacity=".9"/><ellipse cx="246" cy="447" rx="20" ry="8" fill="#426f50" transform="rotate(-25 246 447)" opacity=".9"/><ellipse cx="313" cy="238" rx="25" ry="8" fill="#426f50" transform="rotate(-2 313 238)" opacity=".9"/><ellipse cx="380" cy="279" rx="30" ry="8" fill="#426f50" transform="rotate(21 380 279)" opacity=".9"/><ellipse cx="447" cy="320" rx="20" ry="8" fill="#426f50" transform="rotate(-24 447 320)" opacity=".9"/></g>
  <g opacity=".95">
    <circle cx="532" cy="273" r="22" fill="#e7b84c"/>
    <path d="M532 252a22 22 0 0 1 0 44" fill="#fff3b0" opacity=".72"/>
  </g>
</svg>