<svg xmlns="http://www.w3.org/2000/svg" viewBox="0 0 900 675" role="img" aria-label="mushrooms and vegetables with grains">
  <defs>
    <radialGradient id="plate-glow" cx="50%" cy="46%" r="62%">
      <stop offset="0" stop-color="#fffdf4"/>
      <stop offset="1" stop-color="#fff9ec"/>
    </radialGradient>
    <linearGradient id="table" x1="0" y1="0" x2="1" y2="1">
      <stop offset="0" stop-color="#eef0dc"/>
      <stop offset="1" stop-color="#c2c29a"/>
    </linearGradient>
    <filter id="soft-shadow" x="-25%" y="-25%" width="150%" height="150%">
      <feDropShadow dx="0" dy="14" stdDeviation="15" flood-color="#273529" flood-opacity=".28"/>
    </filter>
    <filter id="grain">
      <feTurbulence type="fractalNoise" baseFrequency=".85" numOctaves="2" seed="9409" result="noise"/>
      <feColorMatrix type="saturate" values=".12"/>
      <feComponentTransfer>
        <feFuncA type="table" tableValues="0 .12"/>
      </feComponentTransfer>
      <feBlend mode="multiply" in2="SourceGraphic"/>
    </filter>
  </defs>
  <rect width="900" height="675" fill="url(#table)"/>
  <rect width="900" height="675" filter="url(#grain)" opacity=".34"/>
  <ellipse cx="450" cy="365" rx="332" ry="222" fill="#5d4b3c" opacity=".12"/>
  <ellipse cx="450" cy="350" rx="318" ry="214" fill="url(#plate-glow)"/>
  <ellipse cx="450" cy="350" rx="260" ry="164" fill="#f6ead4"/>
  <g><circle cx="637" cy="439" r="5" fill="#f4e6bd" opacity=".82"/><circle cx="268" cy="283" r="6" fill="#ded0a2" opacity=".82"/><circle cx="309" cy="312" r="7" fill="#ded0a2" opacity=".82"/><circle cx="350" cy="341" r="8" fill="#f4e6bd" opacity=".82"/><circle cx="391" cy="370" r="9" fill="#ded0a2" opacity=".82"/><circle cx="432" cy="399" r="10" fill="#ded0a2" opacity=".82"/><circle cx="473" cy="428" r="4" fill="#f4e6bd" opacity=".82"/><circle cx="514" cy="457" r="5" fill="#ded0a2" opacity=".82"/><circle cx="555" cy="301" r="6" fill="#ded0a2" opacity=".82"/><circle cx="596" cy="330" r="7" fill="#f4e6bd" opacity=".82"/><circle cx="637" cy="359" r="8" fill="#ded0a2" opacity=".82"/><circle cx="268" cy="388" r="9" fill="#ded0a2" opacity=".82"/><circle cx="309" cy="417" r="10" fill="#f4e6bd" opacity=".82"/><circle cx="350" cy="446" r="4" fill="#ded0a2" opacity=".82"/><circle cx="391" cy="290" r="5" fill="#ded0a2" opacity=".82"/><circle cx="432" cy="319" r="6" fill="#f4e6bd" opacity=".82"/><circle cx="473" cy="348" r="7" fill="#ded0a2" opacity=".82"/><circle cx="514" cy="377" r="8" fill="#ded0a2" opacity=".82"/><circle cx="555" cy="406" r="9" fill="#f4e6bd" opacity=".82"/><circle cx="596" cy="435" r="10" fill="#ded0a2" opacity=".82"/><circle cx="637" cy="464" r="4" fill="#ded0a2" opacity=".82"/><circle cx="268" cy="308" r="5" fill="#f4e6bd" opacity=".82"/><circle cx="309" cy="337" r="6" fill="#ded0a2" opacity=".82"/><circle cx="350" cy="366" r="7" fill="#ded0a2" opacity=".82"/><circle cx="391" cy="395" r="8" fill="#f4e6bd" opacity=".82"/><circle cx="432" cy="424" r="9" fill="#ded0a2" opacity=".82"/><circle cx="473" cy="453" r="10" fill="#ded0a2" opacity=".82"/><circle cx="514" cy="297" r="4" fill="#f4e6bd" opacity=".82"/><circle cx="555" cy="326" r="5" fill="#ded0a2" opacity=".82"/><circle cx="596" cy="355" r="6" fill="#ded0a2" opacity=".82"/><circle cx="637" cy="384" r="7" fill="#f4e6bd" opacity=".82"/><circle cx="268" cy="413" r="8" fill="#ded0a2" opacity=".82"/><circle cx="309" cy="442" r="9" fill="#ded0a2" opacity=".82"/><circle cx="350" cy="286" r="10" fill="#f4e6bd" opacity=".82"/><circle cx="391" cy="315" r="4" fill="#ded0a2" opacity=".82"/><circle cx="432" cy="344" r="5" fill="#ded0a2" opacity=".82"/><circle cx="473" cy="373" r="6" fill="#f4e6bd" opacity=".82"/><circle cx="514" cy="402" r="7" fill="#ded0a2" opacity=".82"/><circle cx="555" cy="431" r="8" fill="#ded0a2" opacity=".82"/><circle cx="596" cy="460" r="9" fill="#f4e6bd" opacity=".82"/><circle cx="637" cy="304" r="10" fill="#ded0a2" opacity=".82"/><circle cx="268" cy="333" r="4" fill="#ded0a2" opacity=".82"/><circle cx="309" cy="362" r="5" fill="#f4e6bd" opacity=".82"/><circle cx="350" cy="391" r="6" fill="#ded0a2" opacity=".82"/></g>
  
  <g filter="url(#soft-shadow)" fill="#d37b45">
    <path d="M310 306c70-22 170-17 246 13 42 17 50 55 14 83-84 66-253 62-323-7-31-30-12-68 63-89z"/>
    <path d="M302 390c92 41 236 35 325-17" fill="none" stroke="#7c6f3f" stroke-width="14" stroke-linecap="round" opacity=".5"/>
  </g>
  <g><rect x="429" y="319" width="58" height="14" rx="7" fill="#dc8543" transform="rotate(-26 429 319)" opacity=".82"/><rect x="500" y="372" width="58" height="14" rx="7" fill="#dc8543" transform="rotate(-11 500 372)" opacity=".82"/><rect x="571" y="425" width="58" height="14" rx="7" fill="#dc8543" transform="rotate(4 571 425)" opacity=".82"/><rect x="272" y="298" width="58" height="14" rx="7" fill="#dc8543" transform="rotate(19 272 298)" opacity=".82"/><rect x="343" y="351" width="58" height="14" rx="7" fill="#dc8543" transform="rotate(34 343 351)" opacity=".82"/><rect x="414" y="404" width="58" height="14" rx="7" fill="#dc8543" transform="rotate(-26 414 404)" opacity=".82"/><rect x="485" y="277" width="58" height="14" rx="7" fill="#dc8543" transform="rotate(-11 485 277)" opacity=".82"/><ellipse cx="594" cy="344" rx="31" ry="11" fill="#7aa36d" transform="rotate(-24 594 344)" opacity=".75"/><ellipse cx="305" cy="391" rx="31" ry="11" fill="#7aa36d" transform="rotate(-6 305 391)" opacity=".75"/><ellipse cx="366" cy="438" rx="31" ry="11" fill="#7aa36d" transform="rotate(12 366 438)" opacity=".75"/><ellipse cx="427" cy="315" rx="31" ry="11" fill="#7aa36d" transform="rotate(30 427 315)" opacity=".75"/><ellipse cx="488" cy="362" rx="31" ry="11" fill="#7aa36d" transform="rotate(-24 488 362)" opacity=".75"/><ellipse cx="549" cy="409" rx="31" ry="11" fill="#7aa36d" transform="rotate(-6 549 409)" opacity=".75"/><ellipse cx="339" cy="369" rx="20" ry="8" fill="#426f50" transform="rotate(-9 339 369)" opacity=".9"/><ellipse cx="406" cy="410" rx="25" ry="8" fill="#426f50" transform="rotate(14 406 410)" opacity=".9"/><ellipse cx="473" cy="451" rx="30" ry="8" fill="#426f50" transform="rotate(-31 473 451)" opacity=".9"/><ellipse cx="540" cy="242" rx="20" ry="8" fill="#426f50" transform="rotate(-8 540 242)" opacity=".9"/><ellipse cx="607" cy="283" rx="25" ry="8" fill="#426f50" transform="rotate(15 607 283)" opacity=".9"/><ellipse cx="269" cy="324" rx="30" ry="8" fill="#426f50" transform="rotate(-30 269 324)" opacity=".9"/><ellipse cx="336" cy="365" rx="20" ry="8" fill="#426f50" transform="rotate(-7 336 365)" opacity=".9"/><ellipse cx="403" cy="406" rx="25" ry="8" fill="#426f50" transform="rotate(16 403 406)" opacity=".9"/><ellipse cx="470" cy="447" rx="30" ry="8" fill="#426f50" transform="rotate(-29 470 447)" opacity=".9"/><ellipse cx="537" cy="238" rx="20" ry="8" fill="#426f50" transform="rotate(-6 537 238)" opacity=".9"/><ellipse cx="604" cy="279" rx="25" ry="8" fill="#426f50" transform="rotate(17 604 279)" opacity=".9"/><ellipse cx="266" cy="320" rx="30" ry="8" fill="#426f50" transform="rotate(-28 266 320)" opacity=".9"/><ellipse cx="333" cy="361" rx="20" ry="8" fill="#426f50" transform="rotate(-5 333 361)" opacity=".9"/></g>
  <g opacity=".95">
    <circle cx="561" cy="244" r="22" fill="#e7b84c"/>
    <path d="M561 223a22 22 0 0 1 0 44" fill="#fff3b0" opacity=".72"/>
  </g>
</svg>