<svg xmlns="http://www.w3.org/2000/svg" viewBox="0 0 900 675" role="img" aria-label="mushrooms and vegetables with grains">
  <defs>
    <radialGradient id="plate-glow" cx="50%" cy="46%" r="62%">
      <stop offset="0" stop-color="#fffdf4"/>
      <stop offset="1" stop-color="#fff9ec"/>
    </radialGradient>
    <linearGradient id="table" x1="0" y1="0" x2="1" y2="1">
      <stop offset="0" stop-color="#eef0dc"/>
      <stop offset="1" stop-color="#c2c29a"/>
    </linearGradient>
    <filter id="soft-shadow" x="-25%" y="-25%" width="150%" height="150%">
      <feDropShadow dx="0" dy="14" stdDeviation="15" flood-color="#273529" flood-opacity=".28"/>
    </filter>
    <filter id="grain">
      <feTurbulence type="fractalNoise" baseFrequency=".85" numOctaves="2" seed="9506" result="noise"/>
      <feColorMatrix type="saturate" values=".12"/>
      <feComponentTransfer>
        <feFuncA type="table" tableValues="0 .12"/>
      </feComponentTransfer>
      <feBlend mode="multiply" in2="SourceGraphic"/>
    </filter>
  </defs>
  <rect width="900" height="675" fill="url(#table)"/>
  <rect width="900" height="675" filter="url(#grain)" opacity=".34"/>
  <ellipse cx="450" cy="365" rx="332" ry="222" fill="#5d4b3c" opacity=".12"/>
  <ellipse cx="450" cy="350" rx="318" ry="214" fill="url(#plate-glow)"/>
  <ellipse cx="450" cy="350" rx="260" ry="164" fill="#f6ead4"/>
  <g><circle cx="324" cy="351" r="4" fill="#f4e6bd" opacity=".82"/><circle cx="365" cy="380" r="5" fill="#ded0a2" opacity=".82"/><circle cx="406" cy="409" r="6" fill="#ded0a2" opacity=".82"/><circle cx="447" cy="438" r="7" fill="#f4e6bd" opacity=".82"/><circle cx="488" cy="282" r="8" fill="#ded0a2" opacity=".82"/><circle cx="529" cy="311" r="9" fill="#ded0a2" opacity=".82"/><circle cx="570" cy="340" r="10" fill="#f4e6bd" opacity=".82"/><circle cx="611" cy="369" r="4" fill="#ded0a2" opacity=".82"/><circle cx="652" cy="398" r="5" fill="#ded0a2" opacity=".82"/><circle cx="283" cy="427" r="6" fill="#f4e6bd" opacity=".82"/><circle cx="324" cy="456" r="7" fill="#ded0a2" opacity=".82"/><circle cx="365" cy="300" r="8" fill="#ded0a2" opacity=".82"/><circle cx="406" cy="329" r="9" fill="#f4e6bd" opacity=".82"/><circle cx="447" cy="358" r="10" fill="#ded0a2" opacity=".82"/><circle cx="488" cy="387" r="4" fill="#ded0a2" opacity=".82"/><circle cx="529" cy="416" r="5" fill="#f4e6bd" opacity=".82"/><circle cx="570" cy="445" r="6" fill="#ded0a2" opacity=".82"/><circle cx="611" cy="289" r="7" fill="#ded0a2" opacity=".82"/><circle cx="652" cy="318" r="8" fill="#f4e6bd" opacity=".82"/><circle cx="283" cy="347" r="9" fill="#ded0a2" opacity=".82"/><circle cx="324" cy="376" r="10" fill="#ded0a2" opacity=".82"/><circle cx="365" cy="405" r="4" fill="#f4e6bd" opacity=".82"/><circle cx="406" cy="434" r="5" fill="#ded0a2" opacity=".82"/><circle cx="447" cy="463" r="6" fill="#ded0a2" opacity=".82"/><circle cx="488" cy="307" r="7" fill="#f4e6bd" opacity=".82"/><circle cx="529" cy="336" r="8" fill="#ded0a2" opacity=".82"/><circle cx="570" cy="365" r="9" fill="#ded0a2" opacity=".82"/><circle cx="611" cy="394" r="10" fill="#f4e6bd" opacity=".82"/><circle cx="652" cy="423" r="4" fill="#ded0a2" opacity=".82"/><circle cx="283" cy="452" r="5" fill="#ded0a2" opacity=".82"/><circle cx="324" cy="296" r="6" fill="#f4e6bd" opacity=".82"/><circle cx="365" cy="325" r="7" fill="#ded0a2" opacity=".82"/><circle cx="406" cy="354" r="8" fill="#ded0a2" opacity=".82"/><circle cx="447" cy="383" r="9" fill="#f4e6bd" opacity=".82"/><circle cx="488" cy="412" r="10" fill="#ded0a2" opacity=".82"/><circle cx="529" cy="441" r="4" fill="#ded0a2" opacity=".82"/><circle cx="570" cy="285" r="5" fill="#f4e6bd" opacity=".82"/><circle cx="611" cy="314" r="6" fill="#ded0a2" opacity=".82"/><circle cx="652" cy="343" r="7" fill="#ded0a2" opacity=".82"/><circle cx="283" cy="372" r="8" fill="#f4e6bd" opacity=".82"/><circle cx="324" cy="401" r="9" fill="#ded0a2" opacity=".82"/><circle cx="365" cy="430" r="10" fill="#ded0a2" opacity=".82"/><circle cx="406" cy="459" r="4" fill="#f4e6bd" opacity=".82"/><circle cx="447" cy="303" r="5" fill="#ded0a2" opacity=".82"/></g>
  
  <g filter="url(#soft-shadow)" fill="#d37b45">
    <path d="M310 306c70-22 170-17 246 13 42 17 50 55 14 83-84 66-253 62-323-7-31-30-12-68 63-89z"/>
    <path d="M302 390c92 41 236 35 325-17" fill="none" stroke="#7c6f3f" stroke-width="14" stroke-linecap="round" opacity=".5"/>
  </g>
  <g><rect x="526" y="416" width="58" height="14" rx="7" fill="#dc8543" transform="rotate(-26 526 416)" opacity=".82"/><rect x="597" y="289" width="58" height="14" rx="7" fill="#dc8543" transform="rotate(-11 597 289)" opacity=".82"/><rect x="298" y="342" width="58" height="14" rx="7" fill="#dc8543" transform="rotate(4 298 342)" opacity=".82"/><rect x="369" y="395" width="58" height="14" rx="7" fill="#dc8543" transform="rotate(19 369 395)" opacity=".82"/><rect x="440" y="448" width="58" height="14" rx="7" fill="#dc8543" transform="rotate(34 440 448)" opacity=".82"/><rect x="511" y="321" width="58" height="14" rx="7" fill="#dc8543" transform="rotate(-26 511 321)" opacity=".82"/><rect x="582" y="374" width="58" height="14" rx="7" fill="#dc8543" transform="rotate(-11 582 374)" opacity=".82"/><ellipse cx="341" cy="441" rx="31" ry="11" fill="#7aa36d" transform="rotate(-24 341 441)" opacity=".75"/><ellipse cx="402" cy="318" rx="31" ry="11" fill="#7aa36d" transform="rotate(-6 402 318)" opacity=".75"/><ellipse cx="463" cy="365" rx="31" ry="11" fill="#7aa36d" transform="rotate(12 463 365)" opacity=".75"/><ellipse cx="524" cy="412" rx="31" ry="11" fill="#7aa36d" transform="rotate(30 524 412)" opacity=".75"/><ellipse cx="585" cy="289" rx="31" ry="11" fill="#7aa36d" transform="rotate(-24 585 289)" opacity=".75"/><ellipse cx="296" cy="336" rx="31" ry="11" fill="#7aa36d" transform="rotate(-6 296 336)" opacity=".75"/><ellipse cx="436" cy="216" rx="20" ry="8" fill="#426f50" transform="rotate(20 436 216)" opacity=".9"/><ellipse cx="503" cy="257" rx="25" ry="8" fill="#426f50" transform="rotate(-25 503 257)" opacity=".9"/><ellipse cx="570" cy="298" rx="30" ry="8" fill="#426f50" transform="rotate(-2 570 298)" opacity=".9"/><ellipse cx="637" cy="339" rx="20" ry="8" fill="#426f50" transform="rotate(21 637 339)" opacity=".9"/><ellipse cx="299" cy="380" rx="25" ry="8" fill="#426f50" transform="rotate(-24 299 380)" opacity=".9"/><ellipse cx="366" cy="421" rx="30" ry="8" fill="#426f50" transform="rotate(-1 366 421)" opacity=".9"/><ellipse cx="433" cy="212" rx="20" ry="8" fill="#426f50" transform="rotate(22 433 212)" opacity=".9"/><ellipse cx="500" cy="253" rx="25" ry="8" fill="#426f50" transform="rotate(-23 500 253)" opacity=".9"/><ellipse cx="567" cy="294" rx="30" ry="8" fill="#426f50" transform="rotate(0 567 294)" opacity=".9"/><ellipse cx="634" cy="335" rx="20" ry="8" fill="#426f50" transform="rotate(23 634 335)" opacity=".9"/><ellipse cx="296" cy="376" rx="25" ry="8" fill="#426f50" transform="rotate(-22 296 376)" opacity=".9"/><ellipse cx="363" cy="417" rx="30" ry="8" fill="#426f50" transform="rotate(1 363 417)" opacity=".9"/><ellipse cx="430" cy="458" rx="20" ry="8" fill="#426f50" transform="rotate(24 430 458)" opacity=".9"/></g>
  <g opacity=".95">
    <circle cx="544" cy="261" r="22" fill="#e7b84c"/>
    <path d="M544 240a22 22 0 0 1 0 44" fill="#fff3b0" opacity=".72"/>
  </g>
</svg>