<svg xmlns="http://www.w3.org/2000/svg" viewBox="0 0 900 675" role="img" aria-label="walleye fillets with weeknight grains">
  <defs>
    <radialGradient id="plate-glow" cx="50%" cy="46%" r="62%">
      <stop offset="0" stop-color="#fffdf4"/>
      <stop offset="1" stop-color="#fff8ea"/>
    </radialGradient>
    <linearGradient id="table" x1="0" y1="0" x2="1" y2="1">
      <stop offset="0" stop-color="#f3eee2"/>
      <stop offset="1" stop-color="#d8c7ab"/>
    </linearGradient>
    <filter id="soft-shadow" x="-25%" y="-25%" width="150%" height="150%">
      <feDropShadow dx="0" dy="14" stdDeviation="15" flood-color="#253a35" flood-opacity=".28"/>
    </filter>
    <filter id="grain">
      <feTurbulence type="fractalNoise" baseFrequency=".85" numOctaves="2" seed="2037" result="noise"/>
      <feColorMatrix type="saturate" values=".12"/>
      <feComponentTransfer>
        <feFuncA type="table" tableValues="0 .12"/>
      </feComponentTransfer>
      <feBlend mode="multiply" in2="SourceGraphic"/>
    </filter>
  </defs>
  <rect width="900" height="675" fill="url(#table)"/>
  <rect width="900" height="675" filter="url(#grain)" opacity=".34"/>
  <ellipse cx="450" cy="365" rx="332" ry="222" fill="#5d4b3c" opacity=".12"/>
  <ellipse cx="450" cy="350" rx="318" ry="214" fill="url(#plate-glow)"/>
  <ellipse cx="450" cy="350" rx="260" ry="164" fill="#f6ead4"/>
  <g><circle cx="645" cy="282" r="4" fill="#f4e6bd" opacity=".82"/><circle cx="276" cy="311" r="5" fill="#ead8ab" opacity=".82"/><circle cx="317" cy="340" r="6" fill="#ead8ab" opacity=".82"/><circle cx="358" cy="369" r="7" fill="#f4e6bd" opacity=".82"/><circle cx="399" cy="398" r="8" fill="#ead8ab" opacity=".82"/><circle cx="440" cy="427" r="9" fill="#ead8ab" opacity=".82"/><circle cx="481" cy="456" r="10" fill="#f4e6bd" opacity=".82"/><circle cx="522" cy="300" r="4" fill="#ead8ab" opacity=".82"/><circle cx="563" cy="329" r="5" fill="#ead8ab" opacity=".82"/><circle cx="604" cy="358" r="6" fill="#f4e6bd" opacity=".82"/><circle cx="645" cy="387" r="7" fill="#ead8ab" opacity=".82"/><circle cx="276" cy="416" r="8" fill="#ead8ab" opacity=".82"/><circle cx="317" cy="445" r="9" fill="#f4e6bd" opacity=".82"/><circle cx="358" cy="289" r="10" fill="#ead8ab" opacity=".82"/><circle cx="399" cy="318" r="4" fill="#ead8ab" opacity=".82"/><circle cx="440" cy="347" r="5" fill="#f4e6bd" opacity=".82"/><circle cx="481" cy="376" r="6" fill="#ead8ab" opacity=".82"/><circle cx="522" cy="405" r="7" fill="#ead8ab" opacity=".82"/><circle cx="563" cy="434" r="8" fill="#f4e6bd" opacity=".82"/><circle cx="604" cy="463" r="9" fill="#ead8ab" opacity=".82"/><circle cx="645" cy="307" r="10" fill="#ead8ab" opacity=".82"/><circle cx="276" cy="336" r="4" fill="#f4e6bd" opacity=".82"/><circle cx="317" cy="365" r="5" fill="#ead8ab" opacity=".82"/><circle cx="358" cy="394" r="6" fill="#ead8ab" opacity=".82"/><circle cx="399" cy="423" r="7" fill="#f4e6bd" opacity=".82"/><circle cx="440" cy="452" r="8" fill="#ead8ab" opacity=".82"/><circle cx="481" cy="296" r="9" fill="#ead8ab" opacity=".82"/><circle cx="522" cy="325" r="10" fill="#f4e6bd" opacity=".82"/><circle cx="563" cy="354" r="4" fill="#ead8ab" opacity=".82"/><circle cx="604" cy="383" r="5" fill="#ead8ab" opacity=".82"/><circle cx="645" cy="412" r="6" fill="#f4e6bd" opacity=".82"/><circle cx="276" cy="441" r="7" fill="#ead8ab" opacity=".82"/><circle cx="317" cy="285" r="8" fill="#ead8ab" opacity=".82"/><circle cx="358" cy="314" r="9" fill="#f4e6bd" opacity=".82"/><circle cx="399" cy="343" r="10" fill="#ead8ab" opacity=".82"/><circle cx="440" cy="372" r="4" fill="#ead8ab" opacity=".82"/><circle cx="481" cy="401" r="5" fill="#f4e6bd" opacity=".82"/><circle cx="522" cy="430" r="6" fill="#ead8ab" opacity=".82"/><circle cx="563" cy="459" r="7" fill="#ead8ab" opacity=".82"/><circle cx="604" cy="303" r="8" fill="#f4e6bd" opacity=".82"/><circle cx="645" cy="332" r="9" fill="#ead8ab" opacity=".82"/><circle cx="276" cy="361" r="10" fill="#ead8ab" opacity=".82"/><circle cx="317" cy="390" r="4" fill="#f4e6bd" opacity=".82"/><circle cx="358" cy="419" r="5" fill="#ead8ab" opacity=".82"/></g>
  
  <g filter="url(#soft-shadow)">
    <path d="M260 318c88-78 262-90 378-28 38 20 46 66 12 95-98 84-300 94-415 20-39-25-31-59 25-87z" fill="#f6efe4"/>
    <path d="M280 329c83 40 227 40 336 4" fill="none" stroke="#d7b98a" stroke-width="12" stroke-linecap="round" opacity=".45"/>
    <path d="M308 377c88 34 205 31 300-8" fill="none" stroke="#fffaf1" stroke-width="9" stroke-linecap="round" opacity=".65"/>
    <circle cx="541" cy="321" r="16" fill="#f1c85d" opacity=".95"/>
  </g>
  <g><rect x="457" y="327" width="58" height="14" rx="7" fill="#dc8543" transform="rotate(-26 457 327)" opacity=".82"/><rect x="528" y="380" width="58" height="14" rx="7" fill="#dc8543" transform="rotate(-11 528 380)" opacity=".82"/><rect x="599" y="433" width="58" height="14" rx="7" fill="#dc8543" transform="rotate(4 599 433)" opacity=".82"/><rect x="300" y="306" width="58" height="14" rx="7" fill="#dc8543" transform="rotate(19 300 306)" opacity=".82"/><rect x="371" y="359" width="58" height="14" rx="7" fill="#dc8543" transform="rotate(34 371 359)" opacity=".82"/><rect x="442" y="412" width="58" height="14" rx="7" fill="#dc8543" transform="rotate(-26 442 412)" opacity=".82"/><rect x="513" y="285" width="58" height="14" rx="7" fill="#dc8543" transform="rotate(-11 513 285)" opacity=".82"/><ellipse cx="572" cy="452" rx="31" ry="11" fill="#7aa36d" transform="rotate(-24 572 452)" opacity=".75"/><ellipse cx="633" cy="329" rx="31" ry="11" fill="#7aa36d" transform="rotate(-6 633 329)" opacity=".75"/><ellipse cx="344" cy="376" rx="31" ry="11" fill="#7aa36d" transform="rotate(12 344 376)" opacity=".75"/><ellipse cx="405" cy="423" rx="31" ry="11" fill="#7aa36d" transform="rotate(30 405 423)" opacity=".75"/><ellipse cx="466" cy="300" rx="31" ry="11" fill="#7aa36d" transform="rotate(-24 466 300)" opacity=".75"/><ellipse cx="527" cy="347" rx="31" ry="11" fill="#7aa36d" transform="rotate(-6 527 347)" opacity=".75"/><ellipse cx="257" cy="247" rx="20" ry="8" fill="#45745c" transform="rotate(31 257 247)" opacity=".9"/><ellipse cx="324" cy="288" rx="25" ry="8" fill="#45745c" transform="rotate(-14 324 288)" opacity=".9"/><ellipse cx="391" cy="329" rx="30" ry="8" fill="#45745c" transform="rotate(9 391 329)" opacity=".9"/><ellipse cx="458" cy="370" rx="20" ry="8" fill="#45745c" transform="rotate(32 458 370)" opacity=".9"/><ellipse cx="525" cy="411" rx="25" ry="8" fill="#45745c" transform="rotate(-13 525 411)" opacity=".9"/><ellipse cx="592" cy="452" rx="30" ry="8" fill="#45745c" transform="rotate(10 592 452)" opacity=".9"/><ellipse cx="254" cy="243" rx="20" ry="8" fill="#45745c" transform="rotate(33 254 243)" opacity=".9"/><ellipse cx="321" cy="284" rx="25" ry="8" fill="#45745c" transform="rotate(-12 321 284)" opacity=".9"/><ellipse cx="388" cy="325" rx="30" ry="8" fill="#45745c" transform="rotate(11 388 325)" opacity=".9"/><ellipse cx="455" cy="366" rx="20" ry="8" fill="#45745c" transform="rotate(-34 455 366)" opacity=".9"/><ellipse cx="522" cy="407" rx="25" ry="8" fill="#45745c" transform="rotate(-11 522 407)" opacity=".9"/><ellipse cx="589" cy="448" rx="30" ry="8" fill="#45745c" transform="rotate(12 589 448)" opacity=".9"/><ellipse cx="251" cy="239" rx="20" ry="8" fill="#45745c" transform="rotate(-33 251 239)" opacity=".9"/></g>
  <g opacity=".95">
    <circle cx="573" cy="272" r="22" fill="#f1c85d"/>
    <path d="M573 251a22 22 0 0 1 0 44" fill="#fff3b0" opacity=".72"/>
  </g>
</svg>