<svg xmlns="http://www.w3.org/2000/svg" viewBox="0 0 900 675" role="img" aria-label="walleye fillets with weeknight grains">
  <defs>
    <radialGradient id="plate-glow" cx="50%" cy="46%" r="62%">
      <stop offset="0" stop-color="#fffdf4"/>
      <stop offset="1" stop-color="#fff8ea"/>
    </radialGradient>
    <linearGradient id="table" x1="0" y1="0" x2="1" y2="1">
      <stop offset="0" stop-color="#f3eee2"/>
      <stop offset="1" stop-color="#d8c7ab"/>
    </linearGradient>
    <filter id="soft-shadow" x="-25%" y="-25%" width="150%" height="150%">
      <feDropShadow dx="0" dy="14" stdDeviation="15" flood-color="#253a35" flood-opacity=".28"/>
    </filter>
    <filter id="grain">
      <feTurbulence type="fractalNoise" baseFrequency=".85" numOctaves="2" seed="2134" result="noise"/>
      <feColorMatrix type="saturate" values=".12"/>
      <feComponentTransfer>
        <feFuncA type="table" tableValues="0 .12"/>
      </feComponentTransfer>
      <feBlend mode="multiply" in2="SourceGraphic"/>
    </filter>
  </defs>
  <rect width="900" height="675" fill="url(#table)"/>
  <rect width="900" height="675" filter="url(#grain)" opacity=".34"/>
  <ellipse cx="450" cy="365" rx="332" ry="222" fill="#5d4b3c" opacity=".12"/>
  <ellipse cx="450" cy="350" rx="318" ry="214" fill="url(#plate-glow)"/>
  <ellipse cx="450" cy="350" rx="260" ry="164" fill="#f6ead4"/>
  <g><circle cx="332" cy="379" r="10" fill="#f4e6bd" opacity=".82"/><circle cx="373" cy="408" r="4" fill="#ead8ab" opacity=".82"/><circle cx="414" cy="437" r="5" fill="#ead8ab" opacity=".82"/><circle cx="455" cy="281" r="6" fill="#f4e6bd" opacity=".82"/><circle cx="496" cy="310" r="7" fill="#ead8ab" opacity=".82"/><circle cx="537" cy="339" r="8" fill="#ead8ab" opacity=".82"/><circle cx="578" cy="368" r="9" fill="#f4e6bd" opacity=".82"/><circle cx="619" cy="397" r="10" fill="#ead8ab" opacity=".82"/><circle cx="250" cy="426" r="4" fill="#ead8ab" opacity=".82"/><circle cx="291" cy="455" r="5" fill="#f4e6bd" opacity=".82"/><circle cx="332" cy="299" r="6" fill="#ead8ab" opacity=".82"/><circle cx="373" cy="328" r="7" fill="#ead8ab" opacity=".82"/><circle cx="414" cy="357" r="8" fill="#f4e6bd" opacity=".82"/><circle cx="455" cy="386" r="9" fill="#ead8ab" opacity=".82"/><circle cx="496" cy="415" r="10" fill="#ead8ab" opacity=".82"/><circle cx="537" cy="444" r="4" fill="#f4e6bd" opacity=".82"/><circle cx="578" cy="288" r="5" fill="#ead8ab" opacity=".82"/><circle cx="619" cy="317" r="6" fill="#ead8ab" opacity=".82"/><circle cx="250" cy="346" r="7" fill="#f4e6bd" opacity=".82"/><circle cx="291" cy="375" r="8" fill="#ead8ab" opacity=".82"/><circle cx="332" cy="404" r="9" fill="#ead8ab" opacity=".82"/><circle cx="373" cy="433" r="10" fill="#f4e6bd" opacity=".82"/><circle cx="414" cy="462" r="4" fill="#ead8ab" opacity=".82"/><circle cx="455" cy="306" r="5" fill="#ead8ab" opacity=".82"/><circle cx="496" cy="335" r="6" fill="#f4e6bd" opacity=".82"/><circle cx="537" cy="364" r="7" fill="#ead8ab" opacity=".82"/><circle cx="578" cy="393" r="8" fill="#ead8ab" opacity=".82"/><circle cx="619" cy="422" r="9" fill="#f4e6bd" opacity=".82"/><circle cx="250" cy="451" r="10" fill="#ead8ab" opacity=".82"/><circle cx="291" cy="295" r="4" fill="#ead8ab" opacity=".82"/><circle cx="332" cy="324" r="5" fill="#f4e6bd" opacity=".82"/><circle cx="373" cy="353" r="6" fill="#ead8ab" opacity=".82"/><circle cx="414" cy="382" r="7" fill="#ead8ab" opacity=".82"/><circle cx="455" cy="411" r="8" fill="#f4e6bd" opacity=".82"/><circle cx="496" cy="440" r="9" fill="#ead8ab" opacity=".82"/><circle cx="537" cy="284" r="10" fill="#ead8ab" opacity=".82"/><circle cx="578" cy="313" r="4" fill="#f4e6bd" opacity=".82"/><circle cx="619" cy="342" r="5" fill="#ead8ab" opacity=".82"/><circle cx="250" cy="371" r="6" fill="#ead8ab" opacity=".82"/><circle cx="291" cy="400" r="7" fill="#f4e6bd" opacity=".82"/><circle cx="332" cy="429" r="8" fill="#ead8ab" opacity=".82"/><circle cx="373" cy="458" r="9" fill="#ead8ab" opacity=".82"/><circle cx="414" cy="302" r="10" fill="#f4e6bd" opacity=".82"/><circle cx="455" cy="331" r="4" fill="#ead8ab" opacity=".82"/></g>
  
  <g filter="url(#soft-shadow)">
    <path d="M260 318c88-78 262-90 378-28 38 20 46 66 12 95-98 84-300 94-415 20-39-25-31-59 25-87z" fill="#f6efe4"/>
    <path d="M280 329c83 40 227 40 336 4" fill="none" stroke="#d7b98a" stroke-width="12" stroke-linecap="round" opacity=".45"/>
    <path d="M308 377c88 34 205 31 300-8" fill="none" stroke="#fffaf1" stroke-width="9" stroke-linecap="round" opacity=".65"/>
    <circle cx="530" cy="322" r="16" fill="#f1c85d" opacity=".95"/>
  </g>
  <g><rect x="554" y="424" width="58" height="14" rx="7" fill="#dc8543" transform="rotate(-26 554 424)" opacity=".82"/><rect x="625" y="297" width="58" height="14" rx="7" fill="#dc8543" transform="rotate(-11 625 297)" opacity=".82"/><rect x="326" y="350" width="58" height="14" rx="7" fill="#dc8543" transform="rotate(4 326 350)" opacity=".82"/><rect x="397" y="403" width="58" height="14" rx="7" fill="#dc8543" transform="rotate(19 397 403)" opacity=".82"/><rect x="468" y="276" width="58" height="14" rx="7" fill="#dc8543" transform="rotate(34 468 276)" opacity=".82"/><rect x="539" y="329" width="58" height="14" rx="7" fill="#dc8543" transform="rotate(-26 539 329)" opacity=".82"/><rect x="610" y="382" width="58" height="14" rx="7" fill="#dc8543" transform="rotate(-11 610 382)" opacity=".82"/><ellipse cx="319" cy="379" rx="31" ry="11" fill="#7aa36d" transform="rotate(-24 319 379)" opacity=".75"/><ellipse cx="380" cy="426" rx="31" ry="11" fill="#7aa36d" transform="rotate(-6 380 426)" opacity=".75"/><ellipse cx="441" cy="303" rx="31" ry="11" fill="#7aa36d" transform="rotate(12 441 303)" opacity=".75"/><ellipse cx="502" cy="350" rx="31" ry="11" fill="#7aa36d" transform="rotate(30 502 350)" opacity=".75"/><ellipse cx="563" cy="397" rx="31" ry="11" fill="#7aa36d" transform="rotate(-24 563 397)" opacity=".75"/><ellipse cx="624" cy="444" rx="31" ry="11" fill="#7aa36d" transform="rotate(-6 624 444)" opacity=".75"/><ellipse cx="354" cy="344" rx="20" ry="8" fill="#45745c" transform="rotate(-8 354 344)" opacity=".9"/><ellipse cx="421" cy="385" rx="25" ry="8" fill="#45745c" transform="rotate(15 421 385)" opacity=".9"/><ellipse cx="488" cy="426" rx="30" ry="8" fill="#45745c" transform="rotate(-30 488 426)" opacity=".9"/><ellipse cx="555" cy="217" rx="20" ry="8" fill="#45745c" transform="rotate(-7 555 217)" opacity=".9"/><ellipse cx="622" cy="258" rx="25" ry="8" fill="#45745c" transform="rotate(16 622 258)" opacity=".9"/><ellipse cx="284" cy="299" rx="30" ry="8" fill="#45745c" transform="rotate(-29 284 299)" opacity=".9"/><ellipse cx="351" cy="340" rx="20" ry="8" fill="#45745c" transform="rotate(-6 351 340)" opacity=".9"/><ellipse cx="418" cy="381" rx="25" ry="8" fill="#45745c" transform="rotate(17 418 381)" opacity=".9"/><ellipse cx="485" cy="422" rx="30" ry="8" fill="#45745c" transform="rotate(-28 485 422)" opacity=".9"/><ellipse cx="552" cy="213" rx="20" ry="8" fill="#45745c" transform="rotate(-5 552 213)" opacity=".9"/><ellipse cx="619" cy="254" rx="25" ry="8" fill="#45745c" transform="rotate(18 619 254)" opacity=".9"/><ellipse cx="281" cy="295" rx="30" ry="8" fill="#45745c" transform="rotate(-27 281 295)" opacity=".9"/><ellipse cx="348" cy="336" rx="20" ry="8" fill="#45745c" transform="rotate(-4 348 336)" opacity=".9"/></g>
  <g opacity=".95">
    <circle cx="556" cy="249" r="22" fill="#f1c85d"/>
    <path d="M556 228a22 22 0 0 1 0 44" fill="#fff3b0" opacity=".72"/>
  </g>
</svg>