<svg xmlns="http://www.w3.org/2000/svg" viewBox="0 0 900 675" role="img" aria-label="walleye fillets with weeknight grains">
  <defs>
    <radialGradient id="plate-glow" cx="50%" cy="46%" r="62%">
      <stop offset="0" stop-color="#fffdf4"/>
      <stop offset="1" stop-color="#fff8ea"/>
    </radialGradient>
    <linearGradient id="table" x1="0" y1="0" x2="1" y2="1">
      <stop offset="0" stop-color="#f3eee2"/>
      <stop offset="1" stop-color="#d8c7ab"/>
    </linearGradient>
    <filter id="soft-shadow" x="-25%" y="-25%" width="150%" height="150%">
      <feDropShadow dx="0" dy="14" stdDeviation="15" flood-color="#253a35" flood-opacity=".28"/>
    </filter>
    <filter id="grain">
      <feTurbulence type="fractalNoise" baseFrequency=".85" numOctaves="2" seed="2231" result="noise"/>
      <feColorMatrix type="saturate" values=".12"/>
      <feComponentTransfer>
        <feFuncA type="table" tableValues="0 .12"/>
      </feComponentTransfer>
      <feBlend mode="multiply" in2="SourceGraphic"/>
    </filter>
  </defs>
  <rect width="900" height="675" fill="url(#table)"/>
  <rect width="900" height="675" filter="url(#grain)" opacity=".34"/>
  <ellipse cx="450" cy="365" rx="332" ry="222" fill="#5d4b3c" opacity=".12"/>
  <ellipse cx="450" cy="350" rx="318" ry="214" fill="url(#plate-glow)"/>
  <ellipse cx="450" cy="350" rx="260" ry="164" fill="#f6ead4"/>
  <g><circle cx="429" cy="291" r="9" fill="#f4e6bd" opacity=".82"/><circle cx="470" cy="320" r="10" fill="#ead8ab" opacity=".82"/><circle cx="511" cy="349" r="4" fill="#ead8ab" opacity=".82"/><circle cx="552" cy="378" r="5" fill="#f4e6bd" opacity=".82"/><circle cx="593" cy="407" r="6" fill="#ead8ab" opacity=".82"/><circle cx="634" cy="436" r="7" fill="#ead8ab" opacity=".82"/><circle cx="265" cy="280" r="8" fill="#f4e6bd" opacity=".82"/><circle cx="306" cy="309" r="9" fill="#ead8ab" opacity=".82"/><circle cx="347" cy="338" r="10" fill="#ead8ab" opacity=".82"/><circle cx="388" cy="367" r="4" fill="#f4e6bd" opacity=".82"/><circle cx="429" cy="396" r="5" fill="#ead8ab" opacity=".82"/><circle cx="470" cy="425" r="6" fill="#ead8ab" opacity=".82"/><circle cx="511" cy="454" r="7" fill="#f4e6bd" opacity=".82"/><circle cx="552" cy="298" r="8" fill="#ead8ab" opacity=".82"/><circle cx="593" cy="327" r="9" fill="#ead8ab" opacity=".82"/><circle cx="634" cy="356" r="10" fill="#f4e6bd" opacity=".82"/><circle cx="265" cy="385" r="4" fill="#ead8ab" opacity=".82"/><circle cx="306" cy="414" r="5" fill="#ead8ab" opacity=".82"/><circle cx="347" cy="443" r="6" fill="#f4e6bd" opacity=".82"/><circle cx="388" cy="287" r="7" fill="#ead8ab" opacity=".82"/><circle cx="429" cy="316" r="8" fill="#ead8ab" opacity=".82"/><circle cx="470" cy="345" r="9" fill="#f4e6bd" opacity=".82"/><circle cx="511" cy="374" r="10" fill="#ead8ab" opacity=".82"/><circle cx="552" cy="403" r="4" fill="#ead8ab" opacity=".82"/><circle cx="593" cy="432" r="5" fill="#f4e6bd" opacity=".82"/><circle cx="634" cy="461" r="6" fill="#ead8ab" opacity=".82"/><circle cx="265" cy="305" r="7" fill="#ead8ab" opacity=".82"/><circle cx="306" cy="334" r="8" fill="#f4e6bd" opacity=".82"/><circle cx="347" cy="363" r="9" fill="#ead8ab" opacity=".82"/><circle cx="388" cy="392" r="10" fill="#ead8ab" opacity=".82"/><circle cx="429" cy="421" r="4" fill="#f4e6bd" opacity=".82"/><circle cx="470" cy="450" r="5" fill="#ead8ab" opacity=".82"/><circle cx="511" cy="294" r="6" fill="#ead8ab" opacity=".82"/><circle cx="552" cy="323" r="7" fill="#f4e6bd" opacity=".82"/><circle cx="593" cy="352" r="8" fill="#ead8ab" opacity=".82"/><circle cx="634" cy="381" r="9" fill="#ead8ab" opacity=".82"/><circle cx="265" cy="410" r="10" fill="#f4e6bd" opacity=".82"/><circle cx="306" cy="439" r="4" fill="#ead8ab" opacity=".82"/><circle cx="347" cy="283" r="5" fill="#ead8ab" opacity=".82"/><circle cx="388" cy="312" r="6" fill="#f4e6bd" opacity=".82"/><circle cx="429" cy="341" r="7" fill="#ead8ab" opacity=".82"/><circle cx="470" cy="370" r="8" fill="#ead8ab" opacity=".82"/><circle cx="511" cy="399" r="9" fill="#f4e6bd" opacity=".82"/><circle cx="552" cy="428" r="10" fill="#ead8ab" opacity=".82"/></g>
  
  <g filter="url(#soft-shadow)">
    <path d="M260 318c88-78 262-90 378-28 38 20 46 66 12 95-98 84-300 94-415 20-39-25-31-59 25-87z" fill="#f6efe4"/>
    <path d="M280 329c83 40 227 40 336 4" fill="none" stroke="#d7b98a" stroke-width="12" stroke-linecap="round" opacity=".45"/>
    <path d="M308 377c88 34 205 31 300-8" fill="none" stroke="#fffaf1" stroke-width="9" stroke-linecap="round" opacity=".65"/>
    <circle cx="555" cy="323" r="16" fill="#f1c85d" opacity=".95"/>
  </g>
  <g><rect x="281" y="341" width="58" height="14" rx="7" fill="#dc8543" transform="rotate(-26 281 341)" opacity=".82"/><rect x="352" y="394" width="58" height="14" rx="7" fill="#dc8543" transform="rotate(-11 352 394)" opacity=".82"/><rect x="423" y="447" width="58" height="14" rx="7" fill="#dc8543" transform="rotate(4 423 447)" opacity=".82"/><rect x="494" y="320" width="58" height="14" rx="7" fill="#dc8543" transform="rotate(19 494 320)" opacity=".82"/><rect x="565" y="373" width="58" height="14" rx="7" fill="#dc8543" transform="rotate(34 565 373)" opacity=".82"/><rect x="636" y="426" width="58" height="14" rx="7" fill="#dc8543" transform="rotate(-26 636 426)" opacity=".82"/><rect x="337" y="299" width="58" height="14" rx="7" fill="#dc8543" transform="rotate(-11 337 299)" opacity=".82"/><ellipse cx="416" cy="306" rx="31" ry="11" fill="#7aa36d" transform="rotate(-24 416 306)" opacity=".75"/><ellipse cx="477" cy="353" rx="31" ry="11" fill="#7aa36d" transform="rotate(-6 477 353)" opacity=".75"/><ellipse cx="538" cy="400" rx="31" ry="11" fill="#7aa36d" transform="rotate(12 538 400)" opacity=".75"/><ellipse cx="599" cy="447" rx="31" ry="11" fill="#7aa36d" transform="rotate(30 599 447)" opacity=".75"/><ellipse cx="310" cy="324" rx="31" ry="11" fill="#7aa36d" transform="rotate(-24 310 324)" opacity=".75"/><ellipse cx="371" cy="371" rx="31" ry="11" fill="#7aa36d" transform="rotate(-6 371 371)" opacity=".75"/><ellipse cx="451" cy="441" rx="20" ry="8" fill="#45745c" transform="rotate(21 451 441)" opacity=".9"/><ellipse cx="518" cy="232" rx="25" ry="8" fill="#45745c" transform="rotate(-24 518 232)" opacity=".9"/><ellipse cx="585" cy="273" rx="30" ry="8" fill="#45745c" transform="rotate(-1 585 273)" opacity=".9"/><ellipse cx="247" cy="314" rx="20" ry="8" fill="#45745c" transform="rotate(22 247 314)" opacity=".9"/><ellipse cx="314" cy="355" rx="25" ry="8" fill="#45745c" transform="rotate(-23 314 355)" opacity=".9"/><ellipse cx="381" cy="396" rx="30" ry="8" fill="#45745c" transform="rotate(0 381 396)" opacity=".9"/><ellipse cx="448" cy="437" rx="20" ry="8" fill="#45745c" transform="rotate(23 448 437)" opacity=".9"/><ellipse cx="515" cy="228" rx="25" ry="8" fill="#45745c" transform="rotate(-22 515 228)" opacity=".9"/><ellipse cx="582" cy="269" rx="30" ry="8" fill="#45745c" transform="rotate(1 582 269)" opacity=".9"/><ellipse cx="649" cy="310" rx="20" ry="8" fill="#45745c" transform="rotate(24 649 310)" opacity=".9"/><ellipse cx="311" cy="351" rx="25" ry="8" fill="#45745c" transform="rotate(-21 311 351)" opacity=".9"/><ellipse cx="378" cy="392" rx="30" ry="8" fill="#45745c" transform="rotate(2 378 392)" opacity=".9"/><ellipse cx="445" cy="433" rx="20" ry="8" fill="#45745c" transform="rotate(25 445 433)" opacity=".9"/></g>
  <g opacity=".95">
    <circle cx="539" cy="266" r="22" fill="#f1c85d"/>
    <path d="M539 245a22 22 0 0 1 0 44" fill="#fff3b0" opacity=".72"/>
  </g>
</svg>