<svg xmlns="http://www.w3.org/2000/svg" viewBox="0 0 900 675" role="img" aria-label="walleye fillets with kosher for Passover sides">
  <defs>
    <radialGradient id="plate-glow" cx="50%" cy="46%" r="62%">
      <stop offset="0" stop-color="#fffdf4"/>
      <stop offset="1" stop-color="#fff8ea"/>
    </radialGradient>
    <linearGradient id="table" x1="0" y1="0" x2="1" y2="1">
      <stop offset="0" stop-color="#f3eee2"/>
      <stop offset="1" stop-color="#d8c7ab"/>
    </linearGradient>
    <filter id="soft-shadow" x="-25%" y="-25%" width="150%" height="150%">
      <feDropShadow dx="0" dy="14" stdDeviation="15" flood-color="#253a35" flood-opacity=".28"/>
    </filter>
    <filter id="grain">
      <feTurbulence type="fractalNoise" baseFrequency=".85" numOctaves="2" seed="1358" result="noise"/>
      <feColorMatrix type="saturate" values=".12"/>
      <feComponentTransfer>
        <feFuncA type="table" tableValues="0 .12"/>
      </feComponentTransfer>
      <feBlend mode="multiply" in2="SourceGraphic"/>
    </filter>
  </defs>
  <rect width="900" height="675" fill="url(#table)"/>
  <rect width="900" height="675" filter="url(#grain)" opacity=".34"/>
  <ellipse cx="450" cy="365" rx="332" ry="222" fill="#5d4b3c" opacity=".12"/>
  <ellipse cx="450" cy="350" rx="318" ry="214" fill="url(#plate-glow)"/>
  <ellipse cx="450" cy="350" rx="260" ry="164" fill="#f6ead4"/>
  <g><circle cx="376" cy="343" r="4" fill="#f4e6bd" opacity=".82"/><circle cx="417" cy="372" r="5" fill="#ead8ab" opacity=".82"/><circle cx="458" cy="401" r="6" fill="#ead8ab" opacity=".82"/><circle cx="499" cy="430" r="7" fill="#f4e6bd" opacity=".82"/><circle cx="540" cy="459" r="8" fill="#ead8ab" opacity=".82"/><circle cx="581" cy="303" r="9" fill="#ead8ab" opacity=".82"/><circle cx="622" cy="332" r="10" fill="#f4e6bd" opacity=".82"/><circle cx="253" cy="361" r="4" fill="#ead8ab" opacity=".82"/><circle cx="294" cy="390" r="5" fill="#ead8ab" opacity=".82"/><circle cx="335" cy="419" r="6" fill="#f4e6bd" opacity=".82"/><circle cx="376" cy="448" r="7" fill="#ead8ab" opacity=".82"/><circle cx="417" cy="292" r="8" fill="#ead8ab" opacity=".82"/><circle cx="458" cy="321" r="9" fill="#f4e6bd" opacity=".82"/><circle cx="499" cy="350" r="10" fill="#ead8ab" opacity=".82"/><circle cx="540" cy="379" r="4" fill="#ead8ab" opacity=".82"/><circle cx="581" cy="408" r="5" fill="#f4e6bd" opacity=".82"/><circle cx="622" cy="437" r="6" fill="#ead8ab" opacity=".82"/><circle cx="253" cy="281" r="7" fill="#ead8ab" opacity=".82"/><circle cx="294" cy="310" r="8" fill="#f4e6bd" opacity=".82"/><circle cx="335" cy="339" r="9" fill="#ead8ab" opacity=".82"/><circle cx="376" cy="368" r="10" fill="#ead8ab" opacity=".82"/><circle cx="417" cy="397" r="4" fill="#f4e6bd" opacity=".82"/><circle cx="458" cy="426" r="5" fill="#ead8ab" opacity=".82"/><circle cx="499" cy="455" r="6" fill="#ead8ab" opacity=".82"/><circle cx="540" cy="299" r="7" fill="#f4e6bd" opacity=".82"/><circle cx="581" cy="328" r="8" fill="#ead8ab" opacity=".82"/><circle cx="622" cy="357" r="9" fill="#ead8ab" opacity=".82"/><circle cx="253" cy="386" r="10" fill="#f4e6bd" opacity=".82"/><circle cx="294" cy="415" r="4" fill="#ead8ab" opacity=".82"/><circle cx="335" cy="444" r="5" fill="#ead8ab" opacity=".82"/><circle cx="376" cy="288" r="6" fill="#f4e6bd" opacity=".82"/><circle cx="417" cy="317" r="7" fill="#ead8ab" opacity=".82"/><circle cx="458" cy="346" r="8" fill="#ead8ab" opacity=".82"/><circle cx="499" cy="375" r="9" fill="#f4e6bd" opacity=".82"/><circle cx="540" cy="404" r="10" fill="#ead8ab" opacity=".82"/><circle cx="581" cy="433" r="4" fill="#ead8ab" opacity=".82"/><circle cx="622" cy="462" r="5" fill="#f4e6bd" opacity=".82"/><circle cx="253" cy="306" r="6" fill="#ead8ab" opacity=".82"/><circle cx="294" cy="335" r="7" fill="#ead8ab" opacity=".82"/><circle cx="335" cy="364" r="8" fill="#f4e6bd" opacity=".82"/><circle cx="376" cy="393" r="9" fill="#ead8ab" opacity=".82"/><circle cx="417" cy="422" r="10" fill="#ead8ab" opacity=".82"/><circle cx="458" cy="451" r="4" fill="#f4e6bd" opacity=".82"/><circle cx="499" cy="295" r="5" fill="#ead8ab" opacity=".82"/></g>
  
  <g filter="url(#soft-shadow)">
    <path d="M260 318c88-78 262-90 378-28 38 20 46 66 12 95-98 84-300 94-415 20-39-25-31-59 25-87z" fill="#f6efe4"/>
    <path d="M280 329c83 40 227 40 336 4" fill="none" stroke="#d7b98a" stroke-width="12" stroke-linecap="round" opacity=".45"/>
    <path d="M308 377c88 34 205 31 300-8" fill="none" stroke="#fffaf1" stroke-width="9" stroke-linecap="round" opacity=".65"/>
    <circle cx="546" cy="314" r="16" fill="#f1c85d" opacity=".95"/>
  </g>
  <g><rect x="518" y="368" width="58" height="14" rx="7" fill="#dc8543" transform="rotate(-26 518 368)" opacity=".82"/><rect x="589" y="421" width="58" height="14" rx="7" fill="#dc8543" transform="rotate(-11 589 421)" opacity=".82"/><rect x="290" y="294" width="58" height="14" rx="7" fill="#dc8543" transform="rotate(4 290 294)" opacity=".82"/><rect x="361" y="347" width="58" height="14" rx="7" fill="#dc8543" transform="rotate(19 361 347)" opacity=".82"/><rect x="432" y="400" width="58" height="14" rx="7" fill="#dc8543" transform="rotate(34 432 400)" opacity=".82"/><rect x="503" y="273" width="58" height="14" rx="7" fill="#dc8543" transform="rotate(-26 503 273)" opacity=".82"/><rect x="574" y="326" width="58" height="14" rx="7" fill="#dc8543" transform="rotate(-11 574 326)" opacity=".82"/><ellipse cx="593" cy="453" rx="31" ry="11" fill="#7aa36d" transform="rotate(-24 593 453)" opacity=".75"/><ellipse cx="304" cy="330" rx="31" ry="11" fill="#7aa36d" transform="rotate(-6 304 330)" opacity=".75"/><ellipse cx="365" cy="377" rx="31" ry="11" fill="#7aa36d" transform="rotate(12 365 377)" opacity=".75"/><ellipse cx="426" cy="424" rx="31" ry="11" fill="#7aa36d" transform="rotate(30 426 424)" opacity=".75"/><ellipse cx="487" cy="301" rx="31" ry="11" fill="#7aa36d" transform="rotate(-24 487 301)" opacity=".75"/><ellipse cx="548" cy="348" rx="31" ry="11" fill="#7aa36d" transform="rotate(-6 548 348)" opacity=".75"/><ellipse cx="388" cy="318" rx="20" ry="8" fill="#45745c" transform="rotate(32 388 318)" opacity=".9"/><ellipse cx="455" cy="359" rx="25" ry="8" fill="#45745c" transform="rotate(-13 455 359)" opacity=".9"/><ellipse cx="522" cy="400" rx="30" ry="8" fill="#45745c" transform="rotate(10 522 400)" opacity=".9"/><ellipse cx="589" cy="441" rx="20" ry="8" fill="#45745c" transform="rotate(33 589 441)" opacity=".9"/><ellipse cx="251" cy="232" rx="25" ry="8" fill="#45745c" transform="rotate(-12 251 232)" opacity=".9"/><ellipse cx="318" cy="273" rx="30" ry="8" fill="#45745c" transform="rotate(11 318 273)" opacity=".9"/><ellipse cx="385" cy="314" rx="20" ry="8" fill="#45745c" transform="rotate(-34 385 314)" opacity=".9"/><ellipse cx="452" cy="355" rx="25" ry="8" fill="#45745c" transform="rotate(-11 452 355)" opacity=".9"/><ellipse cx="519" cy="396" rx="30" ry="8" fill="#45745c" transform="rotate(12 519 396)" opacity=".9"/><ellipse cx="586" cy="437" rx="20" ry="8" fill="#45745c" transform="rotate(-33 586 437)" opacity=".9"/><ellipse cx="248" cy="228" rx="25" ry="8" fill="#45745c" transform="rotate(-10 248 228)" opacity=".9"/><ellipse cx="315" cy="269" rx="30" ry="8" fill="#45745c" transform="rotate(13 315 269)" opacity=".9"/><ellipse cx="382" cy="310" rx="20" ry="8" fill="#45745c" transform="rotate(-32 382 310)" opacity=".9"/></g>
  <g opacity=".95">
    <circle cx="532" cy="273" r="22" fill="#f1c85d"/>
    <path d="M532 252a22 22 0 0 1 0 44" fill="#fff3b0" opacity=".72"/>
  </g>
</svg>