<svg xmlns="http://www.w3.org/2000/svg" viewBox="0 0 900 675" role="img" aria-label="white fish fillets with clean herb sides">
  <defs>
    <radialGradient id="plate-glow" cx="50%" cy="46%" r="62%">
      <stop offset="0" stop-color="#fffdf4"/>
      <stop offset="1" stop-color="#fff8ea"/>
    </radialGradient>
    <linearGradient id="table" x1="0" y1="0" x2="1" y2="1">
      <stop offset="0" stop-color="#f3eee2"/>
      <stop offset="1" stop-color="#d8c7ab"/>
    </linearGradient>
    <filter id="soft-shadow" x="-25%" y="-25%" width="150%" height="150%">
      <feDropShadow dx="0" dy="14" stdDeviation="15" flood-color="#253a35" flood-opacity=".28"/>
    </filter>
    <filter id="grain">
      <feTurbulence type="fractalNoise" baseFrequency=".85" numOctaves="2" seed="3880" result="noise"/>
      <feColorMatrix type="saturate" values=".12"/>
      <feComponentTransfer>
        <feFuncA type="table" tableValues="0 .12"/>
      </feComponentTransfer>
      <feBlend mode="multiply" in2="SourceGraphic"/>
    </filter>
  </defs>
  <rect width="900" height="675" fill="url(#table)"/>
  <rect width="900" height="675" filter="url(#grain)" opacity=".34"/>
  <ellipse cx="450" cy="365" rx="332" ry="222" fill="#5d4b3c" opacity=".12"/>
  <ellipse cx="450" cy="350" rx="318" ry="214" fill="url(#plate-glow)"/>
  <ellipse cx="450" cy="350" rx="260" ry="164" fill="#f6ead4"/>
  <g><circle cx="438" cy="460" r="6" fill="#f4e6bd" opacity=".82"/><circle cx="479" cy="304" r="7" fill="#ead8ab" opacity=".82"/><circle cx="520" cy="333" r="8" fill="#ead8ab" opacity=".82"/><circle cx="561" cy="362" r="9" fill="#f4e6bd" opacity=".82"/><circle cx="602" cy="391" r="10" fill="#ead8ab" opacity=".82"/><circle cx="643" cy="420" r="4" fill="#ead8ab" opacity=".82"/><circle cx="274" cy="449" r="5" fill="#f4e6bd" opacity=".82"/><circle cx="315" cy="293" r="6" fill="#ead8ab" opacity=".82"/><circle cx="356" cy="322" r="7" fill="#ead8ab" opacity=".82"/><circle cx="397" cy="351" r="8" fill="#f4e6bd" opacity=".82"/><circle cx="438" cy="380" r="9" fill="#ead8ab" opacity=".82"/><circle cx="479" cy="409" r="10" fill="#ead8ab" opacity=".82"/><circle cx="520" cy="438" r="4" fill="#f4e6bd" opacity=".82"/><circle cx="561" cy="282" r="5" fill="#ead8ab" opacity=".82"/><circle cx="602" cy="311" r="6" fill="#ead8ab" opacity=".82"/><circle cx="643" cy="340" r="7" fill="#f4e6bd" opacity=".82"/><circle cx="274" cy="369" r="8" fill="#ead8ab" opacity=".82"/><circle cx="315" cy="398" r="9" fill="#ead8ab" opacity=".82"/><circle cx="356" cy="427" r="10" fill="#f4e6bd" opacity=".82"/><circle cx="397" cy="456" r="4" fill="#ead8ab" opacity=".82"/><circle cx="438" cy="300" r="5" fill="#ead8ab" opacity=".82"/><circle cx="479" cy="329" r="6" fill="#f4e6bd" opacity=".82"/><circle cx="520" cy="358" r="7" fill="#ead8ab" opacity=".82"/><circle cx="561" cy="387" r="8" fill="#ead8ab" opacity=".82"/><circle cx="602" cy="416" r="9" fill="#f4e6bd" opacity=".82"/><circle cx="643" cy="445" r="10" fill="#ead8ab" opacity=".82"/><circle cx="274" cy="289" r="4" fill="#ead8ab" opacity=".82"/><circle cx="315" cy="318" r="5" fill="#f4e6bd" opacity=".82"/><circle cx="356" cy="347" r="6" fill="#ead8ab" opacity=".82"/><circle cx="397" cy="376" r="7" fill="#ead8ab" opacity=".82"/><circle cx="438" cy="405" r="8" fill="#f4e6bd" opacity=".82"/><circle cx="479" cy="434" r="9" fill="#ead8ab" opacity=".82"/><circle cx="520" cy="463" r="10" fill="#ead8ab" opacity=".82"/><circle cx="561" cy="307" r="4" fill="#f4e6bd" opacity=".82"/><circle cx="602" cy="336" r="5" fill="#ead8ab" opacity=".82"/><circle cx="643" cy="365" r="6" fill="#ead8ab" opacity=".82"/><circle cx="274" cy="394" r="7" fill="#f4e6bd" opacity=".82"/><circle cx="315" cy="423" r="8" fill="#ead8ab" opacity=".82"/><circle cx="356" cy="452" r="9" fill="#ead8ab" opacity=".82"/><circle cx="397" cy="296" r="10" fill="#f4e6bd" opacity=".82"/><circle cx="438" cy="325" r="4" fill="#ead8ab" opacity=".82"/><circle cx="479" cy="354" r="5" fill="#ead8ab" opacity=".82"/><circle cx="520" cy="383" r="6" fill="#f4e6bd" opacity=".82"/><circle cx="561" cy="412" r="7" fill="#ead8ab" opacity=".82"/></g>
  
  <g filter="url(#soft-shadow)">
    <path d="M260 318c88-78 262-90 378-28 38 20 46 66 12 95-98 84-300 94-415 20-39-25-31-59 25-87z" fill="#f6efe4"/>
    <path d="M280 329c83 40 227 40 336 4" fill="none" stroke="#d7b98a" stroke-width="12" stroke-linecap="round" opacity=".45"/>
    <path d="M308 377c88 34 205 31 300-8" fill="none" stroke="#fffaf1" stroke-width="9" stroke-linecap="round" opacity=".65"/>
    <circle cx="548" cy="316" r="16" fill="#f1c85d" opacity=".95"/>
  </g>
  <g><rect x="450" y="370" width="58" height="14" rx="7" fill="#dc8543" transform="rotate(-26 450 370)" opacity=".82"/><rect x="521" y="423" width="58" height="14" rx="7" fill="#dc8543" transform="rotate(-11 521 423)" opacity=".82"/><rect x="592" y="296" width="58" height="14" rx="7" fill="#dc8543" transform="rotate(4 592 296)" opacity=".82"/><rect x="293" y="349" width="58" height="14" rx="7" fill="#dc8543" transform="rotate(19 293 349)" opacity=".82"/><rect x="364" y="402" width="58" height="14" rx="7" fill="#dc8543" transform="rotate(34 364 402)" opacity=".82"/><rect x="435" y="275" width="58" height="14" rx="7" fill="#dc8543" transform="rotate(-26 435 275)" opacity=".82"/><rect x="506" y="328" width="58" height="14" rx="7" fill="#dc8543" transform="rotate(-11 506 328)" opacity=".82"/><ellipse cx="315" cy="425" rx="31" ry="11" fill="#7aa36d" transform="rotate(-24 315 425)" opacity=".75"/><ellipse cx="376" cy="302" rx="31" ry="11" fill="#7aa36d" transform="rotate(-6 376 302)" opacity=".75"/><ellipse cx="437" cy="349" rx="31" ry="11" fill="#7aa36d" transform="rotate(12 437 349)" opacity=".75"/><ellipse cx="498" cy="396" rx="31" ry="11" fill="#7aa36d" transform="rotate(30 498 396)" opacity=".75"/><ellipse cx="559" cy="443" rx="31" ry="11" fill="#7aa36d" transform="rotate(-24 559 443)" opacity=".75"/><ellipse cx="620" cy="320" rx="31" ry="11" fill="#7aa36d" transform="rotate(-6 620 320)" opacity=".75"/><ellipse cx="480" cy="340" rx="20" ry="8" fill="#45745c" transform="rotate(-30 480 340)" opacity=".9"/><ellipse cx="547" cy="381" rx="25" ry="8" fill="#45745c" transform="rotate(-7 547 381)" opacity=".9"/><ellipse cx="614" cy="422" rx="30" ry="8" fill="#45745c" transform="rotate(16 614 422)" opacity=".9"/><ellipse cx="276" cy="213" rx="20" ry="8" fill="#45745c" transform="rotate(-29 276 213)" opacity=".9"/><ellipse cx="343" cy="254" rx="25" ry="8" fill="#45745c" transform="rotate(-6 343 254)" opacity=".9"/><ellipse cx="410" cy="295" rx="30" ry="8" fill="#45745c" transform="rotate(17 410 295)" opacity=".9"/><ellipse cx="477" cy="336" rx="20" ry="8" fill="#45745c" transform="rotate(-28 477 336)" opacity=".9"/><ellipse cx="544" cy="377" rx="25" ry="8" fill="#45745c" transform="rotate(-5 544 377)" opacity=".9"/><ellipse cx="611" cy="418" rx="30" ry="8" fill="#45745c" transform="rotate(18 611 418)" opacity=".9"/><ellipse cx="273" cy="459" rx="20" ry="8" fill="#45745c" transform="rotate(-27 273 459)" opacity=".9"/><ellipse cx="340" cy="250" rx="25" ry="8" fill="#45745c" transform="rotate(-4 340 250)" opacity=".9"/><ellipse cx="407" cy="291" rx="30" ry="8" fill="#45745c" transform="rotate(19 407 291)" opacity=".9"/><ellipse cx="474" cy="332" rx="20" ry="8" fill="#45745c" transform="rotate(-26 474 332)" opacity=".9"/></g>
  <g opacity=".95">
    <circle cx="570" cy="235" r="22" fill="#f1c85d"/>
    <path d="M570 214a22 22 0 0 1 0 44" fill="#fff3b0" opacity=".72"/>
  </g>
</svg>