<svg xmlns="http://www.w3.org/2000/svg" viewBox="0 0 900 675" role="img" aria-label="dairy and nut kosher plates">
  <defs>
    <radialGradient id="plate-glow" cx="50%" cy="46%" r="62%">
      <stop offset="0" stop-color="#fffdf4"/>
      <stop offset="1" stop-color="#fffaf0"/>
    </radialGradient>
    <linearGradient id="table" x1="0" y1="0" x2="1" y2="1">
      <stop offset="0" stop-color="#f4ecdf"/>
      <stop offset="1" stop-color="#d0bfa5"/>
    </linearGradient>
    <filter id="soft-shadow" x="-25%" y="-25%" width="150%" height="150%">
      <feDropShadow dx="0" dy="14" stdDeviation="15" flood-color="#303229" flood-opacity=".28"/>
    </filter>
    <filter id="grain">
      <feTurbulence type="fractalNoise" baseFrequency=".85" numOctaves="2" seed="9797" result="noise"/>
      <feColorMatrix type="saturate" values=".12"/>
      <feComponentTransfer>
        <feFuncA type="table" tableValues="0 .12"/>
      </feComponentTransfer>
      <feBlend mode="multiply" in2="SourceGraphic"/>
    </filter>
  </defs>
  <rect width="900" height="675" fill="url(#table)"/>
  <rect width="900" height="675" filter="url(#grain)" opacity=".34"/>
  <ellipse cx="450" cy="365" rx="332" ry="222" fill="#5d4b3c" opacity=".12"/>
  <ellipse cx="450" cy="350" rx="318" ry="214" fill="url(#plate-glow)"/>
  <ellipse cx="450" cy="350" rx="260" ry="164" fill="#f6ead4"/>
  <g><circle cx="615" cy="457" r="8" fill="#f4e6bd" opacity=".82"/><circle cx="656" cy="301" r="9" fill="#dfcca0" opacity=".82"/><circle cx="287" cy="330" r="10" fill="#dfcca0" opacity=".82"/><circle cx="328" cy="359" r="4" fill="#f4e6bd" opacity=".82"/><circle cx="369" cy="388" r="5" fill="#dfcca0" opacity=".82"/><circle cx="410" cy="417" r="6" fill="#dfcca0" opacity=".82"/><circle cx="451" cy="446" r="7" fill="#f4e6bd" opacity=".82"/><circle cx="492" cy="290" r="8" fill="#dfcca0" opacity=".82"/><circle cx="533" cy="319" r="9" fill="#dfcca0" opacity=".82"/><circle cx="574" cy="348" r="10" fill="#f4e6bd" opacity=".82"/><circle cx="615" cy="377" r="4" fill="#dfcca0" opacity=".82"/><circle cx="656" cy="406" r="5" fill="#dfcca0" opacity=".82"/><circle cx="287" cy="435" r="6" fill="#f4e6bd" opacity=".82"/><circle cx="328" cy="464" r="7" fill="#dfcca0" opacity=".82"/><circle cx="369" cy="308" r="8" fill="#dfcca0" opacity=".82"/><circle cx="410" cy="337" r="9" fill="#f4e6bd" opacity=".82"/><circle cx="451" cy="366" r="10" fill="#dfcca0" opacity=".82"/><circle cx="492" cy="395" r="4" fill="#dfcca0" opacity=".82"/><circle cx="533" cy="424" r="5" fill="#f4e6bd" opacity=".82"/><circle cx="574" cy="453" r="6" fill="#dfcca0" opacity=".82"/><circle cx="615" cy="297" r="7" fill="#dfcca0" opacity=".82"/><circle cx="656" cy="326" r="8" fill="#f4e6bd" opacity=".82"/><circle cx="287" cy="355" r="9" fill="#dfcca0" opacity=".82"/><circle cx="328" cy="384" r="10" fill="#dfcca0" opacity=".82"/><circle cx="369" cy="413" r="4" fill="#f4e6bd" opacity=".82"/><circle cx="410" cy="442" r="5" fill="#dfcca0" opacity=".82"/><circle cx="451" cy="286" r="6" fill="#dfcca0" opacity=".82"/><circle cx="492" cy="315" r="7" fill="#f4e6bd" opacity=".82"/><circle cx="533" cy="344" r="8" fill="#dfcca0" opacity=".82"/><circle cx="574" cy="373" r="9" fill="#dfcca0" opacity=".82"/><circle cx="615" cy="402" r="10" fill="#f4e6bd" opacity=".82"/><circle cx="656" cy="431" r="4" fill="#dfcca0" opacity=".82"/><circle cx="287" cy="460" r="5" fill="#dfcca0" opacity=".82"/><circle cx="328" cy="304" r="6" fill="#f4e6bd" opacity=".82"/><circle cx="369" cy="333" r="7" fill="#dfcca0" opacity=".82"/><circle cx="410" cy="362" r="8" fill="#dfcca0" opacity=".82"/><circle cx="451" cy="391" r="9" fill="#f4e6bd" opacity=".82"/><circle cx="492" cy="420" r="10" fill="#dfcca0" opacity=".82"/><circle cx="533" cy="449" r="4" fill="#dfcca0" opacity=".82"/><circle cx="574" cy="293" r="5" fill="#f4e6bd" opacity=".82"/><circle cx="615" cy="322" r="6" fill="#dfcca0" opacity=".82"/><circle cx="656" cy="351" r="7" fill="#dfcca0" opacity=".82"/><circle cx="287" cy="380" r="8" fill="#f4e6bd" opacity=".82"/><circle cx="328" cy="409" r="9" fill="#dfcca0" opacity=".82"/></g>
  
  <g filter="url(#soft-shadow)">
    <path d="M270 332c88-42 254-53 374-14 38 12 39 51 3 70-112 58-299 61-403 7-34-18-24-45 26-63z" fill="#f2ead8"/>
    <rect x="497" y="352" width="28" height="18" rx="5" fill="#b9a67e" transform="rotate(-24 497 352)"/><rect x="550" y="389" width="28" height="18" rx="5" fill="#fffaf0" transform="rotate(-12 550 389)"/><rect x="303" y="426" width="28" height="18" rx="5" fill="#fffaf0" transform="rotate(0 303 426)"/><rect x="356" y="338" width="28" height="18" rx="5" fill="#b9a67e" transform="rotate(12 356 338)"/><rect x="409" y="375" width="28" height="18" rx="5" fill="#fffaf0" transform="rotate(24 409 375)"/><rect x="462" y="412" width="28" height="18" rx="5" fill="#fffaf0" transform="rotate(-24 462 412)"/><rect x="515" y="324" width="28" height="18" rx="5" fill="#b9a67e" transform="rotate(-12 515 324)"/><rect x="568" y="361" width="28" height="18" rx="5" fill="#fffaf0" transform="rotate(0 568 361)"/><rect x="321" y="398" width="28" height="18" rx="5" fill="#fffaf0" transform="rotate(12 321 398)"/><rect x="374" y="310" width="28" height="18" rx="5" fill="#b9a67e" transform="rotate(24 374 310)"/><rect x="427" y="347" width="28" height="18" rx="5" fill="#fffaf0" transform="rotate(-24 427 347)"/><rect x="480" y="384" width="28" height="18" rx="5" fill="#fffaf0" transform="rotate(-12 480 384)"/><rect x="533" y="421" width="28" height="18" rx="5" fill="#b9a67e" transform="rotate(0 533 421)"/><rect x="586" y="333" width="28" height="18" rx="5" fill="#fffaf0" transform="rotate(12 586 333)"/><rect x="339" y="370" width="28" height="18" rx="5" fill="#fffaf0" transform="rotate(24 339 370)"/><rect x="392" y="407" width="28" height="18" rx="5" fill="#b9a67e" transform="rotate(-24 392 407)"/>
  </g>
  <g><rect x="447" y="347" width="58" height="14" rx="7" fill="#dc8543" transform="rotate(-26 447 347)" opacity=".82"/><rect x="518" y="400" width="58" height="14" rx="7" fill="#dc8543" transform="rotate(-11 518 400)" opacity=".82"/><rect x="589" y="273" width="58" height="14" rx="7" fill="#dc8543" transform="rotate(4 589 273)" opacity=".82"/><rect x="290" y="326" width="58" height="14" rx="7" fill="#dc8543" transform="rotate(19 290 326)" opacity=".82"/><rect x="361" y="379" width="58" height="14" rx="7" fill="#dc8543" transform="rotate(34 361 379)" opacity=".82"/><rect x="432" y="432" width="58" height="14" rx="7" fill="#dc8543" transform="rotate(-26 432 432)" opacity=".82"/><rect x="503" y="305" width="58" height="14" rx="7" fill="#dc8543" transform="rotate(-11 503 305)" opacity=".82"/><ellipse cx="632" cy="392" rx="31" ry="11" fill="#7aa36d" transform="rotate(-24 632 392)" opacity=".75"/><ellipse cx="343" cy="439" rx="31" ry="11" fill="#7aa36d" transform="rotate(-6 343 439)" opacity=".75"/><ellipse cx="404" cy="316" rx="31" ry="11" fill="#7aa36d" transform="rotate(12 404 316)" opacity=".75"/><ellipse cx="465" cy="363" rx="31" ry="11" fill="#7aa36d" transform="rotate(30 465 363)" opacity=".75"/><ellipse cx="526" cy="410" rx="31" ry="11" fill="#7aa36d" transform="rotate(-24 526 410)" opacity=".75"/><ellipse cx="587" cy="287" rx="31" ry="11" fill="#7aa36d" transform="rotate(-6 587 287)" opacity=".75"/><ellipse cx="322" cy="257" rx="20" ry="8" fill="#4e7459" transform="rotate(-29 322 257)" opacity=".9"/><ellipse cx="389" cy="298" rx="25" ry="8" fill="#4e7459" transform="rotate(-6 389 298)" opacity=".9"/><ellipse cx="456" cy="339" rx="30" ry="8" fill="#4e7459" transform="rotate(17 456 339)" opacity=".9"/><ellipse cx="523" cy="380" rx="20" ry="8" fill="#4e7459" transform="rotate(-28 523 380)" opacity=".9"/><ellipse cx="590" cy="421" rx="25" ry="8" fill="#4e7459" transform="rotate(-5 590 421)" opacity=".9"/><ellipse cx="252" cy="212" rx="30" ry="8" fill="#4e7459" transform="rotate(18 252 212)" opacity=".9"/><ellipse cx="319" cy="253" rx="20" ry="8" fill="#4e7459" transform="rotate(-27 319 253)" opacity=".9"/><ellipse cx="386" cy="294" rx="25" ry="8" fill="#4e7459" transform="rotate(-4 386 294)" opacity=".9"/><ellipse cx="453" cy="335" rx="30" ry="8" fill="#4e7459" transform="rotate(19 453 335)" opacity=".9"/><ellipse cx="520" cy="376" rx="20" ry="8" fill="#4e7459" transform="rotate(-26 520 376)" opacity=".9"/><ellipse cx="587" cy="417" rx="25" ry="8" fill="#4e7459" transform="rotate(-3 587 417)" opacity=".9"/><ellipse cx="249" cy="458" rx="30" ry="8" fill="#4e7459" transform="rotate(20 249 458)" opacity=".9"/><ellipse cx="316" cy="249" rx="20" ry="8" fill="#4e7459" transform="rotate(-25 316 249)" opacity=".9"/></g>
  <g opacity=".95">
    <circle cx="573" cy="272" r="22" fill="#d9aa56"/>
    <path d="M573 251a22 22 0 0 1 0 44" fill="#fff3b0" opacity=".72"/>
  </g>
</svg>