<svg xmlns="http://www.w3.org/2000/svg" viewBox="0 0 900 675" role="img" aria-label="walleye fillets with kosher for Passover sides">
  <defs>
    <radialGradient id="plate-glow" cx="50%" cy="46%" r="62%">
      <stop offset="0" stop-color="#fffdf4"/>
      <stop offset="1" stop-color="#fff8ea"/>
    </radialGradient>
    <linearGradient id="table" x1="0" y1="0" x2="1" y2="1">
      <stop offset="0" stop-color="#f3eee2"/>
      <stop offset="1" stop-color="#d8c7ab"/>
    </linearGradient>
    <filter id="soft-shadow" x="-25%" y="-25%" width="150%" height="150%">
      <feDropShadow dx="0" dy="14" stdDeviation="15" flood-color="#253a35" flood-opacity=".28"/>
    </filter>
    <filter id="grain">
      <feTurbulence type="fractalNoise" baseFrequency=".85" numOctaves="2" seed="485" result="noise"/>
      <feColorMatrix type="saturate" values=".12"/>
      <feComponentTransfer>
        <feFuncA type="table" tableValues="0 .12"/>
      </feComponentTransfer>
      <feBlend mode="multiply" in2="SourceGraphic"/>
    </filter>
  </defs>
  <rect width="900" height="675" fill="url(#table)"/>
  <rect width="900" height="675" filter="url(#grain)" opacity=".34"/>
  <ellipse cx="450" cy="365" rx="332" ry="222" fill="#5d4b3c" opacity=".12"/>
  <ellipse cx="450" cy="350" rx="318" ry="214" fill="url(#plate-glow)"/>
  <ellipse cx="450" cy="350" rx="260" ry="164" fill="#f6ead4"/>
  <g><circle cx="323" cy="395" r="6" fill="#f4e6bd" opacity=".82"/><circle cx="364" cy="424" r="7" fill="#ead8ab" opacity=".82"/><circle cx="405" cy="453" r="8" fill="#ead8ab" opacity=".82"/><circle cx="446" cy="297" r="9" fill="#f4e6bd" opacity=".82"/><circle cx="487" cy="326" r="10" fill="#ead8ab" opacity=".82"/><circle cx="528" cy="355" r="4" fill="#ead8ab" opacity=".82"/><circle cx="569" cy="384" r="5" fill="#f4e6bd" opacity=".82"/><circle cx="610" cy="413" r="6" fill="#ead8ab" opacity=".82"/><circle cx="651" cy="442" r="7" fill="#ead8ab" opacity=".82"/><circle cx="282" cy="286" r="8" fill="#f4e6bd" opacity=".82"/><circle cx="323" cy="315" r="9" fill="#ead8ab" opacity=".82"/><circle cx="364" cy="344" r="10" fill="#ead8ab" opacity=".82"/><circle cx="405" cy="373" r="4" fill="#f4e6bd" opacity=".82"/><circle cx="446" cy="402" r="5" fill="#ead8ab" opacity=".82"/><circle cx="487" cy="431" r="6" fill="#ead8ab" opacity=".82"/><circle cx="528" cy="460" r="7" fill="#f4e6bd" opacity=".82"/><circle cx="569" cy="304" r="8" fill="#ead8ab" opacity=".82"/><circle cx="610" cy="333" r="9" fill="#ead8ab" opacity=".82"/><circle cx="651" cy="362" r="10" fill="#f4e6bd" opacity=".82"/><circle cx="282" cy="391" r="4" fill="#ead8ab" opacity=".82"/><circle cx="323" cy="420" r="5" fill="#ead8ab" opacity=".82"/><circle cx="364" cy="449" r="6" fill="#f4e6bd" opacity=".82"/><circle cx="405" cy="293" r="7" fill="#ead8ab" opacity=".82"/><circle cx="446" cy="322" r="8" fill="#ead8ab" opacity=".82"/><circle cx="487" cy="351" r="9" fill="#f4e6bd" opacity=".82"/><circle cx="528" cy="380" r="10" fill="#ead8ab" opacity=".82"/><circle cx="569" cy="409" r="4" fill="#ead8ab" opacity=".82"/><circle cx="610" cy="438" r="5" fill="#f4e6bd" opacity=".82"/><circle cx="651" cy="282" r="6" fill="#ead8ab" opacity=".82"/><circle cx="282" cy="311" r="7" fill="#ead8ab" opacity=".82"/><circle cx="323" cy="340" r="8" fill="#f4e6bd" opacity=".82"/><circle cx="364" cy="369" r="9" fill="#ead8ab" opacity=".82"/><circle cx="405" cy="398" r="10" fill="#ead8ab" opacity=".82"/><circle cx="446" cy="427" r="4" fill="#f4e6bd" opacity=".82"/><circle cx="487" cy="456" r="5" fill="#ead8ab" opacity=".82"/><circle cx="528" cy="300" r="6" fill="#ead8ab" opacity=".82"/><circle cx="569" cy="329" r="7" fill="#f4e6bd" opacity=".82"/><circle cx="610" cy="358" r="8" fill="#ead8ab" opacity=".82"/><circle cx="651" cy="387" r="9" fill="#ead8ab" opacity=".82"/><circle cx="282" cy="416" r="10" fill="#f4e6bd" opacity=".82"/><circle cx="323" cy="445" r="4" fill="#ead8ab" opacity=".82"/><circle cx="364" cy="289" r="5" fill="#ead8ab" opacity=".82"/><circle cx="405" cy="318" r="6" fill="#f4e6bd" opacity=".82"/><circle cx="446" cy="347" r="7" fill="#ead8ab" opacity=".82"/></g>
  
  <g filter="url(#soft-shadow)">
    <path d="M260 318c88-78 262-90 378-28 38 20 46 66 12 95-98 84-300 94-415 20-39-25-31-59 25-87z" fill="#f6efe4"/>
    <path d="M280 329c83 40 227 40 336 4" fill="none" stroke="#d7b98a" stroke-width="12" stroke-linecap="round" opacity=".45"/>
    <path d="M308 377c88 34 205 31 300-8" fill="none" stroke="#fffaf1" stroke-width="9" stroke-linecap="round" opacity=".65"/>
    <circle cx="537" cy="305" r="16" fill="#f1c85d" opacity=".95"/>
  </g>
  <g><rect x="385" y="395" width="58" height="14" rx="7" fill="#dc8543" transform="rotate(-26 385 395)" opacity=".82"/><rect x="456" y="448" width="58" height="14" rx="7" fill="#dc8543" transform="rotate(-11 456 448)" opacity=".82"/><rect x="527" y="321" width="58" height="14" rx="7" fill="#dc8543" transform="rotate(4 527 321)" opacity=".82"/><rect x="598" y="374" width="58" height="14" rx="7" fill="#dc8543" transform="rotate(19 598 374)" opacity=".82"/><rect x="299" y="427" width="58" height="14" rx="7" fill="#dc8543" transform="rotate(34 299 427)" opacity=".82"/><rect x="370" y="300" width="58" height="14" rx="7" fill="#dc8543" transform="rotate(-26 370 300)" opacity=".82"/><rect x="441" y="353" width="58" height="14" rx="7" fill="#dc8543" transform="rotate(-11 441 353)" opacity=".82"/><ellipse cx="420" cy="430" rx="31" ry="11" fill="#7aa36d" transform="rotate(-24 420 430)" opacity=".75"/><ellipse cx="481" cy="307" rx="31" ry="11" fill="#7aa36d" transform="rotate(-6 481 307)" opacity=".75"/><ellipse cx="542" cy="354" rx="31" ry="11" fill="#7aa36d" transform="rotate(12 542 354)" opacity=".75"/><ellipse cx="603" cy="401" rx="31" ry="11" fill="#7aa36d" transform="rotate(30 603 401)" opacity=".75"/><ellipse cx="314" cy="448" rx="31" ry="11" fill="#7aa36d" transform="rotate(-24 314 448)" opacity=".75"/><ellipse cx="375" cy="325" rx="31" ry="11" fill="#7aa36d" transform="rotate(-6 375 325)" opacity=".75"/><ellipse cx="325" cy="445" rx="20" ry="8" fill="#45745c" transform="rotate(-25 325 445)" opacity=".9"/><ellipse cx="392" cy="236" rx="25" ry="8" fill="#45745c" transform="rotate(-2 392 236)" opacity=".9"/><ellipse cx="459" cy="277" rx="30" ry="8" fill="#45745c" transform="rotate(21 459 277)" opacity=".9"/><ellipse cx="526" cy="318" rx="20" ry="8" fill="#45745c" transform="rotate(-24 526 318)" opacity=".9"/><ellipse cx="593" cy="359" rx="25" ry="8" fill="#45745c" transform="rotate(-1 593 359)" opacity=".9"/><ellipse cx="255" cy="400" rx="30" ry="8" fill="#45745c" transform="rotate(22 255 400)" opacity=".9"/><ellipse cx="322" cy="441" rx="20" ry="8" fill="#45745c" transform="rotate(-23 322 441)" opacity=".9"/><ellipse cx="389" cy="232" rx="25" ry="8" fill="#45745c" transform="rotate(0 389 232)" opacity=".9"/><ellipse cx="456" cy="273" rx="30" ry="8" fill="#45745c" transform="rotate(23 456 273)" opacity=".9"/><ellipse cx="523" cy="314" rx="20" ry="8" fill="#45745c" transform="rotate(-22 523 314)" opacity=".9"/><ellipse cx="590" cy="355" rx="25" ry="8" fill="#45745c" transform="rotate(1 590 355)" opacity=".9"/><ellipse cx="252" cy="396" rx="30" ry="8" fill="#45745c" transform="rotate(24 252 396)" opacity=".9"/><ellipse cx="319" cy="437" rx="20" ry="8" fill="#45745c" transform="rotate(-21 319 437)" opacity=".9"/></g>
  <g opacity=".95">
    <circle cx="605" cy="240" r="22" fill="#f1c85d"/>
    <path d="M605 219a22 22 0 0 1 0 44" fill="#fff3b0" opacity=".72"/>
  </g>
</svg>