<svg xmlns="http://www.w3.org/2000/svg" viewBox="0 0 900 675" role="img" aria-label="walleye fillets with kosher for Passover sides">
  <defs>
    <radialGradient id="plate-glow" cx="50%" cy="46%" r="62%">
      <stop offset="0" stop-color="#fffdf4"/>
      <stop offset="1" stop-color="#fff8ea"/>
    </radialGradient>
    <linearGradient id="table" x1="0" y1="0" x2="1" y2="1">
      <stop offset="0" stop-color="#f3eee2"/>
      <stop offset="1" stop-color="#d8c7ab"/>
    </linearGradient>
    <filter id="soft-shadow" x="-25%" y="-25%" width="150%" height="150%">
      <feDropShadow dx="0" dy="14" stdDeviation="15" flood-color="#253a35" flood-opacity=".28"/>
    </filter>
    <filter id="grain">
      <feTurbulence type="fractalNoise" baseFrequency=".85" numOctaves="2" seed="970" result="noise"/>
      <feColorMatrix type="saturate" values=".12"/>
      <feComponentTransfer>
        <feFuncA type="table" tableValues="0 .12"/>
      </feComponentTransfer>
      <feBlend mode="multiply" in2="SourceGraphic"/>
    </filter>
  </defs>
  <rect width="900" height="675" fill="url(#table)"/>
  <rect width="900" height="675" filter="url(#grain)" opacity=".34"/>
  <ellipse cx="450" cy="365" rx="332" ry="222" fill="#5d4b3c" opacity=".12"/>
  <ellipse cx="450" cy="350" rx="318" ry="214" fill="url(#plate-glow)"/>
  <ellipse cx="450" cy="350" rx="260" ry="164" fill="#f6ead4"/>
  <g><circle cx="398" cy="325" r="8" fill="#f4e6bd" opacity=".82"/><circle cx="439" cy="354" r="9" fill="#ead8ab" opacity=".82"/><circle cx="480" cy="383" r="10" fill="#ead8ab" opacity=".82"/><circle cx="521" cy="412" r="4" fill="#f4e6bd" opacity=".82"/><circle cx="562" cy="441" r="5" fill="#ead8ab" opacity=".82"/><circle cx="603" cy="285" r="6" fill="#ead8ab" opacity=".82"/><circle cx="644" cy="314" r="7" fill="#f4e6bd" opacity=".82"/><circle cx="275" cy="343" r="8" fill="#ead8ab" opacity=".82"/><circle cx="316" cy="372" r="9" fill="#ead8ab" opacity=".82"/><circle cx="357" cy="401" r="10" fill="#f4e6bd" opacity=".82"/><circle cx="398" cy="430" r="4" fill="#ead8ab" opacity=".82"/><circle cx="439" cy="459" r="5" fill="#ead8ab" opacity=".82"/><circle cx="480" cy="303" r="6" fill="#f4e6bd" opacity=".82"/><circle cx="521" cy="332" r="7" fill="#ead8ab" opacity=".82"/><circle cx="562" cy="361" r="8" fill="#ead8ab" opacity=".82"/><circle cx="603" cy="390" r="9" fill="#f4e6bd" opacity=".82"/><circle cx="644" cy="419" r="10" fill="#ead8ab" opacity=".82"/><circle cx="275" cy="448" r="4" fill="#ead8ab" opacity=".82"/><circle cx="316" cy="292" r="5" fill="#f4e6bd" opacity=".82"/><circle cx="357" cy="321" r="6" fill="#ead8ab" opacity=".82"/><circle cx="398" cy="350" r="7" fill="#ead8ab" opacity=".82"/><circle cx="439" cy="379" r="8" fill="#f4e6bd" opacity=".82"/><circle cx="480" cy="408" r="9" fill="#ead8ab" opacity=".82"/><circle cx="521" cy="437" r="10" fill="#ead8ab" opacity=".82"/><circle cx="562" cy="281" r="4" fill="#f4e6bd" opacity=".82"/><circle cx="603" cy="310" r="5" fill="#ead8ab" opacity=".82"/><circle cx="644" cy="339" r="6" fill="#ead8ab" opacity=".82"/><circle cx="275" cy="368" r="7" fill="#f4e6bd" opacity=".82"/><circle cx="316" cy="397" r="8" fill="#ead8ab" opacity=".82"/><circle cx="357" cy="426" r="9" fill="#ead8ab" opacity=".82"/><circle cx="398" cy="455" r="10" fill="#f4e6bd" opacity=".82"/><circle cx="439" cy="299" r="4" fill="#ead8ab" opacity=".82"/><circle cx="480" cy="328" r="5" fill="#ead8ab" opacity=".82"/><circle cx="521" cy="357" r="6" fill="#f4e6bd" opacity=".82"/><circle cx="562" cy="386" r="7" fill="#ead8ab" opacity=".82"/><circle cx="603" cy="415" r="8" fill="#ead8ab" opacity=".82"/><circle cx="644" cy="444" r="9" fill="#f4e6bd" opacity=".82"/><circle cx="275" cy="288" r="10" fill="#ead8ab" opacity=".82"/><circle cx="316" cy="317" r="4" fill="#ead8ab" opacity=".82"/><circle cx="357" cy="346" r="5" fill="#f4e6bd" opacity=".82"/><circle cx="398" cy="375" r="6" fill="#ead8ab" opacity=".82"/><circle cx="439" cy="404" r="7" fill="#ead8ab" opacity=".82"/><circle cx="480" cy="433" r="8" fill="#f4e6bd" opacity=".82"/><circle cx="521" cy="462" r="9" fill="#ead8ab" opacity=".82"/></g>
  
  <g filter="url(#soft-shadow)">
    <path d="M260 318c88-78 262-90 378-28 38 20 46 66 12 95-98 84-300 94-415 20-39-25-31-59 25-87z" fill="#f6efe4"/>
    <path d="M280 329c83 40 227 40 336 4" fill="none" stroke="#d7b98a" stroke-width="12" stroke-linecap="round" opacity=".45"/>
    <path d="M308 377c88 34 205 31 300-8" fill="none" stroke="#fffaf1" stroke-width="9" stroke-linecap="round" opacity=".65"/>
    <circle cx="554" cy="310" r="16" fill="#f1c85d" opacity=".95"/>
  </g>
  <g><rect x="500" y="340" width="58" height="14" rx="7" fill="#dc8543" transform="rotate(-26 500 340)" opacity=".82"/><rect x="571" y="393" width="58" height="14" rx="7" fill="#dc8543" transform="rotate(-11 571 393)" opacity=".82"/><rect x="272" y="446" width="58" height="14" rx="7" fill="#dc8543" transform="rotate(4 272 446)" opacity=".82"/><rect x="343" y="319" width="58" height="14" rx="7" fill="#dc8543" transform="rotate(19 343 319)" opacity=".82"/><rect x="414" y="372" width="58" height="14" rx="7" fill="#dc8543" transform="rotate(34 414 372)" opacity=".82"/><rect x="485" y="425" width="58" height="14" rx="7" fill="#dc8543" transform="rotate(-26 485 425)" opacity=".82"/><rect x="556" y="298" width="58" height="14" rx="7" fill="#dc8543" transform="rotate(-11 556 298)" opacity=".82"/><ellipse cx="555" cy="405" rx="31" ry="11" fill="#7aa36d" transform="rotate(-24 555 405)" opacity=".75"/><ellipse cx="616" cy="452" rx="31" ry="11" fill="#7aa36d" transform="rotate(-6 616 452)" opacity=".75"/><ellipse cx="327" cy="329" rx="31" ry="11" fill="#7aa36d" transform="rotate(12 327 329)" opacity=".75"/><ellipse cx="388" cy="376" rx="31" ry="11" fill="#7aa36d" transform="rotate(30 388 376)" opacity=".75"/><ellipse cx="449" cy="423" rx="31" ry="11" fill="#7aa36d" transform="rotate(-24 449 423)" opacity=".75"/><ellipse cx="510" cy="300" rx="31" ry="11" fill="#7aa36d" transform="rotate(-6 510 300)" opacity=".75"/><ellipse cx="405" cy="430" rx="20" ry="8" fill="#45745c" transform="rotate(-16 405 430)" opacity=".9"/><ellipse cx="472" cy="221" rx="25" ry="8" fill="#45745c" transform="rotate(7 472 221)" opacity=".9"/><ellipse cx="539" cy="262" rx="30" ry="8" fill="#45745c" transform="rotate(30 539 262)" opacity=".9"/><ellipse cx="606" cy="303" rx="20" ry="8" fill="#45745c" transform="rotate(-15 606 303)" opacity=".9"/><ellipse cx="268" cy="344" rx="25" ry="8" fill="#45745c" transform="rotate(8 268 344)" opacity=".9"/><ellipse cx="335" cy="385" rx="30" ry="8" fill="#45745c" transform="rotate(31 335 385)" opacity=".9"/><ellipse cx="402" cy="426" rx="20" ry="8" fill="#45745c" transform="rotate(-14 402 426)" opacity=".9"/><ellipse cx="469" cy="217" rx="25" ry="8" fill="#45745c" transform="rotate(9 469 217)" opacity=".9"/><ellipse cx="536" cy="258" rx="30" ry="8" fill="#45745c" transform="rotate(32 536 258)" opacity=".9"/><ellipse cx="603" cy="299" rx="20" ry="8" fill="#45745c" transform="rotate(-13 603 299)" opacity=".9"/><ellipse cx="265" cy="340" rx="25" ry="8" fill="#45745c" transform="rotate(10 265 340)" opacity=".9"/><ellipse cx="332" cy="381" rx="30" ry="8" fill="#45745c" transform="rotate(33 332 381)" opacity=".9"/><ellipse cx="399" cy="422" rx="20" ry="8" fill="#45745c" transform="rotate(-12 399 422)" opacity=".9"/></g>
  <g opacity=".95">
    <circle cx="600" cy="245" r="22" fill="#f1c85d"/>
    <path d="M600 224a22 22 0 0 1 0 44" fill="#fff3b0" opacity=".72"/>
  </g>
</svg>